<?xml version="1.0" encoding="utf-8"?>
<!-- Generator: Adobe Illustrator 27.8.1, SVG Export Plug-In . SVG Version: 6.00 Build 0)  -->
<svg version="1.1" xmlns="http://www.w3.org/2000/svg" xmlns:xlink="http://www.w3.org/1999/xlink" x="0px" y="0px"
	 viewBox="0 0 817.8 613.2" style="enable-background:new 0 0 817.8 613.2;" xml:space="preserve">
<style type="text/css">
	.st0{fill:#FFFFFF;}
	.st1{fill:#e190e1;stroke:#BFE6D8;stroke-miterlimit:10;}
	.st2{fill:#e190e1;stroke:#91CDA1;stroke-miterlimit:10;}
	.st3{fill:#e190e1;}
</style>
<g id="Background">
</g>
<g id="Graphic_Element">
	<g>
		<g>
			<path class="st0" d="M82.4,609.8c-2.3,1.1-5-0.8-4.9-3.6c0-2.1,0.5-4.1,0.4-6.1c-0.2-4.3-0.7-8.5-1-12.7
				c-0.3-4.3-0.4-8.5-0.6-12.8c-0.2-3.7-0.4-7.4-0.5-11.2c-0.2-5.8-0.3-11.6-0.5-17.4c-0.1-5.8-0.3-11.5-0.3-17.3
				c0-5.1,0.2-10.1,0.2-15.2c0-4.4-0.3-8.9-0.3-13.3c0-3.7,0.3-7.4,0.4-11.1c0.1-2.1,0.1-4.2-0.1-6.3c-0.5-6.4-1.1-12.7-1.6-19.1
				c-0.4-5.7-0.6-11.5-0.9-17.2c-0.2-4.2-0.4-8.4-0.6-12.6c0-0.5,0.3-1.1,0.6-1.6c0.7-1.4,1.4-2.7,1.8-3.6
				c5.5-0.5,10.8-1.1,16.1-1.6c6.2-0.6,12.4-1.3,18.6-1.6c4.6-0.3,9.3,0,14-0.1c2.4,0,4.8-0.3,7.2-0.5c7.5-0.8,15.1-1.6,22.6-2.5
				c3-0.4,6-1.3,9.1-1.4c3.2-0.1,6.4,0.5,9.6,0.7c1.2,0.1,2.3,0,3.5,0c2.7,0,5.4,0,8.1,0c3.1,0,6.2-0.1,9.3-0.2
				c4-0.1,8-0.2,11.9-0.4c4.4-0.3,8.9-0.8,13.3-1c5.3-0.3,10.7-0.2,16-0.5c3.7-0.2,7.4-0.8,11.1-1.1c3.8-0.3,7.6-0.3,11.3-0.5
				c5.2-0.2,10.4-0.6,15.6-0.8c4.7-0.1,9.5,0,14.2,0c0.4,0,0.9,0,1.3,0c7.4-0.9,14.9-1.7,22.3,0.4c0.4,0.1,1,0.4,1.2,0.2
				c2.4-1.5,3.9,0.5,4.9,1.8c1.1,1.5,1.6,3.7,1.8,5.6c0.5,8.7,0.7,17.5,1.1,26.3c0.2,4.7,0.7,9.5,0.9,14.2
				c0.3,6.2,0.4,12.3,0.6,18.5c0.1,3.9-0.1,7.8,0,11.8c0.1,3.6,0.7,7.2,0.8,10.8c0.1,2.9-0.2,5.9-0.2,8.8c-0.1,2.3,0,4.7,0,7
				c0,7.3-0.1,14.7,0.1,22c0.1,4.7,0.9,9.4,1.1,14.1c0.2,3.8,0.1,7.6,0.2,11.5c0.1,4.9,0.5,9.9,0.5,14.8c0,2.3-0.6,4.5-0.7,6.8
				c0,0.5,0.6,1.1,1.1,1.6c0.4,0.5,1.3,0.9,1.4,1.3c0.1,2.8,0.7,5.9-0.3,8.2c-0.9,1.9-3.7,3.5-5.9,3.9c-2.8,0.5-5.7,0.9-8.8,0.3
				c-3-0.6-6.3,0.2-9.4,0.3c-2,0.1-4-0.1-6-0.1c-1.6,0-3.2,0.4-4.8,0.4c-3.3,0-6.5-0.1-9.8-0.1c-2.5,0-5,0.2-7.4,0
				c-2.7-0.1-5.3-0.6-8-0.9c-0.2,0-0.5-0.1-0.7-0.1c-5.7,1.5-11.6,0.9-17.4,1c-8.2,0.1-16.5-0.1-24.7,0.3
				c-9.1,0.4-18.2,1.3-27.3,1.9c-6,0.4-12,0.4-18,0.8c-6.3,0.4-12.6,1.1-18.9,1.4c-3.9,0.2-7.7-0.4-11.6-0.3
				c-5.9,0.1-11.8,0.6-17.7,0.8c-6.6,0.2-13.2,0.2-19.8,0.4c-6.1,0.2-12.1,0.5-18.2,0.6C86.6,613.2,83.9,612.6,82.4,609.8z
				 M316.6,597.1c0.5-4.1,0.5-4.1-0.9-8.2c-0.2-0.5-0.2-1-0.2-1.5c-0.1-6.5-0.3-13.1-0.4-19.6c0-2.4,0.4-4.8,0.3-7.1
				c-0.3-6.7-0.8-13.4-1.1-20c-0.2-3.8-0.1-7.7-0.2-11.6c-0.1-3.6-0.5-7.3-0.6-10.9c-0.1-3.9,0.2-7.7,0.1-11.6
				c-0.1-3.3-0.7-6.5-0.9-9.8c-0.2-3.6-0.1-7.2-0.3-10.7c-0.2-4.9-0.6-9.8-0.8-14.8c-0.1-3,0.2-6,0.2-9c-0.1-4.5-0.4-8.9-0.5-13.4
				c-0.1-2.5,0-5.1,0-7.7c-0.1-4.9-0.4-9.9-0.3-14.8c0-3.9-0.7-4.5-4.7-4.2c-4.3,0.4-8.6,0.4-13,0.6c-3.8,0.1-7.6,0-11.3,0.4
				c-3.2,0.3-6.4,1.3-9.6,1.7c-2.9,0.4-5.8,0.3-8.6,0.5c-8.6,0.5-17.3,1-25.9,1.5c-5.5,0.3-11.1-0.2-16.4,0.7
				c-8.8,1.4-17.7,1.4-26.6,1.6c-4.4,0.1-8.8,0.4-13.2,0.4c-4.9,0-9.8-0.4-14.7-0.3c-3.3,0-6.7,0.2-9.9,0.7
				c-8.6,1.4-17.2,2.7-26,1.9c-2.7-0.2-5.4-0.7-8.1-0.5c-8.4,0.8-16.7,1.8-25,2.7c-5.3,0.6-10.6,1-15.9,1.6
				c-0.7,0.1-1.7,1.1-1.7,1.7c-0.1,4.1-0.1,8.2,0,12.4c0.2,6.1,0.7,12.1,1,18.2c0.1,2.7-0.1,5.4,0,8.1c0.1,3.7,0.5,7.4,0.5,11.1
				c0,4.9-0.5,9.9-0.5,14.8c0,5.9,0.1,11.7,0.3,17.6c0.2,8.5,0.6,16.9,0.7,25.4c0.1,5-0.4,9.9-0.2,14.9c0.3,7.6,0.8,15.1,1.4,22.7
				c0.6,7.6,1.3,15.2,2,23.2c2-0.1,3.8-0.4,5.6-0.4c5.3,0.2,10.7,0.6,16,0.8c7.8,0.3,15.6,0.4,23.4,0.5c2.5,0,5-0.4,7.5-0.6
				c4.6-0.4,9.3-0.9,13.9-1.3c2.2-0.2,4.5-0.2,6.8-0.3c4.6-0.3,9.1-0.6,13.7-0.9c2.3-0.1,4.7,0,7-0.2c4.1-0.4,8.2-1.1,12.4-1.3
				c5.3-0.3,10.7-0.2,16-0.4c8.1-0.2,16.2-0.6,24.2-0.8c5.1-0.1,10.2,0.1,15.3,0c6.5-0.1,13-0.2,19.4-0.6c7.5-0.4,15-1.2,22.5-1.6
				C298.1,598.1,307.3,597.6,316.6,597.1z"/>
			<path class="st0" d="M219.1,462.1c1-0.5,2.2-1.6,3-1.3c1.9,0.7,3.7,1.9,5.5,2.9c-0.6,0.9-1,1.9-1.7,2.5c-0.5,0.4-1.5,0.3-2.5,0.6
				c1.7,2,3.3,3.7,4.8,5.5c4.7,5.9,7.8,12.6,10.2,19.7c2.9,9,3.2,18.2,1.7,27.3c-0.8,5.2-2.6,10.4-4.3,15.4
				c-1.5,4.3-3.1,8.5-5.4,12.4c-2.9,5-6.4,9.8-11.4,13.2c-3.7,2.5-7.1,5.3-11,8.2c1.1,0.5,1.6,0.9,2.2,1c2,0.3,1.8,1.8,1.3,3
				c-0.3,0.7-1.7,1.7-2.3,1.5c-2.3-0.6-4.6-1.6-6.9-2.4c-0.6-0.2-1.3-0.3-1.9-0.2c-8.8,0.7-17.6,1.1-26.2-0.6
				c-9.3-1.8-18.6-4.5-26.6-9.8c-5-3.2-9.4-7.4-13.8-11.3c-4.6-4.1-8.1-9.2-10.6-14.6c-2.4-5-4.5-10.2-4.5-16
				c0-3.8-0.8-7.7-0.6-11.5c0.2-4.2,0.8-8.5,1.9-12.6c1.2-4.4,2.9-8.8,4.8-13c1.5-3.1,3.5-6,5.7-8.7c3-3.6,6.2-7.2,9.8-10.3
				c3-2.5,6.6-4.4,10.1-6.3c5.2-2.8,10.6-4.9,16.4-5.9c2.9-0.5,5.8-0.7,8.7-1.2c1.1-0.2,2.2-0.9,3.4-1.1c4.8-1.1,9.3,0.5,13.9,1.5
				c6.5,1.5,12.7,3.7,18.4,7.2c2.7,1.7,5.3,3.6,8,5.5C219,462.5,219.1,462.3,219.1,462.1z M126.1,502.1c0.2,0,0.4,0.1,0.5,0.1
				c5.5-6.1,10.9-12.1,16.4-18.2c4.2-4.7,8.4-9.4,12.5-14.2c1.7-2,3.3-4.2,5.1-6.1c0.4-0.5,1.8-0.7,2.3-0.4c0.6,0.4,1.4,1.2,0.1,2.4
				c-2.3,2.1-4.1,4.7-6.2,7.1c-4.6,5.2-9.2,10.4-13.8,15.7c-5.3,6-10.5,12.1-15.7,18.2c-0.8,1-1.8,2.2-1.8,3.3
				c0.1,5.6-0.4,11.4,1,16.8c1.2,4.7,4.3,9,7,13.3c3.4,5.4,8.1,9.9,13.6,13c5.5,3.2,11.4,5.9,17.4,8c3.9,1.4,8.3,1.8,12.5,2.2
				c6.7,0.7,13.1-1,19.7-2c1.6-0.2,3.3-0.8,4.8-1.5c1.7-0.8,3.1-2.3,4.8-2.9c4-1.2,7-3.8,10-6.4c2-1.8,3.4-4.3,5.4-6.1
				c5.4-5,8-11.6,9.7-18.4c1-4.1,1.2-8.5,2.3-12.6c2.4-9.1,1.6-17.9-2.4-26.2c-3.4-7-8.1-13.3-14.1-18.4c-8.7-7.4-18.5-12.3-30-13.3
				c-1.5-0.1-2.9-0.9-4.5-1c-1.9-0.2-4-0.6-5.8-0.2c-4,1.1-7.8,2.6-11.7,4c-3.5,1.2-7.2,2-10.4,3.8c-4.2,2.4-8.2,5-11.6,8.7
				c-6.3,6.8-10.7,14.5-14.4,22.7C127.5,496.4,127,499.3,126.1,502.1z"/>
			<path class="st0" d="M281.5,509.3c-0.4,0.3-1.1,1.2-1.8,1.2c-1,0-2.5-0.3-3-1.1c-1.1-1.4-2-3.2-2.5-4.9c-0.8-2.8-1.5-5.6-1.9-8.5
				c-0.3-2.4,0.8-2.6,3-2.6c4.5,0.1,3.9,3.9,4.7,6.4C280.9,502.7,281,505.8,281.5,509.3z"/>
			<path class="st0" d="M237.2,467.4c1.5-2.7,4.1-2.3,6.5-1.6c2.8,0.8,5.4,2.2,8.2,3.3c2.3,0.9,2.1,3,1.7,4.6
				c-0.5,1.8-2.1,1.2-3.6,0.6c-3.3-1.3-6.8-2.3-10.1-3.8C238.7,469.9,238,468.5,237.2,467.4z"/>
			<path class="st0" d="M265.8,560.6c-2.2,0-3.9-2.6-3.1-4.2c1.8-3.2,3.5-6.5,5.6-9.5c0.7-1,2.9-1.7,4-1.3c1.4,0.5,1.4,2.1,0.7,3.9
				c-1.5,3.6-3.1,7-5.8,9.8C266.7,559.9,266.1,560.3,265.8,560.6z"/>
			<path class="st0" d="M273.4,536.4c0.1-1,0-2,0.2-2.9c0.8-3.4,1.9-6.7,2.6-10.1c0.3-1.6,1.3-2.2,2.5-1.8c0.9,0.3,2.1,1.5,2.1,2.3
				c0,2.7-0.2,5.5-0.8,8.1C279.4,535.1,276.7,536.8,273.4,536.4z"/>
			<path class="st0" d="M243.8,569.4c0.1-0.2,0.3-0.9,0.8-1.1c2.4-1.3,4.9-2.5,7.3-3.7c0.5-0.2,0.9-0.6,1.4-0.8
				c1-0.3,2.1-0.4,3.1-0.6c0.1,1.4,0.9,3.5,0.3,4.1c-1.8,1.6-4.1,2.7-6.2,3.9c-0.7,0.4-1.4,0.6-2.1,1
				C245.2,574,243.9,573.4,243.8,569.4z"/>
			<path class="st0" d="M224.2,572.7c3-0.3,6-0.7,9-0.7c1.1,0,2.3,1.2,3.4,1.9c-0.7,0.9-1.2,2.4-2,2.5c-3.2,0.6-6.4,0.8-9.6,1
				c-0.7,0-1.7-0.3-2.1-0.8c-0.8-1-1.3-2.2-1.9-3.4c1-0.5,2-1,3-1.4C224,572.1,224.1,572.4,224.2,572.7z"/>
			<path class="st0" d="M259.6,477.7c3.4-2.8,4.4-2.8,7.2-0.1c1.3,1.3,2.8,2.6,3.7,4.2c0.6,1,0.5,2.6,0.2,3.8
				c-0.4,1.5-1.5,1.4-2.6,0.5c-2.2-1.8-4.5-3.6-6.7-5.5C260.7,479.8,260.2,478.7,259.6,477.7z"/>
			<path class="st0" d="M150.9,553.4c4.8-6.1,9.4-12,14-17.9c3.2-4,6.2-8.1,9.5-12c4.2-5.1,8.6-10.2,12.9-15.3
				c3.2-3.7,6.8-7,9.8-10.8c2.7-3.3,4.9-7,7.3-10.4c0.6-0.9,1.5-1.6,2.3-2.1c0.3-0.2,1.3,0.3,1.7,0.7c0.3,0.3,0.4,1.2,0.2,1.5
				c-2.7,4.2-5.2,8.6-8.4,12.5c-7.9,9.6-16.2,18.9-24.3,28.4c-6.3,7.4-12.4,15-18.6,22.6c-0.7,0.9-1.5,1.7-2,2.6
				C154.3,555.6,152.9,554.8,150.9,553.4z"/>
			<path class="st0" d="M140.6,539.3c1.8-2.5,3.5-5,5.3-7.5c3.2-4.2,6.2-8.5,9.7-12.6c5.1-6,10.5-11.9,15.8-17.7
				c5.9-6.6,12-13,17.9-19.6c2.2-2.4,4.1-5.1,6.3-7.6c0.5-0.5,1.7-0.7,2.5-0.5c0.3,0.1,0.8,1.3,0.6,1.9c-0.2,0.9-0.8,1.8-1.4,2.4
				c-4.2,4.5-8.5,8.9-12.6,13.5c-1.7,1.8-3.2,3.8-4.8,5.7c-1.5,1.7-3.1,3.4-4.6,5.1c-4.1,4.6-8.1,9.2-12.2,13.7
				c-2.9,3.3-6,6.4-8.8,9.8c-3.4,4.2-6.7,8.5-9.7,12.9C143.3,540.6,142.3,540.4,140.6,539.3z"/>
			<path class="st0" d="M130.8,524.4c3.5-4.6,6.9-9.3,10.5-13.8c4.6-5.8,9.3-11.6,14.2-17.2c3.7-4.3,7.7-8.4,11.6-12.6
				c4.2-4.5,8.5-8.9,12.6-13.5c0.5-0.6,0.5-1.6,0.8-2.3c0.5-1,0.9-2.3,1.7-2.9c0.4-0.3,2.1,0.2,2.5,0.8c0.5,0.7,0.7,2.2,0.2,2.8
				c-1.5,2.2-3.3,4.3-5.2,6.3c-7.8,8.4-15.7,16.6-23.4,25.2c-5.4,6.1-10.4,12.5-15.5,18.8c-2.2,2.7-4.2,5.6-6.1,8.5
				C133.7,526.5,132.7,526.6,130.8,524.4z"/>
			<path class="st0" d="M213.9,503.5c0.9,0.5,1.8,0.8,1.9,1.2c0.2,0.5-0.1,1.4-0.5,1.9c-2.6,3.1-5.2,6.2-8,9.1
				c-4.1,4.4-8.3,8.7-12.4,13.2c-4.5,4.9-8.9,10-13.3,15.1c-2.2,2.5-4.1,5.3-6.2,7.9c-1.3,1.6-2.7,3.3-4.2,4.7
				c-0.5,0.4-1.6,0.2-2.5,0.2c0.2-0.7,0.2-1.5,0.6-2c1.6-2.4,3.2-4.8,4.9-7.1c1.8-2.4,3.8-4.7,5.7-7.1c4-4.8,7.9-9.6,12-14.2
				c3.5-3.9,7.3-7.5,10.9-11.4c2.9-3,5.5-6.2,8.4-9.3C212,504.9,213,504.3,213.9,503.5z"/>
			<path class="st0" d="M184,560.3c1.8-1.8,3.4-3.2,4.8-4.7c5.6-6.3,11.3-12.6,16.7-19c1.5-1.8,2.4-4,3.7-6c0.3-0.5,1.4-1.1,1.7-0.9
				c0.7,0.4,1.8,1.4,1.6,1.8c-0.4,1.8-0.9,3.8-2,5.1c-6.5,7.4-13,14.7-19.8,21.8C189.4,559.9,187.7,562.4,184,560.3z"/>
		</g>
		<g>
			<path class="st0" d="M581.8,31.6c-0.5,6.5-0.9,13.1-1.5,19.6c-0.3,3.8-1.1,7.5-1.5,11.3c-0.5,4.9-0.9,9.7-1.2,14.6
				c-0.4,5.4-0.6,10.9-0.9,16.3c-0.2,4.4-0.4,8.8-0.8,13.1c-0.5,6-1.1,11.9-1.7,17.9c-0.5,5.9-1,11.7-1.6,17.6
				c-0.3,3.3-1,6.6-1.4,10c-0.4,4.4-0.5,8.7-0.9,13.1c-0.7,6.7-1.5,13.4-2.3,20.1c-0.2,1.5,0.1,3.3-1.7,4.1
				c-1.1,0.5-2.3,1.6-3.3,1.5c-6.4-0.5-12.7-1.3-19.1-1.8c-4.9-0.4-9.8-0.5-14.6-0.8c-7.4-0.4-14.8-0.9-22.2-1.5
				c-4.6-0.3-9.2-0.5-13.7-1c-4.8-0.5-9.6-1.4-14.5-2.1c-1.3-0.2-2.5-0.5-3.8-0.6c-3-0.3-6-0.3-8.9-0.8c-6.9-0.9-13.8-2-20.7-3
				c-5.8-0.9-11.5-1.9-17.3-2.5c-7.7-0.8-15.5-1.2-23.3-1.8c-7.9-0.6-15.9-1.2-23.8-2c-6.1-0.6-12.2-1.6-18.3-2.5
				c-1.6-0.2-5.3-3.6-5.1-5.9c0.3-4.7,0.6-9.3,1-14c0.3-3.8,0.8-7.6,1.1-11.4c0.8-8.9,1.7-17.7,2.3-26.6c0.6-8.9,1-17.8,1.4-26.8
				c0.2-5,0.3-10,0.5-15c0.3-8.2,0.5-16.5,1-24.7c0.4-6.9,1.3-13.8,1.8-20.6c0.2-2-0.4-4.1-0.3-6.2c0.3-4.6,0.8-9.2,1.2-13.8
				c0-0.6-0.1-1.3-0.4-1.9c-1-1.9-0.4-3,1.8-3.1c3.3-0.1,6.6-0.5,9.8-0.3c5,0.4,10,1.6,15,2c4.4,0.3,8.8-0.1,13.2,0
				c3.1,0,6.1,0.3,9.2,0.5c1.5,0.1,3.1,0.4,4.6,0.6c2.2,0.3,4.4,0.7,6.7,0.8c6,0.3,12.1,0.4,18.1,0.8c3.8,0.2,7.7,0.9,11.5,1.1
				c5,0.3,10.1,0.3,15.2,0.6c3.5,0.2,6.9,0.6,10.3,0.9c6.2,0.6,12.5,1.2,18.7,1.8c6.9,0.7,13.8,1.4,20.7,2.2
				c5.9,0.7,11.9,1.6,17.8,2.4c5.7,0.8,11.3,1.8,17,2.5c3.1,0.4,6.2,0.4,9.2,0.5c2.7,0.2,5.4,0.4,8.1,0.6c1.6,0.1,3.3,0.2,4.9,0.4
				c1.8,0.1,3.8,2.2,3.7,4.1c-0.2,3.3-0.5,6.6-0.8,9.9C582,31.6,581.9,31.6,581.8,31.6z M362.8,160.9c1.5,0.3,2.7,0.6,3.9,0.7
				c4.1,0.3,8.2,0.6,12.4,0.8c3.5,0.2,7.1-0.1,10.6,0.6c5.9,1.1,11.7,3,17.6,4c6.3,1.1,12.7,1.7,19.1,2.6c2.8,0.4,5.6,0.8,8.4,1.2
				c4.5,0.6,8.9,1.3,13.4,1.7c4.3,0.4,8.6,0.5,12.8,1c4.7,0.6,9.4,1.8,14.1,2.3c10.1,1.1,20.3,2,30.4,2.9c7.3,0.7,14.7,1.3,22,2.1
				c3.4,0.3,6.8,0.9,10.2,1.3c5.1,0.6,10.1,1.2,15.2,1.7c2.7,0.3,5.3,0.4,8,0.6c1.4,0.1,2.2-0.5,2.4-1.9c0.2-1.2,0.5-2.5,0.6-3.7
				c0.8-9.5,1.5-19,2.2-28.4c0-0.2-0.1-0.4-0.1-0.7c0-2.6-0.2-5.1-0.1-7.7c0.2-5.7,0.5-11.4,0.8-17c0.4-9.5,0.7-19,1.4-28.5
				c0.5-6.8,1.5-13.5,2.3-20.2c0.5-4.1,0.8-8.2,1.2-12.3c0.8-7.3,1.6-14.6,2.4-21.9c0.6-5.2,1.1-10.4,1.6-15.6
				c0.1-0.7-0.4-1.5-0.6-2.2c-0.7,0.2-1.4,0.4-2,0.7c-0.5,0.2-0.9,0.6-1.3,0.6c-2.7-0.4-5.4-1.1-8.1-1.4c-2.2-0.2-4.3-0.9-6.6-0.9
				c-5.7-0.1-11.4-1-17.1-1.6c-3.9-0.5-7.8-1.5-11.8-1.7c-5.3-0.2-10.6-1.1-15.9-1.8c-1.7-0.2-3.4-1.4-4.9-1.2
				c-5,0.6-9.6-1.1-14.4-1.6c-2.6-0.3-5.1-1-7.7-1.2c-7.5-0.7-15.1-1.1-22.7-1.7c-4.7-0.4-9.3-0.9-14-1.3
				c-6.4-0.5-12.8-0.9-19.2-1.4c-6.8-0.5-13.7-0.9-20.6-1.4c-6.5-0.5-13-1.1-19.5-1.5c-4.4-0.3-8.9-0.2-13.3-0.1
				c-0.6,0-1.7,1.1-1.7,1.7c-0.9,8.3-1.6,16.6-2.3,24.9c-0.4,4.6-0.5,9.2-0.7,13.8c-0.3,5-0.6,10.1-0.8,15.1
				c-0.2,4.6-0.4,9.2-0.7,13.7c-0.3,4-0.9,8.1-1.2,12.1c-0.6,10.4-1,20.9-1.6,31.4c-0.5,7.6-1.2,15.2-2,22.8
				c-0.3,3.1-0.8,6.2-1.2,9.3C363.6,154.6,363.2,157.8,362.8,160.9z"/>
			<path class="st0" d="M408.4,98.5c0.1,0.2,0.1,0.3,0.2,0.3c4,2.8,4,3,1.8,7.6c-0.9,1.8-1.9,3.7-2.7,5.5c-0.9,1.9-2.3,2.4-4.1,1.6
				c-3.1-1.2-6.1-2.5-9.1-3.8c-1.6-0.7-2.5-4.9-1.7-6.5c1.1-2,2.1-4.2,3.2-6.3c1.3-2.6,1.7-2.8,4.7-1.7c0.9,0.3,1.8,0.7,2.9,1.1
				c1.3-2.4,2.5-4.9,4.1-7.1c2.1-2.8,4.5-5.4,6.9-7.8c1.2-1.2,2.7-1.9,4.1-2.9c5.1-3.5,10.9-5.3,16.6-7.6c7-2.9,14.5-2.1,21.8-3.1
				c7.6-1.1,14.4,1.1,21.3,3.6c0.2,0.1,0.4,0.2,0.6,0.2c4.9,0.8,8.6,2.3,13.8,5.8c-0.2,0.6-0.5,1.2-0.7,1.8
				c21.6,16.3,27.2,43.6,17.6,64.3c0.6,0.3,1.3,0.7,1.9,0.9c2.3,0.9,2.2,2.6,1.6,4.5c-0.8,2.6-1.4,5.2-2.3,7.8
				c-0.2,0.7-1.1,1.6-1.8,1.7c-1.5,0.2-3.2,0.4-4.5-0.1c-3.3-1.4-7.4-0.4-10.1-3.3c-0.6-0.6-1.1-1.8-0.9-2.5
				c0.8-3.4,1.8-6.7,2.7-10.1c0.2-0.6,0.5-1.2,0.9-1.8c1.8-2.7,2.1-2.7,4.2-0.1c0.5,0.5,1.4,0.7,2.1,1c0.7,0.3,1.5,0.6,1.9,0.8
				c0.2-1.4,0.4-2.8,0.7-4.1c1-4.7,2.8-9.2,2.7-14.2c-0.1-4.2,0.2-8.5-1-12.5c-1.2-4.2-2.7-8.4-4.7-12.4c-1.6-3.2-3.6-6.3-6.1-8.8
				c-3.7-3.7-7.9-6.9-12.2-9.9c-4.3-3-9.2-5.1-14.3-6c-3.6-0.7-7.3-0.5-11-0.6c-2.5-0.1-5,0-7.5-0.1c-6.6-0.2-12.6,2-18.6,4.4
				c-5.2,2-9.8,4.7-14,8.2c-0.9,0.7-1.6,1.7-2.4,2.5C414,92,411.2,95.3,408.4,98.5z M499.9,144.4c-0.8,2.7-1.5,5.2-2.4,8.2
				c3.4,0.6,6.5,1.1,9.9,1.7c0.6-1.9,1.3-3.7,1.8-5.6c0.1-0.4-0.4-1.4-0.8-1.5C505.7,146.2,502.9,145.4,499.9,144.4z M399.9,99
				c-1.2,2.5-2.3,4.8-3.6,7.5c2.5,1.2,4.9,2.3,7.3,3.4c1.4-2.5,2.7-4.7,4-7.1C405.2,101.7,402.7,100.4,399.9,99z"/>
			<path class="st0" d="M401.6,29.9c-0.6,1.1-1,1.9-1.5,2.9c2.2,1.4,4.3,2.7,6.4,4.1c0.5,0.3,0.6,1.2,0.9,1.8
				c-0.6,0.3-1.4,1-1.8,0.8c-2-0.7-4.1-1.3-5.9-2.5c-1.7-1.1-2.5-0.5-3.4,0.9c-1.6,2.8-1.8,2.8-4.4,0.7c-1.7-1.3-3.5-2.5-5.2-3.8
				c-1.2-1-1.2-2.2-0.2-3.4c1.6-1.9,3.4-3.7,4.8-5.8c1.2-1.8,2.7-1.5,3.9-0.6C397.5,26.5,399.5,28.2,401.6,29.9z M394,27.9
				c-1.5,1.8-2.8,3.3-4.3,5c1.5,0.8,3.4,2.4,4.2,2c1.4-0.7,2.5-2.6,2.9-4.2C397,30.1,395,28.9,394,27.9z"/>
			<path class="st0" d="M544,118.5c0.8-1.3,1.4-2.4,2.1-3.5c-1.3-1-2.7-1.9-3.7-3c-0.5-0.5-0.4-1.5-0.6-2.2c0.8,0,1.7-0.4,2.3-0.1
				c1.3,0.6,2.5,1.5,3.7,2.3c2.2-2.9,3.8-3.2,6.6-1.3c0.4,0.3,0.7,0.5,1.1,0.8c3.5,2.5,3.6,2.9,1.7,6.6c-0.8,1.6-1.8,3.1-2.9,4.4
				c-1.6,2-3.2,2.2-5.2,0.5C547.3,121.7,545.7,120.1,544,118.5z M552.1,120.8c1-1.9,1.9-3.6,2.8-5.4c-1.1-0.8-2.2-1.6-3.5-2.6
				c-1.1,1.8-2.2,3.5-3.4,5.2C549.4,118.9,550.6,119.8,552.1,120.8z"/>
			<path class="st0" d="M427.1,47.2c-0.7,1.5-1.3,2.1-2.8,1.3c-1.4-0.8-3-1.2-4.5-1.9c-0.7-0.3-1.5-0.8-1.9-1.4
				c-0.4-0.7-0.4-1.6-0.6-2.4c0.8-0.1,1.7-0.4,2.4-0.1c1.4,0.5,2.7,1.2,4,2C424.8,45.3,425.9,46.2,427.1,47.2z"/>
			<path class="st0" d="M469.1,67.4c-4,0.2-10.3-3.6-10.4-6.1C462,60.4,468.4,64.1,469.1,67.4z"/>
			<path class="st0" d="M513.6,94.6c-2.5-1.5-4.9-2.7-7.1-4.2c-0.4-0.3-0.4-1.3-0.6-2c0.8-0.1,1.8-0.6,2.4-0.3
				c2.2,1.1,4.3,2.4,6.3,3.8c0.4,0.3,0.8,1.3,0.6,1.6C515,94.1,514.2,94.3,513.6,94.6z"/>
			<path class="st0" d="M533.6,104.3c-2.4,2-8.5-1.2-9.8-4.9C525.5,98.3,529.3,100.2,533.6,104.3z"/>
			<path class="st0" d="M442,51.8c1.7,1.3,3.3,2.6,4.9,3.9c0.3,0.2,0.3,1,0.1,1.3c-0.2,0.4-0.9,0.8-1.2,0.7c-2.1-0.9-4.1-1.8-6.1-3
				c-0.5-0.3-0.5-1.3-0.7-1.9C439.9,52.5,440.7,52.3,442,51.8z"/>
		</g>
		<polyline class="st1" points="489.1,143.4 511.2,146.8 508.7,162 485.8,159.5 488.7,144.8 		"/>
		<polyline class="st1" points="391.4,97.2 413.6,100.6 411.1,115.8 388.1,113.2 391.1,98.5 		"/>
		<ellipse class="st1" cx="170.5" cy="517.7" rx="56.6" ry="58.6"/>
		<g>
			<path class="st0" d="M383.1,31.8c-0.4,6.6-1.1,13.1-1.1,19.7c0,7.5,0.6,15.1,0.9,22.6c0.3,8.9,0.7,17.8,0.8,26.7
				c0,4.2-0.8,8.3-0.7,12.5c0.1,4.5,0.9,9,1,13.5c0.3,7.8,0.3,15.7,0.5,23.6c0.2,7.2,0.6,14.4,0.9,21.5c0.2,5.6,0.4,11.1,0.7,16.7
				c0.7,12.2,1.6,24.4,2.3,36.6c0.7,11.3,0.9,22.5,2.1,33.7c0.3,3,1,5.8,0.2,8.9c-0.2,0.8,1,2,1.6,3c-1.6,5.3-6.2,4.7-10.1,4.9
				c-8,0.4-16.1,0.3-24.1,0.5c-10.9,0.3-21.9,0.6-32.8,1.2c-8.5,0.5-17,1.7-25.6,2.1c-10.5,0.6-21,0.7-31.5,1.1
				c-3.4,0.1-6.9,0.6-10.3,0.8c-8.8,0.4-17.6,0.5-26.3,0.9c-7.8,0.3-15.7,0.9-23.5,1.3c-6.7,0.3-13.5,0.2-20.1,0.8
				c-6.1,0.5-12.1,2.1-18.2,2.6c-6,0.4-12.2-0.1-18.2,0.1c-6.9,0.2-13.8,0.6-20.7,1c-8.7,0.4-17.3,0.8-26,1.4
				c-3.9,0.2-7.8,0.6-11.7,1.2c-2.2,0.3-4.3-1.6-6.7,0.7c-1.2,1.2-5.4-2.3-5.5-4.5c-0.2-4.4-0.2-8.8-0.4-13.2
				c-0.7-13.8-1.6-27.6-2.2-41.4c-0.3-6.7,0.1-13.5-0.2-20.3c-0.4-7.9-1.5-15.8-1.8-23.7c-0.4-9.5-0.3-19.1-0.7-28.6
				c-0.2-5.6-1.2-11.1-1.5-16.7c-0.4-7.5-0.3-15-0.5-22.5c-0.1-3.1-0.4-6.1-0.5-9.1c-0.2-4.7-0.3-9.5-0.4-14.2
				c-0.2-7.6-0.3-15.2-0.5-22.9c-0.1-7.5-0.3-15-0.3-22.5c0-3,4.1-5.7,7-5.5c2.4,0.2,4.7-0.5,7.1-0.6c18.1-1,36.2-1.8,54.2-3.1
				c10.5-0.8,20.8-2.8,31.3-3.7c11.9-1.1,23.9-1.6,35.9-2.2c4.9-0.3,9.9-0.3,14.8-0.4c6.7-0.2,13.5-0.3,20.2-0.6
				c8.4-0.3,16.7-0.9,25.1-1.3c11.3-0.5,22.5-0.9,33.8-1.4c11.7-0.5,23.3-0.9,35-1.4c7.9-0.3,15.7-1,23.6-1c7.5,0,15,0.7,22.4,1.1
				C382.5,31.5,382.8,31.7,383.1,31.8z M87.8,237.4c0.4,0.2,0.8,0.3,1.2,0.5c3.3-3,6.6-5.9,9.9-9c5-4.6,9.9-9.2,14.8-13.9
				c6.8-6.6,13.2-13.6,21.2-18.9c1.6-1.1,2.7-2.8,4.2-4c4.6-3.6,9.4-7.1,14.1-10.7c1.5-1.2,3.1-2.3,4.4-3.6c3.3-3.3,6.5-6.8,9.9-10
				c3.4-3.1,7.2-5.9,10.7-9c3.8-3.3,7.5-6.8,11.4-10.2c4.8-4.1,11.2-5.8,15.4-10.8c0.1-0.2,0.4-0.2,0.6-0.4
				c3.9-2.6,7.6-5.5,11.7-7.7c4.2-2.3,8.7-4.2,13.2-5.7c2.4-0.8,5.2-0.5,7.8-0.4c4.2,0.2,9.1-0.5,12.5,1.3
				c8.9,4.6,17.2,10.2,25.5,15.8c4.6,3.1,8.2,7.7,13.4,10.2c0.8,0.4,1.3,1.3,1.8,2.1c0.5,0.6,0.7,1.5,1.3,2
				c3.8,3.4,7.7,6.7,11.4,10.1c5.1,4.6,9.6,9.9,15.2,13.7c9.5,6.5,19.6,12.1,29.5,18.1c9.7,5.9,19.3,11.8,28.7,17.5
				c0-0.9,0-2.4,0.1-3.8c0.1-2,0.4-4,0.2-6c-0.3-3.1-1.2-6.3-1.2-9.4c-0.1-3.9,0.7-7.7,0.7-11.6c0-5.7-0.4-11.5-0.5-17.2
				c-0.2-5.6-0.4-11.1-0.5-16.7c0-5.7,0.1-11.4,0.3-17.1c0.2-6.3,0.7-12.7,0.5-19c-0.3-11.7-1-23.4-1.6-35.1
				c-0.3-6-0.6-11.9-0.9-17.9c-0.2-3.5-0.6-6.9-0.8-10.3c-0.2-3.6-0.1-7.2-0.1-11c-1,0.1-1.7,0-2.4,0.1c-5.5,0.8-10.9,1.7-16.4,2.2
				c-7.1,0.7-14.3,1-21.4,1.4c-6.7,0.3-13.4,0.5-20.2,0.6c-4.2,0.1-8.5-0.4-12.7-0.2c-7.1,0.4-14.1,1.4-21.1,1.9
				c-7.5,0.5-15.1,0.6-22.7,1c-12.3,0.6-24.7,1.4-37,2.1c-6,0.3-12,0.8-18.1,1c-2.3,0.1-4.6-0.7-6.8-0.6c-3.2,0.2-6.4,1.1-9.6,1.2
				c-5.8,0.2-11.7-0.3-17.5-0.1c-5.3,0.2-10.6,1.1-15.9,1.3c-4.5,0.1-9-0.9-13.5-0.6c-7.9,0.6-15.7-0.6-23.6,0.9
				c-5.4,1.1-11.1,0.8-16.7,1.2c-0.9,0.1-2,0.2-2.6,0.8c-2.8,2.6-6,1.8-9.3,1.7c-2.6-0.1-5.1,0-8,0.1c0.5,5.9,0.8,11.6,1.4,17.3
				c0.7,6.9,2.1,13.7,2.2,20.6c0.2,8.6,1.2,17,2.1,25.5c0.9,7.8,1.7,15.6,2.1,23.4c0.4,7.2,0.3,14.4,0.4,21.7
				c0.1,12.2,0.1,24.3,0.1,36.5c0,7.6-0.3,15.1-0.1,22.7C86.8,227.7,87.4,232.6,87.8,237.4z M93.9,282.6c6.9-0.4,13.8-0.9,20.7-1.3
				c5.4-0.3,10.7-0.5,16.1-0.8c3.4-0.2,6.9-0.6,10.3-0.7c3.5-0.1,7.1,0.2,10.6,0c5.5-0.4,10.9-1.2,16.3-1.5c2.8-0.2,5.7,0.3,8.6,0.1
				c3.7-0.2,7.3-0.9,11-1.1c6.7-0.3,13.4-0.3,20.2-0.6c10.5-0.4,21.1-1,31.6-1.4c9.5-0.4,19-0.7,28.4-1.3c7.2-0.4,14.4-1.4,21.6-1.6
				c13.1-0.4,26.1-0.5,39.2-0.7c1,0,2.1,0,3.1-0.1c5.4-0.4,10.8-1,16.2-1.3c5.4-0.3,10.9-0.2,16.4-0.5c4.7-0.2,9.4-0.7,14.1-0.8
				c3-0.1,4.4-1,4.2-4.1c-0.4-4.9-0.8-9.9-1.3-14.8c-0.4-4.1-0.8-8.3-1.2-12.4c-0.3-3-0.7-6.1-1.1-9.1c0-0.3-0.2-0.7-0.4-0.9
				c-3.6-3.2-7.1-6.7-11-9.5c-5.3-3.7-10.9-6.9-16.5-10.2c-7-4.2-14.2-8.3-21.2-12.6c-6.9-4.2-14.3-8-20.5-13.1
				c-9-7.4-18.3-14.2-28.2-20.4c-8.4-5.3-16.6-10.7-22.3-19.3c-3.9-5.8-9.9-9.6-16.7-11.3c-8.1-2.1-15.1,1.2-21.4,5.8
				c-6.2,4.5-12.3,9.2-18,14.3c-5.4,4.8-11.9,8.2-17,13.4c-9,9.1-18.5,17.7-28,26.2c-5,4.4-10.5,8.2-15.7,12.3
				c-4.1,3.2-8.5,6-12.3,9.5c-5.3,4.9-9.8,10.6-15.2,15.2c-6.4,5.5-13.4,10.2-20.2,15.2c-1.8,1.4-3.7,2.7-5.7,4.2
				C89.9,259.2,88.7,271.5,93.9,282.6z"/>
			<path class="st0" d="M303.9,97.3c0.6-3.7,0.9-7.4,1.9-10.9c1.8-6,10.7-11.8,17.1-12.3c7.7-0.6,14,2,19.3,7.5
				c8,8.3,8.1,19.7,2.3,28.3c-2.8,4.1-7.2,6.3-12.7,5.5c-4-0.6-8.1-0.6-12.2-0.9C311,113.8,302.7,106.6,303.9,97.3z M312.6,94.8
				c-1.2,6.1,2.1,11.3,12.4,12.2c5.9,0.5,10.8-4.1,11-11.5c0.3-9-2.8-12.4-13.9-13.2C317.2,82,313.3,87.1,312.6,94.8z"/>
		</g>
		<path class="st2" d="M70.8,231.5c0,0,110.7-102.4,131.7-103.7c21.1-1.3,64.3,37.5,90.1,54.7c25.8,17.2,87.8,59.8,87.8,59.8
			l1.6,33.4L75.8,287.9l-1.1-49.6"/>
		<path class="st0" d="M755.2,148.6c-1.5,8.7-2.9,17.3-4.5,26c-1.7,9-3.9,17.9-5.7,26.9c-2.3,11.3-4.3,22.6-6.6,33.9
			c-1,5.1-2.4,10.1-3.5,15.1c-1.2,5.8-2.1,11.6-3.1,17.4c-1.5,8.8-3.2,17.5-4.5,26.4c-1.4,9.8-2.4,19.6-3.8,29.4
			c-0.9,6.1-2.1,12.1-3.3,18c-1.5,7.4-3.1,14.8-4.7,22.2c-1.3,5.9-2.7,11.7-3.9,17.7c-1,5-1.7,10.1-2.5,15.1
			c-0.4,2.8-0.5,5.8-1.4,8.4c-0.4,1-2.8,1.9-4.2,1.9c-4.8,0-9.5-0.2-14.2-0.9c-5.7-0.9-11.3-2.5-17-3.5c-4-0.7-8.1-0.6-12-1.2
			c-3-0.4-6-1.4-9-2c-1.4-0.3-2.9-0.4-4.3-0.7c-6.3-1.2-12.6-2.3-18.8-3.5c-3.6-0.7-7.3-1.5-10.9-2.2c-5.2-1-10.3-1.9-15.5-2.9
			c-4.4-0.8-8.7-1.6-13.1-2.3c-5-0.8-10.1-1.3-15.1-2.1c-1.9-0.3-3.8-1.2-5.7-1.7c-1.3-0.3-2.7-0.2-4-0.6c-9.3-2.5-18.6-5.1-28-7.5
			c-3-0.8-6-1.1-9-1.8c-8.1-2-16.2-4.1-24.3-6.3c-1.5-0.4-3-1-4.4-1.8c-1.8-1-2.2-2.6-1.8-4.7c1.6-7.7,3.2-15.4,4.8-23
			c0.8-4,1.7-7.9,2.5-11.9c1.6-7.9,3.1-15.8,4.8-23.7c2-9.4,4.4-18.8,6.2-28.3c1.4-7.2,2.1-14.6,3.5-21.8c2-10.3,4.2-20.5,6.4-30.7
			c2.6-12,5.5-24,7.7-36.1c1.6-8.3,1.9-16.9,3.4-25.3c1.5-8,3.9-15.8,5.6-23.8c0.8-3.8,0.9-7.7,1.6-11.5c1-5.5,2-11.1,3.4-16.5
			c0.7-2.7,3.7-3.6,6.4-3.1c2.1,0.4,4.3,0.1,6.4,0.2c3.7,0.2,7.4,0.4,11,0.9c7,1,14.1,2.1,21.1,3.3c11.6,1.9,23.2,3.9,34.8,6
			c11.6,2.1,23.1,4.3,34.6,6.4c4.7,0.9,9.4,1.9,14.1,2.7c5.4,0.9,10.9,1.5,16.3,2.4c4.2,0.7,8.3,1.6,12.5,2.6
			c4.6,1.1,9,2.6,13.6,3.4c3.2,0.6,6.5,0.5,9.8,1.3c6.8,1.7,13.8,2.6,20.6,4.1c2.6,0.6,5.3,1.6,7.4,3.1c1,0.7,0.9,3,1.2,4.7
			c0.1,0.7-0.3,1.4-0.5,2.1C755.5,148.6,755.3,148.6,755.2,148.6z M701.5,399.6c2.2-12.6,4.2-24.3,6.2-36c0.9-5.5,1.5-11.1,2.6-16.6
			c1.6-8.2,3.6-16.2,5.3-24.4c1.3-6.1,2.2-12.3,3.4-18.4c1.4-7.6,3.1-15.1,4.4-22.7c2.3-13.8,4.3-27.6,6.5-41.4
			c0.8-4.8,1.9-9.6,2.7-14.4c1.1-6.4,1.8-12.9,3-19.2c0.7-4,2.2-7.9,2.9-11.8c1-5.6,1.5-11.3,2.4-16.9c0.5-3.2,1.6-6.4,2.1-9.6
			c0.7-4.3,1.2-8.7,1.8-13.1c0.5-3.2,1.1-6.3,1.6-9.2c-1.6-0.3-3.5-0.5-5.2-0.9c-4.2-1-8.3-2.4-12.5-3.3c-4.9-1.1-9.9-1.6-14.7-2.7
			c-5-1.2-9.9-3-14.9-4c-6.3-1.3-12.7-1.9-19.1-3c-4.9-0.8-9.8-2-14.7-2.9c-4.3-0.8-8.6-1.3-12.9-1.9c-3.5-0.5-7-1-10.4-1.6
			c-5.3-0.9-10.5-1.8-15.8-2.9c-4.7-1-9.3-2.3-14.1-3.1c-8-1.4-16.1-2.5-24.1-3.9c-4.7-0.8-9.3-2.1-14-2.9
			c-4.8-0.8-9.6-1.2-14.4-1.8c-2.5-0.3-5.2,1.1-5.7,3.3c-0.6,2.7-0.9,5.5-1.4,8.2c-0.9,5.2-1.9,10.4-2.9,15.6
			c-1.1,5.5-2.6,11-3.5,16.6c-1.3,7.6-2.1,15.4-3.2,23c-0.6,4.1-1.6,8.1-2.1,12.3c-1.4,12.1-4,24-6.8,35.9
			c-2.3,9.5-5.1,18.9-7.3,28.4c-3.1,13.8-6,27.7-8.7,41.7c-1.5,7.6-2.2,15.3-3.8,22.8c-1.6,7.4-4.2,14.7-6,22.1
			c-1.3,5.3-2.1,10.9-3.4,16.2c-0.6,2.2,0,3.1,1.9,3.7c5.4,1.6,10.9,3.1,16.4,4.6c5.1,1.4,10.2,2.5,15.3,3.8
			c3.1,0.8,6.1,1.9,9.2,2.6c3.5,0.8,7.1,1.2,10.6,2c3.7,0.8,7.3,2.2,11.1,2.9c3.7,0.7,7.5,0.7,11.2,1.3c3.7,0.6,7.3,1.8,11,2
			c4,0.2,7.6,1.7,11.3,2.9c2.2,0.7,4.4,1.4,6.7,1.9c5,1.1,10,2.2,15.1,3.2c3.5,0.7,7,1.1,10.6,1.6c5.4,0.7,10.8,1.3,16.2,2.1
			c3.8,0.6,7.4,2,11.2,2.4c7.1,0.7,14.2,0.9,21.3,1.4c1.5,0.1,3.1-0.2,4.5,0.2C692.7,396.6,696.9,398.1,701.5,399.6z"/>
		<path class="st0" d="M713.4,226.2c-2.4-0.5-4.9-0.8-7.3-1.3c-3.8-0.8-7.6-1.5-11.3-2.4c-1.4-0.3-2-1-1.7-2.8
			c1.5-7.2,2.7-14.4,3.9-21.7c0.4-2.5-1.2-5.4-3.3-6c-3.3-0.9-6.7-1.9-10.1-2.5c-5.7-0.9-11.4-1.4-17.1-2.4
			c-5.9-1-11.7-2.3-17.5-3.5c-7.2-1.4-14.5-2.8-21.7-4.1c-8.7-1.6-17.4-3.3-26.1-4.9c-2.5-0.4-5.1-0.3-7.7-0.5
			c-3.7-0.3-7.4-0.5-11-0.9c-6.6-0.8-13.1-1.4-19.6-2.6c-4.1-0.8-7.2,1.5-6.7,5.7c0.1,1,0.5,2.1,0.3,3c-1.3,6.4-2.9,12.8-4.2,19.3
			c-3.7,18.6-7.2,37.2-10.8,55.9c-1.6,8.5-2.9,17-1.1,25.7c0.2,0.9,1.2,2.1,2,2.3c4,0.9,8,1.5,12.4,2.2c-0.6,3.4-1,5.9-1.5,8.4
			c-0.9,4.7-2.2,9.4-2.7,14.1c-0.2,1.3,1.3,3.4,2.5,4c2.4,1.2,5.1,1.8,7.7,2.3c6.5,1.3,13,2.4,19.4,3.7c9.1,1.8,18.1,4,27.2,5.7
			c6.1,1.2,12.2,1.8,18.3,2.8c5.9,1,11.8,2.3,17.7,3.3c4.6,0.8,9.2,1.1,13.8,1.9c8,1.4,15.9,3.2,23.9,4.6c3,0.5,6.2,0.7,9.2,0.6
			c1.3-0.1,2.4-2.1,3.8-2.3c3.3-0.4,3.6-2.8,4.1-5.1c1.2-6.2,2-12.6,3.4-18.8c2-9.1,4.4-18.1,6.4-27.1c1.4-6.5,2.7-13.1,3.8-19.7
			c1.7-10.1,3.2-20.1,4.7-30.2C716.9,229.9,715.5,226.7,713.4,226.2z M547.8,272.9c1-2.8,0.4-6.2,2.5-8.5c0-0.3,0.1-0.6,0.1-0.8
			c-0.6-1.9-0.4-3.9,0.8-5.6c0.1-0.4,0.2-0.7,0.3-1.1c-0.1-0.4-0.2-0.7-0.2-1c1-5.3,2-10.5,3-15.8c0.3-1.4,0.2-2.9,0.3-4.3
			c0.1-0.6,0.2-1.3,0.3-1.9c0.6-2.5,1.1-5,1.8-7.4c0.4-1.7,1-3.4,1.5-5.1c1.9-7.1,4.1-14.1,5.7-21.2c1.5-6.6,2.4-13.4,3.7-20.7
			c2.2,0.4,4.3,0.7,6.4,1.1c6.2,1.2,12.4,2.6,18.7,3.7c2.8,0.5,5.7,0.5,8.5,0.8c5.3,0.4,10.5,0.8,15.8,1.3c4.5,0.4,9,0.6,13.4,1.2
			c3.4,0.5,6.6,1.7,10,2.2c6.5,1.1,12.5,3.7,19,4.9c8.1,1.6,16.3,2.9,24.5,4.4c1.2,0.2,2.4,0.6,3.6,0.6c2.8-0.1,2.6,1.8,2.3,3.6
			c-0.7,4.8-1.5,9.5-2.4,14.3c-1,5.4-1.9,10.9-3.1,16.3c-2.5,11.3-5.1,22.6-7.7,33.9c-0.6,2.7-1.2,5.3-1.8,7.9
			c-0.1-0.1-0.3-0.3-0.4-0.4c0,0.1,0,0.2,0,0.4c0,0.5,0,1-0.1,1.6l-0.4,2.5c-0.2,1-0.6,1.9-1.1,2.6c0.1,0.2,0.3,0.4,0.4,0.6
			c0.5,0.7,0.2,2.1,0.2,3.2c-0.1,2.6-1.7,5.3,1.6,8c-8-1.1-15-2.3-22.1-2.9c-13.3-1.2-26.1-4.6-39.1-7.3c-4.6-0.9-9.3-1.2-13.9-1.9
			c-2.1-0.3-4.2-0.8-6.3-1.2c-4.3-0.8-8.6-1.8-13-2.4c-6.6-0.9-13.3-1.2-19.9-2.1C556.3,275.4,552.2,274,547.8,272.9z M706.7,244.9
			c-0.7,3.9-1.3,7.8-2.1,11.6c-0.6,2.9-1.4,5.8-2,8.8c-0.6,3.2-0.9,6.4-1.4,9.6c-0.6,3.9-1.2,7.8-1.8,11.7
			c-0.8,4.9-1.4,9.9-2.3,14.8c-0.5,2.8-1.8,5.4-2.5,8.2c-1.5,6.3-3,12.5-4.3,18.9c-0.4,1.8-1.2,2.1-2.7,1.8
			c-9.4-2-18.8-3.8-28.1-5.9c-8.6-1.9-17.3-3.8-26.2-4.2c-2.8-0.1-5.6-1.1-8.5-1.5c-3.1-0.5-6.2-0.6-9.2-1.1
			c-4.5-0.8-9-1.6-13.4-2.6c-5.9-1.3-11.7-3-17.6-4.1c-5.1-1-10.3-1.5-15.4-2.3c-3.9-0.6-7.7-1.4-11.6-2.1c-1.7-0.3-1.8-1-1.4-2.5
			c1.2-4.8,2.4-9.6,3.2-14.5c0.6-3.6,1.5-4.4,5.1-3.6c2.6,0.6,5.3,0.5,7.9,1c5.8,1.1,11.5,2.4,17.3,3.4c5.8,0.9,11.7,1.4,17.5,2.2
			c4.8,0.7,9.6,1.5,14.4,2.3c6.6,1.1,13.3,2.2,19.9,3.3c5.3,0.9,10.6,1.8,15.9,2.6c5.1,0.7,10.2,1.2,15.4,1.7
			c2.1,0.2,6.8-3.6,7.3-5.7c0.3-1.5,0.6-3.1,0.9-4.7c1.1-6.6,2.3-13.2,3.2-19.9c0.6-4.5,0.6-9.1,1.2-13.5c0.8-5.6,1.9-11.1,2.9-16.6
			c0.7-4.1,1.4-8.1,2.2-12.7c6.2,1.1,12,2.1,18.3,3.2C708.1,236.7,707.4,240.8,706.7,244.9z"/>
		<path class="st1" d="M119.8,380.5c-0.8-9.8-5.2-21.8-14.6-26.2c-7.2-3.3-21.1-3.5-19-15.3c1.7-9.3,16.6-5.5,23-5.2
			c8.2,0.4,8.2-12.4,0-12.7c-9.3-0.4-20.1-2.9-28.2,3.2c-7.1,5.3-9,14.6-7.1,23c1.9,8.4,8.4,12.8,16.1,15.8
			c7.9,3,15.1,5.4,16.4,15.5c1.4,10.6-2.4,11.6-10.7,10.5c-3.8-0.5-9.4-1.3-12.3-3.7c-6.2-5.3-15.3,3.7-9,9
			C89.8,407.2,121.9,406.5,119.8,380.5z"/>
		<g>
			<path class="st1" d="M719.8,424.8c-44.3,0-44.4,68.8,0,68.8C764,493.7,764.1,424.8,719.8,424.8z"/>
			<path class="st0" d="M815.3,482.8c-1.4-22.4-3.2-45-3.2-67.4c0-4.4,2.4-16.2-0.1-20.3c-2.7-4.3-9.1-2.9-13.3-2.8
				c-25.4,0.6-50.6,4.2-76.1,4.4c-28.1,0.3-56.1,0.9-84.2,0.9c-1.3-1.2-3.7-1.2-4.1,1c-3.9,21.9-1.9,45.1-1.9,67.2v34.8
				c0,4.6-2.5,15.8,0.6,19.7c2.8,3.5,9.7,1.8,13.4,1.8c11.3-0.2,22.6,0.4,33.9-0.3c24-1.5,48.2,0.3,72.3,0.3
				c11.9,0,23.8-0.3,35.7-0.2c5.8,0,21,4,25.8,0.9c2.5-1.6,3-5.1,3.3-7.8C818.7,504.5,816,493.1,815.3,482.8z M810.6,517.9
				c-1.9,1.1-8.5-0.7-10.7-0.9c-10.9-0.8-21.8-0.2-32.7-0.1c-20.3,0.1-40.9,1-61.1-0.7c-19-1.5-38.7,0.7-57.8,0.7
				c-1.5,0-8.5,1.2-9.7,0.3c-2.5-1.8-1-9.3-1-12.4v-32.1c0-22.8-2.3-47.3,1.2-70c41.1,0,82-1.1,123-2.7c8.5-0.3,42.3-7.8,45.6-0.1
				c1,2.3-0.3,8.2-0.3,10.8c0,5.3-0.1,10.6,0.2,15.9c0.5,9,1.4,18.1,1.6,27.1c0.5,17.4,1.3,35,2.9,52.3
				C812.2,509.8,814,516,810.6,517.9z"/>
			<path class="st0" d="M747,429.5c-5.6-6.7-19.2-8.7-27.3-9.3c-0.8-0.1-1.4,0.2-1.9,0.7c-10.6-0.8-21.6-1.6-30.8,4.8
				c-8.9,6.2-11.7,15.3-12.7,25.8c-1.1,10.9-0.3,24,6.1,33.2c7.4,10.5,16,12.2,28,12.9c10.9,0.7,24.7,3.9,33.5-4.3
				c7.8-7.3,10.2-21.7,10.6-31.9C753,451.4,753.9,437.8,747,429.5z M747.6,459.1c-0.3,7.1-2.1,25.7-9.1,30.5
				c-8.5,5.8-20.5,3.4-29.9,2.8c-22.8-1.4-30.7-17.7-29.1-39.1c0.8-10.1,3.7-20.4,13.4-25.4c8.5-4.3,18.8-2.4,27.8-1.8
				c0.8,0.1,1.4-0.2,1.8-0.6c8.3,0.9,18.6,3.8,22.7,11C748.6,442.7,747.8,452.3,747.6,459.1z"/>
			<path class="st0" d="M726.1,469.2c-3.4,4.2-6.3,6.7-12.1,7.1c-5.7,0.4-10.1,0.6-12.4-5.4c-3.4-8.7-0.2-19.6,9.8-21.4
				c2.9-0.5,6.9,1.2,8.9-1.7c1.7-2.4,0.4-7.1,0.3-9.8c-0.2-3.3-5.3-3.3-5.1,0c0.1,1.4,0.8,4.2,0.3,5.4c-0.1,0.2-0.1,0.4-0.2,0.5
				c-0.2-0.3-0.5-0.5-1.4-0.5c-4,0.1-6.8,1-10.3,3.2c-6.7,4.1-9.9,11.5-8.9,19.4c0.9,6.8,3,13.8,10.6,15.2c10.2,1.9,17.7-0.9,24-8.6
				C731.7,470.3,728.2,466.6,726.1,469.2z"/>
		</g>
		<g>
			<path class="st2" d="M472.2,575.5c-1.8-7.1,0.2-14.1,0.5-21c1.3-0.6,2.5-1.2,3.8-1.8c4.5-2.2,9.1-4.2,13.4-6.7
				c3.7-2.1,6.9-5,10.5-7.2c2.6-1.6,5.4-2.8,8.2-4.2c3.5-1.8,7.1-3.4,10.4-5.5c6.4-3.9,12.9-7.9,19.1-12.3c3.6-2.5,7.7-3.8,11.3-6
				c3.9-2.4,7.9-4.4,12-6.4c4.2-2,8.6-3.2,13.1-1.1c3.8,1.7,6.9,4.6,8.5,8.3c2.4,5.6,6.6,9.6,10.9,13.6c5.1,4.6,9.8,9.6,14.2,14.8
				c3.1,3.6,7,6.6,10.5,9.8c3.6,3.2,7.3,6.4,11,9.6c2.9,2.5,5.8,5,8.5,7.7c2,2,3.6,4.4,5.4,6.7c0.1,0.1,0.2,0.4,0.2,0.5
				c-0.1,1.8-0.2,3.6-0.3,5.4c-0.2,2.4-0.4,4.9-0.6,7.3c-0.3,2.9-0.5,5.8-0.8,8.8c-0.2,1.8-1.1,2.2-2.9,1.9c-2.7-0.4-5.5-0.7-8.3-1
				c-3.2-0.5-6.4-1.1-9.6-1.5c-3.2-0.4-6.4-0.6-9.5-1c-0.6-0.1-1.2-0.2-1.8-0.3c-7.6-1.3-15.2-2.6-22.9-3.7
				c-4.2-0.6-8.5-0.8-12.7-1.4c-5.6-0.7-11.1-1.5-16.7-2.3c-6.2-0.8-12.4-1.6-18.5-2.5c-3.9-0.6-7.9-1.3-11.8-1.8
				c-2.2-0.3-4.4-0.2-6.5-0.5c-1.7-0.2-3.3-0.8-5-1c-3.2-0.4-6.5-0.5-9.7-0.8c-2.1-0.2-4.1-0.8-6.2-1.1c-2-0.3-4-0.4-6.1-0.7
				c-3.2-0.4-6.3-0.8-9.5-1.2C480.3,576.4,476.3,576,472.2,575.5z"/>
			<path class="st0" d="M665.1,460.8c-1,3.9-2.1,7.7-2.8,11.5c-0.8,4.5-1.3,9-1.9,13.5c-0.8,5.3-1.5,10.6-2.4,15.9
				c-0.4,2.5-1.4,4.9-1.8,7.3c-0.5,2.7-0.5,5.4-0.9,8.1c-0.7,4.7-1.5,9.3-2.2,14c-0.6,4.3-1.2,8.6-1.8,12.9c-0.5,3.3-1,6.6-1.4,10
				c-0.9,7.3-1.7,14.6-2.6,21.9c-0.8,6.7-1.9,13.5-2.4,20.2c-0.1,1.8,0,3.6-0.8,5.3c-0.2,0.5,0.4,1.3,0.6,1.9
				c-1.5,2.9-4.2,2.1-6.5,1.8c-4.8-0.6-9.6-1.6-14.3-2.3c-6.5-1-13-2-19.6-2.9c-5.1-0.6-10.3-0.9-15.4-1.5
				c-6.3-0.8-12.5-1.8-18.8-2.7c-2.1-0.3-4.1-0.4-6.2-0.6c-5.2-0.7-10.5-1.6-15.7-2.3c-4.7-0.6-9.4-1.2-14.1-1.8
				c-4-0.5-8-1.3-12-1.7c-3.7-0.3-7.4-0.1-11-0.4c-3.6-0.4-7.2-1.4-10.8-1.9c-4.1-0.6-8.3-1.1-12.4-1.7c-5.2-0.7-10.3-1.4-15.5-2
				c-2.3-0.3-4.7-0.5-7.1-0.6c-1.3-0.1-2.4-1.4-4-0.3c-0.9,0.6-3-2-2.8-3.3c0.4-2.6,0.8-5.2,1.2-7.9c1.1-8.2,2-16.5,3.1-24.8
				c0.5-4,1.5-8,2-12c0.6-4.7,0.8-9.5,1.5-14.3c0.8-5.7,1.9-11.3,2.7-17c0.5-3.3,0.5-6.7,0.9-10c0.6-4.5,1.4-8.9,2.1-13.4
				c0.3-1.8,0.4-3.7,0.7-5.5c0.4-2.8,0.8-5.7,1.3-8.5c0.7-4.5,1.4-9.1,2.2-13.6c0.7-4.4,1.5-8.9,2.3-13.3c0.3-1.8,3-3,4.8-2.5
				c1.4,0.4,2.9,0.2,4.3,0.4c10.8,1.3,21.6,2.8,32.4,4c6.3,0.7,12.6,0.6,18.9,1.2c7.2,0.7,14.3,1.6,21.5,2.5c3,0.4,5.9,0.9,8.8,1.3
				c4,0.6,8,1.3,12,1.8c5,0.7,10,1.3,15,2c6.7,0.9,13.4,1.9,20.2,2.8c7,1,13.9,2,20.9,3c4.7,0.7,9.4,1.1,14.1,2
				c4.4,0.8,8.8,2,13.2,3.1C664.8,460.6,665,460.8,665.1,460.8z M469.7,550.3c0.2,0.1,0.4,0.3,0.6,0.4c2.2-1.4,4.5-2.8,6.7-4.2
				c3.4-2.1,6.7-4.3,10.1-6.5c4.7-3.1,9.1-6.5,14.4-8.8c1-0.4,1.9-1.3,2.9-1.9c3.1-1.6,6.2-3.2,9.3-4.7c1-0.5,2-1,3-1.7
				c2.3-1.6,4.5-3.3,6.8-4.8c2.3-1.5,4.8-2.7,7.1-4.1c2.6-1.5,5.1-3.2,7.7-4.7c3.2-1.9,7.1-2.2,10.1-4.6c0.1-0.1,0.3-0.1,0.4-0.2
				c2.5-1.1,5-2.4,7.6-3.3c2.7-0.9,5.5-1.5,8.3-1.9c1.5-0.2,3.1,0.3,4.6,0.6c2.4,0.6,5.3,0.7,7.1,2.1c4.7,3.6,8.9,7.8,13.2,11.9
				c2.4,2.3,3.9,5.4,6.7,7.3c0.4,0.3,0.6,0.9,0.8,1.4c0.2,0.4,0.3,0.9,0.5,1.3c1.8,2.4,3.7,4.7,5.6,7.1c2.5,3.2,4.6,6.8,7.4,9.6
				c4.8,4.8,10.1,9.1,15.2,13.6c5,4.4,10,8.9,14.8,13.2c0.1-0.5,0.3-1.4,0.4-2.2c0.3-1.2,0.7-2.3,0.8-3.5c0.2-1.9,0-3.8,0.3-5.6
				c0.4-2.3,1.2-4.4,1.6-6.7c0.6-3.3,1-6.7,1.5-10.1c0.5-3.3,0.9-6.5,1.5-9.8c0.6-3.3,1.3-6.6,2-9.9c0.8-3.7,1.8-7.3,2.3-11
				c1.1-6.8,1.9-13.7,2.8-20.6c0.5-3.5,0.9-7,1.3-10.5c0.2-2,0.4-4.1,0.6-6.1c0.3-2.1,0.7-4.2,1.1-6.4c-0.6-0.1-1-0.2-1.4-0.2
				c-3.3-0.1-6.5-0.1-9.7-0.4c-4.2-0.4-8.4-0.9-12.6-1.5c-3.9-0.5-7.9-1.1-11.8-1.8c-2.5-0.4-4.9-1.1-7.4-1.4
				c-4.2-0.5-8.3-0.7-12.5-1.1c-4.4-0.5-8.9-1.2-13.3-1.8c-7.2-0.9-14.5-1.8-21.7-2.7c-3.5-0.4-7.1-0.8-10.6-1.3
				c-1.3-0.2-2.6-0.9-3.9-1.1c-1.9-0.2-3.8,0-5.7-0.3c-3.4-0.5-6.8-1.4-10.2-1.9c-3.1-0.5-6.3-0.5-9.4-0.9c-2.6-0.4-5.1-1.5-7.8-1.8
				c-4.6-0.5-9.1-2-13.8-2c-3.3,0-6.6-0.7-9.9-1.1c-0.5-0.1-1.2-0.1-1.6,0.2c-1.9,1.2-3.7,0.4-5.6,0c-1.5-0.3-3-0.5-4.7-0.8
				c-0.4,3.5-0.8,6.8-1,10.2c-0.3,4.1-0.2,8.2-0.9,12.2c-0.8,5-1.1,10-1.5,15.1c-0.3,4.6-0.7,9.2-1.3,13.8
				c-0.5,4.2-1.3,8.4-2.1,12.6c-1.2,7.1-2.5,14.2-3.8,21.2c-0.8,4.4-1.8,8.8-2.5,13.2C470.2,544.5,470,547.4,469.7,550.3z
				 M468.5,577.2c4,0.5,8.1,1,12.2,1.5c3.2,0.4,6.3,0.8,9.5,1.2c2,0.3,4.1,0.4,6.1,0.7c2.1,0.3,4.1,0.9,6.2,1.1
				c3.2,0.4,6.5,0.5,9.7,0.8c1.7,0.2,3.3,0.8,5,1c2.2,0.3,4.4,0.2,6.5,0.5c3.9,0.5,7.9,1.2,11.8,1.8c6.2,0.9,12.4,1.7,18.5,2.5
				c5.6,0.8,11.1,1.6,16.7,2.3c4.2,0.5,8.5,0.7,12.7,1.4c7.6,1.1,15.2,2.5,22.9,3.7c0.6,0.1,1.2,0.2,1.8,0.3c3.2,0.3,6.4,0.6,9.5,1
				c3.2,0.4,6.4,1,9.6,1.5c2.8,0.4,5.5,0.6,8.3,1c1.8,0.3,2.7-0.1,2.9-1.9c0.3-2.9,0.6-5.8,0.8-8.8c0.2-2.4,0.4-4.9,0.6-7.3
				c0.1-1.8,0.2-3.6,0.3-5.4c0-0.2-0.1-0.4-0.2-0.5c-1.8-2.2-3.4-4.7-5.4-6.7c-2.7-2.7-5.6-5.2-8.5-7.7c-3.6-3.2-7.3-6.3-11-9.6
				c-3.6-3.2-7.5-6.1-10.5-9.8c-4.4-5.3-9.1-10.2-14.2-14.8c-4.3-4-8.5-8-10.9-13.6c-1.6-3.8-4.7-6.6-8.5-8.3
				c-4.5-2.1-8.9-0.9-13.1,1.1c-4.1,2-8.1,4.1-12,6.4c-3.7,2.2-7.8,3.5-11.3,6c-6.2,4.3-12.6,8.3-19.1,12.3c-3.3,2-6.9,3.7-10.4,5.5
				c-2.7,1.4-5.6,2.6-8.2,4.2c-3.6,2.3-6.8,5.1-10.5,7.2c-4.3,2.5-8.9,4.5-13.4,6.7c-1.2,0.6-2.4,1.2-3.8,1.8
				C468.7,563.1,466.7,570.1,468.5,577.2z"/>
			<path class="st0" d="M610.3,491.7c0.7-2.1,1.3-4.2,2.3-6.2c1.7-3.3,7.5-5.8,11.3-5.3c4.5,0.5,7.9,2.6,10.4,6.4
				c3.8,5.7,2.6,12.3-1.7,16.7c-2.1,2.1-4.9,2.9-8,1.8c-2.3-0.8-4.6-1.2-7-1.8C612.6,502,608.5,496.9,610.3,491.7z M615.5,491.1
				c-1.4,3.4,0,6.8,5.9,8.4c3.4,0.9,6.7-1.3,7.6-5.5c1.1-5.2-0.3-7.5-6.7-9.1C619.6,484.2,616.8,486.7,615.5,491.1z"/>
		</g>
		<g>
			<g>
				<path class="st0" d="M579.3,317.8c0,7-0.1,13.9,0,20.9c0.1,4.4,0.9,8.8,1,13.1c0.1,8.7-0.2,17.4-0.2,26.1
					c0,4.7,0.1,9.5,0.2,14.2c0.1,7.4,0.2,14.7,0.5,22.1c0.3,6.7,0.9,13.4,1.2,20.2c0.3,5.3,0.5,10.5,0.7,15.8
					c0.1,5.6,0.2,11.2,0.2,16.8c0,6.8-0.1,13.6,0,20.4c0.1,4.6,0.5,9.1,0.7,13.6c0.1,2.1-2.7,5.1-4.7,6c-4.1,1.8-8.5,1.8-12.9,2
					c-2.6,0.1-5.2,0.7-7.8,0.9c-3.2,0.2-6.4,0-9.5,0.1c-2.6,0.1-5.3,0.6-7.9,0.6c-1.6,0.1-3.3-0.3-5-0.4c-1,0-2.2-0.1-3.1,0.3
					c-2.1,1-4.1,1.5-6.4,0.5c-0.5-0.2-1.4-0.2-1.9,0c-4.6,2.7-9.7,1.9-14.6,2c-3.8,0.1-7.5,0.1-11.3,0.1c-3.6-0.1-7.2-0.5-10.7-0.4
					c-6.3,0.2-12.6,0.8-18.9,1c-5.6,0.2-11.2,0-16.9,0c-0.6,0-1.1,0.3-1.7,0.3c-2.7,0.1-5.4,0-8.2,0.2c-3,0.2-5.9,0.6-8.8,0.9
					c-1.9,0.2-3.8,0.6-5.8,0.7c-1.7,0.1-3.5-0.1-5.2-0.1c-2.3,0-4.6,0-6.9,0.1c-2.1,0.1-4.3,0.4-6.4,0.4
					c-12.2,0.3-24.3,0.3-36.5,0.7c-8.6,0.3-17.1,1.3-25.6,1.7c-9.1,0.4-18.2,0.5-27.3,0.7c-5.1,0.1-10.2,0.1-15.2-0.1
					c-1.1,0-2.7-0.7-3.3-1.5c-1.7-2.6-3.7-5.2-4.4-8.1c-0.6-3,0.3-6.2,0.4-9.4c0.4-10.1,0.8-20.2,0.9-30.3c0-3.3-1.2-6.7-1.5-10
					c-0.3-3.4-0.1-6.9-0.3-10.3c-0.2-3.5-0.9-7-1.1-10.5c-0.2-3.2,0-6.4,0-9.6c0.1-5.2,0.1-10.3,0.2-15.5c0.1-2.8,0.7-5.5,0.7-8.3
					c0-3.3-0.4-6.6-0.7-9.9c-0.1-1,0-2.1,0-3.1c0-6.9-0.1-13.9,0-20.8c0-2.2,0.8-4.3,0.8-6.5c0-2.3-0.6-4.6-0.6-6.9
					c-0.1-8.4-0.1-16.9,0-25.3c0-4.7,0.3-9.5,0.4-14.2c0-2.1-0.4-4.3-0.5-6.4c-0.2-3.2,2.4-4.6,5-5.9c0.3-0.2,1-0.1,1.1-0.3
					c2.4-4.9,7.2-1.7,10.9-2.3c4.3-0.7,8.9-0.4,13.3-0.4c9.3-0.1,18.6,0,27.9-0.1c5.9,0,11.8-0.4,17.7-0.3
					c5.3,0.1,10.6,0.8,15.9,0.7c8,0,15.9-0.4,23.9-0.6c7.6-0.2,15.2-0.5,22.8-0.3c6.4,0.2,12.7,1.4,19,1.5
					c6.8,0.1,13.6-0.6,20.5-0.6c3.8,0,7.5,0.8,11.3,0.8c5.2,0,10.4-0.5,15.6-0.6c4.7-0.1,9.4,0.1,14.1,0c4.1-0.1,8.1-0.4,12.2-0.5
					c1.7,0,3.5,0.2,5.2,0.3c9.3,0.4,18.7,0.9,28,1.3c3.6,0.2,7.2,0.1,10.7,0.4c6.8,0.7,8,2,8.9,7.1c0.2,1.5,0.4,3.1,0.6,4.6
					C579.7,317.8,579.5,317.8,579.3,317.8z M304.5,511.4c2.5-0.8,2.4-0.5,6.6,0c3.8,0.5,7.8,0.7,11.6,0.5c8.1-0.3,16.1-1,24.2-1.4
					c8.7-0.4,17.4-0.9,26.1-1c6.6-0.1,13.3,0.9,19.9,0.6c8.2-0.3,16.3-1.2,24.4-2.2c10.7-1.4,21.4-0.5,32-0.5
					c7.4,0,14.7-0.7,22.1-1.2c5.3-0.3,10.5-0.9,15.8-1.1c4.3-0.2,8.6,0.3,12.9,0c7.9-0.5,15.8-1.6,23.7-2c7.3-0.3,14.7,0.2,22.1,0.1
					c10.3-0.1,20.7-0.4,31-0.6c0.4-1.8,1.2-3.5,1.1-5.2c-0.1-6.6-0.6-13.1-0.8-19.7c-0.2-7.9-0.3-15.8-0.4-23.7
					c0-3.8,0.5-7.7,0.2-11.5c-0.5-7.9-1.5-15.8-1.9-23.7c-0.5-8.5-0.6-17.1-0.7-25.7c-0.1-8.4-0.1-16.8-0.1-25.2
					c0-4.4,0.3-8.8,0.1-13.2c-0.2-5.5-1.2-10.9-1.2-16.3c0-7.3,0.5-14.6,0.8-21.9c0.1-1.8-0.7-3.1-3-3.1c-3.3-0.1-6.7,0-10,0
					c-6.8-0.1-13.6-0.2-20.4-0.3c-9.9-0.1-19.9,0-29.8-0.2c-16.7-0.2-33.4-0.6-50.1-0.9c-6.5-0.1-13,0-19.4,0
					c-8.4-0.1-16.7-0.1-25.1-0.3c-7.3-0.1-14.7-0.5-22-0.7c-6-0.1-12.1-0.1-18.1,0c-7.2,0.1-14.3,0.3-21.5,0.7
					c-8.5,0.4-17,1.1-25.5,1.7c-4.3,0.3-8.6,0.5-12.9,0.9c-3.7,0.3-7.4,1-11.1,1.2c-2.2,0.1-2.7,0.7-2.6,2.7
					c0.1,9.8,0,19.6-0.2,29.4c0,3.5-0.5,6.9-0.3,10.4c0.4,8.8,1.3,17.6,1.5,26.3c0.3,10.3,0.1,20.6,0.1,30.9c0,4.3-0.4,8.6-0.4,13
					c0.1,4.6,0.6,9.2,0.7,13.8c0.1,4.4-0.2,8.7-0.2,13.1c0.1,5.1,0.4,10.1,0.5,15.2c0.1,5.2,0.2,10.3,0.2,15.5
					c0,4.1,0.1,8.2,0.1,12.3C304.6,502.4,304.5,506.7,304.5,511.4z"/>
				<path class="st0" d="M325.2,429c0-5.4,0.1-10.8,0-16.3c-0.1-5.6-0.5-11.2-0.5-16.8c0-4.8,0.3-9.6,0.7-14.4
					c0.2-2.2,2.4-3.5,4.9-3.6c6.8-0.3,13.7-0.7,20.5-1.1c5.9-0.3,11.7-0.7,17.6-1c3.9-0.2,7.8-0.4,11.7-0.5
					c9.8-0.1,19.6-0.1,29.4-0.2c6.7-0.1,13.3-0.5,20-0.4c6.6,0.1,13.2,0.6,19.8,0.8c5.8,0.2,11.6,0.2,17.4,0.4
					c6.9,0.3,13.7,0.6,20.6,1c2.4,0.2,3,2.3,3.1,3.8c0.4,9.8,0.5,19.5,0.7,29.3c0.1,4.1,0.1,8.3,0.3,12.4c0.2,6.8,0.5,13.7,0.7,20.5
					c0.4,10.5,0.8,21,1.2,31.5c0.1,1.5,0,2.7-1.6,3.9c-1.4,1-2.1,2.9-3.4,4.1c-0.7,0.7-1.9,1.2-3,1.3c-4.5,0.4-9.2,1.2-13.6,0.8
					c-4.1-0.4-8.2-0.4-12.2-0.5c-3.4-0.1-6.9-0.4-10.2,0.7c-0.4,0.1-0.8,0.1-1.2,0c-8.5-0.8-16.9,0.1-25.3,0.5
					c-9.1,0.4-18.2,0.4-27.3,0.5c-7.8,0-15.6-0.2-23.4-0.2c-8.5,0-17,0.4-25.4,0.2c-5.5-0.1-11-0.9-16.5-1.6
					c-3.4-0.5-5.2-2.5-5.3-5.6c-0.1-6.9,0-13.8,0-20.7c0-6.9-0.1-13.8-0.1-20.7c0-2.8,0-5.6,0-8.3C324.8,429,325,429,325.2,429z
					 M477.9,475.5c-2.8-3.6-62.4-43.7-70.7-45.3c-11.7,8.4-22.9,17-34.8,24.8c-12,7.8-24.7,14.6-37,21.9c0,0.2,0.1,0.5,0.1,0.7
					c3.1,0,6.3,0,9.4,0c5.4-0.1,10.8-0.5,16.2-0.3c9.4,0.2,18.8,0.9,28.3,0.5c11-0.4,22,0.3,33.1,0.3c8.1,0,16.2-0.5,24.3-0.9
					c7.7-0.3,15.4-0.8,23.1-1.2C472.4,475.7,474.9,475.6,477.9,475.5z M483.6,384.7c-7.8,4.3-15.5,7.3-22.2,12.1
					c-7.9,5.7-16.7,10.6-25,15.9c-7.6,4.7-15.1,9.5-23,14.4c0.5,0.3,1.1,0.8,1.8,1.1c1.4,0.6,3,1.1,4.3,1.8c1.4,0.7,2.8,1.6,4.1,2.4
					c3.5,2.1,7.1,4.2,10.5,6.5c2.7,1.8,5.1,3.9,7.9,5.7c5.1,3.3,10.3,6.4,15.4,9.7c3.9,2.5,7.9,5,11.6,7.8c4.5,3.4,8.7,7.1,13,10.6
					c1,0.8,2.2,1.5,3.3,2.2c0.5-1.2,1-2.5,1.4-3.7c0.1-0.4-0.1-0.9-0.1-1.3c-0.4-4.7-1.1-9.4-1.2-14.1c-0.2-9.6-0.1-19.3-0.3-28.9
					c-0.2-9.1-0.5-18.2-0.8-27.3C484.2,394.8,483.9,390.1,483.6,384.7z M402.1,427c-1.3-0.6-2-0.9-2.7-1.3c-5.1-3.1-10-6.4-15.2-9.2
					c-6.6-3.6-13.6-6.8-20.2-10.4c-6.1-3.4-12.1-6.9-17.9-10.6c-3.7-2.3-7-5.1-10.5-7.6c-1.5-1.1-3.1-2-4.7-3.1
					c0,29.8,0,59.3,0,89.2c11.7-8.6,25.5-13.6,36.7-22C378.8,443.4,390.5,435.4,402.1,427z M475.5,382.5c-2.6-0.3-4.9-0.7-7.2-0.7
					c-4.7,0-9.4,0.2-14.1,0.2c-3.9-0.1-7.8-0.7-11.7-0.7c-8-0.1-16-0.1-24,0c-9.2,0.1-18.4,0.4-27.7,0.5c-2.6,0-5.2-0.5-7.8-0.5
					c-3.3,0.1-6.7,0.7-10,0.9c-2.8,0.2-5.5,0.1-8.3,0.2c-4.7,0.2-9.4,0.2-14.1,0.6c-3.8,0.3-7.6,1.1-12,1.8c3,1.8,5.4,3.1,7.7,4.5
					c4.1,2.5,8,5.2,12.3,7.6c6.1,3.3,12.5,6.3,18.6,9.6c9.4,5.2,18.7,10.6,28.1,15.9c1,0.6,2.9,0.7,3.9,0.2c3-1.2,5.8-2.8,8.5-4.4
					c4.8-2.7,9.5-5.4,14.1-8.3c3.4-2.2,6.3-4.8,9.7-7c4.9-3.2,10-6.2,15.1-9.2c5.6-3.3,11.2-6.5,16.8-9.8
					C474,383.4,474.6,383,475.5,382.5z"/>
				<path class="st0" d="M524.8,484.3c-2.4,0-6.9,0.1-11.3,0c-2.5-0.1-4.9-0.9-7.5,0.2c-1.5,0.6-3.1-0.1-3.5-1.9
					c-0.2-1.2-0.7-2.4-0.7-3.6c-0.1-9.7,0.1-19.4-0.2-29.1c-0.1-6.8-0.9-13.6-1-20.4c-0.2-7.6,0.1-15.2,0.1-22.8
					c0-4.4-0.3-8.9-0.3-13.3c0-5.4,0.4-10.9,0.4-16.3c0-5.8-0.5-11.6-0.5-17.5c0.1-7.7,0.4-15.3,0.8-23c0.2-3.9,4.1-6,9.5-5.9
					c5,0.1,10.1-0.6,15.1-0.3c5.1,0.3,10.2,1.3,15.2,2c0.4,0.1,0.7,0.3,1.1,0.4c1.3,0.3,3.2,0.3,3.6,1c0.9,1.5,1.5,3.4,1.5,5.2
					c0,3.4-0.7,6.8-0.8,10.2c-0.1,4,0.2,8,0.2,11.9c0,6.6-0.2,13.1-0.3,19.7c0,2.9,0.3,5.7,0.3,8.6c0.1,4.7,0.2,9.4,0.4,14.1
					c0.2,3.2,0.8,6.4,0.9,9.6c0.2,4.5,0,9.1,0,13.6c0,6,0.2,12,0.1,18c-0.1,5.8-0.5,11.6-0.6,17.5c0,3.2,0.5,6.4,0.7,9.6
					c0.1,2.1,0,4.2,0,6.3c0,2.2-0.2,3.8-3.8,4C538.7,482.3,532.8,483.4,524.8,484.3z M542.7,442.6c0.2,0,0.4,0,0.6,0
					c0-7.1,0.2-14.2-0.1-21.3c-0.4-9.7-1.4-19.4-1.8-29.2c-0.3-7.4-0.2-14.9-0.3-22.3c0-3.4,0-6.8,0.1-10.2c0.1-2.8,0.1-5.6,0.3-8.5
					c0.2-4,0.6-7.9,0.7-11.9c0-0.8-0.8-2.3-1.6-2.4c-3.2-0.6-6.4-1.1-9.6-1.1c-7.2-0.2-14.4-0.1-21.6-0.1c-2.3,0-3,0.8-3,2.9
					c0.4,11.5,0.7,22.9,0.8,34.4c0.1,17.9-0.1,35.8-0.1,53.7c0,8.6,0.2,17.3,0.4,25.9c0.2,7.6,0.4,15.3,0.8,22.9
					c0,0.8,1.1,2.3,1.6,2.3c4.6-0.3,9,1.5,13.8,0.6c5.7-1.1,11.7-1.2,17.5-1.8c0.8-0.1,2-1,2-1.6c0.1-2.1-0.4-4.2-0.4-6.4
					C542.6,459.9,542.7,451.2,542.7,442.6z"/>
				<path class="st0" d="M376.7,369.8c-11.2,0-22.4,0.1-33.6,0c-5.6-0.1-11.2-0.5-16.8-0.6c-2.2,0-2.6-1.2-2.9-2.6
					c-1.2-5.8-0.6-11.5-0.1-17.3c0.2-2.5,0.3-5,0.5-7.5c0.2-3.1,1.4-4,4.8-4.3c2.4-0.2,4.8-1.1,7.2-1.2c6.9-0.2,13.9,0.1,20.8-0.2
					c5.2-0.2,10.4-1.1,15.5-1.6c2.6-0.2,5.1,0,7.7-0.1c4-0.2,8-0.6,12-0.8c6.1-0.3,12.3-0.5,18.4-0.7c5.8-0.3,11.6-0.7,17.4-0.8
					c8.7-0.2,17.3-0.1,26-0.1c5.6,0,11.1-0.1,16.7,0.1c5.8,0.2,11.5,0.5,17.3,0.9c1.7,0.1,3.2,0.5,3.1,2.7
					c-0.1,3.6-0.5,7.3,0.6,10.7c1.3,3.8,1.1,7.5,0.7,11.2c-0.4,3.5-2,6.9-3.3,10.2c-0.2,0.4-1.7,0.6-2.6,0.6
					c-11.9-0.1-23.9-0.3-35.8-0.4c-9.3-0.1-18.5-0.1-27.8,0c-6.1,0.1-12.3,0.5-18.4,0.7c-9.1,0.4-18.3,0.7-27.4,1.1
					C376.7,369.6,376.7,369.7,376.7,369.8z M328.4,365.1c5.1,0,9.9,0,14.7,0c9.5,0,19,0,28.5-0.1c5.6,0,11.2-0.1,16.8-0.3
					c11.9-0.5,23.9-1.3,35.8-1.6c9.5-0.2,18.9,0.1,28.4,0.2c10,0.1,20,0.2,29.9,0.4c1.8,0,2.6-0.7,2.6-2.1c0.2-4.4,0.5-8.8,0.7-13.2
					c0.1-2.4,0.4-4.8,0.2-7.2c-0.1-1.3-0.6-3.6-1.3-3.7c-4-0.7-8.1-1.2-12.2-1.3c-6.4-0.1-12.7,0.2-19.1,0.2
					c-6.7,0.1-13.4-0.1-20.1,0.1c-8,0.3-15.9,0.8-23.9,1.2c-4.5,0.2-9,0.3-13.5,0.5c-7.4,0.3-14.7,0.5-22.1,0.8
					c-2.4,0.1-4.9,0.2-7.3,0.4c-5.8,0.5-11.6,1.2-17.5,1.4c-5.7,0.2-11.4-0.1-17.1-0.1c-3,0-3.8,1-3.6,3.8c0.1,1.6-0.1,3.3-0.1,4.9
					C328.4,354.7,328.4,360,328.4,365.1z"/>
				<path class="st0" d="M389.8,358.3c-8.8-0.2-17.5-0.6-26.3-0.5c-3.5,0-7,1.1-10.5,1.4c-3.2,0.2-6.5,0.1-9.7-0.2
					c-0.8-0.1-1.6-1.4-2.1-2.3c-0.1-0.2,1.2-1.3,1.9-1.4c7.9-0.8,15.7-1.9,23.7-2.2c6.2-0.3,12.4,0.4,18.6,0.6
					c3.7,0.1,7.5-0.2,11.2,0c1,0,2.4,0.7,2.7,1.4c0.7,1.6-0.5,2.8-2.3,2.9c-2.4,0.2-4.8,0-7.1,0
					C389.8,358.1,389.8,358.2,389.8,358.3z"/>
				<path class="st0" d="M348.2,345.9c5.1,0,10.3,0.1,15.4,0c3.1,0,6.3-0.5,9.4-0.4c1,0,2,1.1,3,1.8c-1,0.7-1.9,1.9-2.9,1.9
					c-7.7,0.2-15.3,0.3-23,0.3c-2.5,0-5-0.1-7.5-0.4c-0.7-0.1-1.3-0.8-1.9-1.2c0.7-0.7,1.3-1.7,2.1-1.9c1.8-0.4,3.7-0.2,5.5-0.3
					C348.2,345.8,348.2,345.8,348.2,345.9z"/>
			</g>
		</g>
		<path class="st0" d="M190.7,230.9c-1.3-3.5-2.2-3.9-5.6-4.8c-8.8-2.2-20.4-0.9-29.4-0.8c-50.5,0.3-100.7,7-151.1,7.1
			c-0.2,0-0.4,0.1-0.6,0.1c-1.4-0.1-2.8,0.7-2.8,2.4c-0.1,40.3-0.8,80.5-0.9,120.8c-0.1,21.6-0.6,43.3,0,64.9
			c0.5,15.1-0.2,31.1,2.1,46.1c0.1,0.9,1,1.6,1.8,1.8c8.2,2.4,18.6,0.8,27.1,1.3c10.2,0.5,20.1-0.2,30.3-0.6
			c22.4-0.8,45-2.4,67.4-4.4c10-0.9,19.7-0.7,29.6-1.2c4.3-0.2,13.7,1.3,17.2-1.6c3.3-2.6,3.6-12.5,4.2-15.8
			c1.5-8.9,2.2-17.8,2.9-26.9c3.1-40.4,6.9-80.1,7-120.6c0-11.5,0.3-23,0.6-34.4c0.1-5,0.2-10.1,0.3-15.1
			C190.8,244,192.5,235.9,190.7,230.9z M185.5,251.7c-0.3,14.9-0.9,29.8-0.9,44.7c0,24-0.5,47.8-2.2,71.6
			c-1.8,25.4-3.2,51.7-7.5,76.8c-0.5,2.9-0.4,11.2-3.2,13.1c-1.9,1.3-12.8,0.6-15.5,0.7c-12.8,0.3-25.3,1-38.1,1.8
			c-26.2,1.5-52.9,5.4-79.2,4.7c-5.9-0.2-11.8-0.7-17.6-0.8c-7.8-0.2-13,0.7-14.8-8.1c-2.3-10.8-0.9-24.4-1.2-35.5
			c-1.7-61,0.6-122.2,0.8-183.2c53.1-0.3,106-7.7,159.2-7.1c5.3,0.1,14.5-0.9,18.3,3C187.7,237.2,185.6,246.3,185.5,251.7z"/>
		<path class="st0" d="M103.9,356.3c-6.6-3.5-14.4-1.8-21.2-4.7c-4.8-0.1-8.1-2.8-9.8-7.9c0.1-3.4,0.7-6.2,1.8-8.3
			c0.4-0.1,0.8-0.3,1.2-0.6c4.3-4.1,8-3,13.4-2.8c2.3,0.1,9.6-1.5,11.5,0.1c1.1,0.9,2.4,0.7,3.3,0.1c0.4,0.3,0.8,0.5,1.1,0.8
			c2.5,2.1,6.1-1.5,3.6-3.6c-4.2-3.5-10.2-5.3-16.4-5.6c0.1-0.3,0.2-0.7,0.2-1.1v-7.5c0-3.3-5.1-3.3-5.1,0v7.5
			c0,0.5,0.1,0.8,0.3,1.2c-13.4,1.1-25.6,9.7-19.2,25.3c3.8,9.2,17.5,8.3,25.8,9.9c9.7,1.9,21.3,10.5,18.9,22
			c-0.4,2.2-1.2,3.9-2.1,5.4c-0.4,0-0.7,0.2-1.1,0.5c-4.6,3.5-11.7,2.4-17.1,2.3c-2.7,0-5.5,0.2-8.2,0.1c-2.5-0.1-4.2-1.1-6.6-1.8
			c-1.3-0.4-2.3,0.3-2.8,1.3c0,0-0.1-0.1-0.1-0.1c-1.9-2.6-6.3-0.1-4.4,2.6c3.6,5,12.3,6.5,20.2,6.8c0,0.9,0,1.8,0,2.7
			c-0.1,0.5-0.1,1.1,0,1.7c0,0,0,0,0,0c0,0.8,0,1.6,0,2.4c-0.1,3.3,4.8,3.2,5.1,0c0.1-1.1,0.7-2.2,0.9-3.2c0.2-1.3,0.1-2.4-0.4-3.5
			c2,0,3.9-0.1,5.5-0.2c9.7-0.6,16-6.9,16.4-16.8C119,369.8,114,361.6,103.9,356.3z"/>
		<path class="st3" d="M297.7,318.7l-18.9,3.5c0,0-3.5,190.4,4.5,202c8,11.6,25.7,5.9,35.1,7.7c9.4,1.8,253.6-5.1,253.6-5.1
			l-1.3-21.8l-263-1.6L297.7,318.7z"/>
	</g>
</g>
</svg>
