<?xml version="1.0" encoding="utf-8"?>
<!-- Generator: Adobe Illustrator 27.8.1, SVG Export Plug-In . SVG Version: 6.00 Build 0)  -->
<svg version="1.1" xmlns="http://www.w3.org/2000/svg" xmlns:xlink="http://www.w3.org/1999/xlink" x="0px" y="0px"
	 viewBox="0 0 209.1 144.6" style="enable-background:new 0 0 209.1 144.6;" xml:space="preserve">
<style type="text/css">
	.st0{fill:#e190e1;stroke:#6FCFA1;stroke-miterlimit:10;}
	.st1{fill:#FFFFFF;}
	.st2{fill:#e190e1;}
	.st3{fill:#e190e1;stroke:#AFE8D9;stroke-miterlimit:10;}
	.st4{fill:#e190e1;stroke:#BFE6D8;stroke-miterlimit:10;}
</style>
<g id="Background">
</g>
<g id="Graphic_Element">
	<g>
		<path class="st0" d="M27.5,124.4c-0.1-0.1-0.1-0.2-0.2-0.3c10.6-14.1,20.9-28.5,31.3-42.8c5.9-8.2,14.8-31.3,26.6-29.8
			c4.3,0.6,35.2,36.9,35.4,36.7c18.5-21.6,36.5-43.8,55.8-64.7c-5.4,14.1-33.3,72-52.1,71.2c-4-0.2-36.3-34.2-37.5-32.8
			c-18.4,21.6-36,44.2-54,66.3C30.6,127.6,28.7,126.2,27.5,124.4z"/>
		<path class="st1" d="M199.4,40.6c-0.4-2.5-0.8-4.8-1.3-7c-0.6-2.8-1.4-5.7-2.3-8.7c-1.3-4.8-2.7-9.8-3.5-14.7l0-0.2l0-0.2
			c0.1-0.6-0.2-1.4-0.6-1.9c-0.4-0.4-0.9-0.7-1.4-0.7c-0.1,0-0.2,0-0.3,0l-0.5,0.1L188.9,7c-0.2-0.1-0.5-0.2-0.7-0.2
			c-0.2,0-0.4,0-0.6,0.1c-6.8,1.6-13.6,3.5-20.2,5.3c-9.4,2.6-19.2,5.3-29,7.3c-0.7,0.1-1.1,0.5-1.2,1.2c-0.2,0.9,0.2,1.9,0.9,2.4
			l0.2,0.2l0.2,0.2c0,0,0.1,0.1,0.1,0.1c0.1,0.1,0.2,0.3,0.3,0.4c0.5,0.6,1.1,0.9,1.8,0.9c0.5,0,0.9-0.1,1.4-0.4l0.3-0.2l0.3-0.1
			c0.8-0.1,1.5-0.3,2.3-0.4c6.5-1.1,12.6-2.1,18.6-4.2c1.8-0.6,3.6-1.2,5.4-1.8c1-0.3,2-0.6,3.1-1c0.8-0.3,1.7-0.5,2.6-0.7
			c1.1-0.3,2.2-0.6,3.1-0.9c0.6-0.2,1.2-0.3,1.9-0.4l0.3,0l0.1-0.3c0.1,0,0.2,0.1,0.4,0.1l0.6,0.2l2.6-0.1l-0.9,1.1l-1.4,1.8l0,0.1
			l-0.9,1.1l0,0c-5.9,7.5-11.6,15.2-17.5,23l0,0l0,0c-4.3,5.3-8,10-11.5,14.5c-1.3,1.7-2.7,3.5-4.3,5.9l0,0.1l0,0.1
			c-1.6,1.9-3.2,3.8-4.7,5.6c-5.6,6.6-11.4,13.4-16.4,20.5l-1.2,1.6l-1.5-1.3c-2-1.7-4.6-4.8-6.7-7.2c-0.8-1-1.6-1.9-2.1-2.5
			c-0.7-0.8-1.4-1.6-2.1-2.4c-2.3-2.5-4.6-5.2-7.1-7.7c-1.5-1.5-3.1-3-4.6-4.4c-2.6-2.4-5.3-5-7.7-7.9c-0.9-1.1-1.9-2.3-2.8-3.5
			c-2.9-3.6-5.8-7.3-9-10.3c-0.2-0.2-0.5-0.4-0.8-0.5l-0.3-0.1l-0.2-0.2c-0.5-0.4-1-0.6-1.6-0.6c-0.5,0-0.9,0.2-1.4,0.5
			c-1.1,0.9-2,2.4-2.9,4c-0.2,0.4-0.5,0.8-0.7,1.2L73,47.5l-0.1,0.1c-1.9,2.2-3.6,4.7-5.2,7.1l0,0l0,0c-1.4,1.9-3.3,4.4-5.1,6.9
			c-0.7,1-1.4,2.1-2.1,3.1l-0.5,0.8l0,0.1l0,0.1c-5.1,6.4-9.5,12.9-14.3,20.2l0,0.1l0,0.1c0,0,0,0-0.1,0.1c0,0.1-0.1,0.1-0.1,0.2
			c-5.1,6.5-11.1,14.2-16.2,22.1c-0.3,0.5-0.7,1.1-1.1,1.6l-0.2,0.3l0,0.1l0,0c-1.4,1.9-2.9,3.7-4.4,5.6c-4.7,5.9-9.5,12.1-14,18.3
			c-0.4,0.5-0.3,0.9-0.2,1.2c0.3,0.7,1.1,1.4,2,1.6l0.6,0.1l0.4,0.5c0.3,0.4,0.7,0.6,1,0.7l0.6,0.1l0.4,0.4c0.3,0.4,0.8,0.7,1.2,0.9
			l0.1,0l0.1,0c0.3,0.1,0.5,0.2,0.7,0.2c0.8,0,1.1-0.9,1.2-1.2l0.1-0.3l0.1-0.2c2.6-3.9,5.1-7.8,7.6-11.6
			c7.1-10.9,14.5-22.2,22.2-33c5.6-7.8,11.8-15.5,17.6-22.5c2.7-3.3,5.7-6.9,8.5-10.5c0.5-0.6,1.1-1.5,1.7-2.4
			c0.8-1.2,1.7-2.5,2.7-3.7l1.3-1.6l1.4,1.5c2.2,2.3,4.5,4.5,6.8,6.6c0.5,0.4,0.9,0.8,1.4,1.3l0.1,0.1l0.1,0.1
			c2.4,2.6,4.9,5.1,7.3,7.6l0.7,0.8l0,0l0,0.1c4.2,4.9,8.4,9.8,12.8,14.7c0.7,0.7,1.4,1.6,2.2,2.7c3.4,4.2,8.6,10.6,13.1,10.6
			c1,0,1.9-0.3,2.7-0.9l0.1-0.1l0.2-0.1c0.4-0.2,1-0.6,1-1.4l0-0.7l0.5-0.5c0.1-0.1,0.2-0.2,0.2-0.2l0.1-0.1l1.4-1.4l0.3,0.3
			c0.2-0.3,0.4-0.7,0.5-0.9l0-0.1l0.1-0.3l0.2-0.2c0.9-0.8,1.8-1.7,2.5-2.7c1-1.4,2-2.8,3-4.1c2-2.7,4-5.6,6.3-8.3
			c4.3-4.9,8.6-10.3,14-17.5l1.2-1.6c6.4-8.5,13.1-17.3,18.9-26.4l0.1-0.1l0.1-0.1c0.5-0.5,0.9-1,1.4-1.6c2.1-2.3,4.3-4.7,6.3-7.2
			l2.1-2.6l1,3.2c0.1,0.4,0.3,0.8,0.4,1.2c0.6,1.8,1.1,3.5,1.5,5.1c1.3,5.4,2.4,10.9,3.5,16.2c0.6,2.9,1.2,5.9,1.8,8.8l0,0.1l0,0.1
			c0.1,0.8,0.7,2,1.9,2c0.2,0,0.4,0,0.6-0.1l0.1,0l0.1,0c0.1,0,0.2-0.1,0.3-0.1l0.4-0.2l0.4,0c0.8,0,1.5-0.3,1.8-0.8
			c0.1-0.1,0.4-0.5,0-1.3C201,50,200.2,45.2,199.4,40.6z"/>
	</g>
</g>
</svg>
