<?xml version="1.0" encoding="utf-8"?>
<!-- Generator: Adobe Illustrator 27.8.1, SVG Export Plug-In . SVG Version: 6.00 Build 0)  -->
<svg version="1.1" xmlns="http://www.w3.org/2000/svg" xmlns:xlink="http://www.w3.org/1999/xlink" x="0px" y="0px"
	 viewBox="0 0 210.9 191.8" style="enable-background:new 0 0 210.9 191.8;" xml:space="preserve">
<style type="text/css">
	.st0{fill:#e190e1;stroke:#6FCFA1;stroke-miterlimit:10;}
	.st1{fill:#FFFFFF;}
	.st2{fill:#e190e1;}
	.st3{fill:#e190e1;stroke:#AFE8D9;stroke-miterlimit:10;}
	.st4{fill:#e190e1;stroke:#BFE6D8;stroke-miterlimit:10;}
</style>
<g id="Background">
</g>
<g id="Graphic_Element">
	<g>
		<path class="st4" d="M147,84.9c0,0-3.8-13.3,2.7-17.9c6.5-4.5,13.9-7.7,15.5,0c1.7,7.7,2.9,8.9-1.6,13.6
			C159.3,85.5,156.2,92,147,84.9z"/>
		<path class="st0" d="M28.6,132.9c0,0,40.1-35.6,65-42.6c24.9-6.9,70.8,15.2,79.9,37.7c9.1,22.5,0.2,28,0.2,28L28.6,132.9z"/>
		<g>
			<g>
				<path class="st1" d="M36.6,41.5c-1,6.2-1.7,12.4-2.3,18.7c-0.3,3-0.6,6-1,9c0,0.3-0.1,0.6-0.1,1c0,0.2,0,0.4-0.1,0.6
					c0.1-0.7,0,0,0,0.1c-0.1,0.8-0.2,1.5-0.4,2.3c-0.2,1.5-0.5,2.9-0.7,4.4c-0.3,1.5-0.5,2.9-0.7,4.4c-0.1,0.9-0.2,1.7-0.3,2.6
					c0,0.4-0.1,0.7-0.1,1.1c0,0.2,0,0.3-0.1,0.5c0,0.1-0.1,1,0,0.3c-0.1,1.4-0.5,2.9-0.8,4.3c-0.3,1.4-0.6,2.9-0.8,4.3
					c-0.1,0.7-0.2,1.4-0.3,2.1c-0.1,0.5-0.1,1.1-0.2,1.6c0,0.1,0,0.3,0,0.4c0,0.1,0,0.2,0,0.4c0-0.4,0.1-0.4,0-0.1
					c-0.2,1.4-0.6,2.8-0.8,4.2c-0.5,3.1-0.7,6.2-0.7,9.3c0,0.8-0.1,1.7-0.2,2.5c0,0.5-0.1,0.9-0.2,1.3c0,0.1-0.1,0.5,0-0.1
					c0,0.3-0.1,0.5-0.1,0.8c-0.2,1.6-0.5,3.3-0.8,4.9c-0.3,1.8-0.6,3.6-0.8,5.4c-0.1,1.7-0.1,3.4-0.1,5.1c0,1.3,1.1,2.6,2.5,2.5
					c1.3-0.1,2.5-1.1,2.5-2.5c0-1.5-0.1-3,0-4.5c0-0.7,0.1-1.4,0.2-2.1c-0.1,0.7,0,0,0-0.1c0-0.2,0.1-0.4,0.1-0.6
					c0.1-0.4,0.1-0.8,0.2-1.1c0.5-3.1,1.1-6.1,1.4-9.2c0.1-1.5,0.1-3,0.1-4.4c0-1.5,0.2-3,0.4-4.5c0-0.2,0-0.4,0.1-0.6
					c0-0.1,0-0.1,0-0.2c0-0.3,0-0.3,0,0.1c0.1-0.2,0.1-0.7,0.2-0.9c0.1-0.7,0.3-1.5,0.5-2.2c0.1-0.7,0.3-1.3,0.4-2
					c0.1-0.5,0.1-1.1,0.2-1.6c0-0.1,0-0.3,0-0.4c0-0.1,0.1-1,0-0.3c0.1-1.4,0.5-2.9,0.8-4.3c0.3-1.4,0.6-2.9,0.8-4.3
					c0.3-1.6,0.5-3.2,0.6-4.8c0-0.3,0.1-0.6,0.1-1c0-0.2,0-0.4,0.1-0.6c-0.1,0.7,0,0,0-0.1c0.1-0.8,0.2-1.5,0.4-2.3
					c0.5-2.9,1-5.9,1.4-8.8c0.4-3.1,0.8-6.3,1.1-9.5c0.4-3.3,0.7-6.7,1.1-10c0.2-1.7,0.4-3.4,0.6-5.1c0.1-0.7-0.1,0.5,0-0.1
					c0-0.2,0.1-0.4,0.1-0.6c0.1-0.5,0.1-0.9,0.2-1.4c0.1-0.8,0.2-1.7,0.4-2.5c0.1-0.7,0.1-1.3-0.3-1.9c-0.3-0.5-0.9-1-1.5-1.1
					C38.4,39.5,36.8,40.2,36.6,41.5L36.6,41.5z"/>
			</g>
			<g>
				<path class="st1" d="M38.6,36.5c-1.5,0-2.8,1.2-2.8,2.7c0,1.2,0.8,2,1.8,2.4c1,0.4,2,0.2,3.1,0.2c1.2,0,2.4,0,3.7,0
					c1.2,0,2.4,0,3.6,0c0.5,0,1,0.1,1.6,0.1c0.3,0,0.5,0,0.8,0.1c0.1,0,0.3,0,0.4,0c0,0,0.5,0.1,0.3,0c-0.3,0,0.3,0,0.3,0
					c0.1,0,0.3,0,0.4,0.1c0.3,0,0.5,0.1,0.8,0.1c0.6,0.1,1.2,0.2,1.8,0.3c1.2,0.2,2.4,0.4,3.6,0.5c1.3,0.2,2.6,0.4,4,0.5
					c0.3,0,0.5,0.1,0.8,0.1c0.1,0,0.3,0,0.4,0.1c-0.1,0-0.3,0,0,0c0.6,0.1,1.3,0.2,1.9,0.3c4.8,0.7,9.7,1.1,14.6,1.7
					c4.9,0.6,9.7,0.9,14.6,1.2c4.9,0.4,9.8,0.9,14.6,1.4c2.5,0.3,4.9,0.5,7.4,0.8c1.2,0.1,2.5,0.3,3.7,0.4c1.3,0.1,2.2,0.3,3.2,0.4
					c4.9,0.7,9.7,1.8,14.5,2.5c1.3,0.2,1.9,0.2,3.1,0.5c1.1,0.2,2.2,0.5,3.3,0.8c2.4,0.5,4.8,0.8,7.3,1.1c2.3,0.2,4.7,0.5,7,0.5
					c1.2,0,2.3,0,3.5,0c0.5,0,1.1,0,1.6,0.1c0.3,0,0.6,0.1,0.9,0.1c-0.1,0-0.3,0,0,0c0.2,0,0.4,0.1,0.5,0.1c2.4,0.4,4.8,0.7,7.2,0.8
					c0.6,0,1.2,0,1.8,0.1c0.3,0,0.5,0,0.8,0.1c0.1,0,0.3,0,0.4,0c0.1,0,0.4,0.1,0.2,0c1.1,0.1,2,0.6,3,0.8c0.4,0.1,0.8,0.1,1.1,0.1
					c0.2,0,0.3,0,0.5,0c0.1,0,0.3,0.1,0.2,0c-0.1,0-0.2-0.1-0.3-0.1c0.2,0.1,0.5,0.2,0.7,0.3c0.4,0.1,0.8,0.2,1.1,0.2
					c1.3-0.1,2.6-1.1,2.5-2.5c-0.1-1.3-1.1-2.5-2.5-2.5c0.1,0,0.3,0.1,0.4,0.1c0.5,0.1-0.5-0.2-0.5-0.2c-0.3-0.1-0.7-0.2-1.1-0.2
					c-0.3,0-0.6-0.1-0.8,0c-0.2,0,0,0,0.1,0c-0.2,0-0.3-0.1-0.5-0.1c-1.2-0.3-2.3-0.7-3.5-0.8c-1.1-0.1-2.3-0.2-3.4-0.3
					c-0.6,0-1.2,0-1.8-0.1c-0.5,0-1.3-0.1-1.5-0.1c-2.1-0.3-4.8-0.8-7.1-0.8c-2.3,0-4.6,0-6.9-0.2c-1.2-0.1-2.4-0.2-3.5-0.3
					c-0.5-0.1-1.1-0.1-1.6-0.2c-0.1,0-0.7-0.1-0.4-0.1c-0.4,0-0.7-0.1-1.1-0.2c-2.2-0.3-4.4-1-6.6-1.4c-1.3-0.2-2.6-0.4-3.9-0.5
					c-0.1,0-0.3,0-0.4-0.1c0.1,0,0.3,0,0,0c-0.3,0-0.6-0.1-0.8-0.1c-0.6-0.1-1.3-0.2-1.9-0.3c-2.3-0.5-4.7-0.9-7-1.3
					c-4.9-0.8-9.9-1.3-14.8-1.9c-4.9-0.5-9.7-1.1-14.6-1.5c-4.9-0.4-9.7-0.6-14.6-1.1c-4.8-0.5-9.5-1-14.3-1.5
					c-2.4-0.3-4.5-0.6-7.1-0.9c-0.5-0.1-1.1-0.1-1.6-0.2c-0.3,0-0.5-0.1-0.8-0.1c0,0-0.4-0.1-0.2,0c0.1,0-0.5-0.1-0.5-0.1
					c-1.1-0.2-2.3-0.3-3.4-0.5c-2.4-0.4-4.8-0.8-7.2-1c-2.4-0.1-4.7,0-7.1,0c-0.5,0-1,0-1.5,0.1c-0.2,0-0.4,0-0.6,0
					c-0.2,0,0.1,0,0.2,0c-0.1,0-0.2-0.1-0.4-0.1c0.6,0.8,1.2,1.6,1.8,2.4c0,0,0-0.1,0-0.1c-0.1,0.4-0.2,0.8-0.3,1.3c0,0,0-0.1,0-0.1
					c-0.5,0.4-1,0.8-1.5,1.1c-0.1,0-0.3,0-0.4,0.1c1.3,0,2.6-1.2,2.5-2.5C41,37.7,40,36.6,38.6,36.5L38.6,36.5z"/>
			</g>
			<g>
				<path class="st1" d="M27.2,131.9c-0.1,0-0.1,0-0.2,0c-1.3,0-2.6,1.1-2.5,2.5c0.1,1.4,1.1,2.5,2.5,2.5c0.5,0,1.1,0,1.6,0.1
					c0.3,0,0.5,0,0.8,0.1c0.2,0,0.4,0,0.5,0.1c0.1,0,0.4,0.1,0.1,0c1.1,0.2,2.2,0.4,3.3,0.6c2.3,0.4,4.5,0.8,6.8,1.2
					c2.4,0.4,4.9,0.7,7.3,1c1.2,0.1,2.4,0.3,3.6,0.4c0.1,0,0.3,0,0.4,0.1c-0.1,0-0.3,0,0,0c0.3,0,0.5,0.1,0.8,0.1
					c0.6,0.1,1.2,0.2,1.8,0.3c4.7,0.7,9.4,1.4,14.1,2.1c4.6,0.7,9.2,1.6,13.8,2.5c4.7,0.9,9.3,1.6,14.1,1.9c2.3,0.2,4.6,0.2,6.8,0.4
					c0.3,0,0.5,0.1,0.8,0.1c-0.4,0,0.1,0,0.1,0c0.1,0,0.3,0,0.4,0.1c0.6,0.1,1.1,0.2,1.7,0.3c1.1,0.2,2.2,0.5,3.3,0.7
					c2.3,0.5,4.5,1,6.8,1.5c2.4,0.6,4.7,1,7.1,1.4c0.3,0,0.5,0.1,0.8,0.1c-0.3,0,0.3,0,0.4,0.1c0.6,0.1,1.2,0.2,1.8,0.2
					c1.3,0.2,2.6,0.4,3.9,0.5c2.3,0.3,4.6,0.5,7,0.7c2.3,0.1,4.7,0.1,7,0.2c2.3,0.1,4.6,0.5,6.9,0.6c0.5,0,1.1,0,1.6,0.1
					c0.5,0.1,0.2,0,0.1,0c0.1,0,0.3,0,0.4,0.1c0.4,0.1,0.9,0.1,1.3,0.2c1.1,0.1,2.2,0,3.3,0.1c1.2,0.1,2.3,0.2,3.5,0.2
					c1.1,0,2.2,0,3.4,0c0.5,0,0.9,0,1.3,0c0.1,0,0.2,0,0.3,0c0.2,0,0.2,0.1,0,0c-0.3-0.1-0.1,0,0,0c-0.3-0.1-0.7-0.3-0.9-0.6
					c0.7,1.1,2.3,1.6,3.4,0.9c1.1-0.7,1.6-2.2,0.9-3.4c-1.4-2.3-4.1-1.8-6.4-1.8c-1.2,0-2.3,0-3.5,0c-1.2-0.1-2.3-0.2-3.5-0.2
					c-0.5,0-1.1,0-1.6,0c-0.1,0-0.3,0-0.4,0c-0.4,0,0.3,0-0.1,0c-0.4-0.1-0.9-0.1-1.3-0.2c-1.2-0.1-2.3-0.1-3.5-0.2
					c-2.4-0.2-4.7-0.4-7.1-0.5c-2.4,0-4.8-0.1-7.1-0.3c-1.2-0.1-2.4-0.2-3.6-0.4c-0.5-0.1-1.1-0.1-1.6-0.2c-0.1,0-0.7-0.1-0.4-0.1
					c-0.3,0-0.6-0.1-1-0.1c-1.2-0.2-2.4-0.3-3.5-0.5c-0.7-0.1-1.4-0.2-2.2-0.3c0.3,0-0.3,0-0.4-0.1c-0.3,0-0.6-0.1-0.9-0.2
					c-2.3-0.4-4.5-1-6.8-1.5c-4.7-1-9.3-2.2-14.1-2.5c-2.3-0.1-4.6-0.3-7-0.5c-1.2-0.1-2.3-0.2-3.5-0.4c-0.3,0-0.1,0,0,0
					c-0.1,0-0.3,0-0.4-0.1c-0.3,0-0.5-0.1-0.8-0.1c-0.6-0.1-1.3-0.2-1.9-0.3c-4.7-0.8-9.4-1.7-14.1-2.6c-4.7-0.8-9.4-1.4-14.1-2.2
					c-2.5-0.4-5-0.8-7.5-1.1c-1.2-0.2-2.4-0.3-3.6-0.4c-0.6-0.1-1.2-0.1-1.8-0.2c-0.3,0-0.5-0.1-0.8-0.1c-0.3,0-0.1,0,0,0
					c-0.2,0-0.4,0-0.5-0.1c-2.4-0.3-4.7-0.7-7.1-1.1c-2.4-0.4-4.8-1-7.2-1.3c-1.2-0.2-2.3-0.3-3.5-0.3c0,1.7,0,3.3,0,5
					c0.1,0,0.1,0,0.2,0c1.3,0,2.6-1.1,2.5-2.5C29.7,133,28.6,131.9,27.2,131.9L27.2,131.9z"/>
			</g>
			<g>
				<path class="st1" d="M184.3,54.5c-0.1-0.1-0.2-0.1-0.2-0.2c-0.7-0.6-1.5-0.9-2.4-0.6c-0.8,0.2-1.5,0.9-1.7,1.7
					c-0.4,1.5-0.2,3-0.1,4.6c0.1,1.6-0.1,3.1-0.3,4.7c0,0.4-0.1,0.8-0.1,1.1c0,0.2,0,0.4-0.1,0.6c0,0.1-0.1,0.3,0,0.4
					c0-0.2,0.1-0.4,0-0.1c-0.1,0.8-0.2,1.6-0.4,2.4c-0.3,1.7-0.5,3.3-0.8,5c-0.5,3.5-1.2,6.9-1.4,10.4c-0.1,0.8-0.1,1.7-0.2,2.5
					c0,0.4-0.1,0.8-0.1,1.2c0,0.1,0,0.5-0.1,0.6c0,0,0.1-0.5,0-0.2c0,0.1,0,0.3-0.1,0.4c-0.3,1.8-0.5,3.6-0.8,5.4
					c-0.2,1.6-0.4,3.3-0.6,4.9c0,0.2,0,0.4-0.1,0.6c0,0-0.1,0.3,0,0.3c0,0,0.1-0.5,0-0.2c-0.1,0.4-0.1,0.9-0.2,1.3
					c-0.1,0.8-0.3,1.6-0.4,2.3c-0.2,1-0.3,1.9-0.4,2.9c0,0.4-0.1,0.7-0.1,1.1c0,0.1,0,0.2,0,0.3c0,0.3,0-0.2,0-0.2
					c0,0.2-0.1,0.4-0.1,0.6c-0.3,1.7-0.8,3.4-1,5.1c-0.1,0.8-0.1,1.7-0.2,2.5c0,0.1,0,0.5-0.1,0.6c0,0,0.1-0.5,0-0.2
					c0,0.1,0,0.2,0,0.3c-0.1,0.4-0.1,0.8-0.2,1.2c-0.3,1.6-0.6,3.2-0.9,4.8c-0.6,3.2-1.3,6.4-2,9.6c-0.4,1.7-0.6,3.5-0.8,5.2
					c0,0.4-0.1,0.8-0.1,1.2c0,0.2,0,0.4-0.1,0.6c0,0.1,0,0.2,0,0.3c0,0.4,0.1-0.5,0-0.1c-0.1,0.8-0.2,1.6-0.4,2.3
					c-0.3,1.6-0.6,3.2-1.1,4.8c-0.4,1.4-0.6,2.9-0.8,4.3c-0.1,0.8-0.6,1.5-0.5,2.4c0.1,0.7,0.2,1.3,0.7,1.8c0.4,0.4,1.1,0.8,1.8,0.7
					c1.2-0.1,2.7-1.1,2.5-2.5c0-0.4-0.2,0.5,0,0.1c0.1-0.1,0.1-0.3,0.2-0.4c0.1-0.3,0.2-0.7,0.2-1c0.1-0.7,0.2-1.4,0.3-2.2
					c0.3-1.6,0.8-3.1,1.1-4.7c0.3-1.6,0.6-3.1,0.8-4.7c0.1-1,0.3-1.9,0.4-2.9c0-0.3,0.2-0.8,0.1-1.1c0,0-0.1,0.5,0,0.2
					c0-0.1,0-0.2,0-0.3c0-0.2,0.1-0.4,0.1-0.6c0.2-1.6,0.7-3.1,1-4.7c0.4-1.6,0.7-3.2,1-4.8c0.6-3.4,1.4-6.8,1.8-10.2
					c0.1-0.8,0.1-1.6,0.2-2.4c0-0.1,0-0.2,0-0.3c0-0.3,0,0.2,0,0.2c0.1-0.1,0.1-0.4,0.1-0.5c0.1-0.4,0.2-0.8,0.2-1.2
					c0.4-1.7,0.7-3.4,0.8-5.1c0-0.2,0-0.4,0.1-0.6c0-0.1,0-0.2,0-0.3c0-0.1,0.1-0.5,0-0.1c-0.1,0.3,0-0.2,0-0.3
					c0-0.2,0.1-0.4,0.1-0.7c0.1-0.8,0.3-1.6,0.4-2.3c0.3-1.8,0.5-3.5,0.7-5.3c0.1-0.8,0.2-1.6,0.3-2.4c0-0.1,0.1-0.7,0-0.3
					c0,0.4,0-0.3,0.1-0.4c0.1-0.4,0.1-0.8,0.2-1.2c0.3-1.8,0.6-3.6,0.7-5.3c0.1-1.6,0.2-3.2,0.4-4.8c0-0.2,0.1-0.4,0.1-0.7
					c0-0.3,0,0.2,0,0.2c0,0,0-0.2,0-0.3c0.1-0.4,0.1-0.8,0.2-1.3c0.1-0.8,0.3-1.6,0.4-2.5c0.5-3.3,1.1-6.6,1.5-9.9
					c0.2-1.8,0.5-3.5,0.6-5.3c0.1-0.8,0.1-1.5,0.1-2.3c0-0.7-0.1-1.4-0.1-2.1c0-0.3,0-0.7,0-1c0-0.1,0.1-0.6,0-0.2
					c-0.1,0.4,0-0.1,0.1-0.2c-1.4,0.4-2.8,0.7-4.2,1.1c0.1,0.1,0.2,0.1,0.2,0.2c0.5,0.4,1,0.7,1.8,0.7c0.6,0,1.3-0.3,1.8-0.7
					C185.1,57.2,185.4,55.4,184.3,54.5L184.3,54.5z"/>
			</g>
			<g>
				<path class="st1" d="M36.8,39c-0.6,0.6-1,1.4-1.2,2.2c-0.1,0.5-0.2,1-0.3,1.5c-0.4,1.4-0.6,2.9-1,4.4c-0.4,1.7-0.8,3.3-0.7,5.1
					c0,0.8,0.1,1.5,0,2.3c0,0.2,0,0.4-0.1,0.6c0,0.1-0.1,0.2,0,0.3c0,0,0.1-0.5,0-0.2c-0.1,0.4-0.1,0.8-0.2,1.2
					c-0.3,1.6-0.7,3.1-1,4.6c-0.2,0.8-0.3,1.7-0.4,2.6c0,0.2,0,0.3-0.1,0.5c0,0,0.1-0.5,0-0.2c0,0.2-0.1,0.4-0.1,0.6
					c-0.1,0.4-0.1,0.8-0.2,1.2c-0.3,1.7-0.5,3.4-0.7,5.2c-0.1,0.5,0.1-0.4,0,0.1c0,0.2-0.1,0.4-0.1,0.6c-0.1,0.4-0.1,0.8-0.2,1.2
					c-0.2,0.8-0.3,1.6-0.5,2.3c-0.3,1.5-0.6,3.1-1,4.6c-0.2,0.9-0.4,1.8-0.5,2.7c-0.1,0.8,0,1.6-0.1,2.3c0,0.1,0,0.2,0,0.3
					c0,0.3,0-0.2,0-0.2c0,0-0.1,0.6-0.1,0.7c-0.1,0.4-0.1,0.8-0.2,1.2c-0.1,0.8-0.2,1.6-0.4,2.4c-0.2,1.6-0.6,3.2-0.9,4.8
					c-0.1,1-0.3,1.9-0.4,2.9c0,0.4-0.1,0.8-0.1,1.2c-0.1,0.5,0.1-0.4,0,0.1c0,0.2-0.1,0.4-0.1,0.7c-0.2,1.5-0.6,3-0.8,4.5
					c-0.2,1.7-0.2,3.4-0.5,5.1c-0.2,1.6-0.4,3.2-0.6,4.7c0,0.4-0.1,0.8-0.1,1.2c0,0.1,0,0.2,0,0.3c0,0,0.1-0.5,0-0.2
					c0,0.2-0.1,0.4-0.1,0.7c-0.1,0.8-0.3,1.6-0.4,2.4c-0.3,1.6-0.7,3.2-1,4.8c-0.3,1.6-0.5,3.2-0.8,4.8c-0.2,0.9-0.3,1.9-0.3,2.8
					c0,0.3-0.1,0.8-0.1,1.1c0,0,0.1-0.5,0-0.2c0,0.1,0,0.2,0,0.3c0,0.2-0.1,0.4-0.1,0.6c-0.2,1.1-0.2,2.1,0,3.2c1-1,2-2,3.1-3.1
					c-1-0.1-1.7-0.1-2.6,0.4c-1.1,0.6-1.6,2.3-0.9,3.4c0.7,1.1,2.2,1.6,3.4,0.9c-0.4,0-0.9,0.1-1.3,0.1c0.9,0.1,1.7,0,2.4-0.6
					c0.7-0.7,0.8-1.5,0.6-2.4c0.1,0.7,0,0.1,0-0.1c0-0.2,0-0.4,0-0.5c0-0.1,0-0.8,0-0.1c0-0.2,0.1-0.4,0.1-0.5
					c0.1-1,0.2-1.9,0.3-2.9c0-0.2,0-0.4,0.1-0.6c0-0.2,0-0.7,0-0.1c0-0.4,0.1-0.7,0.2-1.1c0.2-0.8,0.3-1.6,0.4-2.5
					c0.5-3.2,1.3-6.3,1.7-9.4c0.2-1.8,0.4-3.5,0.6-5.3c0.2-1.5,0.4-3,0.5-4.5c0-0.4,0-0.7,0-1.1c0-0.2,0-0.4,0.1-0.5
					c0.1-0.6-0.1,0.6,0-0.1c0.1-0.8,0.3-1.6,0.4-2.3c0.3-1.7,0.6-3.3,0.8-5c0-0.4,0.1-0.8,0.1-1.2c0-0.2,0-0.4,0.1-0.6
					c-0.1,0.7,0,0,0-0.1c0.1-0.8,0.3-1.7,0.5-2.5c0.3-1.6,0.5-3.2,0.8-4.7c0.1-0.8,0.3-1.7,0.4-2.6c0.1-0.8,0.1-1.6,0.1-2.4
					c0-0.2,0-0.4,0-0.6c0-0.6-0.1,0.5,0,0c0.1-0.3,0.2-0.7,0.2-1c0.2-0.8,0.3-1.6,0.5-2.4c0.3-1.5,0.7-3,1-4.5
					c0.4-1.7,0.5-3.4,0.7-5.2c0-0.2,0-0.4,0.1-0.6c-0.1,0.7,0,0,0-0.1c0.1-0.4,0.1-0.7,0.2-1.1c0.2-0.8,0.3-1.6,0.4-2.4
					c0-0.2,0.1-0.4,0.1-0.7c0-0.3,0-0.2,0,0.1c0-0.2,0.1-0.4,0.1-0.6c0.1-0.3,0.1-0.6,0.2-0.9c0.2-0.8,0.3-1.6,0.5-2.4
					c0.4-1.9,0.8-3.8,1-5.7c0.1-0.9,0.1-1.7,0-2.6c0-0.4,0-0.7,0-1.1c0-0.2,0-0.4,0-0.5c0-0.3,0-0.2,0,0.1c0-0.1,0-0.2,0.1-0.4
					c0.2-0.9,0.4-1.7,0.6-2.6c0.2-0.8,0.3-1.7,0.4-2.5c0.1-0.7,0.4-1.3,0.5-2c0.1-0.3,0.1-0.6,0.2-0.9c0.1-0.3,0.2-0.3-0.1,0.1
					c0.4-0.5-0.4,0.3-0.1,0.1c1-0.9,1-2.6,0-3.5C39.3,38.1,37.8,38.1,36.8,39L36.8,39z"/>
			</g>
			<g>
				<path class="st1" d="M183.2,54.5c0.3,0.2,0.5,0.3,0.8,0.5c-0.6-0.8-1.9-0.9-2.7-0.5c-0.8,0.4-1.6,1.3-1.5,2.3
					c0.1,0.8,0,1.7,0,2.5c1.7,0,3.3,0,5,0c0-0.1,0-0.2,0-0.4c0-0.5-0.1,0.1,0,0.2c0-0.3,0.1-0.7,0.2-0.9c0-0.1,0.1-0.3,0.1-0.4
					c0-0.1,0.1-0.2,0.1-0.2c-0.2,0.4-0.2,0.5-0.1,0.3c0.1-0.1,0.2-0.2,0.2-0.3c-0.2,0.5-0.3,0.4-0.1,0.1c-1.4-0.4-2.8-0.7-4.2-1.1
					c0,0.1,0,0.1,0.1,0.2c0.1,0.2,0-0.3,0-0.3c0,0.1,0,0.4,0,0.5c0,0.4,0,0.8-0.1,1.1c0,0.8,0,1.6,0,2.5c0,1.6,0,3.3,0,4.9
					c0,1.7,0,3.3,0,5c0,1.6,0.1,3.3-0.1,4.9c0,0.1,0,0.3,0,0.4c0,0.1,0,0.4,0,0.1c0-0.3,0,0,0,0.1c0,0.1,0,0.2,0,0.3
					c-0.1,0.4-0.1,0.8-0.2,1.3c-0.1,1-0.3,2-0.4,3c-0.1,0.8-0.2,1.7-0.3,2.5c0,0.4-0.1,0.8-0.1,1.2c0,0.2,0,0.4-0.1,0.6
					c0,0.1,0,0.3,0,0.4c0-0.2,0.1-0.4,0-0.1c-0.3,1.8-0.5,3.5-0.6,5.3c0,1.7-0.3,3.3-0.2,5c0,3.3-0.5,6.5-0.8,9.8
					c-0.2,1.6-0.3,3.3-0.5,4.9c0,0.2,0,0.4-0.1,0.6c-0.1,0.5,0.1-0.4,0,0.1c-0.1,0.4-0.1,0.9-0.2,1.3c-0.1,0.8-0.3,1.5-0.4,2.3
					c-0.3,1.6-0.8,3.2-1.1,4.8c-0.3,1.8-0.6,3.5-0.8,5.3c-0.1,0.8-0.1,1.6-0.2,2.4c0,0.2,0,0.4-0.1,0.7c0,0,0,0.3,0,0.3
					c0,0,0.1-0.5,0-0.2c-0.1,0.4-0.1,0.8-0.2,1.2c-0.2,0.8-0.4,1.6-0.6,2.4c-0.2,0.8-0.3,1.7-0.4,2.5c-0.5,3.3-1.2,6.6-1.7,9.9
					c-0.1,0.8-0.3,1.7-0.4,2.5c-0.1,0.5-0.1,1-0.2,1.6c0,0.2,0,0.4-0.1,0.5c0,0.1,0,0.2,0,0.3c0,0-0.1,0.6,0,0.2
					c0.1-0.4,0,0.2,0,0.3c0,0.2-0.1,0.4-0.1,0.5c-0.1,0.4-0.1,0.7-0.3,1.1c0,0.1-0.1,0.2-0.1,0.3c0,0,0.2-0.5,0.1-0.3
					c-0.1,0.1-0.1,0.3-0.2,0.4c-0.1,0.3-0.3,0.5-0.4,0.8c-0.4,0.9-0.7,1.8-0.6,2.8c0.1,1.3,1.1,2.6,2.5,2.5c1.3-0.1,2.6-1.1,2.5-2.5
					c0-0.1,0-0.3,0-0.5c0,0-0.1,0.5,0,0.3c0-0.1,0-0.1,0-0.2c0,0,0.1-0.2,0.1-0.3c0,0-0.2,0.5-0.1,0.3c0.1-0.1,0.1-0.3,0.2-0.4
					c0.4-0.7,0.7-1.4,0.9-2.2c0.2-0.9,0.3-1.9,0.5-2.8c0-0.4,0.1-0.7,0.1-1.1c0-0.2,0-0.4,0.1-0.5c0-0.2,0.1-0.3,0,0.1
					c0-0.1,0-0.3,0.1-0.4c0.5-3.3,1.1-6.6,1.7-9.9c0.3-1.7,0.5-3.3,0.9-5c0.2-0.8,0.4-1.6,0.6-2.4c0.2-1,0.3-1.9,0.4-2.9
					c0.1-0.8,0.1-1.6,0.2-2.5c0-0.1,0-0.2,0-0.3c0,0-0.1,0.5,0,0.2c0-0.2,0.1-0.4,0.1-0.6c0.1-0.4,0.1-0.9,0.2-1.3
					c0.3-1.6,0.6-3.2,1-4.7c0.8-3.3,1.3-6.7,1.6-10.2c0.2-1.6,0.3-3.3,0.5-4.9c0.2-1.6,0.4-3.2,0.5-4.9c0.1-0.9,0-1.7,0-2.6
					c0-0.8,0.1-1.7,0.2-2.5c0.1-1.6,0.1-3.2,0.2-4.8c0-0.3,0,0.2,0,0.2c0-0.1,0-0.3,0.1-0.4c0-0.2,0.1-0.4,0.1-0.6
					c0.1-0.6,0.2-1.2,0.2-1.7c0.1-0.8,0.2-1.7,0.3-2.5c0.1-0.8,0.2-1.7,0.3-2.5c0-0.3,0,0.2,0,0.2c0-0.1,0-0.2,0-0.3
					c0-0.2,0.1-0.4,0.1-0.6c0.1-0.5,0.1-0.9,0.2-1.4c0.3-1.8,0.5-3.6,0.5-5.5c0-1.7-0.1-3.3-0.1-5c0-1.6,0-3.3,0-4.9
					c0-1.6-0.1-3.3,0-4.9c0-0.9,0.1-1.7-0.2-2.6c-0.2-0.8-0.9-1.5-1.7-1.7c-0.9-0.3-1.7,0.1-2.4,0.6c-0.8,0.6-1.2,1.7-1.5,2.6
					c-0.2,0.8-0.4,1.7-0.4,2.5c0,1.3,1.2,2.6,2.5,2.5c1.4-0.1,2.4-1.1,2.5-2.5c0-0.8,0.1-1.7,0-2.5c-1.4,0.6-2.8,1.2-4.3,1.8
					c0.3,0.4,0.9,0.7,1.4,0.8c1.3,0.3,2.8-0.4,3.1-1.7C185.2,56.3,184.5,54.8,183.2,54.5L183.2,54.5z"/>
			</g>
			<g>
				<path class="st1" d="M24.5,136.9c0.6,0,1.1-0.1,1.7,0c0.3,0,0,0,0,0c0.1,0,0.3,0.1,0.4,0.1c0.3,0.1,0.6,0.2,0.9,0.3
					c1.2,0.3,2.4,0.5,3.5,0.9c1.2,0.4,2.4,0.8,3.7,0.9c0.5,0.1,1,0.1,1.5,0.1c0.4,0-0.3-0.1,0.1,0c0.1,0,0.3,0,0.4,0.1
					c0.3,0.1,0.6,0.2,0.9,0.2c2.4,0.7,4.8,1.1,7.4,1.3c1.2,0.1,2.3,0.2,3.5,0.3c0,0,0.4,0.1,0.2,0c-0.2,0,0.2,0,0.2,0
					c0.3,0,0.5,0.1,0.8,0.1c0.6,0.1,1.3,0.2,1.9,0.3c2.5,0.4,5.1,0.6,7.6,0.9c2.3,0.2,4.6,0.7,7.1,1.2c4.9,1,9.8,2.1,14.8,3.1
					c1.3,0.3,2.7,0.4,4,0.5c1.3,0.1,1.9,0.2,3.1,0.4c2.4,0.4,4.8,0.9,7.3,1.4c2.5,0.4,4.9,1,7.3,1.4c1.3,0.2,2.6,0.3,3.9,0.4
					c0.5,0,1.1,0.1,1.6,0.1c0.3,0,0.6,0.1,1,0.1c0.1,0,0.3,0,0.4,0c0.1,0,0.4,0.1,0.2,0c1.3,0.2,2.7,0.4,4,0.6
					c0.8,0.1,2,0.3,3.1,0.6c2.5,0.6,5,0.9,7.6,1.2c0.6,0.1,1.2,0.1,1.8,0.1c0.3,0,0.6,0.1,0.8,0.1c0,0,0.4,0.1,0.2,0
					c-0.1,0,0.3,0,0.4,0.1c1.2,0.2,2.4,0.5,3.6,0.7c1.2,0.3,2.5,0.6,3.7,0.8c1.3,0.2,2.6,0.4,4,0.5c2.4,0.2,4.7,0.6,7.4,0.8
					c1.3,0.1,2.6,0.2,3.8,0.4c1.1,0.1,2,0.3,3.3,0.5c2.4,0.5,4.9,0.6,7.3,1.2c1.3,0.3,2.6,0.7,3.9,0.8c0.1,0,0.8,0.1,0.4,0
					c0.3,0,0.5,0.1,0.8,0.1c0.7,0.1,1.5,0.1,2.2,0.2c0.2,0,0.6,0.1,0.2,0c0.3,0.1,0.7,0.1,1,0.2c0.2,0,0.4,0,0.6,0c0,0,0.3,0,0.3,0
					c-0.1,0-0.1,0-0.2,0c-0.5,0-0.9-0.3-1.3-0.9c0.7-1.3,1.4-2.5,2.2-3.8c0.3,0,0.5,0.1,0.8,0.3c0.1,0.1,0.1,0.1-0.1-0.1
					c-0.8-1-2.7-0.9-3.5,0c-1,1.1-0.9,2.4,0,3.5c0.7,0.9,1.7,1.2,2.8,1.3c1.9,0.2,3.1-2.2,2.2-3.8c-0.7-1.2-2.1-1.7-3.5-1.6
					c-0.3,0,0.3,0,0.3,0c0,0-0.3-0.1-0.3-0.1c-0.4-0.1-0.8-0.1-1.2-0.2c-0.2,0-0.5,0-0.7,0c-0.1,0-0.3,0-0.4,0c0,0-0.5,0-0.3,0
					c0.2,0-0.2,0-0.2,0c-0.2,0-0.3-0.1-0.5-0.1c-0.4-0.1-0.8-0.1-1.2-0.1c-0.1,0-0.7-0.1-0.4,0c-0.4-0.1-0.7-0.1-1-0.2
					c-1.2-0.3-2.4-0.6-3.6-0.7c-2.5-0.4-5-0.9-7.5-1.2c-2.6-0.4-5.3-0.6-7.9-0.8c-1.5-0.2-2.4-0.3-3.8-0.5c-1.2-0.1-2.4-0.2-3.6-0.4
					c-0.5-0.1-0.3,0-0.2,0c-0.1,0-0.3,0-0.4-0.1c-0.3,0-0.6-0.1-0.8-0.1c-0.6-0.1-1.3-0.3-1.9-0.5c-1.2-0.3-2.5-0.6-3.7-0.9
					c-1.3-0.3-2.7-0.4-4-0.5c-0.6,0-1.2-0.1-1.8-0.1c-0.3,0-0.6-0.1-1-0.1c0,0-0.4-0.1-0.2,0c0.1,0-0.3,0-0.4-0.1
					c-1.2-0.2-2.4-0.4-3.7-0.6c-1.1-0.2-2.3-0.5-3.4-0.7c-0.4-0.1-0.9-0.1-1.3-0.2c-0.1,0-0.3,0-0.4,0c0.1,0,0.3,0,0,0
					c-0.7-0.1-1.3-0.2-2-0.3c-1.4-0.2-2.7-0.4-4.1-0.5c-1.2-0.1-2.4-0.2-3.6-0.3c-0.3,0-0.5-0.1-0.8-0.1c0.3,0-0.1,0-0.2,0
					c-0.1,0-0.3,0-0.4-0.1c-0.6-0.1-1.3-0.2-1.9-0.4c-2.4-0.6-4.9-0.9-7.4-1.4c-2.5-0.5-5-1.1-7.6-1.3c-1.2-0.1-2.5-0.1-3.4-0.3
					c-1.3-0.2-2.6-0.5-3.8-0.7c-2.5-0.5-5-1-7.5-1.6c-5.1-1.2-10.1-2-15.3-2.5c-0.3,0-0.7-0.1-1-0.1c-0.1,0-0.3,0-0.4,0
					c0.1,0,0.3,0,0,0c-0.6-0.1-1.3-0.2-1.9-0.3c-1.3-0.2-2.7-0.5-4-0.6c-1.2-0.1-2.3-0.2-3.5-0.3c-0.6,0-1.2-0.1-1.8-0.1
					c-0.3,0-0.5-0.1-0.8-0.1c-0.4-0.1,0.3,0-0.1,0c-0.2,0-0.4-0.1-0.5-0.1c-1.2-0.2-2.3-0.6-3.5-0.9c-1.2-0.3-2.5-0.4-3.8-0.5
					c0.4,0-0.4-0.1-0.5-0.1c-0.3-0.1-0.5-0.1-0.8-0.2c-0.6-0.2-1.2-0.4-1.8-0.6c-1.1-0.3-2.3-0.5-3.4-0.9c-1.3-0.4-2.5-0.4-3.9-0.4
					c-1.3,0-2.6,1.1-2.5,2.5C22.1,135.7,23.2,136.9,24.5,136.9L24.5,136.9z"/>
			</g>
			<g>
				<path class="st1" d="M29,117.6c-0.1,0-0.1,0-0.2,0c-1.3,0-2.6,1.2-2.5,2.5c0.1,1.5,1.1,2.4,2.5,2.5c1.5,0.1,3-0.9,4.3-1.6
					c1.2-0.7,2.5-1.4,3.7-2.1c1.3-0.7,2.6-1.4,3.8-2.2c1.2-0.7,2.3-1.6,3.5-2.3c2.5-1.5,5.1-2.7,7.7-4.1c1.3-0.7,2.6-1.4,3.9-2.1
					c1.2-0.6,2.2-1.4,3.4-2c2.5-1.3,4.8-3,7.2-4.5c2.5-1.6,5.1-3.2,7.7-4.7c2.5-1.4,5.2-2.5,7.8-3.8c1.3-0.6,2.7-1.3,4-2
					c1.3-0.6,2.5-1.4,3.7-2c0.2-0.1,0.3-0.1,0.5-0.2c0,0,0.4-0.2,0.1,0c0.3-0.1,0.6-0.3,1-0.4c0.6-0.2,1.3-0.4,1.9-0.6
					c1.3-0.4,2.7-0.8,4.1-1.1c1.4-0.4,2.8-0.7,4.3-1c1.5-0.3,2.5-0.6,3.9-0.6c1.4-0.1,2.9,0,4.3,0c1.4,0,2.7,0,4.1,0.1
					c0.1,0,0.6,0.1,0.3,0c-0.3,0,0.2,0,0.3,0.1c0.3,0.1,0.6,0.1,0.8,0.2c0.7,0.2,1.4,0.5,2.2,0.7c0.3,0.1,0.6,0.2,0.9,0.3
					c0.4,0.2-0.2-0.1,0.1,0.1c0.1,0.1,0.3,0.1,0.4,0.2c0.1,0.1,0.3,0.2,0.4,0.3c0.3,0.2-0.3-0.2,0,0c0.4,0.3,0.8,0.6,1.1,0.9
					c0.5,0.4,1.1,0.7,1.6,1c0.5,0.4,1.1,0.8,1.6,1.1c0.3,0.2,0.5,0.3,0.8,0.5c-0.4-0.2-0.1,0,0,0c0.1,0.1,0.2,0.2,0.3,0.3
					c0.6,0.5,1.1,1.1,1.7,1.6c0.4,0.3,0.9,0.6,1.4,0.9c0.1,0.1,0.2,0.2,0.4,0.2c-0.4-0.3-0.1,0,0,0c0.3,0.3,0.6,0.6,0.9,0.9
					c1,1,1.9,1.9,2.9,2.9c1.8,2,3.5,4.1,5.6,5.9c1.1,0.9,2.2,1.9,3.2,2.9c0.9,1,1.7,2.1,2.8,2.9c2.2,1.8,4.5,3.6,6.6,5.6
					c1,1,2,2,3,3.1c1,1,2,1.9,3.1,2.9c2.1,1.9,4.2,3.7,6.1,5.8c0.4,0.5,0.8,1,1.2,1.5c0.5,0.5,1,0.9,1.5,1.3
					c0.5,0.4,0.9,0.9,1.4,1.4c0.3,0.3,0.7,0.6,1.1,0.9c0.2,0.2,0,0,0,0c0.2,0.2,0.4,0.3,0.5,0.5c0.4,0.4,0.8,0.8,1.2,1.2
					c0.2,0.1,0.3,0.3,0.5,0.4c0.1,0.1,0.2,0.2,0.3,0.3c0,0,0,0,0.1,0.1c-0.3-0.3-0.4-0.6-0.4-1.1c0.1,1.3,1.1,2.6,2.5,2.5
					c1.3-0.1,2.6-1.1,2.5-2.5c-0.1-1.7-1.1-2.5-2.2-3.6c-0.4-0.4-0.8-0.9-1.3-1.3c-0.2-0.1-0.4-0.3-0.5-0.4c0.1,0.1-0.7-0.5-0.4-0.3
					c0.2,0.2-0.2-0.2-0.2-0.2c-0.2-0.1-0.3-0.3-0.4-0.4c-1-1-2.1-1.8-3-2.9c-0.9-1-1.8-2-2.7-3c-2.1-2.1-4.5-3.9-6.6-6
					c-1-1-1.9-2.1-2.9-3.1c-1-1-2.1-2-3.3-2.9c-1.1-0.9-2.3-1.8-3.4-2.8c-1.1-0.9-2-1.9-3-3c-1.9-2.1-4.2-3.7-6.2-5.8
					c-1.9-2.1-3.7-4.2-5.7-6.2c-1-1-2-1.9-3.3-2.6c-0.1-0.1-0.3-0.2-0.4-0.2c-0.4-0.3-0.1-0.1,0,0c-0.2-0.2-0.4-0.4-0.7-0.7
					c-0.6-0.6-1.2-1.1-1.9-1.5c-1.1-0.7-2.2-1.5-3.3-2.2c-0.3-0.2-0.5-0.3-0.8-0.5c0.3,0.2,0,0,0,0c-0.2-0.2-0.5-0.4-0.7-0.5
					c-0.7-0.5-1.4-0.9-2.2-1.2c-1.3-0.5-2.6-1-4-1.3c-1.5-0.3-3-0.4-4.5-0.4c-3.1,0-6.1-0.1-9.1,0.4c-2.9,0.5-5.7,1.3-8.5,2
					c-2.9,0.8-5.6,1.8-8.2,3.2c-2.6,1.4-5.3,2.7-8,3.9c-2.7,1.2-5.2,2.5-7.7,4c-2.6,1.7-5.3,3.2-7.9,4.9c-1.2,0.8-2.4,1.7-3.7,2.4
					c-1.2,0.6-2.3,1.3-3.5,2c-1.2,0.8-2.5,1.4-3.8,2.1c-1.3,0.7-2.6,1.4-3.9,2.1c-2.6,1.4-5.1,2.7-7.6,4.4c-2.4,1.6-5,3-7.6,4.4
					c-0.6,0.3-1.2,0.7-1.9,1c-0.3,0.1-0.6,0.3-0.8,0.4c-0.1,0.1-0.4,0.1-0.2,0.1c0.1,0,0.7-0.1,0.1-0.1c0,1.7,0,3.3,0,5
					c0.1,0,0.1,0,0.2,0c1.3,0,2.6-1.2,2.5-2.5C31.5,118.7,30.4,117.6,29,117.6L29,117.6z"/>
			</g>
			<g>
				<path class="st1" d="M160.1,65.3c-1.1-1.1-2.4-2-3.9-2.6c-1.4-0.5-3.1-0.6-4.6-0.6c-1.4,0-3,0-4.3,0.4c-1.4,0.5-2.7,1.2-4,1.9
					c-2.6,1.4-4.3,4-5.1,6.9c-0.8,2.6-1,5.7-0.1,8.2c0.6,1.6,1.5,3,2.6,4.3c0.9,0.9,1.7,1.9,2.7,2.6c2.3,1.9,5.2,2.9,8.1,3.3
					c1.7,0.2,3.3,0.3,4.9-0.1c1.4-0.3,2.7-1,4-1.7c1.2-0.6,2.2-1.4,3.2-2.3c0.5-0.5,1.1-1.1,1.5-1.7c0.4-0.6,0.7-1.4,0.8-2.1
					c0.1-0.5-0.3,0.6,0,0c0.1-0.3,0.3-0.6,0.4-0.9c0.1-0.4,0.3-0.7,0.4-1.1c0.2-0.8,0.3-1.7,0.4-2.5c0.1-1.7,0.2-3.5-0.4-5.2
					c-0.5-1.5-0.8-2.9-2-4c-0.7-0.6-1.5-1.1-2.3-1.5c-0.7-0.3-1.3-0.7-1.9-1.1c-1.4-0.9-3.3,0-3.7,1.5c0,0.1,0,0.1-0.1,0.2
					c-0.3,1.3,0.4,2.8,1.7,3.1c1.3,0.3,2.7-0.4,3.1-1.7c0-0.1,0-0.1,0.1-0.2c-1.2,0.5-2.4,1-3.7,1.5c0.4,0.3,0.9,0.6,1.4,0.8
					c0.6,0.3,1.2,0.6,1.7,0.9c0,0,0.4,0.2,0.4,0.2c0,0-0.5-0.4-0.1-0.1c0.3,0.3,0,0.2-0.1-0.1c0,0.1,0.2,0.3,0.2,0.3
					c0.1,0.2,0,0.3-0.1-0.2c0,0.1,0.1,0.3,0.1,0.4c0.1,0.3,0.2,0.5,0.2,0.8c0.1,0.2,0.1,0.4,0.2,0.7c0.1,0.2,0.3,0.6,0.2,0.8
					c0.1-0.4,0-0.4,0-0.1c0,0.2,0,0.4,0,0.5c0,0.4,0,0.7,0,1.1c0,0.6,0,1.1-0.1,1.7c0,0.1,0,0.6,0,0.1c0-0.4,0,0.1,0,0.1
					c-0.1,0.3-0.1,0.6-0.2,0.9c-0.1,0.2-0.1,0.6-0.3,0.8c0.3-0.5,0.1-0.2,0,0c-0.1,0.3-0.2,0.5-0.3,0.8c-0.1,0.2-0.2,0.5-0.2,0.8
					c0,0.1,0,0.1,0,0.2c-0.1,0.3-0.1,0.2,0.1-0.2c-0.1,0-0.2,0.3-0.2,0.4c-0.3,0.4,0.4-0.4,0-0.1c-0.1,0.1-0.1,0.2-0.2,0.2
					c-0.2,0.2-0.4,0.4-0.5,0.6c-0.2,0.2-0.3,0.3-0.5,0.5c-0.1,0.1-0.2,0.2-0.3,0.3c-0.4,0.4,0.5-0.3,0,0c-1,0.6-2,1-2.9,1.5
					c-0.1,0-0.4,0.2-0.4,0.2c0.1,0,0.2-0.1,0.3-0.1c-0.1,0-0.2,0.1-0.2,0.1c-0.3,0.1-0.5,0.2-0.8,0.2c-0.1,0-0.3,0.1-0.4,0.1
					c-0.6,0.1,0.6,0,0,0c-0.3,0-0.6,0-0.9,0c-0.3,0-0.6,0-0.9,0c-0.1,0-0.2,0-0.3,0c-0.6-0.1,0.6,0.1,0,0c-0.6-0.1-1.2-0.2-1.8-0.4
					c-0.5-0.1-1.1-0.3-1.6-0.5c-0.2-0.1-0.6-0.2-0.8-0.3c0.5,0.3,0.3,0.1,0.1,0c-0.2-0.1-0.3-0.2-0.5-0.3c-0.2-0.1-0.5-0.3-0.7-0.4
					c-0.1-0.1-0.2-0.2-0.3-0.2c0,0,0,0-0.1,0c-0.2-0.2-0.2-0.1,0.1,0.1c-0.1,0-0.5-0.5-0.6-0.5c-0.2-0.2-0.5-0.5-0.7-0.7
					c-0.4-0.4-0.8-0.8-1.1-1.2c-0.2-0.2-0.4-0.4-0.6-0.6c-0.4-0.4,0.3,0.5,0,0c-0.1-0.1-0.2-0.3-0.3-0.4c-0.2-0.2-0.3-0.5-0.4-0.8
					c-0.1-0.2-0.2-0.3-0.2-0.5c-0.2-0.4,0,0.1,0.1,0.1c-0.1,0-0.2-0.6-0.3-0.8c-0.1-0.3-0.1-0.6-0.2-0.9c0,0.1,0,0.2,0,0.4
					c0-0.1,0-0.2,0-0.3c0-0.1,0-0.2,0-0.3c0-0.3,0-0.6,0-0.9c0-0.3,0-0.5,0-0.8c0-0.1,0-0.3,0-0.4c0-0.1,0-0.2,0-0.3
					c-0.1,0.4-0.1,0.5,0,0.3c0.1-0.5,0.2-1.1,0.4-1.6c0.1-0.2,0.1-0.5,0.2-0.7c0-0.1,0.1-0.2,0.1-0.3c0-0.1,0.1-0.2,0.1-0.3
					c-0.2,0.4-0.2,0.4-0.1,0.2c0.2-0.5,0.5-0.9,0.7-1.3c0.1-0.1,0.1-0.2,0.2-0.3c0.3-0.5-0.4,0.4,0,0c0.2-0.2,0.4-0.5,0.7-0.7
					c0,0,0.2-0.2,0.2-0.2c-0.3,0.2-0.3,0.3-0.1,0.1c0.1-0.1,0.2-0.1,0.3-0.2c0.3-0.2,0.5-0.3,0.8-0.4c0.6-0.3,1.1-0.6,1.7-0.9
					c0.1-0.1,0.3-0.1,0.4-0.2c0.1,0,0.2-0.1,0.3-0.1c-0.1,0-0.2,0.1-0.3,0.1c0-0.1,0.8-0.3,0.9-0.3c0.2-0.1,0.6,0-0.1,0
					c0.2,0,0.3,0,0.5,0c0.3,0,0.7,0,1,0c0.7,0,1.4,0,2.1,0c0.1,0,0.3,0,0.4,0c0.1,0,0.2,0,0.3,0c0.3,0,0.2,0-0.1,0
					c0.2-0.1,0.8,0.1,1,0.2c0.1,0,0.2,0.1,0.3,0.1c0.1,0,0.2,0.1,0.3,0.1c-0.4-0.2-0.4-0.2-0.2-0.1c0.3,0.1,0.5,0.3,0.8,0.4
					c0.1,0.1,0.2,0.1,0.3,0.2c0.2,0.2,0.2,0.1-0.1-0.1c0.1,0.1,0.2,0.1,0.2,0.2c0.2,0.2,0.5,0.4,0.7,0.7c0.9,0.9,2.6,1,3.5,0
					C161.1,67.8,161.1,66.3,160.1,65.3L160.1,65.3z"/>
			</g>
			<g>
				<path class="st1" d="M22.2,18.9c-0.6,0.7-0.9,1.4-1,2.3c0,0,0,0.2,0,0.2c0,0,0.1-0.6,0-0.2c0,0.3,0-0.1,0.1-0.1
					c-0.1,0.1-0.1,0.2-0.2,0.4c-0.5,1-0.7,2.1-0.8,3.3c-0.1,0.6-0.2,1.3-0.3,1.9c0,0.2,0,0.5-0.1,0.7c0,0.1,0,0.2,0,0.4
					c-0.1,0.7,0.1-0.3,0,0.2c-0.2,1-0.4,2-0.6,3c-0.5,2.2-0.6,4.4-0.8,6.6c0,0.3-0.1,0.6-0.1,0.8c0.1-0.4,0,0.2-0.1,0.3
					c-0.1,0.5-0.2,1-0.4,1.6c-0.3,1.1-0.6,2.1-0.8,3.2c-1,4.1-1.7,8.3-2.5,12.5c-0.8,4.2-1.3,8.5-1.9,12.8
					c-0.7,4.3-1.8,8.6-2.6,12.9c-0.4,2.1-0.9,4.3-1.3,6.4c-0.2,1.2-0.3,2.4-0.4,3.7c0,0.1,0,0.2,0,0.4c0,0,0,0.4,0,0.1
					c0-0.2-0.1,0.4-0.1,0.5c-0.1,0.5-0.2,1.1-0.4,1.6c-0.9,4.3-1.3,8.7-1.7,13.1c0,0.5-0.1,1-0.2,1.5c0-0.4,0,0.2,0,0.3
					c-0.1,0.3-0.1,0.6-0.2,1c-0.2,1.1-0.4,2.1-0.6,3.2c-0.3,2.1-0.6,4.2-0.9,6.4c-0.6,4.3-1.3,8.6-2.1,12.9
					c-0.4,2.1-0.8,4.3-1.2,6.4c-0.2,1.2-0.4,2.4-0.5,3.7c0,0.5-0.1,1-0.1,1.5c0,0.2-0.1,0.5-0.1,0.7c0.1-0.4,0,0,0,0.1
					c0,0.3-0.1,0.6-0.1,0.9c-0.1,1-0.2,2-0.2,3c0,1.3,1.2,2.6,2.5,2.5C3.9,151,5,150,5,148.6c0-0.5,0-0.9,0-1.4c0-0.3,0-0.5,0.1-0.8
					c0-0.1,0.1-0.8,0-0.4c0.2-1.2,0.3-2.4,0.4-3.6c0-0.5,0.1-1,0.2-1.4c-0.1,0.4,0-0.2,0.1-0.3c0.1-0.3,0.1-0.6,0.2-1
					c0.2-1.1,0.4-2.1,0.6-3.2c0.8-4.2,1.5-8.4,2.2-12.7c0.6-4.2,1.1-8.5,1.9-12.7c0.4-2.2,0.6-4.5,0.7-6.7c0-0.5,0.1-1,0.1-1.5
					c0-0.2,0.1-0.5,0.1-0.7c0-0.3,0,0,0,0.1c0-0.2,0.1-0.4,0.1-0.6c0.2-1,0.3-2,0.5-3c0.2-1,0.3-2.1,0.5-3.1
					c0.2-1.1,0.5-2.3,0.6-3.4c0.1-0.5,0.1-1,0.1-1.6c0-0.2,0-0.5,0-0.7c0-0.3,0,0,0,0.1c0-0.2,0.1-0.3,0.1-0.5
					c0.2-1.1,0.4-2.1,0.6-3.2c0.9-4.2,1.8-8.5,2.6-12.8c0.8-4.2,1.3-8.4,1.9-12.6c0.3-2.1,0.7-4.2,1.2-6.3c0.2-1.1,0.3-2.1,0.5-3.2
					c0.2-1.1,0.5-2.1,0.7-3.1c0.5-2.1,0.9-4.1,1.4-6.2c0.6-2.2,0.8-4.4,1-6.6c0-0.5,0.1-1,0.1-1.4c0-0.3,0,0,0,0.1
					c0-0.1,0-0.2,0.1-0.4c0-0.3,0.1-0.5,0.2-0.8c0.2-1,0.5-2,0.6-3c0.2-1.1,0.3-2.3,0.5-3.5c0-0.1,0.1-0.7,0-0.3
					c0-0.3,0.1-0.5,0.1-0.8c0.1-0.5,0.2-1,0.3-1.5c0-0.2,0.2-0.6,0-0.2c0.2-0.3,0.3-0.7,0.5-1.1c0.1-0.3,0.1-0.5,0.2-0.8
					c0-0.2,0.1-0.3,0.1-0.5c0-0.6,0.3,0.2-0.4,1c0.9-0.9,1-2.6,0-3.5C24.7,18,23.1,17.9,22.2,18.9L22.2,18.9z"/>
			</g>
			<g>
				<path class="st1" d="M205.1,44.5c-0.8,2-1,4.3-1.2,6.4c-0.1,1.1-0.2,2.1-0.3,3.2c-0.1,1.1-0.1,2.2-0.1,3.3
					c0,0.5-0.1,1.1-0.1,1.6c0,0.3-0.1,0.5-0.1,0.8c0,0.2,0,0.3-0.1,0.5c0-0.3,0-0.1,0,0.1c-0.2,1.2-0.4,2.5-0.5,3.7
					c-0.3,2.3-0.5,4.5-0.7,6.8c0,0.3-0.1,0.5-0.1,0.8c0,0.3,0,0,0,0c0,0.1,0,0.3-0.1,0.4c-0.1,0.6-0.2,1.2-0.3,1.8
					c-0.2,1.2-0.3,2.5-0.5,3.7c-0.3,2.3-0.6,4.5-0.7,6.8c-0.2,2.3-0.1,4.5-0.3,6.8c0,0.6-0.1,1.1-0.2,1.7c0,0.3-0.1,0.5-0.1,0.8
					c0-0.4-0.1,0.4-0.1,0.5c-0.2,1.1-0.4,2.3-0.6,3.4c-0.5,2.3-0.7,4.7-0.9,7c0,0.3-0.1,0.5-0.1,0.8c-0.1,0.5,0,0.2,0,0.1
					c0,0.1,0,0.3-0.1,0.4c-0.1,0.6-0.2,1.2-0.3,1.8c-0.2,1.2-0.4,2.4-0.4,3.7c-0.2,2.3-0.2,4.6-0.4,6.8c-0.1,1.1-0.2,2.3-0.3,3.4
					c0,0.3-0.1,0.5-0.1,0.8c0,0.1,0,0.3,0,0.4c-0.1,0.4,0-0.3,0,0.1c-0.1,0.6-0.2,1.1-0.2,1.7c-0.4,2.3-0.9,4.7-1.2,7
					c-0.1,1.1-0.1,2.2-0.2,3.3c-0.1,1.2-0.2,2.3-0.4,3.5c0,0.3-0.1,0.5-0.1,0.8c0,0.1-0.1,0.7,0,0.4c-0.1,0.6-0.2,1.2-0.3,1.8
					c-0.2,1.1-0.3,2.2-0.5,3.3c-0.4,2.2-0.8,4.5-1.1,6.7c-0.2,1.2-0.3,2.5-0.5,3.7c-0.1,0.5-0.1,1.1-0.2,1.6c0,0.2-0.1,0.5-0.1,0.7
					c0-0.1,0.1-0.4,0-0.1c0,0.2-0.1,0.4-0.1,0.6c-0.3,2.1-0.9,4.2-1.3,6.3c-0.2,1.1-0.4,2.3-0.6,3.4c-0.2,1.2-0.6,2.3-0.6,3.5
					c0,0.2,0,0.5,0,0.7c0,0.2,0,0.9,0.1,0.3c-0.1,0.5-0.2,1-0.4,1.5c-0.2,0.9-0.4,1.8-0.7,2.6c-0.3,0.8-0.5,1.5-0.6,2.4
					c-0.1,1.3,1.2,2.5,2.5,2.5c1.5-0.1,2.4-1.1,2.5-2.5c0,0.2-0.1,0.7,0,0.2c0.1-0.2,0.1-0.3,0.2-0.5c0.1-0.4,0.2-0.7,0.4-1.1
					c0.3-0.9,0.5-1.8,0.7-2.7c0.1-0.5,0.3-1.1,0.3-1.6c0.1-0.6,0-1.2,0-1.8c0-0.3,0,0,0,0.1c0-0.1,0-0.2,0.1-0.3
					c0.1-0.2,0.1-0.5,0.2-0.7c0.1-0.6,0.2-1.1,0.3-1.7c0.4-2.2,0.9-4.3,1.3-6.5c0.5-2.2,0.7-4.5,1-6.8c0-0.3,0.1-0.5,0.1-0.8
					c0-0.1,0-0.3,0-0.4c0.1-0.4,0,0.3,0-0.1c0.1-0.5,0.2-1.1,0.2-1.6c0.2-1.1,0.4-2.2,0.6-3.3c0.4-2.3,0.8-4.5,1.1-6.8
					c0.3-2.4,0.7-4.7,0.9-7.1c0.1-1.1,0.1-2.3,0.2-3.4c-0.1,0.4,0-0.2,0.1-0.3c0-0.2,0.1-0.5,0.1-0.7c0.1-0.6,0.2-1.1,0.3-1.7
					c0.9-4.6,1.4-9.3,1.7-13.9c0.1-1.1,0.1-2.2,0.2-3.4c0-0.5,0.1-1.1,0.2-1.6c0-0.1,0.1-0.7,0-0.3c0-0.3,0.1-0.6,0.1-0.9
					c0.3-2.4,0.6-4.7,0.9-7.1c0-0.1,0.1-0.7,0-0.4c0-0.3,0.1-0.5,0.1-0.8c0.1-0.6,0.2-1.2,0.3-1.8c0.2-1.1,0.4-2.2,0.5-3.3
					c0.3-2.4,0.5-4.7,0.6-7.1c0-2.2,0.2-4.5,0.5-6.7c0.1-1.2,0.3-2.3,0.4-3.5c0.1-0.5,0.1-1,0.2-1.5c0-0.1,0.1-0.7,0-0.4
					c0-0.3,0.1-0.7,0.1-1c0.4-2.3,0.7-4.7,0.9-7c0.1-1.2,0.2-2.3,0.4-3.5c0-0.1,0-0.3,0-0.4c0,0.1,0,0.3,0,0c0-0.3,0.1-0.5,0.1-0.8
					c0.1-0.6,0.2-1.2,0.3-1.8c0.2-1.2,0.3-2.4,0.4-3.7c0.1-1.1,0-2.2,0.1-3.3c0.1-1.1,0.3-2.2,0.3-3.4c0-0.5,0.1-1,0.1-1.4
					c0,0,0-0.4,0-0.1c0,0.3,0-0.1,0-0.1c0.1-0.3,0.1-0.6,0.2-0.9c0.2-1,0.4-1.9,0.7-2.8c0.5-1.2-0.5-2.8-1.7-3.1
					C206.7,42.4,205.6,43.2,205.1,44.5L205.1,44.5z"/>
			</g>
			<g>
				<path class="st1" d="M3.1,151.4C2.8,151.4,3.5,151.5,3.1,151.4c0.4,0.1,0.7,0.3,1.1,0.5c0.7,0.2,1.3,0.4,2,0.6
					c1.4,0.5,2.9,0.8,4.4,1.1c3.1,0.5,6.1,1.1,9.1,1.7c3,0.6,6,1.2,9,2.1c3,0.8,6.1,1.1,9.2,1.6c1.5,0.2,2.9,0.6,4.3,1
					c1.5,0.4,3.1,0.6,4.7,0.9c1.5,0.3,3,0.8,4.5,1.2c1.5,0.4,3,0.7,4.5,0.9c6.3,1.2,12.5,2.5,18.7,3.7c6.3,1.3,12.6,2.5,19,3.3
					c2.9,0.4,5.9,0.6,8.8,1c3.2,0.6,6.4,1,9.7,1.4c3.1,0.3,6.2,0.8,9.4,1c3.2,0.2,6.3,0.4,9.5,0.6c6.4,0.4,12.8,0.4,19.1,0.9
					c3,0.3,5.9,0.9,8.9,1.3c3.1,0.5,6,1.1,9.1,1.9c3,0.8,6.1,1.1,9.1,1.9c1.5,0.4,3,0.7,4.5,1c0.7,0.1,1.3,0.4,1.9,0.5
					c0.8,0.2,1.7,0.1,2.5,0.2c-0.1,0,0.4,0.1,0.5,0.1c0.4,0.1,0.8,0.2,1.1,0.2c0.8,0,1.6-0.2,2.4-0.4c1.3-0.3,2.1-1.8,1.7-3.1
					c-0.4-1.4-1.7-2-3.1-1.7c-0.3,0.1-0.6,0.2-0.9,0.2c0.3-0.1,0,0-0.2,0c-0.8-0.2-1.5-0.3-2.3-0.3c-0.5,0-1-0.2-1.6-0.4
					c-0.7-0.2-1.5-0.3-2.3-0.5c-1.5-0.3-3-0.7-4.5-1.1c-1.5-0.3-3-0.5-4.5-0.8c-3-0.6-5.9-1.6-9-2.2c-3-0.6-6.1-1-9.2-1.4
					c-6.4-1-12.8-1-19.3-1.3c-3.2-0.1-6.4-0.4-9.6-0.6c-3.1-0.2-6.1-0.3-9.2-0.7c-3.1-0.4-6.2-0.6-9.3-1.1c-3.2-0.5-6.2-1.1-9.4-1.4
					c-6.1-0.6-12.1-1.6-18.1-2.8c-6.3-1.2-12.6-2.5-18.8-3.8c-3.1-0.6-6.2-1.1-9.3-1.9c-1.5-0.4-3-0.8-4.5-1.1
					c-1.5-0.3-3-0.5-4.4-0.9c-3-0.8-6.1-1.1-9.1-1.6c-3-0.5-5.9-1.6-8.9-2.2c-3-0.6-6-1.3-9.1-1.8c-1.5-0.3-3-0.4-4.5-0.7
					c-1.5-0.3-2.9-0.7-4.3-1.2c-0.3-0.1-0.6-0.2-1-0.3c-0.4-0.1,0,0-0.4-0.1c-0.9-0.4-1.5-0.6-2.5-0.6c-1.3-0.1-2.5,1.2-2.5,2.5
					C0.6,150.3,1.8,151.3,3.1,151.4L3.1,151.4z"/>
			</g>
			<g>
				<path class="st1" d="M24.9,16.6c-0.1,0-0.1,0-0.2,0c-1.1-0.1-2.1,0.8-2.4,1.8c-0.3,1.1,0.2,2.2,1.1,2.8c1.2,0.8,2.6,0.9,3.9,1.1
					c1.3,0.2,2.7,0.3,4,0.4c3.1,0.3,6.2,0.9,9.3,1.2c1.4,0.1,2.8,0.2,4.2,0.5c1.5,0.3,3,0.7,4.6,0.9c3.1,0.3,6.3,0.4,9.4,0.6
					c3.2,0.2,6.4,0.4,9.6,0.6c3,0.2,6.1,0.7,9.1,0.7c0.7,0,1.3-0.1,2,0c0.5,0,1.2,0.3,1.8,0.4c1.5,0.4,3.1,0.5,4.7,0.7
					c3,0.3,5.9,0.4,8.9,0.6c3.1,0.2,6,1.1,9.1,1.4c1.5,0.2,3,0.2,4.6,0.4c1.4,0.1,2.8,0.4,4.1,0.7c1.6,0.3,3.2,0.5,4.8,0.7
					c1.4,0.2,2.7,0.5,4.1,0.8c3.1,0.8,6.4,1.1,9.6,1.4c3.1,0.3,6.3,0.6,9.4,0.8c1.6,0.1,3.1,0.3,4.6,0.4c1.4,0.1,2.7,0.2,4.1,0.4
					c1.5,0.3,2.9,0.7,4.4,0.9c1.6,0.2,3.1,0.3,4.7,0.5c3.1,0.3,6.1,0.7,9.2,1.2c6.3,0.9,12.5,2.1,18.8,2.9c2.9,0.4,5.9,0.9,8.8,1.5
					c1.6,0.3,3.1,0.6,4.7,0.5c1.4,0,2.8,0.2,4.2,0.3c0.7,0,1.3,0,2,0c0.8,0,0-0.1,0.4,0.1c0.4,0.2,0.8,0.4,1.3,0.5
					c1.3,0.3,2.7-0.4,3.1-1.7c0.3-1.3-0.4-2.8-1.7-3.1c-0.6-0.1-1.3-0.5-2-0.6c-0.8-0.1-1.5-0.1-2.3-0.1c-1.4,0-2.8-0.3-4.2-0.3
					c-0.7,0-1.3,0.1-2,0c-0.7-0.1-1.4-0.2-2-0.4c-1.5-0.3-3-0.4-4.4-0.7c-6.1-1.1-12.3-2-18.4-2.9c-6.4-1-12.7-1.9-19.1-2.4
					c-1.2-0.1-2.5-0.5-3.8-0.7c-1.5-0.3-3.1-0.4-4.7-0.6c-3.1-0.2-6.2-0.6-9.3-0.8c-3.1-0.3-6.3-0.5-9.4-0.9c-3-0.3-5.8-1.3-8.8-1.7
					c-2.9-0.4-5.8-0.9-8.8-1.3c-3-0.4-6-0.5-8.9-1.1c-3-0.6-6.1-0.9-9.2-1c-2.8-0.2-5.7-0.3-8.5-0.8c-1.5-0.3-2.9-0.7-4.4-0.7
					c-1.6,0-3.1,0-4.7-0.2c-3.1-0.3-6.2-0.6-9.2-0.8c-3.1-0.2-6.3-0.4-9.4-0.5c-3-0.1-5.8-0.3-8.7-1c-3-0.7-6-0.7-9.1-1.2
					c-3.1-0.5-6.2-0.8-9.3-1.1c-0.2,0-0.5,0-0.7-0.1c-0.1,0-0.7-0.1-0.4,0c-0.3-0.1-0.6-0.1-0.9-0.2c-0.3-0.1-0.1,0,0,0
					c-0.1-0.1-0.3-0.1-0.4-0.2c-0.4,1.5-0.8,3.1-1.3,4.6c0.1,0,0.1,0,0.2,0c1.3,0.1,2.5-1.2,2.5-2.5C27.4,17.6,26.2,16.7,24.9,16.6
					L24.9,16.6z"/>
			</g>
		</g>
	</g>
</g>
</svg>
