<?xml version="1.0" encoding="utf-8"?>
<!-- Generator: Adobe Illustrator 27.8.1, SVG Export Plug-In . SVG Version: 6.00 Build 0)  -->
<svg version="1.1" xmlns="http://www.w3.org/2000/svg" xmlns:xlink="http://www.w3.org/1999/xlink" x="0px" y="0px"
	 viewBox="0 0 189.9 156.6" style="enable-background:new 0 0 189.9 156.6;" xml:space="preserve">
<style type="text/css">
	.st0{fill:#e190e1;stroke:#6FCFA1;stroke-miterlimit:10;}
	.st1{fill:#FFFFFF;}
	.st2{fill:#e190e1;}
	.st3{fill:#e190e1;stroke:#AFE8D9;stroke-miterlimit:10;}
	.st4{fill:#e190e1;stroke:#BFE6D8;stroke-miterlimit:10;}
</style>
<g id="Background">
</g>
<g id="Graphic_Element">
	<g>
		<polygon class="st0" points="63.2,31.5 80.3,6.1 143,7.4 153.2,32.2 189.4,36.6 188.6,149.2 16.4,151.7 15.9,41 21.7,27 
			37.4,28.9 42.1,33.6 		"/>
		<g>
			<g>
				<path class="st1" d="M159.3,27.4c-3.8-0.1-7.6,0.1-11.4,0.2c-4.3,0.2-8.5-0.6-12.8-0.7c-5.1-0.2-10.1-0.2-15.2-0.3
					c-4.9-0.2-9.9-0.4-14.8-0.4c-10-0.1-20,0.2-30,0.6c-4.9,0.2-9.9,0.3-14.8,0.7c-4.9,0.4-9.8,0.6-14.6,1.3c-2.4,0.3-4.7,0.7-7.1,1
					c-2.5,0.3-4.9,0.8-7.4,1.3c-2.4,0.5-4.8,0.9-7.2,1.3c-2.4,0.4-4.7,1-7.1,1.2c-1.2,0.1-2.3,0.5-3.5,0.7c-1.2,0.2-2.3,0.5-3.5,0.8
					c-2,0.6-3.7,1.9-5,3.6C2.2,42.7,3.3,48,3.2,52.5c-0.1,4.9-0.7,9.7-0.6,14.6c0.1,5,0.1,10,0.4,15c0.2,2.5,0.8,4.9,1.1,7.4
					c0.2,2.4,0.3,4.8,0.4,7.3c0.2,4.7,0.2,9.4-0.2,14.1c-0.4,4.7-0.8,9.3-0.9,14c0,2.3,0,4.5,0,6.8c0,1,0.1,2.1,0.2,3.1
					c0.1,1.2-0.1,2.5-0.1,3.7c-0.1,1.9-0.2,4.2,0.3,6c0.6,2.1,2.4,3.3,4.3,4.1c1.9,0.8,3.9,1.7,5.9,2.3c2.3,0.6,4.7,0.7,7,0.9
					c9.9,0.6,19.8,0.8,29.8,1.2c10,0.4,19.9,0.8,29.9,1.2c4.9,0.2,9.8,0.3,14.7,0.3c5,0,10.1-0.1,15.1,0c4.9,0.1,9.7,0.3,14.6,0.1
					c4.9-0.2,9.9-0.3,14.8-0.8c2.5-0.2,4.9-0.6,7.4-1c2.2-0.4,4.5-0.9,6.7-0.6c1.1,0.1,2.3,0.4,3.4,0.4c1.2,0,2.5-0.1,3.7-0.1
					c1.1-0.1,2.3,0,3.4-0.2c1.1-0.1,2.1-0.5,3.1-0.9c1.9-0.9,4.1-1.2,5.8-2.5c0.9-0.7,1.4-1.7,1.5-2.9c0.1-1.2,0.2-1.9,0.4-3.1
					c0.3-2.4,0.3-4.8,0.1-7.2c-0.1-2.3-0.5-4.6-0.2-6.9c0.1-1.2,0.4-2.4,0.4-3.7c0-1.1-0.1-2.2-0.1-3.3c0.1-1.2,0.3-2.5,0.3-3.7
					c0.1-1.2-0.1-2.5,0-3.7c0.1-2.4,0-4.7,0.1-7c0.2-2.3,0.4-4.6,0.4-7c0-2.2-0.3-4.4,0-6.6c0.2-1.1,0.6-2.2,0.8-3.2
					c0.3-1.1,0.1-2.3,0.3-3.4c0.3-2.3,0.4-4.6,0.8-6.9c0.2-1.2,0.2-2.4,0.2-3.6c0-1.1,0.3-2,0.6-3c0.6-2.2,0.8-4.7,0.7-6.9
					c-0.1-2.4,0-4.7,0.2-7.1c0.1-1.1,0.3-2.3,0.3-3.4c0-1-0.1-2,0-3.1c0.3-2.4,0-4.8-0.2-7.2c-0.1-1.1,0-2.1,0.1-3.1
					c0.1-1.2-0.1-2.3-0.1-3.5c0-0.9,0.3-1.8,0.2-2.8c-0.1-1,0.2-1.9,0.2-3c0.1-2.4-1.8-3.9-4-4.3c-1-0.2-2-0.1-3-0.1
					c-1.1,0-2.3-0.1-3.4-0.3c-3.8-0.6-7.8-2.2-11.6-1.2c-1.1,0.3-1.7,1.6-1.4,2.7c0.4,1.1,1.6,1.6,2.7,1.4c0.5-0.1-0.5,0,0.1,0
					c0.1,0,0.2,0,0.4,0c0.4,0,0.7,0,1.1,0c0.9,0,1.7,0.1,2.7,0.3c2.2,0.4,4.4,1,6.7,1.3c1.2,0.1,2.4,0.2,3.5,0.2c0.4,0,0.8,0,1.2,0
					c-0.5,0,0.2,0,0.3,0c0.2,0,0.4,0.1,0.7,0.2c0,0-0.1,0-0.1,0c0.2,0.1,0.3,0.1,0.1,0c0-0.1,0.2,0.5,0.1,0
					c-0.3-0.7-0.1-0.2-0.1-0.1c0.1-0.2-0.1,0.6-0.1,0.5c-0.1,0.5-0.2,1-0.2,1.6c0,0.6,0.1,1.2,0.1,1.8c-0.1,0.8-0.3,1.9-0.2,2.9
					c0.1,1,0.1,1.9,0,2.9c-0.2,2.4,0,4.7,0.1,7.1c0.1,1,0.1,1.9,0,2.9c-0.1,1.1,0,2.1,0,3.2c-0.2,2.3-0.5,4.6-0.5,7
					c-0.1,2.2,0.2,4.4-0.1,6.6c-0.1,1-0.3,2.1-0.5,3.1c-0.3,1.1-0.6,2.1-0.6,3.2c0,1.1,0.1,2.1-0.1,3.1c-0.2,1.2-0.3,2.4-0.4,3.7
					c-0.1,1.1-0.2,2.2-0.4,3.3c-0.1,1.1,0,2.2-0.2,3.2c-0.2,1-0.6,1.9-0.8,2.9c-0.2,1.2-0.3,2.4-0.4,3.6c0,2.3,0.2,4.6,0.1,6.9
					c-0.1,2.3-0.4,4.5-0.4,6.8c0,1.1,0.1,2.1,0,3.2c0,1.2-0.1,2.5-0.1,3.7c0.1,2.3-0.4,4.6-0.3,6.9c0,1,0.1,1.9,0,2.8
					c-0.1,1.2-0.3,2.5-0.4,3.7c-0.1,2.4,0.3,4.8,0.3,7.1c0.1,2.2-0.1,4.3-0.4,6.5c-0.1,0.5-0.1,1-0.1,1.6c0,0.4,0-0.4,0,0.3
					c0,0.6,0.1,0,0.1-0.1c0,0.1-0.6,0.4-0.8,0.5c-0.4,0.2-0.9,0.3-1.4,0.5c-0.9,0.3-1.8,0.6-2.6,1c-1,0.5-1.7,0.6-2.8,0.7
					c-2.2,0.1-4.5,0.4-6.6,0.2c-1.1-0.1-2.2-0.4-3.3-0.4c-1.2,0-2.5,0.1-3.7,0.3c-2.3,0.3-4.6,0.7-7,1c-2.4,0.3-4.7,0.5-7.1,0.7
					c-4.7,0.3-9.5,0.5-14.3,0.6c-4.8,0-9.6-0.3-14.4-0.2c-4.9,0.1-9.7,0-14.6,0c-9.6-0.1-19.2-0.7-28.8-1c-9.7-0.3-19.4-0.7-29.1-1
					c-4.8-0.2-9.6-0.4-14.3-0.7c-2.1-0.1-4.2-0.4-6.2-1c-1.7-0.5-3.4-1.3-5-2.1c-0.4-0.2-0.5-0.2-0.8-0.5c-0.2-0.2-0.2-0.1-0.3-0.4
					c-0.2-0.6-0.2-1.7-0.1-2.6c0-0.9,0-1.8,0-2.8c0-1.2,0.2-2.4,0.1-3.6c-0.2-4.4-0.3-8.8-0.1-13.3c0.2-4.5,0.7-9,1-13.5
					C9,103,8.8,98.4,8.6,93.8c-0.1-2.4-0.2-4.7-0.6-7.1c-0.4-2.4-0.7-4.7-0.8-7.1C6.9,74.8,6.8,70,6.8,65.2c0-4.7,0.6-9.5,0.6-14.2
					c0-3.6-1-8.5,2.3-10.9c1.4-1.1,3.6-1.3,5.5-1.7c1-0.2,2-0.4,3.1-0.5c1.3-0.1,2.5-0.5,3.7-0.7c2.3-0.5,4.6-0.8,7-1.2
					c2.3-0.4,4.5-1,6.8-1.3c2.4-0.4,4.8-0.5,7.2-0.9c2.2-0.4,4.5-0.7,6.7-0.9c4.7-0.4,9.5-0.9,14.3-1.1c9.7-0.5,19.3-0.9,29-1.1
					c4.8-0.1,9.7-0.1,14.5-0.1c4.9,0.1,9.8,0.3,14.7,0.4c4.9,0.1,9.8,0.1,14.7,0.3c2.2,0.1,4.3,0.4,6.4,0.6c1.9,0.2,3.7,0.2,5.5,0.1
					c3.6-0.2,7.2-0.3,10.8-0.2c1.1,0,2.1-1.2,2-2.2C161.5,28.2,160.4,27.4,159.3,27.4L159.3,27.4z"/>
			</g>
			<g>
				<path class="st1" d="M5.2,37.3c-0.7,0.5-1.2,1-1.4,1.8c-0.1,0.6-0.3,1.3-0.5,2.1c-0.4,1.7-0.4,3.6-0.5,5.3c0,1.7,0.2,3.4,0.1,5
					c-0.1,1.7-0.2,3.4-0.3,5.1c-0.2,3.3-0.5,6.7-0.8,10c-0.3,3.5-0.3,6.9-0.5,10.4c-0.1,1.7-0.2,3.5-0.3,5.2
					c-0.1,1.6-0.4,3.3-0.5,4.9c-0.1,1.6-0.2,3.1-0.3,4.7C0,93.6,0,95.3,0.1,97c0.1,1.7-0.1,3.4-0.1,5c0,1.7,0.1,3.5,0.2,5.2
					c0.2,3.3,0.5,6.6,0.2,10c-0.3,3.5-0.4,6.9-0.2,10.4c0.2,3.4,0.3,6.8,0.5,10.2c0.2,3.2,1.2,6.4,3.3,8.9c0.4,0.5,0.7,1,1.2,1.4
					c0.7,0.6,1.6,0.9,2.4,1.1c1.5,0.5,2.9,1.1,4.4,1.6c6.5,1.8,13.2,1.5,19.9,1.9c3.4,0.2,6.9,0.5,10.3,0.7
					c3.4,0.2,6.8,0.3,10.2,0.5c1.6,0.1,3.2,0.1,4.8,0.3c1.7,0.2,3.3,0.5,5,0.8c3.4,0.6,6.8,1.1,10.2,1.3c3.4,0.2,6.8,0.1,10.2,0
					c3.4-0.1,6.7-0.1,10.1-0.3c3.4-0.2,6.9-0.4,10.3-0.5c3.4-0.1,6.7,0.3,10,0.6c6.9,0.7,13.7,0.4,20.6,0.5c3.4,0,6.9,0.1,10.3-0.1
					c3.4-0.2,6.7-0.5,10-0.7c0.7,0,1.3-0.1,2,0c0.9,0.1,1.7,0.2,2.6,0.1c0.7-0.1,1.3,0,2,0.1c1,0.1,1.9,0,2.9-0.2
					c0.7-0.2,1.5-0.4,2.2-0.6c0.7-0.2,1.5-0.2,2.2-0.3c0.8-0.1,1.5-0.5,2.2-0.9c0.6-0.4,1.2-0.4,1.9-0.6c1.6-0.5,3.2-0.7,4.5-1.9
					c1.2-1.1,1.6-2.9,1.9-4.5c0.7-3.3,0.6-6.6,0.6-9.9c0-3.4,0.2-6.7-0.1-10.1c-0.2-3.4-0.5-6.9-0.7-10.3c-0.2-3.4-0.5-6.9-0.5-10.3
					c0-3.2,0.5-6.4,1.2-9.5c0.7-3.2,0.9-6.6,1.2-9.8c0.4-3.5,0.7-6.9,1-10.4c0.1-1.7,0.4-3.4,0.5-5.1c0.1-1.7-0.1-3.4-0.1-5.1
					c-0.1-3.3,0.7-6.5,1.1-9.8c0.4-3.2,0.3-6.4,0.2-9.7c0-1.7-0.5-3.2-1.1-4.8c-0.3-0.7-0.6-1.4-0.8-2.2c-0.2-0.7-0.2-1.5-0.2-2.2
					c-0.1-1.7-0.8-3.2-1.5-4.7c-0.7-1.4-1.6-2.2-3.3-2.1c-1.1,0.1-2.1,1-2,2.2c0.1,1.1,1.1,2.1,2.2,2c1.2-0.1-1.1-0.5-0.9-0.7
					c0,0,0.4,0.8,0.5,1c0.3,0.6,0.6,1.2,0.7,1.9c0.1,0.6,0,1.3,0.1,1.9c0.1,0.9,0.3,1.8,0.6,2.7c0.5,1.3,1.3,2.7,1.5,4.1
					c0.1,0.7,0,1.5,0.1,2.2c0,0.7,0.1,1.3,0,1.9c-0.2,1.5,0,3.2-0.1,4.7c-0.1,1.6-0.4,3.2-0.7,4.8c-0.3,1.6-0.6,3.2-0.6,4.9
					c0,1.6,0.1,3.3,0.2,4.9c0,1.6-0.1,3.1-0.3,4.7c-0.2,1.7-0.2,3.4-0.4,5.2c-0.2,3.2-0.7,6.3-1,9.5c-0.1,1.6-0.3,3.2-0.5,4.8
					c-0.2,1.6-0.6,3.1-0.9,4.7c-0.6,3.1-0.9,6.4-0.8,9.6c0.2,6.7,0.8,13.3,1.1,20c0.2,3.3,0,6.5,0,9.8c0,3,0.1,6.1-0.7,9.1
					c-0.1,0.5-0.2,1.2-0.5,1.6c-0.3,0.4-0.8,0.4-1.2,0.5c-0.7,0.1-1.3,0.5-2,0.6c-0.8,0.2-1.6,0.4-2.3,0.8c-0.5,0.3-0.7,0.5-1.3,0.5
					c-0.8,0.1-1.7,0.2-2.5,0.4c-0.7,0.2-1.5,0.5-2.2,0.6c-0.6,0.1-1.1,0-1.7-0.1c-0.8-0.1-1.6,0-2.4,0c-0.7,0-1.4-0.2-2.1-0.2
					c-1.6-0.1-3.3,0.1-4.9,0.2c-1.6,0.1-3.2,0.3-4.9,0.4c-1.6,0.1-3.3,0.2-4.9,0.2c-3.3,0.1-6.5,0-9.8,0c-3.3,0-6.6,0-10,0
					c-6.6-0.1-13.1-1.3-19.8-1.1c-3.3,0.1-6.6,0.4-10,0.5c-3.2,0.2-6.4,0.2-9.6,0.2c-3.3,0.1-6.6,0.2-9.9,0
					c-3.2-0.2-6.3-0.7-9.5-1.2c-6.5-1.1-13-1.2-19.6-1.5c-3.3-0.2-6.6-0.5-9.9-0.7c-3.2-0.2-6.5-0.2-9.7-0.4
					c-3.1-0.1-6.2-0.4-9.2-1.1c-1.4-0.3-2.7-0.8-4-1.3c-0.7-0.3-1.4-0.5-2.2-0.7c-0.2-0.1-0.4-0.2-0.2,0c-0.3-0.3-0.5-0.7-0.8-1.1
					c-0.3-0.4-0.5-0.8-0.8-1.3c-0.3-0.6-0.6-1.1-0.8-1.8c-0.4-1.5-0.6-2.9-0.7-4.4c-0.2-3.3-0.3-6.6-0.5-9.9c-0.2-3.3,0-6.4,0.3-9.6
					c0.3-3.3,0-6.6-0.2-10c-0.2-3.2-0.1-6.5-0.1-9.7c0-1.5-0.1-3,0-4.5c0.1-1.7,0.3-3.3,0.4-5c0.1-1.6,0.4-3.2,0.5-4.7
					c0.1-1.7,0.2-3.3,0.3-5c0.2-3.3,0.2-6.6,0.4-9.9c0.2-3.3,0.7-6.5,0.8-9.8c0.2-3.3,0.5-6.6,0.3-9.9c-0.1-1.5,0-3,0.1-4.6
					c0.1-0.7,0.2-1.4,0.3-2.1c0.1-0.3,0.2-0.6,0.3-0.9c0-0.2,0.1-0.3,0.1-0.5c0,0,0.2-0.8,0.1-0.4c-0.2,0.3-0.3,0.6-0.5,1
					c-0.2,0.2-0.1,0.2,0,0c0.9-0.7,1.3-1.9,0.6-2.9C7.5,37,6.1,36.6,5.2,37.3L5.2,37.3z"/>
			</g>
			<g>
				<path class="st1" d="M54.3,26.8c0,0-0.1,0-0.1,0c0.5,1,0.9,2,1.4,3.1c0.5-0.8,0.8-1.6,1.1-2.5c0.3-0.9,0.8-1.7,1.1-2.6
					c0.8-1.8,1.6-3.6,2.4-5.3c0.8-1.8,1.5-3.5,2.3-5.3c0.8-1.7,1.5-3.5,2.3-5.3c0.2-0.4,0.3-0.7,0.5-1c0,0,0.1-0.2,0.2-0.2
					c0,0.1-0.1,0.1-0.1,0.2c0-0.1,0.1-0.1,0.1-0.2c0.1-0.2,0.3-0.4,0.4-0.5c0.1-0.1,0.3-0.2,0-0.1c-0.2,0.1-0.4,0.2-0.6,0.3
					c-0.3,0.1,0,0,0.1,0c0.1,0,0.2,0,0.3,0c0.5,0,0.9-0.1,1.4-0.2c2-0.3,4-0.7,5.9-1.1c2-0.3,4-0.7,6-0.8c2-0.2,3.9-0.3,5.9-0.4
					c4-0.2,8.1-0.4,12.1-0.6c2-0.1,4-0.1,6-0.1c0.5,0,1,0,1.5,0c0.2,0,0.4,0,0.7,0c0.1,0,0.2,0,0.3,0c0.1,0,0.7,0,0.1,0
					c1.1,0.1,2.2,0.2,3.3,0.2c2,0.1,4,0,6,0.1c1.9,0.1,3.9-0.2,5.8-0.1c1,0,2,0.1,3,0.1c0.4,0-0.1,0-0.1,0c0,0,0.3,0,0.3,0
					c0.2,0,0.5,0.1,0.7,0.1c0.5,0.1,0.9,0.3,1.4,0.4c0.3,0.1,0.7,0.1,1,0.2c0.1,0,0.2,0,0.2,0.1c0.4,0.1-0.4-0.2-0.1,0
					c0,0,0,0,0.1,0c0.1,0.1,0.2,0.1,0,0c-0.1-0.1-0.1-0.1,0,0c0.1,0,0.1,0.1,0.2,0.1c0.3,0.3,0.7,0.5,1,0.8c0.1,0.1,0.3,0.3,0.4,0.4
					c0.3,0.2,0,0-0.1-0.1c0.1,0.1,0.2,0.2,0.3,0.4c0.6,0.7,1.1,1.5,1.6,2.3c0.1,0.2,0.2,0.4,0.3,0.6c0,0.1,0.1,0.2,0.1,0.3
					c0.2,0.3,0,0,0-0.1c0.2,0.4,0.4,0.9,0.6,1.4c0.4,0.9,0.8,1.7,1.1,2.6c0.3,0.9,0.5,1.8,0.9,2.6c0.2,0.5,0.5,1,0.8,1.4
					c0.3,0.4-0.1-0.3,0,0c0,0.1,0.1,0.2,0.1,0.3c0.1,0.2,0.2,0.5,0.3,0.7c0.4,1,0.8,1.9,1.3,2.8c0,0.1,0.1,0.2,0.1,0.3
					c-0.1-0.4-0.1-0.2,0,0c0.1,0.2,0.2,0.4,0.2,0.7c0.1,0.5,0.2,0.9,0.4,1.4c0.1,0.4,0.3,0.7,0.4,1.1c0.2,0.4,0.2,0.9,0.4,1.3
					c0,0.1,0.1,0.3,0.1,0.3c0,0-0.1-0.5-0.1-0.2c0,0.1,0,0.3,0,0.4c0.1,0.8,0.5,1.5,1,2c-0.2-0.9-0.3-1.7-0.5-2.6
					c0.2-0.3,0.5-0.6,0.9-0.7c0.4-0.1,0.5-0.1,0.2-0.1c-1.1,0-2.1,1.1-2,2.2c0.1,1.2,1,2,2.2,2c1.1,0,1.9-0.6,2.5-1.5
					c0.5-0.9,0.2-1.9-0.5-2.6c0.1,0.1,0.1,0.1,0.2,0.2c0.1,0.3,0.2,0.4,0.1,0.3c-0.1-0.2,0,0.5,0.1,0.3c0-0.2,0-0.3,0-0.5
					c-0.1-0.5-0.2-1.1-0.4-1.6c-0.2-0.9-0.7-1.7-0.9-2.6c-0.2-1.1-0.7-2-1.2-2.9c-0.1-0.1-0.1-0.2-0.2-0.3c0-0.1-0.2-0.4-0.1-0.1
					c0.2,0.3-0.1-0.1-0.1-0.2c0-0.1-0.1-0.2-0.1-0.3c-0.2-0.4-0.3-0.9-0.5-1.3c-0.2-0.6-0.5-1.1-0.8-1.6c-0.1-0.1-0.1-0.2-0.1-0.3
					c-0.2-0.3,0,0.1,0,0.1c-0.1-0.2-0.2-0.5-0.3-0.7c-0.3-0.9-0.6-1.8-1-2.7c-0.8-1.8-1.6-3.8-2.7-5.5c-0.5-0.9-1.2-1.8-1.9-2.5
					c-0.6-0.7-1.4-1.3-2.2-1.8c-0.8-0.6-1.8-0.7-2.7-0.9c-1.1-0.3-2-0.5-3.1-0.6c-2-0.2-4-0.2-5.9-0.1c-1,0.1-2,0.1-3,0.1
					c-1,0-2-0.1-3-0.1c-1,0-2,0-3.1,0c-0.5,0-1,0-1.4-0.1c-0.5,0,0.3,0,0,0c-0.1,0-0.2,0-0.3,0c-0.4,0-0.9-0.1-1.3-0.1
					c-2-0.2-4.1-0.1-6.1-0.1c-4.1,0.1-8.2,0.3-12.3,0.5C83.1,0.8,79,0.9,75,1.5c-2,0.3-4,0.7-6,1.1c-1,0.2-2,0.4-3,0.5
					c-0.4,0.1-0.7,0-1.1,0.1c-0.8,0.1-1.6,0.4-2.1,1.1c-0.6,0.8-1.2,1.6-1.6,2.5c-0.4,0.8-0.7,1.7-1,2.5c-0.8,1.8-1.7,3.6-2.4,5.4
					c-0.8,1.8-1.6,3.6-2.4,5.4c-0.4,0.9-0.8,1.8-1.2,2.7c-0.4,0.9-0.8,1.7-1.2,2.6c-0.3,0.8-0.6,1.7-1.1,2.5
					c-0.7,1.1,0.1,2.8,1.4,3.1c0,0,0.1,0,0.1,0c1.1,0.2,2.3-0.4,2.5-1.6C56.1,28.3,55.5,27,54.3,26.8L54.3,26.8z"/>
			</g>
			<g>
				<path class="st1" d="M110.3,66.5c0.5,0.3-0.1,0-0.1-0.1c-0.1-0.1-0.3-0.2-0.4-0.3c-0.3-0.3-0.6-0.6-0.9-0.8
					c-0.6-0.6-1.4-1.1-2.1-1.5c-1.5-0.9-3.2-1.4-4.9-1.9c-3.4-0.9-6.9-1.2-10.3-1.4c-1.7-0.1-3.4-0.1-5.2,0
					c-1.8,0.2-3.4,0.7-5.1,1.3c-1.5,0.5-3.1,0.8-4.6,1.4c-1.6,0.6-3.2,1.4-4.7,2.2c-2.9,1.6-5.4,3.7-7.5,6.3c-1.1,1.3-2.2,2.6-3,4
					c-0.8,1.4-1.2,3-1.7,4.5c0,0.1-0.1,0.4,0-0.1c0,0.1-0.1,0.2-0.1,0.3c-0.1,0.2-0.1,0.3-0.2,0.5c-0.2,0.5-0.4,1-0.6,1.5
					c-0.3,0.8-0.5,1.5-0.7,2.3c-0.5,1.7-0.8,3.5-0.9,5.2c-0.1,1.8,0,3.6,0.4,5.3c0.2,0.8,0.5,1.5,0.7,2.3c0.2,0.9,0.4,1.7,0.5,2.6
					c0.2,0.8,0.3,1.6,0.6,2.4c0.3,0.8,0.6,1.6,0.8,2.5c0.2,0.8,0.5,1.6,0.8,2.3c0.3,0.9,0.6,1.7,1.1,2.5c1.9,2.8,4.2,5.4,7.1,7.2
					c1.3,0.8,2.7,1.5,4.1,2.1c1.6,0.8,3.2,1.4,4.8,1.9c3.2,1,6.6,1.5,9.9,2.2c1.6,0.4,3.3,0.7,5,0.9c1.8,0.2,3.7,0.4,5.5,0.2
					c1.8-0.2,3.6-0.2,5.3-0.9c0.8-0.3,1.5-0.7,2.3-1c0.9-0.3,1.7-0.7,2.5-1.1c1.5-0.7,2.9-1.5,4.3-2.4c1.4-0.9,2.6-2.1,3.8-3.3
					c1.1-1.2,2.1-2.5,3.1-3.9c1-1.4,1.6-2.9,2.1-4.6c0.5-1.6,1-3.2,1.1-4.8c0.1-0.5,0.1-1,0.1-1.6c0-0.2,0-0.4,0-0.5
					c0-0.1,0-0.2,0-0.3c0-0.3-0.1,0.4,0,0c0.1-0.8,0.3-1.6,0.5-2.4c0.3-1.7,0.6-3.4,0.8-5c0.2-1.8,0.3-3.7,0.1-5.5
					c-0.1-1-0.3-2-0.5-2.9c-0.2-0.7-0.3-1.4-0.5-2.1c-0.5-1.6-1.6-3-2.5-4.4c-0.4-0.7-0.9-1.4-1.3-2.1c-0.4-0.7-0.7-1.3-1.2-1.9
					c-0.4-0.6-0.8-1.2-1.2-1.8c-0.6-0.8-1.3-1.5-2.1-2c-0.1-0.1-0.3-0.2-0.4-0.3c-0.1,0-0.1-0.1-0.2-0.1c0.5,0.3,0.2,0.2,0.1,0.1
					c0,0-0.2-0.2-0.2-0.2c0,0,0.3,0.4,0.1,0.2c-0.1-0.1-0.2-0.2-0.2-0.3c-0.6-0.8-1.3-1.5-2.4-1.8c-0.9-0.2-1.9,0.3-2.4,1.1
					c0,0,0,0.1-0.1,0.1c-0.6,1-0.1,2.4,0.9,2.9c1.1,0.5,2.3,0.1,2.9-0.9c0,0,0-0.1,0.1-0.1c-0.8,0.4-1.6,0.7-2.4,1.1
					c0.2,0,0.3,0.1-0.2-0.1c0.1,0,0.3,0.1,0,0c-0.3-0.2,0,0.1,0.1,0.1c-0.3-0.2-0.3-0.3-0.1-0.1c0,0.1,0.1,0.1,0.1,0.2
					c0.1,0.1,0.2,0.2,0.3,0.3c0.4,0.5,0.8,0.8,1.3,1.2c0.1,0.1,0.3,0.2,0.4,0.3c0.1,0,0.1,0.1,0.2,0.1c0.2,0.1-0.3-0.3-0.1,0
					c0.1,0.1,0.2,0.2,0.3,0.3c0.1,0.1,0.1,0.1,0.2,0.2c0.2,0.2-0.1-0.1-0.1-0.1c0.2,0.3,0.4,0.6,0.6,0.9c0.4,0.6,0.8,1.2,1.2,1.8
					c0.4,0.6,0.7,1.3,1.1,1.9c0.4,0.7,0.8,1.3,1.2,1.9c0.4,0.6,0.8,1.3,1.2,1.9c0.1,0.2,0.2,0.3,0.3,0.5c0.1,0.1,0.2,0.3,0.3,0.5
					c0,0-0.2-0.5-0.1-0.1c0,0.1,0,0.1,0.1,0.2c0.1,0.2,0.1,0.4,0.2,0.6c0.1,0.3,0.1,0.6,0.2,0.9c0,0.2,0.1,0.3,0.1,0.5
					c0,0.1,0,0.2,0.1,0.3c0,0.1,0,0.1,0,0.2c0,0.2,0,0.1,0-0.2c0.1,0,0.2,1,0.2,1.1c0.1,0.4,0.1,0.9,0.1,1.3c0,0.8,0,1.7,0,2.5
					c0,0.4,0,0.8-0.1,1.1c0,0.3-0.1,0,0-0.1c0,0,0,0.2,0,0.2c0,0.2-0.1,0.5-0.1,0.7c-0.2,1.6-0.5,3.1-0.8,4.7
					c-0.2,0.9-0.3,1.8-0.4,2.8c0,0.4,0,0.8-0.1,1.2c0,0.1,0,0.2,0,0.2c0,0.3,0-0.4,0-0.1c0,0.2,0,0.4-0.1,0.6
					c-0.3,1.6-0.7,3.1-1.1,4.6c-0.1,0.2-0.1,0.3-0.2,0.5c-0.1,0.4,0-0.1,0-0.1c0,0.1-0.1,0.2-0.1,0.3c-0.1,0.3-0.3,0.7-0.5,1
					c-0.2,0.3-0.4,0.7-0.6,1c-0.1,0.1-0.2,0.3-0.3,0.4c0,0.1-0.1,0.1-0.1,0.2c0.2-0.4,0.1-0.1,0,0c-0.9,1.2-1.8,2.3-2.8,3.4
					c-0.2,0.3-0.5,0.5-0.7,0.7c-0.1,0.1-0.2,0.2-0.4,0.4c-0.1,0.1-0.1,0.1-0.2,0.2c-0.3,0.3,0.2-0.2,0,0c-0.6,0.5-1.2,0.9-1.9,1.3
					c-0.7,0.4-1.4,0.8-2.1,1.2c-0.3,0.2-0.6,0.3-1,0.5c-0.2,0.1-0.3,0.2-0.5,0.3c-0.1,0-0.2,0.1-0.3,0.1c-0.4,0.2,0.3-0.1,0,0
					c-0.7,0.3-1.4,0.6-2.1,0.9c-0.7,0.3-1.4,0.6-2.1,0.9c-0.2,0.1-0.4,0.1-0.6,0.2c-0.1,0-0.3,0.1,0,0c0.3-0.1,0,0-0.1,0
					c-0.4,0.1-0.8,0.1-1.2,0.1c-0.8,0.1-1.6,0.2-2.5,0.2c-0.8,0-1.6,0-2.4-0.1c-0.1,0-0.5-0.1-0.6,0c0,0,0.4,0,0.2,0
					c-0.1,0-0.2,0-0.3,0c-0.4,0-0.8-0.1-1.2-0.1c-1.6-0.2-3.2-0.6-4.8-0.9c-1.6-0.4-3.2-0.6-4.8-0.9c-1.6-0.3-3.1-0.7-4.6-1.2
					c-0.2-0.1-0.3-0.1-0.5-0.2c-0.1,0-0.4-0.1-0.1,0c0.3,0.1,0,0,0,0c-0.4-0.1-0.8-0.3-1.1-0.5c-0.7-0.3-1.4-0.6-2.1-1
					c-1.3-0.7-2.7-1.3-3.9-2.1c-0.1-0.1-0.3-0.2-0.4-0.3c-0.1,0-0.1-0.1-0.2-0.1c0.4,0.3,0.2,0.1,0.1,0.1c-0.3-0.2-0.6-0.5-0.9-0.7
					c-0.6-0.5-1.1-1.1-1.6-1.6c-0.3-0.3-0.5-0.5-0.7-0.8c0,0.1,0.3,0.3,0,0c-0.1-0.1-0.1-0.1-0.2-0.2c-0.1-0.2-0.3-0.4-0.4-0.6
					c-0.4-0.6-0.9-1.2-1.3-1.8c0-0.1-0.1-0.3,0,0c0.1,0.3,0,0,0-0.1c-0.1-0.2-0.1-0.3-0.2-0.5c-0.1-0.4-0.3-0.8-0.4-1.2
					c-0.3-0.7-0.5-1.5-0.7-2.2c-0.2-0.8-0.6-1.5-0.8-2.3c-0.2-0.8-0.4-1.6-0.5-2.4c-0.2-0.8-0.3-1.6-0.5-2.4
					c-0.1-0.4-0.2-0.7-0.4-1.1c-0.1-0.2-0.1-0.3-0.2-0.5c0-0.1,0-0.1-0.1-0.2c0,0-0.1-0.5-0.1-0.2c0,0.3,0-0.3,0-0.3
					c0-0.2,0-0.4-0.1-0.6c0-0.4-0.1-0.8-0.1-1.2c0-0.4,0-0.8,0-1.2c0-0.2,0-0.4,0-0.6c0-0.1,0-0.2,0-0.2c0,0,0-0.5,0-0.2
					c0,0.3,0-0.3,0-0.3c0-0.2,0.1-0.4,0.1-0.6c0.1-0.4,0.1-0.8,0.2-1.1c0.2-0.8,0.3-1.5,0.6-2.3c0.1-0.4,0.2-0.7,0.3-1.1
					c0.1-0.2,0.1-0.3,0.2-0.5c0-0.1,0.1-0.2,0.1-0.3c-0.1,0.2-0.1,0.3,0,0c0.3-0.9,0.7-1.7,1-2.6c0.2-0.7,0.4-1.4,0.6-2.1
					c0.1-0.2-0.1,0.2-0.1,0.2c0-0.1,0.1-0.2,0.1-0.3c0.1-0.2,0.1-0.3,0.2-0.5c0.1-0.1,0.1-0.3,0.2-0.4c0-0.1,0.1-0.2,0.1-0.2
					c0-0.1,0.3-0.4,0.1-0.1c-0.2,0.2,0,0,0,0c0.1-0.1,0.1-0.2,0.2-0.2c0.1-0.1,0.2-0.3,0.3-0.4c0.2-0.3,0.5-0.6,0.7-1
					c0.4-0.6,0.9-1.1,1.4-1.7c0.5-0.6,1-1.1,1.5-1.7c0.3-0.3,0.5-0.5,0.8-0.8c0.1-0.1,0.3-0.3,0.4-0.4c0,0-0.4,0.3-0.1,0.1
					c0.1-0.1,0.2-0.1,0.2-0.2c1.2-1,2.5-1.8,3.9-2.5c0.3-0.2,0.7-0.4,1-0.5c0.2-0.1,0.3-0.2,0.5-0.2c0.1,0,0.2-0.1,0.3-0.1
					c0.3-0.2-0.1,0-0.1,0c0,0,1-0.4,1.1-0.5c0.4-0.1,0.7-0.3,1.1-0.4c1.5-0.5,3-0.8,4.4-1.3c0.7-0.2,1.5-0.5,2.2-0.7
					c0.2,0,0.3-0.1,0.5-0.1c0.1,0,0.2,0,0.3-0.1c0.2-0.1-0.2,0-0.2,0c0.1,0,0.5-0.1,0.6-0.1c0.2,0,0.4,0,0.7-0.1
					c1.7-0.1,3.3-0.1,5,0c0.4,0,0.7,0,1.1,0.1c0.2,0,0.4,0.1,0.6,0c0,0-0.4,0-0.2,0c0.1,0,0.3,0,0.4,0c0.8,0.1,1.6,0.2,2.4,0.3
					c1.6,0.2,3.2,0.5,4.7,0.9c0.4,0.1,0.7,0.2,1.1,0.3c0.2,0.1,0.4,0.1,0.5,0.2c0.1,0,0.2,0.1,0.3,0.1c0.3,0.1-0.5-0.2,0,0
					c0.7,0.3,1.4,0.6,2,1c0.1,0,0.1,0.1,0.2,0.1c0.2,0.2-0.3-0.2-0.1-0.1c0.1,0.1,0.3,0.2,0.4,0.3c0.3,0.2,0.5,0.4,0.8,0.7
					c0.6,0.6,1.3,1.1,2,1.6c0.4,0.3,1.2,0.3,1.6,0.1c0.5-0.2,1-0.6,1.2-1c0.2-0.5,0.3-1.1,0.1-1.6C111.2,67.2,110.8,66.8,110.3,66.5
					L110.3,66.5z"/>
			</g>
			<g>
				<path class="st1" d="M77.9,58.9c-0.2,0.1-0.4,0.1-0.6,0.1c-0.5,0.1,0.3-0.1,0,0c-0.1,0-0.2,0-0.3,0.1c-0.6,0.1-1.2,0.2-1.8,0.4
					c-1,0.3-1.9,0.8-2.9,1.2c-0.4,0.2-0.7,0.4-1.1,0.6c-0.1,0-0.2,0.1-0.3,0.1c-0.4,0.2,0,0,0.1,0c-0.1,0-0.6,0.3-0.7,0.3
					c-0.9,0.4-1.8,0.8-2.7,1.3c-1.7,0.9-3.1,2.2-4.6,3.5c-1.3,1.1-2.5,2.3-3.5,3.7c-1.2,1.7-1.9,3.5-2.5,5.4
					c-0.1,0.2-0.1,0.4-0.2,0.6c0,0.1-0.1,0.2-0.1,0.3c-0.1,0.4,0,0,0-0.1c-0.2,0.4-0.3,0.8-0.5,1.2c-0.4,1-0.6,1.9-0.8,2.9
					c-0.3,1.9-0.8,3.8-1,5.8c-0.1,0.9,0,1.8,0,2.7c0,1.1,0.2,2.1,0.5,3.1c1.1,3.6,2.1,7.3,3.1,11c0.5,1.8,0.9,3.6,1.4,5.4
					c0.5,1.8,1.3,3.5,2.4,5c2,2.8,3.9,5.9,6.7,8c2.9,2.2,6.5,3.3,10.1,3.8c0.9,0.1,1.8,0.2,2.6,0.3c1.1,0.1,2.2,0.3,3.2,0.3
					c1.9,0.1,3.7-0.1,5.6-0.2c2-0.1,4-0.3,5.9-1c0.9-0.3,1.7-0.6,2.6-0.8c0.1,0,0.2,0,0.3-0.1c0.5-0.1-0.1,0-0.1,0
					c0,0,0.6-0.1,0.6-0.1c0.6-0.1,1.2-0.2,1.8-0.4c0.8-0.2,1.6-0.6,2.4-0.9c0.5-0.2,1-0.5,1.5-0.7c0.2-0.1,0.4-0.2,0.5-0.3
					c0.3-0.2,0,0-0.1,0c0.1,0,0.3-0.1,0.4-0.2c0.9-0.4,1.7-0.8,2.6-1.4c0.7-0.5,1.3-1,2-1.5c2.8-2.2,5.4-4.7,7.5-7.6
					c1.1-1.6,2-3.2,2.9-4.9c0.9-1.8,1.7-3.6,2.4-5.5c0.6-1.7,0.9-3.5,1.3-5.3c0.4-1.9,0.7-3.9,0.8-5.9c0-0.9-0.1-1.8-0.2-2.7
					c-0.1-1-0.1-2.1-0.4-3.1c-0.1-0.5-0.3-0.9-0.5-1.4c0,0.1-0.3-0.7-0.1-0.3c0.1,0.3-0.1-0.1-0.1-0.2c-0.1-0.2-0.2-0.4-0.2-0.6
					c0-0.1-0.1-0.2-0.1-0.3c0,0,0,0,0-0.1c0-0.2,0-0.2,0,0.1c-0.1-0.1-0.1-0.4-0.1-0.6c-0.1-0.6-0.2-1.2-0.3-1.8
					c-0.4-1.9-1.2-3.8-2.1-5.5c-0.5-0.8-1.1-1.6-1.7-2.3c-0.3-0.3-0.5-0.6-0.8-0.9c-0.1-0.1-0.3-0.3-0.4-0.4
					c-0.1-0.1-0.3-0.4-0.5-0.5c0,0,0.3,0.4,0.1,0.1c-0.1-0.1-0.1-0.1-0.2-0.2c-0.1-0.2-0.2-0.3-0.4-0.5c-0.3-0.3-0.5-0.7-0.8-1.1
					c-0.6-0.8-1.2-1.6-1.9-2.2c-1.3-1.3-2.9-2.2-4.4-3.1c-1.6-0.9-3.3-1.7-5.1-2.1c-1.8-0.4-3.7-0.7-5.6-1
					c-3.8-0.6-7.5-1.7-11.3-1.7c-1,0-2,0-2.9,0.1c-0.9,0-1.8,0.1-2.7,0.2c-1.1,0.2-2.2,0.4-3.2,0.9c-0.7,0.3-1.3,0.9-2,1.3
					c-0.8,0.4-1.7,0.8-2.3,1.5c-0.8,0.7-0.9,1.7-1,2.7c0,0.5,0.3,1.1,0.7,1.5c0.4,0.4,1,0.6,1.5,0.5c0.5-0.1,1.1-0.3,1.5-0.7
					c0.4-0.5,0.5-0.9,0.5-1.5c0-0.4-0.1,0.5,0,0c0.1-0.5-0.2,0.4-0.1,0.1c-0.2,0.4-0.3,0.4-0.2,0.3c-0.4,0.5-0.3,0.3-0.2,0.2
					c0.2-0.1,0.4-0.2,0.6-0.4c0.7-0.4,1.3-0.7,2-1.2c0.3-0.2,0.6-0.4,0.9-0.6c0.3-0.2-0.1,0.1-0.1,0.1c0,0,0.2-0.1,0.3-0.1
					c0.2-0.1,0.5-0.2,0.7-0.2c0.2-0.1,0.4-0.1,0.6-0.1c0.2,0,0.2-0.1-0.1,0c0.1,0,0.2,0,0.3,0c0.4-0.1,0.8-0.1,1.3-0.1
					c1.8-0.1,3.7-0.2,5.5-0.1c0.1,0,0.2,0,0.3,0c0.3,0-0.4,0-0.1,0c0.2,0,0.4,0,0.6,0.1c0.4,0.1,0.9,0.1,1.3,0.2
					c0.9,0.1,1.8,0.3,2.7,0.5c1.7,0.4,3.5,0.7,5.2,1c1.8,0.3,3.5,0.5,5.2,1c0.1,0,0.2,0.1,0.3,0.1c0.2,0.1,0.3,0-0.1,0
					c0.2,0,0.4,0.2,0.6,0.2c0.4,0.2,0.8,0.3,1.1,0.5c0.7,0.4,1.4,0.8,2.1,1.2c0.3,0.2,0.7,0.4,1,0.6c0.1,0,0.2,0.1,0.2,0.2
					c-0.3-0.3-0.2-0.1-0.1-0.1c0.2,0.1,0.4,0.3,0.6,0.4c0.3,0.2,0.6,0.5,0.8,0.7c0.1,0.1,0.3,0.3,0.4,0.4c0.1,0.1,0.1,0.1,0.2,0.2
					c0.2,0.2-0.3-0.3,0,0c0.5,0.6,1,1.3,1.5,2c0.6,0.7,1.2,1.4,1.8,2.1c0.3,0.3,0.5,0.6,0.8,0.9c0.1,0.1,0.1,0.1,0.2,0.2
					c0.2,0.2-0.3-0.3-0.1-0.1c0.1,0.2,0.3,0.3,0.4,0.5c0.2,0.3,0.4,0.6,0.6,1c0.1,0.1,0.4,0.7,0.1,0.2c0.1,0.2,0.2,0.4,0.3,0.7
					c0.4,0.8,0.7,1.6,1,2.5c0.1,0.2,0.1,0.4,0.2,0.6c0,0.1,0.2,0.5,0.1,0.6c0.1-0.2-0.1-0.4,0-0.1c0,0.1,0,0.2,0,0.3
					c0,0.3,0.1,0.5,0.1,0.8c0.1,0.9,0.3,1.9,0.7,2.7c0.1,0.2,0.2,0.4,0.3,0.6c0.2,0.4,0-0.1,0-0.1c0,0.2,0.2,0.4,0.2,0.6
					c0,0.1,0.1,0.2,0.1,0.3c0.1,0.4,0-0.1,0-0.1c-0.1,0.1,0.1,0.7,0.1,0.8c0.1,0.9,0.2,1.8,0.2,2.6c0,0.4,0.1,0.9,0,1.3
					c0,0.2,0,0.4,0,0.6c0,0.2-0.1,0.6-0.1,0.8c0,0,0-0.5,0-0.1c0,0.1,0,0.2,0,0.3c0,0.2,0,0.4-0.1,0.6c-0.1,0.4-0.1,0.9-0.2,1.3
					c-0.1,0.9-0.4,1.7-0.6,2.6c-0.2,0.8-0.4,1.7-0.6,2.5c-0.1,0.4-0.2,0.8-0.3,1.2c0,0.1-0.1,0.2-0.1,0.3c0,0.1-0.1,0.4,0,0.1
					c0.1-0.3,0,0,0,0.1c0,0.1-0.1,0.2-0.2,0.4c-0.7,1.7-1.5,3.3-2.3,4.9c-0.4,0.8-0.8,1.5-1.2,2.3c-0.2,0.3-0.5,0.7-0.6,1
					c0-0.1,0.3-0.4,0.1-0.1c-0.1,0.1-0.1,0.2-0.2,0.2c-0.1,0.2-0.3,0.4-0.4,0.5c-1,1.3-2.1,2.5-3.3,3.7c-0.3,0.3-0.6,0.6-0.9,0.8
					c-0.1,0.1-0.3,0.3-0.4,0.4c-0.2,0.2,0.3-0.2,0.1-0.1c-0.1,0.1-0.2,0.2-0.3,0.2c-0.7,0.5-1.3,1-2,1.6c-0.6,0.5-1.2,1-1.9,1.4
					c-0.2,0.1-0.3,0.2-0.5,0.3c-0.2,0.1,0.2-0.1,0.2-0.1c-0.1,0-0.2,0.1-0.3,0.1c-0.5,0.2-1.1,0.5-1.6,0.7c-0.4,0.2-0.7,0.4-1.1,0.5
					c-0.1,0-0.2,0.1-0.3,0.1c0,0,0.4-0.2,0.1,0c-0.2,0.1-0.4,0.2-0.6,0.3c-0.8,0.3-1.6,0.6-2.4,0.7c0.6-0.1-0.1,0-0.2,0
					c-0.3,0.1-0.7,0.1-1,0.2c-0.5,0.1-0.9,0.2-1.4,0.3c-0.8,0.2-1.7,0.5-2.5,0.8c-0.3,0.1-0.9,0.3-1.2,0.3c0.4,0,0.3,0,0.1,0
					c-0.1,0-0.2,0-0.3,0c-0.3,0-0.5,0.1-0.8,0.1c-0.9,0.1-1.8,0.1-2.7,0.1c-1.8,0.1-3.6,0.2-5.3,0.1c-0.3,0,0.4,0,0.1,0
					c-0.1,0-0.2,0-0.3,0c-0.2,0-0.4-0.1-0.6-0.1c-0.5-0.1-0.9-0.1-1.4-0.2c-0.8-0.1-1.7-0.2-2.5-0.3c-0.8-0.1-1.7-0.3-2.5-0.5
					c-0.4-0.1-0.8-0.2-1.2-0.3c-0.2-0.1-0.4-0.1-0.6-0.2c-0.1,0-0.2-0.1-0.3-0.1c0.3,0.1,0.3,0.1,0.2,0.1c-0.1,0-0.1,0-0.2-0.1
					c-0.7-0.3-1.4-0.6-2-0.9c-0.2-0.1-0.3-0.2-0.5-0.3c-0.1-0.1-0.4-0.2-0.5-0.3c0.1,0.2,0.3,0.2,0.1,0.1c-0.1-0.1-0.2-0.1-0.2-0.2
					c-0.2-0.1-0.4-0.3-0.6-0.5c-0.6-0.5-1.2-1.1-1.7-1.7c-0.1-0.1-0.3-0.3-0.1-0.1c0.2,0.2,0,0-0.1-0.1c-0.1-0.2-0.2-0.3-0.4-0.5
					c-0.3-0.3-0.5-0.7-0.8-1c-1-1.3-1.9-2.6-2.8-3.9c-0.2-0.3-0.4-0.6-0.6-1c-0.1-0.1-0.3-0.4-0.3-0.5c0,0.1,0.2,0.4,0.1,0.1
					c-0.1-0.1-0.1-0.3-0.2-0.4c-0.3-0.8-0.5-1.6-0.7-2.4c-0.9-3.6-1.9-7.1-2.9-10.6c-0.5-1.8-1-3.5-1.6-5.2
					c-0.1-0.2-0.1-0.4-0.2-0.6c0-0.1,0-0.3-0.1-0.3c0,0,0.1,0.5,0,0.1c0-0.4-0.1-0.8-0.1-1.3c0-0.4,0-0.8,0-1.3c0-0.2,0-0.4,0-0.6
					c0-0.1,0-0.2,0-0.3c0-0.5-0.1,0.5,0-0.1c0.2-1.7,0.6-3.4,0.9-5.2c0.1-0.4,0.1-0.8,0.2-1.2c0-0.1,0.1-0.2,0.1-0.3
					c0.1-0.2,0-0.2,0,0.1c0-0.2,0.2-0.4,0.2-0.6c0.4-0.9,0.7-1.8,1-2.7c0.1-0.2,0.1-0.4,0.2-0.6c0-0.1,0.1-0.2,0.1-0.3
					c-0.2,0.5-0.1,0.2,0,0.1c0.2-0.4,0.3-0.8,0.5-1.3c0.2-0.3,0.3-0.7,0.5-1c0.1-0.2,0.2-0.3,0.3-0.5c0-0.1,0.2-0.3,0-0.1
					c-0.2,0.3,0.1-0.1,0.1-0.1c1-1.3,2.2-2.4,3.4-3.5c0.2-0.1,0.3-0.3,0.5-0.4c0.1-0.1,0.2-0.1,0.2-0.2c0.2-0.2-0.3,0.2-0.1,0.1
					c0.3-0.3,0.7-0.5,1-0.8c0.7-0.5,1.4-1,2.1-1.4c0.1,0,0.2-0.1,0.3-0.1c0.3-0.1-0.4,0.2-0.1,0c0.2-0.1,0.4-0.2,0.5-0.3
					c0.4-0.2,0.8-0.3,1.2-0.5c0.9-0.4,1.8-0.9,2.7-1.4c0,0,0.3-0.1,0.3-0.1c0,0-0.4,0.2-0.1,0.1c0.2-0.1,0.4-0.2,0.6-0.3
					c0.4-0.2,0.8-0.3,1.2-0.4c0.2-0.1,0.4-0.1,0.6-0.1c0.3-0.1-0.4,0.1-0.1,0c0.1,0,0.2,0,0.3-0.1c0.6-0.1,1.2-0.2,1.7-0.3
					c1.1-0.3,1.7-1.7,1.4-2.7C80.2,59.1,79.1,58.6,77.9,58.9L77.9,58.9z"/>
			</g>
			<g>
				<path class="st1" d="M135,46.6c-0.1,0-0.3,0-0.4,0c0.1,1.4,0.1,2.8,0.2,4.2c0.8-0.1,1.6,0,2.5,0c0.8,0,1.7-0.1,2.5,0
					c0.2,0,0.4,0,0.6,0c0.2,0,0.8,0.1,0.2,0c0.5,0.1,1.1,0.1,1.7,0.1c0.8,0.1,1.7,0.1,2.5,0.1c0.4,0,0.8,0,1.2,0c0.3,0-0.1,0-0.1,0
					c0,0,0.2,0,0.2,0c0.2,0,0.5,0.1,0.7,0.1c1,0.2,1.9,0.3,2.9,0.3c0.4,0,0.8,0,1.2,0.1c0.1,0,0.2,0,0.3,0c0.3,0,0,0.1-0.1,0
					c0.1,0.1,0.5,0.1,0.6,0.1c0.9,0.1,1.9,0.2,2.8,0.2c0.5,0,0.9,0,1.4,0.1c0.1,0,0.2,0,0.2,0c-0.3,0-0.4,0-0.2,0c0.1,0,0.1,0,0.2,0
					c0.2,0,0.4,0.1,0.5,0.2c0.2,0.1,0.4,0.1,0.7,0.1c0.1,0,0.2,0,0.2,0c0.2,0,0.2,0,0,0c-0.2-0.1-0.2-0.1-0.1,0
					c0.4,0.3,1.1,0.5,1.7,0.4c0.6-0.1,1.1-0.2,1.5-0.7c0.4-0.4,0.6-1,0.5-1.5c-0.1-0.5-0.3-1.1-0.7-1.5c-0.4-0.3-1-0.6-1.5-0.5
					c-0.4,0.1,0.2,0.1,0.3,0.1c0,0,0.5,0.2,0.3,0.1c-0.1-0.1-0.3-0.2-0.5-0.2c-0.5-0.2-0.9-0.2-1.4-0.3c-0.3-0.1-0.7-0.2-1-0.3
					c-0.5-0.1-1.1-0.1-1.7-0.1c-0.4,0-0.8,0-1.3,0c-0.1,0-0.3,0,0,0c0.3,0.1,0,0-0.1,0c-0.2,0-0.5-0.1-0.7-0.1
					c-1-0.1-1.9-0.2-2.9-0.3c-0.2,0-0.4,0-0.6,0c-0.1,0-0.5-0.1-0.6,0c0,0,0.5,0.1,0.1,0c-0.1,0-0.2,0-0.2,0c-0.2,0-0.5-0.1-0.7-0.1
					c-1-0.2-1.9-0.3-2.9-0.3c-0.8,0-1.7,0-2.5-0.1c-0.2,0-0.4,0-0.6,0c-0.1,0-0.3,0,0,0c0.3,0,0,0-0.1,0c-0.6,0-1.1-0.1-1.7-0.1
					c-0.9-0.1-1.9-0.1-2.8,0c-1,0-1.9-0.1-2.9,0c-1.1,0.1-2.1,1.1-2,2.2c0.1,1.1,1,2.1,2.2,2c0.1,0,0.3,0,0.4,0
					c1.1-0.1,2.1-1.1,2-2.2C137.1,47.5,136.2,46.5,135,46.6L135,46.6z"/>
			</g>
			<g>
				<path class="st1" d="M8.2,37.1c0.1,0.3,0.2,0.5,0.2,0.8c0.1,0.8,0.2,1.1,0.2,0.8c0-0.1,0-0.1,0-0.2c0-0.2,0-0.3,0.1-0.5
					c0-0.5,0.1-1,0.1-1.4c0-0.2,0-0.4,0-0.6c0,0,0-0.2,0-0.2c0,0,0,0.4,0,0.2c0-0.4,0.1-0.8,0.1-1.1c0.1-0.6,0.2-1.3,0.4-1.9
					c0-0.1,0.1-0.1,0.1-0.2c0,0.4-0.1,0.3,0,0.1c0.1-0.1,0.1-0.3,0.2-0.4c0.1-0.3,0.3-0.7,0.5-1c0.4-0.7,0.7-1.4,1-2.2
					c0.1-0.3,0.2-0.6,0.3-0.9c0-0.1,0.1-0.3,0.1-0.4c0,0,0.1-0.2,0-0.2c0,0.1-0.2,0.4,0,0.1c0,0,0.1-0.1,0.1-0.2
					c0,0-0.3,0.3-0.1,0.2c0.1-0.1,0.2-0.2,0.3-0.3c0-0.1,0.1-0.1,0.1-0.2c0.2-0.2,0.1,0.1-0.1,0.1c0,0,0.1-0.1,0.2-0.1
					c0.2-0.1-0.4,0.2-0.2,0.1c0.6-0.2,1.1-0.4,1.7-0.6c0.3-0.1,0.6-0.2,1-0.3c0.2,0,0.3-0.1,0.5-0.1c0.3-0.1,0.1,0.1-0.1,0
					c0.1,0,0.2,0,0.3,0c0.7-0.1,1.4-0.1,2.1-0.1c1.4,0,2.9,0,4.3-0.1c1.6-0.1,3.1-0.4,4.6-0.7c0.1,0,0.2,0,0.2,0
					c0.2-0.1-0.2,0-0.2,0c0.1,0,0.3-0.1,0.5-0.1c0,0,0.3,0,0.3,0c0,0-0.5-0.1-0.2,0c0.1,0,0.3,0.1,0.4,0.1c0.3,0.1,0.6,0.2,0.9,0.3
					c0.5,0.2,0.9,0.2,1.4,0.2c0.1,0,0.1,0,0.2,0c-0.2,0-0.5,0-0.7-0.1c0,0-0.4-0.3-0.2-0.2c0.1,0.1-0.2-0.4-0.1-0.2
					c0,0.1,0.3,0.5,0.1,0.2c-0.2-0.3,0,0.1,0.1,0.2c0.3,0.7,0.6,1.3,0.9,2c0.4,0.8,0.7,1.5,1.1,2.3c0.3,0.7,0.7,1.3,1.3,1.8
					c0.9,0.7,2.2,0.8,3-0.1c0.7-0.8,0.8-2.3-0.1-3c-0.1-0.1-0.4-0.4-0.1-0.1c0.2,0.3,0-0.1-0.1-0.2c-0.2-0.3-0.3-0.5-0.4-0.8
					c-0.2-0.3-0.3-0.6-0.5-0.9c0-0.1-0.1-0.1-0.1-0.2c-0.1-0.1-0.2-0.2,0,0.1c-0.1-0.2-0.2-0.4-0.3-0.6c-0.6-1.4-1.1-3.1-2.5-3.9
					c-0.5-0.3-1-0.3-1.6-0.4c-0.1,0-0.1,0-0.2,0c0.6,0,0.3,0,0.2,0c-0.2-0.1-0.4-0.1-0.6-0.2c-0.8-0.3-1.6-0.5-2.4-0.4
					c-0.9,0.1-1.7,0.3-2.6,0.5c-0.1,0-0.2,0-0.3,0.1c-0.2,0.1,0.2,0,0.2,0c-0.1,0-0.5,0.1-0.6,0.1c-0.4,0.1-0.8,0.1-1.2,0.1
					c-3.2,0.3-6.6-0.2-9.6,0.9c-0.6,0.2-1.3,0.4-1.9,0.7c-0.9,0.4-1.5,0.9-2.1,1.7c-0.3,0.4-0.5,0.7-0.7,1.1c-0.2,0.5-0.3,1-0.4,1.5
					c0,0.1-0.1,0.3-0.1,0.4c-0.1,0.4,0-0.1,0-0.1c0,0-0.1,0.2-0.1,0.2c-0.2,0.4-0.3,0.7-0.5,1.1c-0.8,1.6-1.4,3.2-1.6,5
					c-0.1,1-0.2,2-0.2,3c0,0.3,0-0.2,0-0.2c0,0.1,0,0.3,0,0.4c0,0.2,0,0.3-0.1,0.5c-0.1,0.9,0.1,1.8,0.8,2.4c0.9,0.7,2.2,0.8,3-0.1
					C9.1,39.3,9.2,37.9,8.2,37.1L8.2,37.1z"/>
			</g>
			<g>
				<path class="st1" d="M178,33c-0.7,0.7-1.1,1.9-1,2.9c0,0.6,0.2,1.2,0.5,1.7c0.1,0.2,0.3,0.5,0.5,0.6c0.2,0.1,0.4,0.3,0.6,0.4
					c0.2,0.1,0,0-0.1-0.1c0,0,0.3,0.3,0.1,0c-0.2-0.2,0,0,0,0c0.1,0.2,0.2,0.3,0.3,0.5c0.1,0.2,0-0.1-0.1-0.1c0,0.1,0.1,0.2,0.1,0.2
					c0.1,0.2,0.2,0.4,0.2,0.6c0.1,0.3,0.2,0.7,0.3,1c0,0.1,0.1,0.3,0.1,0.4c0,0.1,0,0.2,0.1,0.3c0.1,0.3-0.1-0.5,0,0.1
					c0.2,1.8,0.1,3.7,0.2,5.5c0.1,2,0.2,4.1,0.3,6.1c0.1,2,0.2,4,0.1,6c-0.1,2-0.2,4-0.4,6c-0.1,1.9,0.2,3.9,0.2,5.8
					c0,2-0.2,3.9-0.3,5.9c-0.4,8.1-0.2,16.2-0.8,24.3c0,0.3,0,0.5-0.1,0.8c0,0.1-0.1,0.6,0,0.3c0,0.5-0.1,1-0.1,1.5
					c-0.1,1-0.2,2-0.3,3c-0.2,2-0.5,4-0.8,5.9c-0.3,1.9-0.6,3.9-0.8,5.8c-0.3,2.1-0.7,4.2-0.7,6.3c0,0.9,0,1.9,0.1,2.8
					c0,0.5,0,0.9,0,1.4c0,0.2,0,0.4,0,0.6c0,0.1,0,0.3,0,0.4c0,0.2,0,0.3,0,0.1c-0.2,1.9-0.5,3.8-0.9,5.6c-0.4,1.8-0.8,3.6-1.3,5.4
					c-0.3,0.9-0.6,1.8-0.8,2.8c-0.1,0.6-0.1,1.1-0.1,1.7c0,0.1,0,0.2,0,0.3c0,0.5,0,0.1,0,0c0,0.1-0.1,0.3,0,0c0.1-0.3,0,0-0.1,0.1
					c-0.4,0.8-0.9,1.7-0.7,2.7c0.2,1.1,1,2.1,2.2,2c1-0.1,2.2-1.1,2-2.2c0-0.3,0-0.4-0.1-0.1c0-0.5,0,0.2,0,0.1c0,0,0.1-0.2,0.1-0.2
					c0.2-0.4,0.4-0.9,0.6-1.3c0.2-0.5,0.2-1,0.2-1.5c0-0.2,0-0.5,0-0.7c0,0.1-0.1,0.3,0,0.1c0-0.1,0.1-0.3,0.1-0.4
					c0.4-1.8,1.1-3.6,1.5-5.4c0.9-3.7,1.7-7.5,1.6-11.4c0-0.9-0.1-1.8-0.1-2.7c0-0.2,0-0.5,0-0.7c0,0,0-0.4,0-0.1c0,0.2,0-0.1,0-0.1
					c0.1-0.5,0.1-1,0.2-1.5c0.3-2,0.5-3.9,0.8-5.9c0.6-3.9,1.2-7.7,1.6-11.6c0.8-8.1,0.7-16.2,0.9-24.3c0.1-2,0.2-3.9,0.3-5.9
					c0.1-1.9,0.2-3.8,0.1-5.7c0-1-0.2-2-0.2-3c0-1,0.1-2,0.2-3c0.1-2,0.2-3.9,0.2-5.9c0-3.9-0.4-7.9-0.5-11.8c0-1.9-0.1-3.8-0.5-5.6
					c-0.5-1.8-1.2-3.7-2.8-4.7c0,0-0.2-0.1-0.2-0.1c0,0,0,0-0.1,0c0.2,0.1,0.3,0.3,0.5,0.4c0.1,0.1,0.1,0.2,0.1,0.4
					c0.1,0.2,0,0.1,0,0c0,0-0.1,0.4,0,0.2c0-0.1,0.1-0.4,0-0.1c-0.1,0.3,0,0.1,0,0c0,0-0.3,0.4-0.1,0.1c0.8-0.8,0.7-2.3-0.1-3
					C180.1,32.1,178.9,32.2,178,33L178,33z"/>
			</g>
		</g>
	</g>
</g>
</svg>
