<?xml version="1.0" encoding="utf-8"?>
<!-- Generator: Adobe Illustrator 27.8.1, SVG Export Plug-In . SVG Version: 6.00 Build 0)  -->
<svg version="1.1" xmlns="http://www.w3.org/2000/svg" xmlns:xlink="http://www.w3.org/1999/xlink" x="0px" y="0px"
	 viewBox="0 0 185.7 189" style="enable-background:new 0 0 185.7 189;" xml:space="preserve">
<style type="text/css">
	.st0{fill:#e190e1;stroke:#6FCFA1;stroke-miterlimit:10;}
	.st1{fill:#FFFFFF;}
	.st2{fill:#e190e1;}
	.st3{fill:#e190e1;stroke:#AFE8D9;stroke-miterlimit:10;}
	.st4{fill:#e190e1;stroke:#BFE6D8;stroke-miterlimit:10;}
</style>
<g id="Background">
</g>
<g id="Graphic_Element">
	<g>
		<polygon class="st3" points="30.1,82.2 67,114.3 54.6,181.4 106.6,142.6 146.3,174.7 140.1,111.5 185.7,81.2 119.4,75 106.3,12.9 
			79.3,72 		"/>
		<path class="st1" d="M179.1,74.6c-0.3-0.3-0.5-0.6-0.8-1c-1.2-0.3-2.2-0.6-3.2-0.7c-5.2-0.5-10.5-0.8-15.6-0.9
			c-5.1,0-10.6-0.1-17.4-0.1c-3.9,0-7.7,0-11.6,0c-3.9,0-7.7,0-11.5,0h-1l-0.4-0.9c-0.4-1-0.9-1.9-1.3-2.8c-0.9-1.9-1.7-3.6-2.3-5.5
			c-2.2-6.8-4.4-13.7-6.5-20.4c-1.8-5.8-3.7-11.8-5.6-17.7c-0.7-2.3-1.6-4.5-2.4-6.7c-0.7-1.9-1.4-3.8-2.1-5.8
			c-0.8-2.5-2-3.5-4.3-3.5c-0.2,0.4-0.4,0.7-0.7,1.1c-0.8,1.4-1.6,2.8-2.3,4.3c-1.6,3.4-3.3,6.8-4.9,10.1
			c-6.2,12.8-12.7,26.1-18.8,39.3c-2.1,4.6-4.9,6.6-9.2,6.6c-0.4,0-0.7,0-1.1,0c-7.7-0.6-15.9-1-26.5-1.4
			c-6.4-0.2-13.2-0.4-21.3-0.4H7.9c-1.2,0-2.6,0.3-4.3,1c-1.4,0.6-2.4,1.4-2.6,2.4c-0.3,1.2,0.4,2.3,1.1,3.1
			c1.2,1.5,2.7,2.8,4.3,4.1C7,79.4,7.5,79.9,8,80.3c10,8.9,19.8,17.8,30.3,27.1l9.3,8.3l0.6,0.6l-0.2,0.8l-1.9,9.8
			c-3.6,18.4-7.3,37.1-10.9,55.6c0,0,0,0.1,0,0.1c1.2,0.6,2.3,0.9,3.4,0.9c2.4,0,4.5-1.5,6.7-3l0.2-0.2c11.3-8,22.7-16.2,33.8-24.1
			c4.1-2.9,8.2-5.9,12.3-8.8l0.8-0.6l0.8,0.5c10.2,6.3,18.9,14.3,27.3,22.1c6.6,6.1,13.4,12.4,20.7,17.7c0.3,0.1,0.6,0.2,0.8,0.3
			c0.3-0.1,0.5-0.1,0.8-0.1c0.1-0.1,0.3-0.3,0.4-0.4c0.1-0.2,0.1-0.3,0.2-0.5c0-0.1,0.1-0.2,0.1-0.3l0,0c0.2-0.5,0.3-1,0.5-1.5
			c0.1-0.3,0.2-0.6,0.3-0.8c0-0.1,0.1-0.2,0.1-0.3c-0.1-1.1-0.2-2.2-0.4-3.2l-0.7-3.5c-3.5-17.6-7.1-35.7-11-53.5
			c-1.3-5.8,0-9.5,4.6-12.9c12.1-8.9,24.8-18.5,39.8-30.1c0.7-0.5,1.3-1.2,1.8-1.8c0.2-0.8,0.4-1.6,0.5-2.4c0-0.2,0.1-0.4,0.1-0.7
			c0-0.1-0.1-0.3-0.1-0.4C179.2,75,179.2,74.8,179.1,74.6z M163.4,82.5c-1.5,1.1-2.9,2.1-4.1,3c-2.4,1.7-4.4,3.2-6.4,4.6
			c-3.1,2.1-6.2,4.2-9.3,6.3c-5.8,3.9-11.7,7.9-17.4,12c-3,2.1-4.3,3.2-4.6,4.3c-0.4,1.1,0.1,2.8,0.9,6c0.1,0.4,0.2,0.9,0.4,1.4
			c2.9,11.2,5.5,22.5,8.3,34.4c1.2,5.1,2.4,10.4,3.7,15.8l1.1,4.7l-3.5-3.2c-1.5-1.4-2.8-2.6-4.1-3.8c-2.4-2.2-4.5-4.2-6.6-6
			c-1.9-1.6-3.7-3.3-5.5-4.9c-5.3-4.7-10.8-9.5-16.5-13.9c-3.3-2.5-5.3-3.5-7-3.5c-2,0-4.2,1.4-7.5,3.8
			c-8.5,6.4-17.2,12.9-25.5,19.2c-4.7,3.5-9.8,9-15.3,11c-0.2-3.1,0.8-6.1,1.4-9.1c0.5-2.7,1.1-5.5,1.7-8.3c0.6-2.7,1.2-5.4,1.8-8
			c2.1-9.3,4.2-19,6.6-28.4c1-3.8,0.2-6.1-2.8-8.7c-8.7-7.3-17.4-15-25.8-22.3c-2.7-2.4-5.4-4.7-8.1-7.1c-1-0.8-1.9-1.7-2.9-2.7
			c-1.9-1.9-4.3-3.2-6-5.3c8-1.3,17,0.7,25,1.3C44,75.7,53.1,76.4,62,77c0.6,0,1.2,0.1,1.8,0.1c5.1,0,6.5-1.6,8.8-7.7
			c4.4-11.3,9.2-22.7,13.9-33.7c2.1-5,3.4-12.4,7.7-15.8c0.2-0.2,0.5-0.3,0.7-0.3c0.2,0,0.3,0.2,0.4,0.3c1,1.4,0.8,3.6,1.2,5.3
			c0.5,2,1.2,4,1.8,5.9c0.9,3,1.8,6.1,2.7,9.1c0,0,10.4,35,10.4,35c5.7,2.1,11.5,2.3,16.5,2.3c0.9,0,1.9,0,2.8,0c0.9,0,1.9,0,2.8,0
			c0.9,0,1.7,0,2.4,0c5.6,0.1,11.1,0.7,17.4,1.4c2.9,0.3,6,0.6,9.2,0.9l3.9,0.4L163.4,82.5z"/>
	</g>
</g>
</svg>
