<?xml version="1.0" encoding="utf-8"?>
<!-- Generator: Adobe Illustrator 27.8.1, SVG Export Plug-In . SVG Version: 6.00 Build 0)  -->
<svg version="1.1" xmlns="http://www.w3.org/2000/svg" xmlns:xlink="http://www.w3.org/1999/xlink" x="0px" y="0px"
	 viewBox="0 0 216.1 214.1" style="enable-background:new 0 0 216.1 214.1;" xml:space="preserve">
<style type="text/css">
	.st0{fill:#e190e1;stroke:#6FCFA1;stroke-miterlimit:10;}
	.st1{fill:#FFFFFF;}
	.st2{fill:#e190e1;}
	.st3{fill:#e190e1;stroke:#AFE8D9;stroke-miterlimit:10;}
	.st4{fill:#e190e1;stroke:#BFE6D8;stroke-miterlimit:10;}
</style>
<g id="Background">
</g>
<g id="Graphic_Element">
	<g>
		<path class="st2" d="M77.4,32.4c-6.6,3.4-12.9,7.5-18.9,12.3C27.2,69.8,3.9,113.9,29.3,151.4c21.1,31.2,63.5,51.7,100.4,54.7
			c54,4.4,86.8-50.3,86.4-99.1C215.4,34.6,139.8,0.4,77.4,32.4z"/>
		<path class="st1" d="M175.6,42c-5.5-5.3-14.5-10.6-24.2-14.3c-1.9-0.7-3.9-1.3-6.1-1.9l-0.1,0l-0.1-0.1c-11-4.8-23.4-6.1-35.4-7.3
			l-0.6-0.1c-2.4-0.2-4.9-0.4-7.3-0.4c-3.4,0-6.8,0.2-10,0.7l-0.1,0l-0.1,0c-11.5,0.6-23.1,3.7-34.3,8.9
			c-14.9,7-25.9,16.1-34.6,28.6c-5.5,7.9-9.7,16.4-11.7,23.4c-0.6,2.3-0.9,4.7-1.2,7.2c-0.2,1.4-0.3,2.9-0.6,4.3l0,0.2l-0.1,0.2
			C6.6,98.1,5.7,106,6.6,115l0,0.1l0,0.1c-0.3,4-0.2,7.3,0.1,10.6c1,9.4,2.8,21.5,7.2,32.2c1.4,3.5,3.6,6.6,6.8,9.7l0.1,0.1l0.1,0.1
			c1.4,2,3,4.1,5,6.7c4.2,5.4,9.5,8.5,15.1,11.8c1.8,1.1,3.7,2.2,5.6,3.4l1,0.6c8.1,5.2,14.5,9.2,24,11.8c11.1,3,20.3,4.8,28.2,5.6
			c1.7,0.2,3.5,0.3,5.3,0.3c7.6,0,14.6-1.6,22.8-3.9c1.4-0.4,2.9-0.7,4.4-1.1c3.2-0.7,6.6-1.5,9.3-2.9l0.3-0.1l0.3-0.1
			c0.2,0,0.5-0.2,0.7-0.3c0.1-0.1,0.1-0.1,0.2-0.2c0,0,0.1-0.1,0.1-0.1l0.3-0.3l0.4-0.2l0,0l6.2-2.7l-0.4,0.6
			c0.4-0.2,0.8-0.3,1.1-0.5c0.8-0.3,1.6-0.7,2.4-1c4.3-1.7,7-3.8,10.6-7.3l1.8-1.8l0.1-0.1l0.1-0.1l0.1-0.1c2.1-1.6,4.2-3.3,6.1-4.9
			c5.8-5,11-10.9,15.3-17.6l0-0.1l0.1-0.1c6.8-8.5,11.8-19.7,14.5-32.3c2.5-11.5,3-23.8,1.6-35.7C201.1,75.2,192,57.8,175.6,42z
			 M125.2,26.8l2,0.5c2.5,0.7,5,1.4,7.3,2.1l0.1,0l0.1,0c0.6,0.2,1.1,0.4,1.6,0.5l0.1,0l0.1,0c1.4,0.4,2.9,0.9,4.4,1.3l0.8,0.2
			l0.4,0.7c1,2.1,2.7,4.2,4.4,6.3c1.5,1.9,3.1,3.9,4.2,5.9c3.1,5.7,5.4,10.2,7.2,15.2l1.9,5l-4.6-2.8l-0.7-0.4
			c-0.9-0.6-1.9-1.2-2.9-1.8c-7.2-4.3-15-5.6-23.3-7.1c-1-0.2-2-0.4-3-0.5c-0.8-0.1-1.6-0.3-2.4-0.4c-0.4-0.1-0.8-0.1-1.2-0.2
			l-2-0.3l0.6-2c1.8-6,3.7-13.2,4.9-20.3L125.2,26.8z M97.5,118.4L97.5,118.4L97.5,118.4c1.3-3.9,2.5-7.1,3.6-10.1l0.6-1.4l1.5,0.3
			c0.7,0.1,1.3,0.3,2,0.4c1.2,0.2,2.4,0.5,3.6,0.7l1.7,0.4c7,1.5,14.3,3,21.3,4.9l0.1,0l0.1,0c7.9,2.9,16,6.5,25.5,11.1
			c0.1,0,0.1,0.1,0.2,0.1l0.2,0.1l1.3,0.6l-0.3,1.4c-0.1,0.3-0.1,0.6-0.2,1c-0.2,1.2-0.5,2.3-0.8,3.5c-1.1,4.5-2.4,8.7-3.8,12.7
			l0,0.1l-0.1,0.1c-4.5,8.4-9.9,16.4-15.2,24.2c-0.8,1.2-1.6,2.4-2.4,3.6l-0.4,0.6l-0.7,0.2c-8.2,1.8-16.2,2.6-24.3,2.6
			c-1.1,0-2.2,0-3.4-0.1l-0.1,0l-0.1,0c-7.5-0.7-15-2.1-21.6-4.2l-1.5-0.5l0.2-1.5c0.3-1.9,0.4-3.8,0.6-5.7c0.4-4.6,0.9-9.3,2.4-14
			c1.4-4.2,2.7-8.4,4.1-13.1l0,0l0,0C93.6,130.8,95.7,124.5,97.5,118.4z M97.1,100.3c-5.7-0.9-11.6-1.7-17.2-2.5
			c-7-0.9-14.3-1.9-21.6-3.2c-1.7-0.3-3.3-0.6-5-0.9l-1.5-0.3L50,93.1l0.4-1.8c2.1-9.8,4.9-21.1,10.1-30.7l0,0l0,0
			c0.7-1.2,1.2-2.2,1.8-3l0,0l0,0c0.5-0.8,1-1.6,1.6-2.4c0.1-0.2,0.3-0.4,0.5-0.6c0.1-0.1,0.2-0.2,0.3-0.3l0.4-0.6l0.8-0.1
			c0.3,0,0.6-0.1,0.9-0.1l0.4-0.1l0,0l0,0c4.3-0.5,7.6-0.7,10.8-0.8c1.7,0,3.4-0.1,5.1-0.1c9.1,0,18.5,0.6,28.8,2l2.1,0.3l-0.5,2
			c-1,4-2,7.2-3.1,10.1c-4,10.7-7.7,21.6-11.1,32.4l-0.5,1.5L97.1,100.3z M157.9,118.6c-2-0.9-3.6-1.6-5-2.3
			c-6.1-2.6-12.7-4.9-20.8-7l-0.1,0l-0.1,0c-6.5-2.4-12.8-4.3-19.2-5.9c-2.1-0.5-4.4-1-6.7-1.5l-2.1-0.4l0.8-2
			c3.8-9.6,6.6-19.9,9.3-29.8c0.4-1.6,0.9-3.2,1.3-4.9c0.8-2.8,1.6-5.7,2.4-8.2l0.5-1.5l1.6,0.2c0.5,0.1,1,0.2,1.5,0.2l0,0l0,0
			c0.2,0,0.4,0.1,0.5,0.1c0.3,0.1,0.6,0.1,0.9,0.2c13.3,2.6,25.2,7.5,36.4,15l0.7,0.5l0.1,0.8c0,0.2,0.1,0.4,0.1,0.6
			c0,0.3,0.1,0.6,0.1,0.9c2.1,15.2,2.2,29.8,0.3,43.6l-0.3,2.5L157.9,118.6z M105.8,24.9l0.5-0.2l0.5,0.1l0.3,0
			c0.8,0.1,1.5,0.2,2,0.3c1.2,0.1,2.5,0.1,3.7,0.2c2,0.1,4.1,0.2,6.1,0.4l2.5,0.3l-1,2.3c-1.4,3.2-2.1,6.9-2.9,10.4
			c-0.3,1.5-0.6,3-1,4.5c-0.4,1.8-0.9,3.6-1.3,5.3l-0.4,1.7l-1.7-0.3c-9.6-1.7-17.6-2.5-25.2-2.5c-4,0-7.8,0.2-11.7,0.7
			c-0.5,0.1-1.1,0.1-1.7,0.2c-0.4,0-0.7,0.1-1.1,0.1l-0.1,0l-0.1,0l0,0l-0.1,0l-4.6,0.3l3.1-3.4c3.9-4.2,7.9-7.9,12-10.9l0.1-0.1
			l0.1-0.1c2.4-1.3,5.2-2.6,9-4.1c1.6-0.7,3.4-1.3,5.1-2C100.7,27,103.3,26,105.8,24.9z M34.7,50.7c8.6-8.2,16.5-14,24.1-17.6
			c6.9-3.2,14.2-5.4,23.2-6.9l11.9-1.9l-10.8,5.4c-5.4,2.7-9.5,5.8-12.8,9.7c-2.4,2.8-4.8,5.9-7.1,9.1l-0.5,0.7l-0.8,0.1
			c-7.5,0.9-14.5,2.1-20.9,3.5c-0.6,0.1-1.2,0.3-1.8,0.4c-0.9,0.2-1.9,0.4-2.9,0.6l-6.5,1.5L34.7,50.7z M14.8,86.8
			c1.8-8,4.1-14.3,7.3-20.1l0.4-0.8l0.8-0.2c0.4-0.1,0.8-0.3,1.1-0.7l0.3-0.4l0.5-0.2c9.9-3.8,20-6.9,30-9.1l4.1-0.9l-2.1,3.6
			c-4.7,8.3-8.3,17-10.6,25.8c-0.6,2.1-1.1,4.4-1.6,6.6l-0.4,1.7l-1.7-0.3c-2.8-0.4-4.9-0.8-6.9-1c-1.5-0.2-3-0.4-4.6-0.6
			C27.3,89.6,23,89,18.9,89c-0.8,0-1.5,0-2.2,0.1l-2.5,0.2L14.8,86.8z M13.6,96.9l0.3-1.6l1.6,0.1c8.5,0.6,17.2,1.3,25.9,2.2l2,0.2
			l-0.3,1.9c-2.5,14.2-3.2,27.4-2.1,39.5c0.2,2.7,0.6,5.5,1.2,8.6L43,152l-3.6-2.2c-8.9-5.6-16.5-13.6-21.1-22.4
			C13.1,117.5,11.5,107,13.6,96.9z M49.4,184.9c-7.4-3.8-14.5-9.9-20.8-15.3c-0.8-0.7-1.5-1.3-2.3-2c-1.2-1-2.5-2.3-3.8-3.9
			l-0.1-0.1l-0.1-0.1c-2.1-3.4-3.8-6.8-5.1-10c-1.5-3.9-2.7-8.6-3.7-14.7l-1-5.9l4.1,4.3c3.2,3.4,6.8,6.5,10.3,9.6
			c0.5,0.4,0.9,0.8,1.4,1.2c4.4,3.9,9.5,7.3,15.6,10.6l0.7,0.4l0.2,0.7c0.1,0.3,0.2,0.6,0.2,0.8c0.1,0.2,0.1,0.3,0.2,0.5l0,0.1
			l0,0.1c1.4,7.4,3.6,14.6,6.5,21.4l2,4.7L49.4,184.9z M76.9,173.9c-1.3,6.2-2.2,12-2.7,17.6l-0.2,2.3l-2.2-0.8
			c-1.2-0.4-2.4-0.8-3.6-1.2c-2.5-0.9-5.1-1.7-7.6-2.6l-0.8-0.3l-0.3-0.8c-0.9-2.3-1.8-4.7-2.7-7c-2-5.2-4.1-10.6-5.9-16l-1.3-3.9
			l3.8,1.7c4.9,2.1,10,4.1,14.9,6c2.5,1,5.1,2,7.6,3l1.4,0.6L76.9,173.9z M78.1,168.4l-2-0.9c-2.1-0.9-4.1-1.9-6-2.8l-0.7-0.3
			c-3.1-1.5-6.3-2.9-9.4-4.3c-3.5-1.6-7-3.2-10.6-4.9l-0.9-0.4l-0.1-1c-0.4-2.9-0.6-5.4-0.7-7.7c-0.1-1.5-0.1-3-0.2-4.5
			c-0.7-13.7-1.4-27.8,1-41.3l0.3-1.7l1.7,0.2c14.9,1.8,29.9,4.1,44.4,6.9l2,0.4l-0.6,2l-0.2,0.8c-0.1,0.4-0.3,0.9-0.4,1.3l0,0.1
			l0,0.1c-2.3,5.4-3.8,11.3-5.3,16.9c-0.2,0.8-0.4,1.6-0.6,2.4l0,0l0,0c-0.6,1.8-1.2,3.6-1.8,5.5c-0.8,2.4-1.6,4.8-2.4,7.3l0,0l0,0
			c-1.2,3.2-2.5,7-3.4,10.8l0,0.1l0,0.1c-1.4,4.8-2.6,9.1-3.6,13L78.1,168.4z M114.5,198.1l-0.3,0.3l-0.3,0.1
			c-0.5,0.2-1,0.4-1.4,0.6c-1.1,0.5-2.2,1-3.3,1.5l-0.4,0.2l-0.4,0c-8.9-0.1-17.8-1.5-26.2-4.1l-1.4-0.4l0.1-1.4
			c0.3-6.7,1.4-12.6,2.4-18l0.4-2.1l2,0.8c4,1.5,7.4,2.5,10.7,3.2c3.9,0.8,8.6,1.2,13.9,1.2c1.2,0,2.5,0,3.8-0.1l0.1,0l0.1,0
			c1,0,2,0,3.1,0c3.3,0,6.7-0.1,9.9-0.4l4.9-0.4l-3.4,3.5l-1.1,1.1c-1.5,1.6-3.1,3.2-4.7,4.9c-1.4,1.5-2.8,3.1-4.1,4.7
			C117.4,194.9,116,196.6,114.5,198.1z M167.7,179c-1.6,1.6-3.1,3.1-4.7,4.7l-0.1,0.1l-0.1,0.1c-4.4,3.3-9.2,6.1-14.1,8.4l-0.1,0.1
			l-0.1,0c-2.2,0.7-4.5,1.5-6.2,2.5l0,0l0,0c0,0-0.1,0-0.1,0.1l-0.2,0.1l-0.2,0.1c-4.9,1.8-10,3.2-15.3,4.1l-5.1,0.9l3.3-3.9
			c3.3-3.9,6.4-8.5,9.2-12.9l0.1-0.1l0.1-0.1c1.4-1.6,2.6-3.1,3.8-4.3l0.5-0.5c0,0,0.7-0.1,0.7-0.1c6.4-0.7,13-1.2,19.3-2.8
			c5.7-1.4,11.7-1.6,17.1-4.2C172.8,173.9,170.3,176.4,167.7,179z M189.3,144.9c-2.1,3.6-4.3,6.5-6.5,8.6
			c-5.2,4.8-12.7,7.7-19.3,10.2c-1.6,0.6-3.1,1.2-4.6,1.8c-3,1.2-6,2.4-9.1,3.4l-5,1.7l2.9-4.4c3.5-5.4,6.4-11,8.8-17.1l0-0.1
			l0.1-0.1c3.6-6.3,6.2-12,8-17.5c0-0.1,0.1-0.3,0.1-0.4c0-0.1,0.1-0.3,0.1-0.4l0.6-2l1.9,0.9c7.7,3.5,15.7,7.4,21.7,13.3l1,1
			L189.3,144.9z M197.8,122.9c-0.3,1.7-5.3,15-5.1,15.1c-0.7-0.6-1.4-1.2-2.1-1.8c-0.2-0.2-0.4-0.3-0.7-0.4
			c-3.1-1.1-5.9-3.1-8.7-5.1c-2.2-1.5-4.4-3.1-6.6-4.1c-2.1-1-4.2-2-6.7-3.2l-1.2-0.6l0.2-1.4c2.5-14.7,1.1-30.5-0.4-41.2l-0.7-4.8
			l3.7,3.2c4.5,3.9,8.8,8,12.8,12l0.1,0.1l0.1,0.2l0.4,0.6c1.8,2.8,3.6,5.7,5.7,8.1c1.9,2.3,3.5,4.7,5,7.1l0.2,0.4l0.1,0.2l0.1,0.2
			c1.7,4.7,2.7,9.8,3.4,13.7c0,0.2,0.1,0.4,0.2,0.6l0.3,0.5C197.9,122.3,197.8,122.9,197.8,122.9z M195.1,99.4
			c-0.9-1.8-1.9-3.2-2.8-4.4c-2.1-2.7-4.9-5.7-8.2-9l-0.1-0.1l-0.1-0.1c-3.8-5.2-7.4-9-11.4-11.9c-2.4-1.8-4.9-3.6-7.8-5.5l-0.6-0.4
			l-0.2-0.7c-0.5-2-0.9-3.9-1.5-5.7l0-0.1l0-0.1c-0.6-3-1.3-5.5-2-7.8c-1.1-3.4-2.8-6.9-4.6-10.4c-0.4-0.7-1.2-1.9-2.1-3.1
			c-0.3-0.4-0.6-0.8-0.8-1.2l-3.5-5.1l5.7,2.3c5.6,2.2,9.9,4.6,13.3,7.3c4.7,3.7,8.9,8.5,13,13.2c0.9,1.1,1.8,2.1,2.7,3.1
			c4.2,4.7,7.6,10.8,10.1,18c2.2,6.2,3.6,13.2,4.3,20.6l0.8,9.1L195.1,99.4z"/>
	</g>
</g>
</svg>
