<?xml version="1.0" encoding="UTF-8"?><svg id="Layer_1" xmlns="http://www.w3.org/2000/svg" viewBox="0 0 386.58 371.12"><defs><style>.cls-1,.cls-2,.cls-3,.cls-4{stroke-width:0px;}.cls-2{fill:#f6f9fc;}.cls-3{fill:#fbec39;}.cls-4{fill:#e190e1;}</style></defs><g id="Decision_Making"><path class="cls-4" d="m243.92,325.18c-31.91-26.95-68.52-29.51-80.3-55.99-2.32-5.22-3.48-10.93-3.48-16.66,29.32,4.14,60.4,14.88,74.76,40.6,5.51,9.89,7.83,20.79,9.02,32.05Z"/><path class="cls-4" d="m203.11,370.03h-.11c-4.84,0-7.67-3.47-10.99-6.86-9.28-9.48-18.56-18.95-27.84-28.44-7.31-7.45-14.43-15.86-24.49-19.65-6.16-2.33-12.33-4.89-18.72-6.58-16.5-4.36-31.71-10.32-44.11-22.42-1.81-1.75-3.55-3.7-4.42-6.06-.78-2.17-.8-5.06.8-6.93,3.26-3.86,10.32-1.28,12.82,2.02l.15-.1c-1.74-2.51-3.18-5.23-4.22-8.11-1.09-2.99-1.35-6.61,1.52-8.76,2.87-2.13,5.8-.87,8.22,1.16-1.28-1.77-2.63-3.6-3.34-5.65-31.86,6.29-64.19,23.11-77.23,53.22-8.54,19.72-9.9,41.7-11.15,63.16l203.11.43v-.43Z"/><polygon class="cls-3" points="386.58 57.96 363.29 86.29 306.01 93 286.35 95.31 214.27 103.75 207.28 53.3 282.89 43.72 301.93 41.31 354.36 34.67 386.58 57.96"/><path class="cls-2" d="m358.61,162.23l-4.8,46.59-39.12-6.15-21.27-3.35-42.14-6.63-16.02-26.16,22.16-21.5c.48.08,101.04,17.17,101.2,17.2Z"/><path class="cls-4" d="m26.21,47.51c-1.11-2.52.15-5.47,2.75-6.36,9.98-3.44,14.02-14.56,9.63-23.32-4.87-9.7-18.13-12.27-24.8-5.24-1.56,1.65-2.79,3.88-3.02,6.17-.19,1.9,1.9,3.16,3.38,1.79,1.08-1.01,1.66-2.43,2.53-3.62,1.49-2.06,3.88-3.44,6.41-3.71,9.8-1.04,17.06,14.45,8.35,20.92-3.42,2.54-8.98,2.64-10,8.22-1.08,5.87,4.39,15.15,6.38,16.47.6.4,1.39.59,2.06.33,1.69-.65.55-2.09.09-3.13-1.17-2.66-2.58-5.85-3.75-8.51Z"/><path class="cls-4" d="m39.53,64.37c1.24,2.45.21,5.46-2.31,6.71-2.52,1.25-5.57.28-6.81-2.17-1.24-2.45-.21-5.46,2.31-6.71,2.52-1.25,5.57-.28,6.81,2.17Z"/><path class="cls-4" d="m57.5,50.06c-.08-1.86,1.43-3.42,3.3-3.35,7.15.27,12.44-5.77,11.81-12.39-.63-6.64-7.17-11.5-13.11-9.87-1.93.53-3.83,1.9-4.71,3.64-.59,1.15.43,2.47,1.7,1.96.93-.37,1.65-1.13,2.49-1.67,1.45-.94,3.3-1.23,4.96-.77,6.45,1.75,7.24,13.32.15,15.28-2.79.77-6.32-.54-8.34,2.75-1.68,2.74-1.33,7.54-.55,10.62.26,1.01.72,2.07,1.77,2.08,1.23,0,.86-1.18.83-1.96-.09-1.97-.2-4.33-.29-6.3Z"/><path class="cls-4" d="m61.8,64c.18,1.86-1.21,3.5-3.11,3.67-1.9.17-3.59-1.19-3.78-3.04-.18-1.86,1.21-3.5,3.11-3.67s3.59,1.19,3.78,3.04Z"/><path class="cls-1" d="m123.9,180.63c.16,0,11.96-.44,11.8-.46.6-.02,1.07-.53,1.04-1.13s-.52-1.05-1.13-1.04l-10.46.41,3.23-22.61c.2-1.42-1.95-1.74-2.15-.31l-3.41,23.9c-.09.65.41,1.24,1.08,1.24Z"/><path class="cls-1" d="m105.5,143.03c-2.78-2.94-6.52-1.46-7.58,2.86-1.01,4.13,2.36,14.16,8.08,10.86,1.64-.94,2.53-2.87,2.64-4.76.17-2.91-1.59-7.32-3.14-8.97Z"/><path class="cls-1" d="m140.15,130.65c3.79-5.47,10.84-7.68,17.08-5.34,1.35.5,2.11-1.53.76-2.04-7.17-2.68-15.26-.15-19.63,6.14-.83,1.19.97,2.42,1.79,1.24Z"/><path class="cls-1" d="m89.12,139.22c4.39-4.88,11.8-5.88,17.35-2.18,1.2.79,2.4-1.01,1.21-1.81-6.4-4.27-15.02-3.19-20.17,2.53-.96,1.07.66,2.52,1.62,1.45Z"/><path class="cls-1" d="m189.37,146.32c3.77-1.47,7.04-4.34,8.99-7.89.69-1.26-1.22-2.31-1.91-1.05-1.7,3.1-4.57,5.62-7.87,6.91-1.32.52-.57,2.55.79,2.03Z"/><path class="cls-1" d="m71.12,156.82c-3.68-.46-7.21-2.5-9.44-5.46-.87-1.15-2.6.17-1.74,1.31,2.62,3.47,6.6,5.76,10.91,6.3,1.43.18,1.7-1.98.27-2.16Z"/><path class="cls-1" d="m57.97,333.71l-12.85,34.8c-.26.7.26,1.46,1.02,1.46.58,0,18.18.04,18.03.04.66,0,1.17-.59,1.08-1.25l-5.18-34.84c-.17-1.12-1.71-1.26-2.1-.22Z"/><path class="cls-1" d="m149.47,141.33c-1.57.71-3.04,1.66-4.3,2.87-1.04,1,.47,2.56,1.51,1.57,1.03-.99,2.25-1.77,3.56-2.37,1.97,1.83,6.14,1.14,7.41-1.21,1.38.15,2.73.49,3.98,1.06,1.31.6,2.21-1.38.91-1.98-1.53-.7-3.18-1.12-4.84-1.29-1.55-2.89-7.7-1.88-8.22,1.35Z"/><path class="cls-1" d="m290.09,150.58l20.75,3.52-4.83-61.1-19.66,2.31c1.13,16.88,2.41,35.67,3.74,55.28Z"/><path class="cls-1" d="m281.51,22.49c.15,2.64.63,10.13,1.37,21.23l19.04-2.41-1.57-19.85c2.57-1.71,10.06-4.77,9.6-11.22-.46-6.39-9.66-10.93-20.54-10.15-10.88.79-19.34,6.6-18.87,12.99.32,4.38,4.73,7.88,10.98,9.41Z"/><path class="cls-1" d="m247.51,66.26c27.98-1.16,55.88-5.46,82.91-12.78,1.38-.38.83-2.47-.57-2.1-26.87,7.27-54.61,11.55-82.43,12.7-.6.02-1.07.53-1.04,1.13.02.55.45,1.04,1.13,1.04Z"/><path class="cls-1" d="m314.71,67.54l-51.05,8.24c-1.41.23-1.09,2.36.35,2.15l51.05-8.24c1.4-.23,1.1-2.35-.35-2.15Z"/><path class="cls-1" d="m273.1,167.95c68.3,11.69,64.01,10.98,64.18,10.98,1.32,0,1.49-1.94.18-2.16l-63.99-10.96c-1.44-.22-1.77,1.9-.37,2.14Z"/><path class="cls-1" d="m289.22,180.78c-1.43-.22-1.77,1.9-.37,2.14,45.78,7.84,43.87,7.53,44.04,7.53,1.32,0,1.49-1.94.18-2.16l-43.86-7.51Z"/><path class="cls-1" d="m340.53,368.94h-12.7l-13.14-166.27-21.27-3.35c5.41,79.52,10.78,158.09,11.57,169.62h-21.68c-11.25-18.05-25.69-34.4-43.26-48.32-18.72-14.81-41.8-21.82-61.28-35.05-13.24-8.98-19.41-24.21-17.04-39.27,1.06-6.76,5.29-11.74,7.31-18.59,4.34-2.86,7.84-7.02,10-12.19,3.34,1.8,6.87,3.19,10.54,4.13,3.68.96,7.58,1.45,11.28.59,3.71-.86,7.21-3.22,8.7-6.71,1.99-4.68-.39-10.57-2.31-15.3,4.05,1.12,8.67-.22,11.51-3.32,2.83-3.09,3.76-7.82,2.29-11.75-1.46-3.94-4.39-7.28-8.57-7.77,4.19-1.8,8.21-4.31,10.93-7.96,2.71-3.67,3.96-8.61,2.44-12.92-1.54-4.29-6.31-7.64-10.77-6.7,4.19-2.54,6.93-7.31,6.99-12.21.13-11.18-12.13-17.86-20.72-13.76.07-6.56-7.07-11.05-11.69-9.72-3.96-12.82-8.08-26-16.56-36.4-8.48-10.4-22.46-17.49-35.4-13.92-3.55.99-4.9,1.62-8.51.87-27.36-5.75-55.68,12.03-60.31,42.51-.52,3.61-.06,3.19-2.7,4.8-4.7,2.86-9.12,3.44-12.77,8.22-4.23,5.55-5.64,13.14-3.7,19.84-7.64-2.1-14.88,9.77-17.57,15.34-3.52,7.26-4.38,16.1-.94,23.4,3.44,7.31,11.67,12.48,19.62,11.09-6.1,7.25-6.24,19.55.22,26.51,6.45,6.95,18.21,8.13,25.91,2.6,3.3,6.28,8.15,12.69,15.22,13.1,1.27,4.39,3,8.67,5.65,13.43-6.72-2.74-14.06,4.37-9.46,12.69-2.36-.64-4.22.1-5.52,1.07-4.46,3.34-2.67,9.02-.16,13.97-7.92-3.64-13.91,1.85-11.27,9.16.97,2.64,2.92,4.75,4.68,6.46,13.5,13.17,30.12,18.86,44.59,22.69,5.14,1.36,10.22,3.32,15.14,5.22,8.28,3.19,11.65,4.18,24.71,17.76.57.6,33.27,34.42,36.06,36.41h-12.13c-1.44,0-1.44,2.17,0,2.17-.15,0-.84,0,156.07,0,1.44,0,1.44-2.17,0-2.17ZM91.5,102.73c12.17-4.42,22.61-14.12,27.91-25.93.59-1.32,2.57-.42,1.99.88-5.63,12.53-16.25,22.4-29.16,27.09-1.41.47-2.05-1.57-.74-2.04Zm-.72,17.4c22.26.9,45.2-8.16,60.58-24.94-.92,1,4.58,11.55,11.24,17.63,5.26,4.8,14.31,6.41,17.55,12.8,3.68,7.28,2.59,12.16,2.57,16.04,3.27-5.68,6.07-11.39,12.01-13.32,13.34-4.27,18.14,14.73,6.8,25.6-4.29,4.13-10.21,6.3-15.72,6.09-.52.01-1.02.36-1.11.9-.39,2.21-1.06,5.01-.94,4.52-4.32,18.02-10.51,36.34-23.66,48.6-4.08.68-6.8,3.47-9.1,6.91-13.33,7.85-27.46,8.35-40.47.18-1.75-3.95-3.33-7.72-5.86-10.11-2.15-2.03-5.08-3.13-8.02-2.24-13.78-15.58-16.39-26.69-20.09-39.4-.15-.5-.64-.83-1.15-.78-5.58.52-12.51,3.83-18.93-1.83-3.26-2.87-5.39-7.34-5.73-11.77.08-7.3,5.96-12.69,12.11-13.4,5.01-.6,10.27,1.8,13.09,5.98.69,1.02,2.2.26,1.96-.84-1.74-8.01-.62-16.93,1.6-23.73.43-1.11,1.02-2.09,1.86-2.69,2.38-1.71,6.67-.3,9.4-.2Zm56.05,105.43c.15,1.09.05.11.21,2.21l-.9,1.66c-4.58,8.25-9.51,15.35-19.35,11.73-7.27-2.68-11.47-9.71-14.69-16.58,5.85,3.13,11.92,4.65,18.11,4.65s11.04-1.38,16.62-3.68Zm46.91,137.82c-44.83-45.83-42.35-44.94-57.13-50.64-4.97-1.92-10.11-3.9-15.37-5.29-14.2-3.76-30.49-9.32-43.63-22.15-1.59-1.54-3.34-3.42-4.16-5.65-.65-1.8-.71-4.31.6-5.86,2.61-3.08,8.83-1.05,11.12,1.97.12.16.29.26.46.33,3.38,4.74,7.83,8.65,12.93,11.34,1.26.67,2.3-1.25,1.01-1.92-7.94-4.18-13.8-11.29-16.59-18.98-.71-1.95-1.51-5.53,1.15-7.51,4.65-3.45,9.69,4.05,13.59,8.49,10.68,12.1,7.95,9.31,11.07,12.07,1.07.95,2.52-.68,1.44-1.63-3.24-2.86-.5-.24-8.36-9.05-9.13-10.23-4.44-5.48-9.47-10.49-1.16-1.57-2.4-3.38-3-5.11-1.14-3.43.63-6.57,3.03-7.68,3.1-1.43,6.06.19,7.5,2.31,1.68,2.45,8.16,10.23,10.94,12.01,1.22.77,2.38-1.06,1.17-1.83-.05-.03-.11-.08-.16-.12-.34-.58-2.71-2.07-6.78-7.32-4.81-6.21-8.73-13.82-10.76-20.9-1.22-4.14-2.5-10.87-.94-14.94,1.72-4.52,6.21-5.55,9.77-2.2,5.87,5.53,8.29,25.21,22.86,30.58,12.4,4.58,18.18-5.83,22.01-12.72l.98-1.79c2.95-5.43,6.08-11.86,11.8-12.57,4.81-.93,7.75,4.35,6.42,9.88-1.56,6.77-6.47,12.35-7.66,19.95-2.51,15.98,4.09,32,17.96,41.41,19.51,13.25,42.78,20.42,61.16,34.96,16.82,13.32,30.89,29.03,42,46.53-.17,0-77.59.08-77.75.08-3.89-.02-6.36-2.59-9.22-5.56Z"/><path class="cls-1" d="m149.37,184.94l-13.4,10.85c-1.13.91.27,2.58,1.37,1.69l13.4-10.85c1.12-.91-.25-2.59-1.37-1.69Z"/></g></svg>