<?xml version="1.0" encoding="UTF-8"?><svg id="Layer_1" xmlns="http://www.w3.org/2000/svg" viewBox="0 0 388.45 325.15"><defs><style>.cls-1,.cls-2,.cls-3,.cls-4{stroke-width:0px;}.cls-2{fill:#f6f9fc;}.cls-3{fill:#fbec39;}.cls-4{fill:#e190e1;}</style></defs><g id="Catching_Mail"><path class="cls-2" d="m184.09,260.28c-.19.49-1.33,3.49-1.67,4.41-1.15,3.08-4.36,4.84-7.97,4.7l-10.61,53.9c-12.29-.22-30.34.46-44.27.46H53.83c-2.61,0-40.64-.87-49.71-.31-1,.06-1.82-1.09-1.72-2.47.92-14.06,2.46-44.7,5.17-55.17,5.2-20.13,15.49-37.29,33.79-47.85,11.09-6.34,21.95-12.59,33.87-15.3.78-.18,1.75-.21,2.15.69.18.39.2.87.21,1.32.18,5.15.43,8.46,2.74,12.67,5.63,10.18,15.86,11.67,22.17,7.41,6.85-4.58,8.8-10.92,8.37-19.07.04.74,8.53.94,9.49,1.07,10.22,1.37,20.77,4.84,31.01,10.68,8.66,4.95,16.56,10.03,22.7,18.47,5.16,7.09,8.37,15.75,10.01,24.41Z"/><path class="cls-4" d="m264.33,5.88C244.21.93,222.72-.71,202.03.27c-13.38.63-21.84,2.71-77.77,14.15-6.59,1.35-13.83,3.11-17.65,8.65-4.18,6.07-2.42,14.83,2.44,20.37,10,11.37,27.76,10.45,40.88,14.68,34.95,11.28,50.62,57.12,87.24,64.48-5.27-12.18-3.07-26.02-2.35-38.23.9-15.23,4.34-29.28,9-42.75,4.93-14.23,8.61-27.03,20.51-35.74Z"/><path class="cls-1" d="m120,122.38c-.52.06-.89.52-.83,1.04.69,6.29,4.09,12.34,9.11,16.2,2.1,1.62,4.8,3.2,5.21,5.62.4,2.36-1.49,4.61-3.59,6.68-.89.87.43,2.21,1.32,1.34,2.47-2.43,4.68-5.12,4.13-8.34-.47-2.77-2.83-4.51-4.91-6.04-5.77-4.26-8.76-9.82-9.4-15.67-.06-.52-.53-.87-1.04-.83Z"/><path class="cls-1" d="m101.63,120.39c-4.95.33-9.72,2.6-13.1,6.23-.85.91.54,2.18,1.38,1.28,3.05-3.28,7.37-5.34,11.85-5.63,1.23-.08,1.14-1.95-.12-1.88Z"/><path class="cls-1" d="m98.56,132.23c-1.51.7-1.75,3.38-.53,5.99,1.21,2.61,3.42,4.15,4.93,3.44s1.75-3.38.53-5.99c-1.21-2.6-3.42-4.15-4.93-3.44Z"/><path class="cls-1" d="m129.9,124.86c-1.51.7-1.75,3.38-.53,5.99,1.21,2.6,3.42,4.15,4.93,3.44,1.51-.7,1.75-3.38.53-5.99-1.21-2.6-3.42-4.15-4.93-3.44Z"/><path class="cls-1" d="m54.33,127.34c.24.02,5.72,6.89,5.38,17.56-4.02,1.77-6.53,6.66-5.59,11.34,1.51,7.51,10.35,13.27,22.27,9.49-.49,13.89-.86,28.72-.42,43.53.04,1.26,1.92,1.19,1.88-.06-.46-15.25-.05-30.53.46-44.78.02-.66-.63-1.15-1.27-.92-3.2,1.18-8,2.29-12.7.88-4.25-1.28-7.62-4.7-8.39-8.51-1.42-7.06,6.9-16.39,18.12-3.03.13.15,1.93,1.83,2.55,1.95,1.07.21,2.11-.68,2.46-1.72,1.42-4.27-4.48-33.67-6-34.78,2.61,1.91,6.34,2.16,9.19.62,2.85-1.54,4.68-4.81,4.51-8.04,5.97,7,17.31,4.93,20.48-3.59,4.21,6.31,12.88,9.62,21.7,4.75,3.92-2.17,2.9-2.02,7.11-.44,1.25.47,2.57.77,3.89.95,2.47,9.03,5.04,17.68,5.64,26.91,1.81,28.25-2.57,37.87-2.86,39.81-1.43,5.36-2.78,10.42-7.25,13.71-9.75,7.2-29.58,7.56-44.38-3.76-.99-.76-2.13.74-1.14,1.5,5.92,4.52,13.01,7.5,20.38,8.69l.83,11.61c.09,1.24,1.97,1.11,1.88-.13l-.8-11.21c8.29.98,17.61-.2,24.35-5.18,5.18-3.82,6.59-9.64,8.23-15.76,3.47-12.84,3.56-25.03,2.64-39.4-.58-9.09-3.08-17.75-5.52-26.64,14.04.3,20.55-14.65,14.45-24.76-3.94-6.54-12.83-9.59-19.98-6.87,1.18-7.5-5.34-15.67-13.56-15.41-6.94.3-13.21,6.79-12.96,13.81-2.23-5.37-8.95-8.39-14.46-6.49-5.5,1.9-8.93,8.42-7.37,14.02-5.07-8.17-15.03-14.64-24.7-9.98-6.99,3.38-13.69,17.55-4.38,22.36-5.06-2.61-11.75-1.29-15.64,2.85-3.88,4.16-4.8,10.73-2.45,15.91,2.36,5.17,7.75,8.76,13.42,9.22Zm22.01-41.68c1.16.46.45,2.22-.69,1.74-4.42-1.72-9.32,1.4-9.54,6.2-.03,1.25-1.93,1.18-1.87-.08.27-6.05,6.44-10.09,12.1-7.87Z"/><path class="cls-1" d="m61.59,151.29c-.94,1.85-.89,4.13.11,5.95,1.14,2.06,3.46,3.26,5.07,3.26,1.19,0,1.27-1.77.09-1.88-3.13-.29-5-3.68-3.58-6.48.56-1.11-1.11-1.97-1.68-.85Z"/><path class="cls-1" d="m136.61,119.23c-3.59-2.37-8.4-2.69-12.27-.81-1.12.55-.29,2.24.82,1.69,3.28-1.6,7.37-1.33,10.41.68,1.04.68,2.08-.89,1.04-1.57Z"/><path class="cls-1" d="m108.05,157.76c-1.74,6.04,4.15,11.57,10.06,9.46,1.18-.42.53-2.2-.63-1.77-4.51,1.6-8.93-2.61-7.62-7.16.35-1.2-1.47-1.71-1.81-.52Z"/><path class="cls-1" d="m387.94,110.75c-4.51-17.7-27.65-25.68-46.37-14.14-.07.04-.14.08-.13.09-1.17.58-.22,2.43,1.05,1.56,18.02-11.09,39.5-3.25,43.63,12.96.48,1.89,1,5.43-.85,7.89-2.28,3-7.06,2.87-10.16,1.02-2.88-1.73-4.9-4.56-6.65-7.38-.38-1.23-1.52-2.82-2.5-1.98-.8.69.09,1.58.16,1.78.2.33.4.65.6.98.35,1.4-.06,3.25-.96,4.19-1.22,1.27-3.65,1.25-4.86-.1-.84-.94-2.24.31-1.42,1.23.17.47-.96,2.34-1.82,3.21-1.33,1.34-9.57,2.31-15.55-1.94-1.01-.72-2.11.81-1.09,1.53,3.38,2.42,7.77,3.7,13.1,3.33,1.6-.13,3.59-.3,4.88-1.6.02-.03,1.58-1.65,2.16-3.31,2.86,1.27,6.45.07,7.38-3.79,1.52,2.12,3.3,4.08,5.61,5.48,3.81,2.26,9.72,2.33,12.63-1.5,1.73-2.29,2.15-5.66,1.18-9.49Z"/><path class="cls-1" d="m285.08,86.13c-1.72-.76-3.31-1.79-4.74-3.06-1.15-1.02-2.31-2.02-2.47-3.19-.18-1.19.04-3.36.42-3.63,1.19-.24.88-2.06-.38-1.85-.15,0-1.27.29-2.54-.61-.79-.56-1.3-1.37-1.41-2.22-.16-1.29.59-2.98,1.7-3.89.58-.23,1.16-.46,1.74-.7.97-.4.66-1.86-.41-1.81-.78.04-1.54.33-2.26.85-3.11,1.19-6.43,2.23-9.71,1.89-3.6-.37-7.51-3.11-7.53-6.89-.03-3.09,2.51-5.61,4.03-6.83,15.12-12.22,39.47-1.15,44.4,21.23.27,1.21,2.11.81,1.84-.41-3.96-17.96-20.23-29.91-35.95-27.32,2.74-18.9,3.01-41-5.06-42.91-4.24-1.02-8.67,3.99-12.27,9.84-1.5-.53-6.33,4.65-22.7,1.99-2.79-.45-5.58-1.08-8.33-1.74,4.94-6.14,10.5-9.89,16.76-11.31,1.21-.28.81-2.1-.42-1.84-6.92,1.58-13,5.78-18.34,12.67-9.71-2.39-15.92-4.01-28.71-4.18l3.01-5.58c.59-1.1-1.07-1.99-1.66-.9l-3.5,6.47c-22.75.02-44.62,4.13-58.7,5.23-1.23.1-1.11,1.96.15,1.88,14.77-1.16,34.4-5.05,57.54-5.23-7.49,13.87-9.15,16.86-10.44,19.47-10.3-1.52-20.91-.28-30.84.27-31.87,1.79-34.49-8.93-36.28-6.24-.29.43-.17,1.02.26,1.31,19.22,12.84,44.79,3.54,66,6.44-3.46,7.46-4.88,14.48-2.83,25.25-12.86-5.23-29.34-8.56-41.12-5.9-1.23.28-.78,2.13.41,1.84,11.77-2.66,28.47.9,41.17,6.29,1.01,4.45,2.43,8.76,3.86,12.81.42,1.18,2.19.55,1.78-.63-1.26-3.57-2.52-7.34-3.48-11.22,9.31,4.26,15.96,9.66,24.15,16.27.77,11.51,4.35,22.07,10.37,30.3.18.25.47.39.76.39.75,0,1.22-.87.76-1.5-5.51-7.52-8.89-17.1-9.87-27.57,8.33,6.66,17.05,13.17,27.45,16.03.08.02.17.03.25.03.02,0,.03,0,.04,0-.36,6.45-.45,15.27,1.48,21.47l-12.82-3.51c-.47-.13-.95.12-1.13.57l-20.86,54.65c-1.48-1.13-3.61-1.44-5.37-.89-2.54.8-4.33,2.9-5.6,4.64-3.74,5.12-6.15,11.26-6.96,17.76-.74,5.9.29,13.92,1.51,18.26-.13.54.17,1.12.74,1.29l-18.33,48.01c-2.07,5.59,2.71,11.36,8.69,12.24l-1.37,6.95-28.69,46.04H56.57c-1.17-11.34-2.01-22.75-2.51-34.18-3.1,11.39-6.23,22.79-9.33,34.18H.93c-1.25,0-1.25,1.88,0,1.88,308.48.12,178.64.03,233.61,0,1.25,0,1.25-1.88,0-1.88h-12.2l-9.45-103.39c1.42.23,2.78.39,3.93.52,5.6.65,12,2.08,15.35-2.68,1.73-2.44,1.93-5.78.58-8.43,3.92-3.05,4.51-8.96.35-12.92-.01-.06-.04-.11-.07-.17,5.92-3.28,5.85-10.7.82-14.33,7.01-4.08,5.51-14.1-.82-15.18-3.74-.65-7.98-1.2-11.78-1.62.06-.15,15.78-41.58,15.42-40.63.35-.98.49-.96.59-1.35.73.43,1.45.69,2.45.69,9.47,0,21.17-27.08,27.76-53.92,1.74-.13,3.45-.5,5.12-1.02-1.58,3.69.7,6.78,3.66,7.45-.52,1.68-.26,3.9-.26,3.93.28,2,2.1,3.46,3.08,4.33,1.55,1.38,4.76,3.45,5.61,3.45,1.02,0,1.31-1.4.38-1.8Zm-32-69.12c-5.9,10.5-10.63,24.38-13.8,36.09-10.65,1.21-20.21-3.57-30.14-9.08,3.02-9.16,7.28-19.69,13.05-27.51,10.03,2.43,20.92,4.49,30.89.5Zm-61.36-4.92c12.34.08,18.58,1.48,28.5,3.94-5.56,7.77-9.73,17.95-12.76,27.06-8.71-4.86-16.69-9.44-26.37-11.23,1.17-2.3,1.57-3,10.63-19.77Zm-14.18,47.37c-2.4-11.39-.83-18.42,2.69-25.83,9.94,1.73,17.71,6.31,26.66,11.29-3.14,9.93-5.12,20.14-4.8,30.59-8.71-7.01-15.11-11.95-24.55-16.06Zm26.51,17.63c-.47-8.63.58-18.64,4.52-31.23,9.5,5.25,19.35,10.16,30.19,9.18-3.22,12.34-5.81,26.13-6.69,38.79-10.57-2.93-19.12-9.57-28.03-16.74Zm-21.45,122.89c-2.03-15.49,6.6-28.72,11.24-30.18,1.39-.43,3.17-.1,4.08.97l-14.03,36.76c-.65-2.54-.97-5.15-1.29-7.55Zm-17.66,122.56l10.28-52.23c4.11-.14,6.99-2.38,8.08-5.3,1.97-5.33,18.95-49.92,19.04-50.17,1.43,2.17,4.3,3.68,8.63,4.59l9.48,103.76c-76.07-.9-49.83-.59-55.51-.65Zm65.7-105.99c-2.69,3.83-8.53,2.56-13.59,1.89-4.91-.56-12.88-1.49-13.83-6.32-.5-2.77,1.01-5.51,3.79-5.62,3.78-.14,23.77,3.31,23.93,3.33,1.15,2.05,1.05,4.79-.3,6.71Zm.59-8.57c-22.5-4.04-29.25-3.47-31.17-7.93-.64-1.48-.35-3.23,1.42-4.77,2.39-2.06,5.2-2.45,8.22-1.96,19.65,3.85,20.94,3.89,21.17,3.87.18.04.37.07.55.11,1.55,1.25,2.65,3.37,2.69,5.24.03,2.12-1.12,4.27-2.88,5.44Zm4.46-18.87c-.08,2.6-2.09,5.04-4.88,5.94-.1.03-.16.11-.24.17-3.09-.6-7.1-1.3-10.56-1.89-4.2-.87-14.31-3.36-17.05-4.48-1.17-.48-2.23-1.12-2.85-2.1-1.28-2.02-.25-4.86,1.54-6.36,2.64-2.2,6.4-2.16,9.79-1.68,4.85,1.33,11.75,2.6,16.43,3.47,2.92.48,3.22.77,3.74.47,2.46,1.08,4.17,3.76,4.08,6.46Zm-2.97-20.65c2.69.46,4.18,3.56,3.88,6.16-.3,2.6-2.12,4.95-4.57,5.96-7.03-1.31-14.83-2.75-16.7-3.1-3.88-.77-8.02-1.04-8.59-3.8-1.02-4.91,3.73-6.68,8.74-7.01,2.39-.16,4.6.03,6.97.34,0,0,6.47.79,10.26,1.45Zm6.32-46.73c-3.28-.78-5.3-7.74-5.39-18.63-.2-24.03,8.54-60.88,19.51-82.27,4.97-9.69,9.89-15,13.17-14.23,4.69,1.11,7.37,15.72,3.53,41.5-6.35,1.56-14.29,6.47-14.24,12.92.03,4.88,4.89,8.51,9.92,8.78-8.15,32.95-20.25,53.37-26.5,51.94Z"/><rect class="cls-3" x="289.09" y="72.61" width="45.83" height="66.14" rx="3.98" ry="3.98" transform="translate(55.11 311.89) rotate(-57.47)"/><path class="cls-1" d="m350.35,106.26c1.27-.06,1.13-1.98-.09-1.88l-37.22,1.68c-.82.01-1.52-.43-1.82-1.16l-14.17-34.46c-.47-1.15-2.22-.44-1.74.72l10.86,26.43-11.86,4.54c-1.17.45-.48,2.2.67,1.76l11.9-4.55,2.59,6.29c.62,1.5,2.12,2.41,3.65,2.33l6.26-.28,2.24,12.76c.22,1.24,2.07.9,1.86-.32l-2.19-12.53,29.06-1.31Z"/></g></svg>