<?xml version="1.0" encoding="UTF-8"?><svg id="Layer_1" xmlns="http://www.w3.org/2000/svg" viewBox="0 0 381.98 387.71"><defs><style>.cls-1,.cls-2,.cls-3,.cls-4{stroke-width:0px;}.cls-2{fill:#f6f9fc;}.cls-3{fill:#e190e1;}.cls-4{fill:#e190e1;}</style></defs><g id="_Market_Graph"><path class="cls-4" d="m222.53,182.24c-5.6,1.64-11.06,4.58-16.57,6.63-14.11,5.27-29.32,5.17-44.5,5.6-1.39-33.4.56-191.21.56-192.97,0-.85.7-1.5,1.53-1.5h53.12c.83,0,1.52.67,1.53,1.5l4.33,180.74Z"/><path class="cls-4" d="m149.77,195c-16.27,1.15-32.92,5.07-55.7,18.12-1.25-21.38.5-133.15.5-133.31.02-.59.64-1.03,1.41-1.03h48.7c.77,0,1.4.45,1.41,1.03l3.67,115.19Z"/><path class="cls-4" d="m297.65,201.41c-17.92,13.58-38.92,21.86-59.89,24.8-.27-2.5-.44-8.04-.55-15.62,14.43-12.22,10.99-24.83-.14-28.5.06-48.39,1.02-114.75,1.02-115.01.01-.68.7-1.21,1.53-1.21h52.57c.82,0,1.5.53,1.52,1.21l3.93,134.33Z"/><path class="cls-3" d="m322.51,304.68c-14.14-.54-26.19,10.65-26.74,24.78-.6,15.22,11.83,27.46,26.76,26.94,12.91-.45,23.36-10.3,24.77-22.94.21-1.87.07-1.6-.56-1.58-2.34.08-22.7.79-25.82.89-.96.03-.82.12-.74-.53.15-1.2,3.08-24.55,3.2-25.52.29-2.27.55-2-.86-2.05Z"/><path class="cls-4" d="m334.48,292.53l-4.82,30.71c-.11.7.46,1.32,1.17,1.27l33.2-2.45c.02-.27.01-.57,0-.84-.55-15.85-12.96-28.46-28.4-29.63-.57-.04-1.07.37-1.16.93Z"/><path class="cls-1" d="m381.88,296.33l-7-40.08c-.42-2.41-2.22-4.37-4.58-5l-12.32-3.28c-1.69-17.52-24.19-24.06-38.59-10.49-6.62,6.24-10.79,15.84-12.1,27.76l-10.47,9.11c-.88.77-1.54,1.77-1.88,2.89l-22.27,72.45c-.06,0,.03,0-.39,0-11.06,0-23.16-10.45-21.72-35.28,1.09-18.77,7.93-37.35,19.26-52.3.15-.2.2-.43.21-.66,34.11-16.49,60.21-41.51,75.44-68.95,1.68-3.03,3.44-6.58,3.07-10.36-.52-5.37-5.12-8.89-10.5-9.96l6.18-12.61c1.01-2.08.31-4.6-.83-6.17-2.26-3.12-6.09-2.76-9.17-2.48-4.21.39-8.6.45-13.8,3.25,2.16-5.4,2.91-11.14,2.37-16.47-.19-2.35-.27-4.55-2.14-6.03-3.34-2.66-8.14-1.57-11.52.34-6.48,3.69-10.49,10.05-13.07,15.18l.11,3.58c.42.05.75-.14,1-.66,3.78-8.06,7.93-13.19,13.08-16.13,2.73-1.55,6.51-2.5,8.97-.54,1.2.96,1.18,3.13,1.29,4.47.63,6.31-.65,12.88-3.7,18.59-9.59,7.53-12.83,20.05-19.64,29.24l.11,2.93c.33.03.57-.07.85-.42,7.51-9.4,10.42-21.99,19.61-29.57.34-.06.66-.27.82-.6l.05-.09c5.63-4.29,11.02-4.37,15.8-4.81,2.77-.26,5.62-.52,7.11,1.55.74,1.02,1.19,2.68.63,3.84l-6.52,13.31c-2.08-.12-4.17.12-6.09.78-12.07,4.19-15.45,16.16-36.9,30.92-.01-.34-.01-.46-.01-.49h0s0,0,0,0c0-.01,0-.01,0-.01-.01-.43-.26-8.84-3.9-133.03-.03-1.24-1.14-2.22-2.53-2.22h-52.81c-1.39,0-2.5.97-2.53,2.23-.21,15.5-.92,68.89-1.01,109.8-4.34.08-8.41,1.38-12.43,2.96,0,0,0,0,0,0,0-.2-.16-6.86-4.25-177.61-.03-1.4-1.15-2.5-2.55-2.5h-53.36c-1.4,0-2.52,1.09-2.55,2.49-.34,33.72-1.64,151.62-.71,188.4-7.03.36-8.47.64-8.86.65h0s0-.04,0-.13c0,0,0-.01,0-.02,0,0,0-.01,0-.02,0,0,0,0,0,0,0,0,0-.01,0-.01-.05-1.52-.48-15.06-3.55-111.75-.03-1.15-1.1-2.06-2.43-2.06h-48.93c-1.36,0-2.41.89-2.44,2.08-.29,19.01-1.66,113.85-.5,133.49-4.03,2.49-8.18,5.19-12.35,8.06-1.23.85.04,2.73,1.29,1.88,39.91-27.48,60.94-29.53,85.27-30.18,15.26-.38,30.78-.42,44.86-5.67,9.77-3.63,20.01-10.43,30.37-6.77,12.12,4,13.51,18.57-6.22,30.99,0,0,0,0,0,0-8.69,5.56-8.15,4.17-18.65,8.01-2.17.8-4.22,1.55-6.5,1.76-5.84.49-9.52-.46-18.22,5.22-20.43,10.35-43.36,31.9-68.43,26.21-.6-.13-1.22.24-1.36.86-.14.61.24,1.22.86,1.36,26.22,5.95,49.55-16.19,71.74-27.3,12.91-6.45,9.59-2.03,28.14-1.7,27.98.44,56.75-8.47,80.25-26.26,17.93-13.61,21.51-23.86,31.96-27.48,6.35-2.18,15.32.89,15.97,7.55.31,3.13-1.28,6.3-2.79,9.03-25.7,46.29-80.46,84.8-163.94,90.38-20.42,1.36-41.71.97-58.52,13.56-1.21.91.17,2.71,1.37,1.82,16.26-12.18,37.41-11.78,57.31-13.12,31.99-2.14,61.03-9.14,86.48-20.79-10.5,14.85-16.83,32.84-17.88,51.02-1.52,26.17,11.68,37.48,23.69,37.68l-2.93,9.52c-1.06,3.46,1,7.11,4.53,7.96l74.5,18.08c3.22.78,6.51-1.08,7.49-4.24l26.13-84.01c.3-.95.36-1.97.19-2.95ZM89.49,214.49c-1.05-22.52.38-119.71.56-131.91.13-.04,49.17-.03,49.26,0l3.56,111.92c-19.03,2.27-36.98,10.07-53.38,19.98Zm116.07-26.69c-16.74,6.25-37.18,4.99-49.29,5.69-.92-36.55.36-153.47.71-188.25,0-.47-2.96-.17,53.63-.25.52,0-.03-7.61,4.55,178.76-3.33,1.41-6.44,2.87-9.61,4.05Zm3.2,37.79c1.35-.36,2.64-.82,3.89-1.28,8.49-3.11,10.36-2.74,17.37-7.13.08,3.83.16,6.61.26,8.7-8.49.71-15.08.51-21.52-.29Zm28.85-.52c-3.18.47-4.71.55-5.06.6-.1-2.3-.19-5.46-.28-9.94,23.62-15.51,17.89-34.26-.15-35.82.1-40.9.8-94.31.99-109.72.2-.24,53.36.07,53.36-.08l3.96,134.99c-15.62,10.37-33.86,17.31-52.82,19.97Zm83.35,14.07c12.01-11.32,31.99-7.94,34.3,8.1l-17.66-4.7c-2.02-.54-4.17-.04-5.75,1.33l-21.97,19.13c1.15-7.7,4.04-17.23,11.08-23.86Zm58.57,59.46l-26.13,84.01c-.63,2.01-2.72,3.21-4.78,2.71l-74.5-18.08c-2.25-.55-3.57-2.87-2.89-5.08,5.57-18.13,19.9-64.75,25.9-84.24.22-.72.64-1.36,1.2-1.85l35.02-30.48c1.01-.88,2.38-1.2,3.67-.85l18.42,4.9c.05,4.71-1.94,7.85-5.14,11.37-2.43-1.4-5.58-1.08-7.66,1-2.48,2.48-2.48,6.51,0,9,2.48,2.48,6.51,2.48,9,0,2.2-2.2,2.44-5.61.74-8.09,3.47-3.7,5.36-9.1,5.63-12.59l11.72,3.12c1.51.4,2.65,1.65,2.92,3.19l7,40.08c.11.63.07,1.28-.12,1.88Z"/><path class="cls-1" d="m333.14,293.48c-1.3-.13-2.48.83-2.69,2.13l-4.72,30.09c-.25,1.59,1.03,3.04,2.69,2.92l32.84-2.42c.56-.04,1-.48,1.05-1.04.03-.31.02-.66,0-.98-.56-16.15-13.11-29.34-29.18-30.7Zm-4.88,32.87c-.17.04-.3-.14-.27-.3,6.01-38.33-1.32,8.4,4.72-30.09.02-.12.12-.22.23-.22h.01c14.83,1.25,26.43,13.37,27.08,28.25l-31.78,2.35Z"/><rect class="cls-2" x="27.37" y="217.03" width="77.46" height="129.09" rx="3.78" ry="3.78" transform="translate(-142.18 80.9) rotate(-32.85)"/></g></svg>