<?xml version="1.0" encoding="UTF-8"?><svg id="Layer_1" xmlns="http://www.w3.org/2000/svg" viewBox="0 0 352.44 387.64"><defs><style>.cls-1,.cls-2,.cls-3,.cls-4,.cls-5{stroke-width:0px;}.cls-2{fill:#f6f9fc;}.cls-3{fill:#e190e1;}.cls-4{fill:#fbec39;}.cls-5{fill:#e190e1;}</style></defs><g id="Search_Money"><path class="cls-1" d="m34.11,68.14c11.24,0,21.59-5.35,26.5-13.98.64-1.12-.9-2.19-1.73-1.22-3.24,3.77-6.83,6.34-10.69,7.63C26.56,67.81,3.78,50.89,6.06,28.75c.98-9.54,3.65-10.74,6.93-15.38.68-.97-.5-2.16-1.47-1.5-3.9,2.64-6.49,5.64-8.41,9.71-10.39,22.14,6.45,46.56,30.98,46.56Z"/><path class="cls-2" d="m285.33,280.12c-18.52,2.44-69.38,19.64-75.08,22.68-2.45,1.31-4.44.08-7.04-.3-10.25-1.53-20.49-3.02-30.74-4.55-7.26-1.09-13.24-1.28-17.03,6.01-3.01,5.81-6.53,10.31-7.46,18.86h-67.67c.52-6.01.45-6.04.45-5.36,4.09.71,9.94.99,15.49.42,32.98-3.37,56.97-32.81,53.62-65.78-.7-6.93-2.71-13.81-5-18.63,5.51-1.86,11.16-3.38,17-4.35.71-.12,1.6-.17,2.13.24,1.04.78-.02,2.62,1.34,4.89,7.12,12.61,23.71,13.32,32.27,3.46,1.2-1.36,2.78-3.71,4.39-4.56,0-.54-.02-1.07-.05-1.56,0,.03.02.05.06.06,1.48,1.15,19.99-1.12,45.48,9.63,17.78,7.43,35.35,18.72,37.74,37.99.02.27.06.54.08.83Z"/><path class="cls-3" d="m352.44,322.83l-1.34,41.39H8.82l-1.4-41.39h140.56c-.53,5.09.27,10.49,5.48,11.08h.05c1.06,3.13,6.65,5.96,8.44,2.07.27,3.31,2.1,7.87,6.04,7.26,1.39-.21,2.57-1.15,2.9-2.52-.64,5.11-.62,8.42,4.71,8.05,3.05-.2,9.14-2.6,9.56-3.02.03-.01.05-.01.05-.01-.15-.09-6.16-3.75-5.78-3.52,1.08-2.01,6.09-11.29,5.77-10.69l.03-.08c22.56,1.46,32.26-6.83,32.26-6.83,1.72-.03-15.55.25,107.88-1.74v-.06h27.09Z"/><path class="cls-5" d="m80.77,317.46c0-.39.04-.4-.01,0h.01Z"/><path class="cls-4" d="m75.84,62.43l-15.33-8.38c-6.75,6.17-16.22,9.49-26.25,8.32C16.34,60.31,3.41,44.72,5.4,27.56,7.39,10.4,23.54-1.84,41.47.23c21.15,2.45,34.25,23.21,27.13,41.96l7.24,20.24Z"/><path class="cls-1" d="m80.75,317.47c-.39,4.88-.42,5.2-.44,5.36H7.77c0-.21.06-.42.18-.59,28.54-41.99,26.77-39.74,27.29-39.96.12.33.27.66.42.98,8.45,18.4,25.65,31.12,45.09,34.2Z"/><path class="cls-1" d="m352.17,322.83c0-.21-.08-.44-.2-.62-88.05-123.81-83.62-117.81-84.05-118.11.28-.46-.49,5.28,13.56-127.91.48-4.53-3.28-8.3-7.4-8.11l-194.82,2.63c-4.3.05-7.64,3.77-7.23,8.06l3.63,37.09c-13.04,4.52-25.75,9.93-37.67,16.9-7.85,4.59-12.26,13.33-12.08,24,.3,17.6,13.81,40.86,26.58,54.74.56-.47,1.12-.91,1.69-1.31-12.39-13.44-25.83-36.3-26.14-53.47-.17-10,3.74-17.85,11.04-22.11,30.74-18,67.99-25.48,79.29-28.89,2.75-.82,5.59-1.68,8.15-1.43,7.99.66,16.75,2.05,25.14,2.54,43.74,2.52,42.33,2.27,43.13,3.29.79.96-.23,2.7-1.46,3.19-3.25,1.33-10.92-2.62-25.23.61-9.22,2.08-17.35,6.44-23.51,11.92-1.05.94.35,2.51,1.42,1.59,1.54-1.37,3.19-2.63,4.92-3.81,2.69,1.49,6.64,3.63,9.41,5.16l-3.53,4.14c-19.51,2.26-20.17-1.64-27.86-3.73-10.62-2.89-21.75,5.07-30.69,11.47-6.58,4.71-21.06,13.88-38.31,28.25-1.09.9.3,2.53,1.36,1.64,5.84-4.86,11.87-9.55,18.03-14.07,40.89,53.45,38.35,51.04,39.37,51.04.79,0,1.32-.85.91-1.58,11.01,6.19,19.96,15.8,25.26,27.56,4.54-1.53,14.47-4.31,17.77-4.42-.33,4.12-.63,7.54-.71,8.31-.15,1.4,1.97,1.63,2.12.22.07-.62.33-3.66.64-7.47.66-.59.16.12,2.06-17.6,8.01.84,15.84-.33,23.72-1.99.58-.12.94-.69.82-1.26-.12-.58-.7-.94-1.26-.82-16.57,3.49-35.5,4.52-43.98-10.25-12.89-22.45,1-52.31,19.11-70.98,5.73,8.61,21.06,9,30.76,5.97,1.53-.47,2.95-1.17,4.36-1.76,2.42,12.73,9.76,28.09,19.16,32.5-4.66,5.24-7.77,12.25-9.47,21.39-.25,1.36,1.78,1.79,2.09.43.74-3.31,4.67-5.4,7.95-4.62,3.29.77,5.91,4.02,6.21,7.71.68,8.62-9.9,16.38-19.73,11.82-2.83-1.3-3.17-2.42-4.33-2.97-.47-.95-1.82-.72-1.99.29-1.95,11.53-.31,21.52.99,35.68.13,1.41,2.25,1.21,2.12-.19-.04-.44-.09-.96-.14-1.54,0,0,0,0,.01,0,3.96.53,21.41-.31,44.35,9.36,17.84,7.45,35,18.45,37.7,37.76-1.68.39-13.4.84-63.08,18.01-9.04,3.09-9.54,3.29-12.39,4.8-2.01,1.09-3.7-.02-6.38-.42l-31.24-4.62c-7.65-1.15-13.8-.78-17.63,6.64-.58,1.11-1.11,2.05-1.88,3.45l-15.65-11.18c-1.79,2.42-5.38,6.22-10.07,9.92l20.39,14.65c-1.15,6.31-.69,13.45,5.5,14.57,1.41,2.83,5.65,5.23,8.49,3.46,1.4,5.41,5.17,7.01,8.25,5.53-.02.86.02,1.65.15,2.33,1.19,5.9,9.52,3.48,14.99.97l5.06,3.64c3.7,2.59,9.31-1.99,9.78-7.05,0,0,0,0,0,0,.18-2-.49-3.67-1.81-4.58l-9.11-6.51c18.43.44,27.49-5.63,29.25-6.98l107.52-1.73c.51,0,1.04-.44,1.03-1.12h25.77Zm-117.19-194.57c-.54-.24-.78-.87-.55-1.41.24-.54.88-.78,1.41-.54,9.9,4.34,13.92,16.22,8.96,25.62-.65,1.24-2.55.26-1.88-.99,4.4-8.4.75-18.85-7.94-22.68Zm-117.21-24.59c-4.44,1.31-22.24,5.45-40.04,11.48l-3.58-36.59c-.29-3.03,2.05-5.69,5.13-5.72l194.82-2.63c3.13-.05,5.57,2.66,5.25,5.76l-13.29,126.51h-26.67c-.1-.47-.2-.94-.35-1.4,9.08-1.17,15.63-9.94,16.83-18.25,1.17-8.27-1.36-14.43-4.71-22.04,4.33-1.51,7.86-5.64,8.99-10.67,3.3-14.61-11.96-32.54-27.16-34.58-7.73-1.04-3.59-1.29-13.78-16.24-19.46-28.76-51.67-18.45-56.55,6.04-39.61-2.44-34.05-4.91-44.91-1.67Zm28.49,98.8h-29.22l-35.31-46.4-.12-1.26c10.53-7.61,10.27-7,17.89-12.45,8.58-6.13,19.25-13.75,28.9-11.14,6.83,1.86,8.9,6,27.19,3.96-14.95,19.87-23.8,47-9.32,67.29Zm15.9-75.15c-2.71-1.5-6-3.28-9.19-5.04,2.94-1.8,6.09-3.31,9.36-4.49.3,2.35.83,5.3,1.79,7.47-.66.67-1.31,1.36-1.96,2.05Zm55.29,196.23c-.25,0-.49.09-.67.25-.1.08-9.72,8-31.5,6.58-.43-.04-.84.26-1.04.63l-5.76,10.68c-.28.5-.11,1.13.38,1.43.15.11,4.05,2.77,3.8,2.59-2.13.89-4.81,1.85-7.14,1.98-4.17.33-4.22-2.06-3.64-6.46,1.71-9.2,4.92-17.02,5.26-18.02.52-1.31-1.45-2.1-1.98-.79-1.35,3.89-3.99,10.37-5.31,18.04-.4,1.67-2.78,2.37-4.39,1.1-1.5-1.18-2.23-3.62-2.43-5.52.04-.2.02-.39-.04-.57-.14-4.8,2.05-8.65,7.72-21.82.56-1.29-1.4-2.15-1.96-.84-5.43,12.68-8.18,17.55-7.89,22.89-1.38,2.53-5.5.08-6.3-2.05-.07-.37-1.15-2.32-.38-7.24,1-6.36,3.9-12.5,8.17-17.3.94-1.05-.66-2.47-1.59-1.42-7.3,8.21-9.8,19.12-8.74,24.71-3.09-1.41-3.36-5.79-2.97-9.48.91-8.17,4.12-12.35,7.35-18.49,3.38-6.55,8.74-6.52,15.42-5.52l31.24,4.62c2.5.37,4.84,1.73,7.7.18,2.63-1.4,2.91-1.53,12.08-4.66,16.73-5.78,46-15.49,62.67-17.91,8.16-1.24,13.13-1.72,19.92,2.36,12.55,7.6,17.52,23.75,18.77,38.31l-106.74,1.72Z"/><path class="cls-1" d="m180.06,147.72c.33-.49.21-1.15-.28-1.48-.49-.33-1.15-.2-1.48.28-4.99,7.33-10.17,6.95-14.67,9.53-2.21,1.27-4.57,3.65-4.54,6.52.03,2.96,1.4,5.76,2.81,8.38.66,1.23,2.55.24,1.88-1.01-1.28-2.38-2.53-4.92-2.55-7.39-.02-1.95,1.86-3.73,3.47-4.65,4.01-2.3,10-2.3,15.37-10.18Z"/><path class="cls-1" d="m160.47,151.23c.71,1.3,2.3,2.05,3.8,1.8,2.47-.43,5.08-3,6.54-5.01.45-.62.99-1.46,1.22-2.45.26-1.14.04-2.31-.6-3.12-1.16-1.46-3.22-1.47-4.76-1h0c-5.15,1.59-7.45,7.48-6.2,9.79Z"/><path class="cls-1" d="m183.95,165.45c.71,1.31,2.31,2.06,3.8,1.8,3.44-.6,10-7,7.16-10.58-1.16-1.46-3.21-1.47-4.76-1h0c-5.16,1.59-7.45,7.49-6.2,9.79Z"/><path class="cls-1" d="m163.36,136.67c5.13-1.72,12.88-1.16,14.76,3.79.5,1.32,2.49.56,1.99-.76-2.35-6.18-11.19-7.15-17.43-5.06-1.33.45-.67,2.47.68,2.02Z"/><path class="cls-1" d="m219.98,187.65c-.06-.59-.6-.99-1.17-.95-.59.06-1.01.58-.95,1.17.22,2.14-1.44,4.06-3.64,4.08-1.4.01-1.39,2.13.01,2.13,4.31-.99,6.09-3.1,5.75-6.43Z"/><path class="cls-1" d="m202.99,160.94c.13,1.4,2.26,1.2,2.12-.2-.73-7.65-6.72-13.8-14.41-14.67-1.4-.17-1.65,1.96-.24,2.12,6.73.77,11.9,6.16,12.53,12.76Z"/><path class="cls-1" d="m151.88,180.37c-1.22.71-.16,2.55,1.07,1.84,4.39-2.54,10.18-2.36,14.39.46,1.16.77,2.36-.99,1.18-1.77-4.88-3.26-11.57-3.47-16.64-.53Z"/><path class="cls-1" d="m61.54,244.51c-.64,1.25,1.25,2.23,1.9.97,8.38-16.3,29.7-21.02,44.18-9.58,1.11.87,2.43-.8,1.32-1.67-15.38-12.15-38.31-7.39-47.39,10.28Z"/><path class="cls-1" d="m36.66,46.11l-.54,5.15c-.15,1.41,1.97,1.62,2.12.22l.54-5.15c8.29.23,13.03-6.43,11.14-11.67-3.11-8.66-17.19-4.31-18.9-11.75-.34-1.48.12-3.13,1.23-4.43,4.41-5.15,14.55-3.15,15.93,4.55.25,1.4,2.34,1,2.1-.37-.72-4.04-3.85-7.77-8.73-8.87l.55-5.2c.15-1.39-1.97-1.65-2.12-.22l-.54,5.14c-6.82-.29-11.63,4.94-10.49,9.89,1.05,4.54,5.82,6.06,9.86,6.88,3.68.75,7.85,1.59,9.11,5.11,1.47,4.1-2.83,9.5-9.97,8.74-5.24-.63-9.08-4.02-10.39-7.93-.44-1.33-2.47-.67-2.02.68,1.59,4.73,6.11,8.31,11.13,9.23Z"/><path class="cls-1" d="m307.64,47.92l13.89-28.49c.62-1.27-1.29-2.2-1.91-.93l-13.89,28.49c-.62,1.27,1.3,2.2,1.91.94Z"/><path class="cls-1" d="m314.02,58.11l24.09-9.66c1.32-.53.5-2.51-.79-1.98l-24.09,9.66c-1.32.53-.5,2.5.79,1.98Z"/><path class="cls-1" d="m296.77,48.91c-4.88-8.81-8.09-18.75-9.29-28.75-.07-.58-.61-1-1.18-.93-.58.07-1,.6-.93,1.18,1.23,10.27,4.53,20.48,9.54,29.53.68,1.23,2.55.2,1.86-1.03Z"/><path class="cls-1" d="m227.1,350.61h0c-.02-.88-.72-1.63-2.28-1.48-4.36.23-5.03.28-6.4.32-.64.02-1.1.59-1.02,1.21,1.07,7.74-3.47,15.23-10.83,17.85-3.42,1.22-7.18,1.3-10.82,1.37-9.17.19-39.13,1.52-46.46-3.33-4.63-3.06-5.83-9.48-5.73-15.01.01-.59-.47-1.09-1.06-1.09-.48,0-5.93.12-7.93.16-.59,0-1.06.5-1.05,1.09.12,5.89.21,10.54,1.79,16.45,1.78,6.69,5.35,12.1,10.03,15.22,5.45,3.64,12,4.26,18.89,4.26,5.27,0,21.16-.41,37.39-1.43,5.34-.34,10.11-.81,14.29-3.19,4.7-2.67,8.97-8.23,10.53-16.58.93-4.98.83-10.29.67-15.83Z"/><path class="cls-5" d="m149.88,252.11c-3.37-33.22-33.12-56.99-65.78-53.62-32.92,3.35-56.97,32.75-53.61,65.78,2.78,27.35,23.71,49,50.26,53.2.06-.43.01-.37.01,0,21.61,3.76,44.76-6.22,56.21-21.73,9.53-11.85,14.57-27.3,12.91-43.63Zm-68.09,54.14s0,.01-.02.05v-.05c-21-3.72-37.76-20.73-40.12-43.11-2.73-26.82,16.79-50.75,43.58-53.49.11-.01.23-.03.33-.03,27.02-2.5,50.47,17.21,53.15,43.63,3.26,31.96-24.87,58.51-56.93,53Z"/></g></svg>