<?xml version="1.0" encoding="UTF-8"?>
<svg width="442px" height="450px" viewBox="0 0 442 450" version="1.1" xmlns="http://www.w3.org/2000/svg" xmlns:xlink="http://www.w3.org/1999/xlink">
    <title>u-01</title>
    <g id="Page-1" stroke="none" stroke-width="1" fill="none" fill-rule="evenodd">
        <g id="u-01" transform="translate(220.827081, 225.000000) scale(-1, 1) translate(-220.827081, -225.000000) translate(-0.000000, 0.000000)" fill-rule="nonzero">
            <g id="Group" transform="translate(259.446845, 131.999085)" fill="#ECECEC">
                <path d="M19.1290889,69.3063214 C11.9295193,72.7491388 6.49844867,76.7675032 0,81.6858138 C5.70314739,72.6131004 5.98568863,73.3246858 9.04131989,69.3063214 L19.1290889,69.3063214 Z" id="Path"></path>
                <path d="M20.4685436,52.7514972 C22.0382172,54.4572092 23.6602133,56.1315277 25.3240673,57.7639882 L17.1408356,57.7639882 C18.2605361,56.0896697 19.3593076,54.4153512 20.4685436,52.7514972 Z" id="Path"></path>
                <path d="M66.97274,0 C63.6345674,1.56967359 62.3997576,3.66257172 60.9556579,6.89609932 C57.8477041,13.8340566 55.7861995,20.1232155 56.4140689,27.4169654 C51.1085722,30.4098097 45.5728566,32.952681 39.629026,34.3237321 C38.9592986,34.3444582 37.368696,32.7433911 35.6525195,30.7865314 C36.1652796,30.0016946 36.6780396,29.1854643 37.2117286,28.3169116 L44.8717358,28.3169116 C45.2798509,28.3169116 45.6042501,27.9925124 45.6042501,27.5843973 L45.6042501,15.2990853 C47.8541156,12.1597381 50.2190905,9.21921623 52.5736009,7.0216732 C56.5501073,3.30677904 61.7928171,0.523224531 66.97274,0 Z" id="Path"></path>
            </g>
            <path d="M317.870096,189.763073 C317.891025,188.737553 317.891025,187.586459 317.880561,186.362113 C333.075001,179.936916 348.646163,172.758276 365.357954,164.250645 C365.169594,168.352725 365.033555,179.664839 365.316097,189.763073 L317.870096,189.763073 Z" id="Path" fill="#ECECEC"></path>
            <path d="M365.493993,129.299246 C361.883744,129.696897 359.508304,131.17239 356.180596,133.359468 C323.489528,154.780281 321.407094,156.297632 315.871378,159.405586 C315.243509,152.090907 317.305014,145.812212 320.412967,138.884719 C322.600046,133.987338 324.379009,131.559576 333.60869,130.115476 C333.849373,130.084083 334.058663,130.251515 334.090057,130.471269 C334.184237,131.120067 334.927216,132.051407 335.24115,132.4072 C337.658448,135.159361 342.838371,135.672121 345.977718,132.773457 C347.17067,131.653756 348.028758,130.408482 347.871791,128.692306 C347.819468,128.106294 361.580273,128.953918 365.493993,129.299246 Z" id="Path" fill="#ECECEC"></path>
            <path d="M372.285447,160.661324 C340.776866,177.258007 315.808591,187.115557 309.97987,189.763073 L284.760448,189.763073 C275.687734,180.836862 267.45218,170.393301 259.541025,160.315996 L293.016931,160.315996 C293.75991,161.215942 297.914312,166.354007 299.075871,166.322614 C311.528615,163.434414 322.861658,155.209325 335.031861,147.224919 C342.074463,142.610078 349.12753,137.984773 356.170132,133.359468 C359.445517,131.203783 361.873279,129.696897 365.483528,129.299246 C368.779843,129.058563 372.065693,130.439876 374.587635,132.585096 C383.754529,140.339284 383.325485,154.884926 372.285447,160.661324 Z" id="Path" fill="#ECECEC"></path>
            <g id="Group" fill="#FFFFFF">
                <path d="M352.60174,81.4869884 C354.642316,83.2345584 356.860788,83.9880017 357.561909,83.1717714 C358.26303,82.3555412 357.174723,80.2731075 355.123683,78.5360021 C353.083107,76.7884322 350.864635,76.0349888 350.163514,76.8512191 C349.462393,77.6569849 350.561165,79.7394185 352.60174,81.4869884 Z" id="Path"></path>
                <path d="M337.961918,73.0840025 C340.044352,73.8374458 342.02214,73.6386205 342.388398,72.6340294 C342.754655,71.6294383 341.362877,70.2062676 339.280444,69.4528242 C337.19801,68.6993809 335.220222,68.8982062 334.853964,69.9027973 C334.487707,70.9073884 335.879484,72.3305592 337.961918,73.0840025 Z" id="Path"></path>
                <path d="M366.142791,108.234226 C367.220634,108.234226 368.141509,108.024937 368.654269,107.376138 C368.748449,107.261029 368.758914,107.145919 368.717056,107.009881 C368.811236,106.894772 368.84263,106.748269 368.800772,106.601766 C368.675198,106.204115 368.21476,106.329689 367.775252,106.00529 C367.628749,105.900645 367.576426,105.775071 367.565962,105.754142 C367.691536,105.555317 369.313532,105.199524 370.244872,105.115808 C370.632058,105.084415 370.789025,104.592584 370.485555,104.341436 C369.972795,103.922856 369.44957,103.493812 369.104242,102.991517 C368.769378,102.51015 368.664734,102.007855 368.821701,101.683455 C369.229816,100.835832 371.678507,100.396323 373.269109,100.532361 C373.844656,100.574219 373.928372,99.7161311 373.352825,99.6533442 C371.741294,99.5068413 368.717056,99.8730985 368.036864,101.296269 C367.524104,102.374112 368.298476,103.556599 369.187958,104.372829 C368.664734,104.46701 368.141509,104.592584 367.649678,104.760016 C366.216043,105.230918 366.529977,106.507586 367.806645,106.999417 C367.419459,107.281958 366.802054,107.33428 366.142791,107.355209 C365.55678,107.376138 365.577709,108.234226 366.142791,108.234226 Z" id="Path"></path>
                <path d="M333.211039,85.913468 C333.776122,85.850681 333.713335,84.9925928 333.116859,85.0449153 C331.191393,85.2542051 330.343769,87.598251 331.672759,88.9900282 C332.07041,89.3981434 332.708744,88.8016674 332.311093,88.3830878 C331.473934,87.514535 332.007623,86.0390419 333.211039,85.913468 Z" id="Path"></path>
                <path d="M401.366267,234.697596 L401.962743,234.582486 C402.203426,234.540628 402.360393,234.310409 402.308071,234.069726 L400.403534,224.12846 L389.101884,135.400044 C389.07049,135.159361 388.850736,134.991929 388.610053,135.023322 L378.480426,136.310455 C375.592226,131.904904 370.778561,128.535338 365.525386,128.859737 C365.326561,128.838808 351.042531,127.719108 348.08108,128.200475 L347.746217,116.07213 C349.692612,115.55937 351.607614,114.816391 353.470293,113.853658 C353.53308,113.822264 358.796719,111.028245 360.471037,109.228353 C362.762761,113.633904 367.858968,114.188522 371.971513,111.666579 C377.789769,108.077259 380.165209,99.9568144 375.142253,95.8861275 C379.600126,94.3164539 381.26398,94.0129837 382.456932,92.6525999 C382.770867,92.2863428 382.959228,91.9096211 383.074337,91.5119705 C390.357623,84.9925928 394.198091,76.401246 394.438774,68.7830968 C394.909676,53.8816622 384.120786,40.4138628 368.549624,39.4302006 C364.970768,35.2025464 357.854915,28.0029769 349.598432,26.2240135 C346.773019,25.617073 342.786048,25.7635759 340.096674,27.9715834 C336.465496,30.9644277 338.097956,35.3909073 338.861864,39.4615941 C339.374624,42.1300392 340.452467,48.1471213 342.116321,50.0411941 C340.808259,51.5899387 340.054816,53.3270442 340.012958,55.6396966 C334.456314,61.0393738 328.805489,68.615665 327.957865,76.3489236 C321.658242,86.8552721 316.97015,101.27534 325.28942,110.337589 C327.570679,112.817673 330.364698,114.617566 333.587761,115.716337 L333.974947,129.780613 C333.838909,129.717826 333.681941,129.686432 333.524974,129.707361 C331.222786,130.073618 328.585734,130.54452 326.294011,131.59097 C321.312913,132.114194 316.007417,134.698923 311.737905,138.717288 C309.822903,140.51718 307.771863,142.903084 305.501068,145.96918 L305.501068,74.4339218 C305.501068,73.7851233 304.977844,73.2618988 304.329045,73.2618988 L175.856494,73.2618988 C175.21816,73.2618988 174.684471,73.7851233 174.684471,74.4339218 L174.684471,159.583482 C174.684471,160.23228 175.207695,160.755505 175.856494,160.755505 L220.487546,160.755505 L212.869397,189.323564 L151.264941,189.323564 C151.024258,189.323564 150.825432,189.52239 150.825432,189.763073 L150.825432,201.305406 C150.825432,201.546089 151.024258,201.744915 151.264941,201.744915 L170.917254,201.744915 C166.972141,209.823501 124.339807,334.04747 124.256091,334.570694 C111.196406,339.949442 96.6089064,340.043623 84.7317096,334.392798 C68.2187434,326.533965 58.6855924,307.446734 63.028356,290.944233 C66.4921024,277.779903 77.4588886,267.838637 84.6479936,256.191659 C98.0948641,234.415054 98.8797009,205.941175 86.6257824,185.336593 C86.3223121,184.834298 85.5793333,185.284271 85.8723391,185.786566 C97.9692902,206.119072 97.1844534,234.226694 83.9050148,255.731222 C76.7159098,267.3782 65.7072656,277.32993 62.1807323,290.714014 C57.7333238,307.614166 67.4757645,327.140906 84.3549879,335.177635 C99.5180348,342.398133 119.526141,340.566847 135.327522,329.516345 C149.067398,319.899478 159.113309,304.223671 163.602575,285.377124 C166.637278,272.641839 167.453508,258.22177 176.170429,248.489794 C184.364125,239.343829 197.580776,236.602133 208.861497,231.673358 C220.937519,226.409719 231.977557,215.631294 229.424221,203.408769 C229.309112,202.843686 228.451024,203.021582 228.566133,203.586665 C231.014824,215.327823 220.257328,225.750456 208.505705,230.867592 C197.19359,235.796367 183.872294,238.558993 175.511166,247.893318 C166.605884,257.834584 165.789654,272.390691 162.744487,285.157369 C157.700603,306.285176 144.902531,325.550303 125.323469,334.099792 C140.633018,289.35363 169.473155,205.752815 171.806736,201.73445 L267.56729,201.73445 C264.239582,205.920246 264.302369,205.114481 259.111981,213.370964 L258.01321,214.197658 C244.304727,224.567969 248.773065,220.057773 229.173074,235.817296 C215.872706,246.512005 199.202772,257.656688 181.475925,281.411082 C179.560924,283.985346 205.690757,298.269376 208.505705,299.828585 L192.631072,327.747846 L175.448379,346.46882 C168.353454,351.638278 165.957086,352.883553 162.639842,354.599729 C162.37823,354.735767 162.106153,354.88227 161.823612,355.028773 C161.739896,355.039238 161.666645,355.081096 161.614322,355.143883 C159.490031,356.253119 156.779727,357.718147 152.363712,360.438915 C152.279997,360.386592 152.175352,360.33427 152.081171,360.281947 C152.018384,360.219161 151.945133,360.177303 151.850952,360.156374 C146.409417,357.079813 136.143752,356.943775 130.43014,359.999406 C125.365327,362.709709 122.508521,365.116542 120.980705,370.746438 C120.959776,370.809225 120.949312,370.872012 120.928383,370.924334 C119.75636,371.12316 118.657588,371.782423 117.925074,372.828872 C116.407723,375.005486 117.046057,378.019259 119.316851,379.400572 L151.118438,398.571519 C151.746307,398.94824 152.447428,399.167995 153.159014,399.220317 L212.524069,403.552616 C214.899508,403.730513 217.002871,402.077123 217.400522,399.743542 L217.53656,399.011027 C217.934211,396.68791 216.500575,394.511296 214.334426,393.862498 L225.060529,353.050984 C225.102387,352.894017 225.060529,352.73705 224.945419,352.62194 C224.872168,352.548689 224.767523,352.517295 224.662878,352.517295 L230.533457,332.122003 L242.640873,311.705782 C246.073226,312.417367 268.28934,316.257835 268.404449,315.786933 C268.446307,315.619502 268.854422,315.786933 268.959067,315.357889 C274.149454,293.581284 278.45036,272.432549 286.215012,251.618677 C287.271925,248.814193 288.09862,245.716704 289.459004,243.079653 C291.164716,239.6473 290.850781,239.521726 296.564393,238.851998 C293.801768,252.455836 292.912286,266.687543 292.064662,280.469278 C291.060071,296.74156 289.919442,305.803809 291.164716,322.170273 C291.091465,322.274918 290.98682,322.369098 290.997284,322.567923 C291.59376,330.175608 292.682067,337.814686 294.220347,345.286332 C294.869146,348.457073 324.242971,337.898402 325.927754,337.301926 L336.256206,367.701271 L337.543338,394.082252 C337.344513,395.997254 333.336613,416.633229 333.388936,420.515555 C333.263362,420.473698 333.127323,420.484162 333.022678,420.557413 C327.424176,419.531893 321.344307,422.284054 318.550288,427.265152 C315.065613,433.439201 317.524768,441.38175 320.842011,443.108391 C318.801436,446.655853 322.233789,450.998617 326.189366,449.7952 L361.224481,446.20588 C361.904673,446.007055 362.532542,445.630333 363.034838,445.138502 L404.578865,404.745568 C406.378758,402.997998 406.525261,400.141192 404.913729,398.13201 C403.427771,396.29026 400.937223,395.787964 398.948969,396.729768 L384.926552,375.696142 L377.643266,361.443506 C377.46537,361.098178 376.994468,361.140036 376.847965,361.464435 C376.847965,361.464435 376.847965,361.464435 376.847965,361.464435 L364.677763,342.272559 L357.4468,319.669259 C360.701256,317.241498 368.350799,311.046519 371.270392,308.650151 C374.106269,319.125106 377.214222,330.615117 380.636111,343.224828 C380.793078,343.78991 381.630237,343.549227 381.483735,342.994609 C381.358161,342.544636 377.37119,327.821098 372.023835,308.032746 C374.734138,305.803809 376.963075,303.909737 377.486299,303.302796 C377.496764,303.302796 377.496764,303.302796 377.507228,303.302796 C377.863021,303.302796 378.072311,302.905145 377.863021,302.61214 C373.959766,297.045031 370.558806,292.283687 366.017217,285.837561 C362.208143,271.752357 358.210707,256.913709 354.642316,243.665664 L386.695051,237.533473 L402.21389,338.8716 C402.862689,343.120183 407.079879,346.175814 411.495894,345.077043 C415.284039,344.156167 417.785052,340.420344 417.178112,336.569412 L401.366267,234.697596 Z M388.285653,135.954662 L399.189653,221.470479 L367.314814,227.571277 C369.093778,225.436521 369.983259,223.626165 369.585609,222.79947 C369.376319,222.359961 368.72752,221.972775 367.754323,221.690234 C370.161156,215.830119 369.753041,208.09686 366.760196,201.755379 L376.43985,201.755379 C376.680533,201.755379 376.879359,201.556554 376.879359,201.315871 L376.879359,189.773537 C376.879359,189.532854 376.680533,189.334029 376.43985,189.334029 L365.745141,189.334029 C365.504457,180.397354 365.567244,170.518875 365.786999,164.533186 C368.0264,163.382092 370.265801,162.230998 372.484273,161.058975 C381.577915,156.297632 383.859174,145.477349 378.982721,137.147614 L388.285653,135.954662 Z M338.683968,241.79252 C343.120912,241.175115 348.175261,240.024021 352.319199,238.381096 C352.71685,239.846125 353.124965,241.373941 353.543545,242.954079 L340.609434,245.423698 C339.950171,244.199353 339.311837,243.016866 338.683968,241.79252 Z M365.786999,201.744915 C368.853094,207.950358 369.313532,215.631294 366.927628,221.397228 C364.374292,227.581742 358.168849,231.202456 351.712259,232.730271 C347.348566,216.510311 344.104574,204.319179 343.476705,201.755379 L365.786999,201.755379 L365.786999,201.744915 Z M312.041375,189.323564 C313.935448,188.486405 314.008699,188.49687 317.441052,187.021376 C317.441052,187.827142 317.441052,188.601514 317.430587,189.323564 L312.041375,189.323564 Z M318.320069,186.655119 C329.077566,182.103066 339.050225,177.582406 348.855453,172.88385 C352.936604,172.412947 356.996826,171.74322 361.004726,170.832809 C362.229072,170.424694 363.851068,170.278191 364.792872,169.304994 C364.667298,176.044126 364.677763,182.762329 364.855659,189.323564 L318.309605,189.323564 C318.330534,188.49687 318.330534,187.596923 318.320069,186.655119 Z M374.315558,132.909495 C383.346414,140.559038 382.729009,154.696565 372.086622,160.263674 C338.401427,177.844018 317.106188,186.037714 309.896154,189.323564 L284.959273,189.323564 C276.158636,180.638037 268.257946,170.675842 260.451436,160.755505 L291.928624,160.755505 C293.833161,165.495919 294.743572,171.02117 294.523817,175.949945 C296.993437,172.632702 299.463057,169.325923 301.932677,166.008679 C308.828776,163.978568 313.705229,161.017117 316.331816,159.646269 L316.331816,159.646269 C322.526794,156.140665 327.916007,152.394377 356.421279,133.725726 C359.026938,132.009549 361.988389,130.063154 365.305632,129.749219 C365.44167,129.770148 369.763505,129.037634 374.315558,132.909495 Z M243.844289,189.323564 L250.708995,160.755505 L259.3422,160.755505 C264.490729,167.306276 272.872786,177.969592 279.360771,184.802904 C278.261999,186.456294 277.362053,187.827142 276.357462,189.334029 L243.844289,189.334029 L243.844289,189.323564 Z M279.978176,185.462167 C281.369953,186.958589 283.054736,188.674766 283.713999,189.323564 L277.414375,189.323564 C278.167819,188.182935 278.75383,187.293453 279.978176,185.462167 Z M295.057507,162.042637 C294.691249,161.613593 294.324992,161.184549 293.958735,160.74504 L295.873737,160.74504 C295.60166,161.195013 295.329583,161.624058 295.057507,162.042637 Z M334.906287,131.256106 L334.717926,124.443722 C336.298064,124.579761 344.428973,120.613719 346.898593,117.286011 L347.254386,130.24105 C347.003238,130.984029 346.490478,131.695614 345.674248,132.469987 C342.733726,135.18029 337.281726,134.971 334.906287,131.256106 Z M393.570221,68.7412389 C393.329538,76.3907815 389.384425,84.4589038 383.032479,90.3608765 C384.194038,66.0309358 378.145562,51.2132171 369.344925,40.3720048 C384.162644,41.784711 394.00973,54.7502149 393.570221,68.7412389 Z M339.730417,39.2836978 C338.966509,35.2339399 337.459622,31.267898 340.661757,28.6413108 C343.120912,26.6216641 346.919522,26.5379482 349.420535,27.0716372 C357.499122,28.8087427 364.53126,35.9978477 368.005471,40.120857 C376.774714,50.5748832 382.854583,64.5659071 382.258107,87.6610379 C378.878076,73.8060523 370.715774,61.876533 360.40825,52.2805951 C357.949095,50.0307296 355.301579,47.8750446 351.952942,47.2890331 C348.991491,46.7762731 344.544083,50.5330252 343.120912,49.7377239 C341.436129,48.7645263 340.096674,41.1673061 339.730417,39.2836978 Z M325.948683,109.730649 C316.865505,99.8521695 324.588299,83.8519633 328.334587,77.4372306 C331.798333,71.4933999 336.036452,66.355335 342.23143,63.2264523 C348.112474,73.7118719 362.260465,81.6230268 371.762223,81.2672341 C369.627467,89.8481164 367.325279,93.186289 362.312788,99.7684536 C360.82683,101.704384 364.248718,100.752116 364.876588,100.344001 C368.21476,98.19878 366.979951,98.7638625 374.169056,96.2314557 C379.254798,99.7370601 377.015397,107.533106 371.521539,110.923601 C367.660142,113.288575 362.836012,112.723493 360.962868,108.181904 C360.962868,108.181904 360.962868,108.181904 360.962868,108.181904 C360.774508,107.721466 360.073387,107.888898 360.115245,108.391194 C359.665272,109.207424 354.579529,112.294449 353.072642,113.079286 C344.09411,117.725519 332.761066,117.139508 325.948683,109.730649 Z M333.650548,130.54452 C333.776122,131.371215 334.644675,132.4072 334.906287,132.71067 C337.511945,135.672121 342.974409,136.163952 346.270724,133.108321 C347.484605,131.967691 348.363622,130.649165 348.321764,128.995776 C349.849579,128.786486 357.363084,129.163208 362.396504,129.498071 C360.094316,130.282908 357.917702,131.68515 355.929448,132.993211 C329.60079,150.238692 322.275647,155.240718 316.258565,158.673071 C315.787662,151.693256 317.922419,145.498278 320.810618,139.07308 C322.21286,135.933733 323.374418,133.924551 326.607946,132.396735 C328.815953,131.371215 331.306502,130.921242 333.650548,130.54452 Z M324.190648,132.80485 C322.066357,134.36406 321.082695,136.310455 320.015317,138.706823 C316.97015,145.498278 314.835394,151.860688 315.410941,159.154438 C310.18916,162.084495 304.820876,164.522721 299.044477,165.872641 C299.034013,165.872641 299.013084,165.862176 299.002619,165.862176 C298.918904,165.77846 298.479395,165.904034 295.664447,162.733294 C296.072562,162.09496 296.491142,161.435697 296.920186,160.74504 L304.33951,160.74504 C304.988308,160.74504 305.511533,160.221816 305.511533,159.573017 L305.511533,147.434208 C310.461237,140.559038 315.839985,134.688459 324.190648,132.80485 Z M175.573953,159.583482 L175.573953,74.4234573 C175.573953,74.2560254 175.699527,74.1304515 175.866958,74.1304515 L304.33951,74.1304515 C304.506942,74.1304515 304.64298,74.2560254 304.64298,74.4234573 C304.64298,165.611029 304.799947,159.876488 304.33951,159.876488 C270.957785,159.876488 285.189492,159.876488 250.918285,159.876488 L256.809793,135.347722 C256.87258,135.06518 256.66329,134.803568 256.380749,134.803568 L227.749903,134.803568 C227.551078,134.803568 227.373181,134.939607 227.320859,135.127967 L227.195285,135.619798 L191.218366,159.876488 L175.866958,159.876488 C175.699527,159.876488 175.573953,159.750914 175.573953,159.583482 Z M228.084767,135.682585 L255.826131,135.682585 L245.508143,178.649784 C243.111775,180.460141 233.610018,186.833015 229.989304,189.3131 L213.790272,189.3131 L228.084767,135.682585 Z M151.714914,190.202581 C167.547688,190.202581 365.964895,190.202581 376.000341,190.202581 L376.000341,200.865897 C365.65096,200.865897 169.399903,200.865897 151.714914,200.865897 L151.714914,190.202581 Z M268.707919,201.744915 L276.692325,201.744915 C271.083359,204.601721 266.185977,208.065467 261.18395,211.832684 C266.981278,203.073905 264.553516,207.144592 268.707919,201.744915 Z M272.977431,294.313799 C271.439151,300.791318 269.911336,307.509521 268.310268,314.248653 C250.09159,291.289561 212.262457,281.097147 182.731664,281.24365 C187.116286,275.425393 192.097383,269.617601 196.858727,264.657432 C224.882632,262.470354 252.885609,272.736019 272.977431,294.313799 Z M229.895123,331.46274 L193.69845,327.643201 L217.222625,286.308463 C227.938264,288.955979 239.710816,293.256885 249.160251,298.970497 L229.895123,331.46274 Z M209.280077,356.012435 C211.634587,350.225572 218.624867,333.00102 219.336452,331.232522 L223.396675,331.661566 L214.376284,355.112489 C212.722894,355.457817 211.017182,355.761288 209.280077,356.012435 Z M202.614196,356.671698 C204.110619,352.988198 212.231063,333.00102 213.204261,330.583723 L218.436506,331.138341 C217.32727,333.890502 210.357919,351.062731 208.28595,356.148474 C206.402342,356.389157 204.508269,356.577518 202.614196,356.671698 Z M189.732408,355.60432 L191.8567,350.393004 C195.069299,342.523707 199.830642,330.845335 200.47944,329.244268 L206.077943,329.840744 C205.293106,331.78714 197.392416,351.156912 195.184408,356.53566 C193.321729,356.347299 191.500907,356.043829 189.732408,355.60432 Z M181.454996,351.941748 C195.739026,327.193228 194.828615,328.773366 194.849544,328.647792 L199.56903,329.150088 C198.648154,331.420882 194.127494,342.502778 191.04047,350.068605 L188.87432,355.384566 C186.195411,354.620658 183.683933,353.500958 181.454996,351.941748 Z M174.349607,359.486646 C174.391465,356.096151 172.811327,353.176558 169.97545,351.376666 C171.492801,350.372075 173.313623,349.105872 175.668133,347.40016 C177.070375,349.398877 178.723764,351.031338 180.55505,352.381257 C180.586444,352.412651 180.617837,352.444044 180.649231,352.464973 C180.659695,352.475437 180.67016,352.464973 180.691089,352.475437 C181.591035,353.124236 182.522374,353.689318 183.506037,354.202078 L174.349607,359.486646 Z M193.164761,328.469896 L193.939134,328.553612 C192.913614,330.34304 184.615273,344.731714 180.743411,351.428988 C179.090021,350.162785 177.604064,348.634969 176.33786,346.803684 L193.164761,328.469896 Z M206.977889,329.92446 L212.29385,330.489543 C210.912537,333.890502 202.509551,354.599729 201.651463,356.713556 C199.788784,356.776343 197.936569,356.74495 196.115748,356.608911 C197.978427,352.046393 206.946496,330.081428 206.977889,329.92446 Z M169.169684,351.899891 C171.995097,353.532351 173.56477,356.336835 173.47059,359.61222 C173.47059,359.727329 173.512448,359.842439 173.585699,359.91569 L171.137009,361.328397 L166.574491,363.756158 C166.679136,360.606347 165.193178,357.487928 162.723558,355.541533 C162.828203,355.489211 162.932848,355.426424 163.037493,355.374101 C165.025746,354.359046 166.679136,353.500958 169.169684,351.899891 Z M161.875934,355.991506 C164.387412,357.780934 165.894299,360.867959 165.716402,363.954984 C165.716402,364.0387 165.737331,364.122416 165.779189,364.195667 L153.692703,370.620864 C153.84967,367.491982 153.462484,364.352634 152.478822,361.35979 C152.510215,361.349326 152.552073,361.349326 152.583467,361.328397 C157.020411,358.5867 159.751643,357.100742 161.875934,355.991506 Z M121.828329,370.976657 C123.282893,365.618838 125.899016,363.421295 130.84872,360.763314 C136.237932,357.875115 146.25245,358.011153 151.400979,360.899352 C154.435682,369.250016 152.61486,379.02385 146.85939,385.762982 C138.65523,381.514399 126.872213,374.262507 121.776006,371.12316 C121.8074,371.081302 121.817864,371.028979 121.828329,370.976657 Z M219.828283,369.490699 C214.240245,369.448841 208.620814,371.437094 204.591985,375.319421 C200.092254,379.672649 197.894711,386.338529 199.066734,392.439327 L154.488004,388.99651 C153.169478,388.78722 150.710323,387.719842 147.675621,386.181562 C151.097509,382.089946 153.138085,376.951881 153.619451,371.667313 L154.194998,371.395237 C154.257785,371.363843 154.310108,371.321985 154.351966,371.269663 L171.576517,362.102769 L184.385054,354.714838 C184.405983,354.704374 184.416447,354.683445 184.437376,354.672981 C185.871011,355.342708 187.388363,355.886861 188.958036,356.315906 C188.968501,356.315906 188.968501,356.32637 188.978965,356.32637 C189.031288,356.347299 189.08361,356.357764 189.146397,356.357764 C191.145115,356.891453 193.227548,357.236781 195.35184,357.425142 C195.393698,357.435606 195.44602,357.456535 195.487878,357.456535 C195.498343,357.456535 195.519272,357.446071 195.529736,357.446071 C199.820177,357.812328 204.27805,357.582109 208.599885,357.006562 C208.599885,357.006562 208.599885,357.006562 208.599885,357.006562 C208.599885,357.006562 208.599885,357.006562 208.599885,357.006562 C214.240245,356.253119 219.629458,354.913664 224.024544,353.595138 L219.828283,369.490699 Z M223.679216,352.757979 C221.188667,353.500958 218.394648,354.254401 215.401804,354.892735 L224.307085,331.755746 L229.56026,332.310364 L223.679216,352.757979 Z M288.663703,242.661073 C287.271925,245.371376 286.413837,248.521188 285.377853,251.294278 C280.114214,265.400411 276.420249,279.789086 273.218115,293.298743 C264.762806,284.330675 254.51807,276.974138 243.404781,271.919789 C252.833287,252.769771 265.432534,235.566148 280.867657,220.800752 C283.734928,218.059056 287.125423,215.128998 291.196109,215.034818 C291.771656,215.024353 291.761192,214.145336 291.17518,214.155801 C286.999849,214.249981 283.462851,217.106787 280.260717,220.172883 C264.752342,235.021995 252.079844,252.309333 242.599015,271.574461 C228.587062,265.348089 213.078687,262.700572 197.758673,263.736557 C209.269612,251.911683 215.872706,247.663099 229.717227,236.528881 C249.024212,221.010042 245.361641,224.881903 257.782991,215.495255 L257.782991,215.495255 C264.815129,210.189759 270.85314,205.501667 278.65965,201.755379 L311.486757,201.755379 C306.108009,209.049129 300.174642,221.397228 296.721361,237.931123 C290.390344,238.653173 290.515918,238.935714 288.663703,242.661073 Z M292.933215,280.500671 C294.555211,254.308051 296.229529,227.707316 310.147302,205.292377 C310.942603,204.005245 311.758834,202.822757 312.585528,201.744915 L342.608152,201.744915 C342.974409,203.314588 344.523154,209.33167 350.843706,232.908168 C347.505533,233.577895 344.125503,233.58836 339.908313,233.201173 C336.277135,232.123331 332.58317,231.275707 328.815953,231.348959 C332.175055,233.818578 334.487707,236.853281 336.339922,238.977572 C337.428229,241.520443 339.87692,245.91553 340.860582,247.778209 C347.463676,260.230953 354.924857,271.543067 364.049893,284.550429 C351.701794,284.906222 339.385089,287.689776 328.209013,292.649945 C325.718464,286.465431 324.127861,279.956518 323.719746,274.263835 C323.280238,268.142108 321.616384,262.104097 320.779224,256.003298 C318.916545,242.357603 319.031655,228.586333 321.124553,215.055747 C321.208269,214.4802 320.35018,214.344161 320.256,214.919708 C318.152637,228.534011 318.027063,242.399461 319.910672,256.118408 C320.737366,262.208741 322.411685,268.267681 322.840729,274.316157 C323.248844,280.113485 324.87084,286.737507 327.403247,293.005737 C313.56919,299.305361 301.336201,309.037337 291.949553,321.102895 C290.840317,305.27012 291.928624,296.762489 292.933215,280.500671 Z M347.17067,392.847442 C337.909596,364.980504 338.474678,366.707145 338.401427,366.623429 L341.907031,363.431759 C343.37206,366.382746 352.967998,385.888556 354.652781,389.320909 C352.235483,390.869654 349.73447,392.07307 347.17067,392.847442 Z M355.395759,388.829078 C354.433026,386.882683 343.67553,364.990968 342.587223,362.814354 C352.078516,354.16022 351.17857,354.976451 351.356466,354.809019 C353.062178,358.251836 363.871997,380.122622 363.987106,380.352841 C364.11268,380.614453 364.478937,380.698169 364.698692,380.457485 C361.810492,383.732871 358.681609,386.600141 355.395759,388.829078 Z M364.771943,379.965654 C364.656834,379.724971 353.292397,356.734485 352.026193,354.191614 C353.32379,353.009127 354.621387,351.826639 355.918984,350.633687 C356.756143,352.31847 360.303606,359.497111 368.392657,375.863574 C367.220634,377.454177 365.996288,378.981992 364.719621,380.426092 C364.824265,380.300518 364.855659,380.122622 364.771943,379.965654 Z M368.978668,375.057808 C368.884488,374.869447 357.132865,351.08366 356.599176,350.016282 C357.603767,349.105872 358.608358,348.184996 359.612949,347.274586 L371.804081,370.840619 C370.904135,372.284718 369.951866,373.697424 368.978668,375.057808 Z M336.884076,366.81179 L321.58499,321.772622 C330.710026,315.525321 341.50938,309.675671 352.256412,306.306105 L363.767352,342.293488 C357.499122,348.017564 350.498378,354.400904 336.884076,366.81179 Z M370.422768,302.109844 C369.229816,297.704294 367.995006,293.120847 366.728803,288.42229 C372.714491,296.898528 373.478399,297.955441 376.408457,302.130773 C374.430668,302.026128 372.43195,302.015664 370.422768,302.109844 Z M291.876301,322.641175 C301.367594,310.146573 313.788945,300.121591 328.031116,293.696394 C328.114832,293.685929 328.198548,293.675465 328.303193,293.57082 C339.594379,288.516471 352.08898,285.701523 364.594047,285.408517 C364.803336,285.711987 365.023091,286.015458 365.242845,286.329392 C366.592764,291.31049 368.015935,296.584593 369.522822,302.172631 C342.357004,303.73184 312.993643,323.698088 294.900539,344.218954 C293.466904,337.113565 292.451848,329.861673 291.876301,322.641175 Z M337.721235,367.240834 C338.474678,369.490699 345.653319,391.078943 346.323046,393.088126 C343.717388,393.768317 341.069872,393.998536 338.390962,393.684602 L337.124759,367.784987 L337.721235,367.240834 Z M338.359569,394.563619 C341.875638,394.982198 345.297526,394.511296 348.583376,393.391596 C347.850862,396.740233 347.118347,399.199388 346.343975,402.286413 C346.323046,402.23409 346.291653,402.192232 346.249795,402.150374 C343.591814,399.659826 341.823315,399.27264 338.370033,400.455127 C337.82588,400.643488 338.097956,401.470183 338.652574,401.281822 C341.791922,400.214444 343.225557,400.517914 345.653319,402.788708 C345.799822,402.924747 346.03004,402.95614 346.218401,402.809637 C345.695177,404.954858 345.035914,407.89538 344.638263,410.448716 C342.304682,408.439533 339.562985,407.811664 336.465496,408.627894 C335.900413,408.774397 336.141097,409.632485 336.68525,409.475518 C339.657166,408.690681 342.273288,409.370873 344.470831,411.474236 C343.759246,416.413475 343.434847,421.007387 342.34654,425.664085 C339.845526,423.759548 337.051507,422.294519 334.288882,420.913206 C334.278417,420.892277 334.278417,420.871348 334.257488,420.860884 C333.838909,418.977275 337.867738,397.818075 338.359569,394.563619 Z M384.131251,376.083328 L384.078928,375.999612 C374.639958,386.045523 376.670069,401.051603 387.333385,407.215188 L355.406224,438.022648 C353.386577,439.696967 349.462393,439.696967 346.919522,439.979508 C338.485143,440.910848 334.163308,440.827132 328.920598,442.041013 C325.613819,442.815385 321.762887,443.788583 319.847885,441.07828 C317.252691,437.352921 317.012008,431.71256 319.293267,427.673267 C321.951247,422.953782 328.093903,420.212085 333.524974,421.530611 C336.946862,423.236323 340.442002,425.036215 343.319737,427.61048 C345.255668,429.347586 348.531054,432.968299 348.740343,437.823823 C348.761272,438.409834 349.64029,438.367976 349.619361,437.79243 C349.472858,434.140322 347.599714,429.964991 343.099983,426.28149 C343.727852,424.6281 344.596405,417.428531 344.753372,416.09954 C346.260259,403.646797 347.955507,400.633023 349.546109,393.025339 C361.454699,388.420963 371.40643,375.078737 377.25608,362.615529 L384.131251,376.083328 Z M372.33777,369.961601 L360.282677,346.657181 C361.580273,345.474693 362.888335,344.281741 364.185932,343.099254 L376.397992,362.374846 C375.184111,364.94911 373.823727,367.502446 372.33777,369.961601 Z M364.520795,283.681876 C351.534362,265.128334 346.626516,256.620703 341.038478,246.239929 L353.763299,243.801702 C356.599176,254.297587 360.115245,267.3782 364.520795,283.681876 Z M353.135429,238.035768 C358.106062,235.911476 362.99298,232.311692 366.37301,228.638656 L399.179188,222.359961 C399.524516,224.170318 401.115119,232.468659 401.366267,233.808114 L354.412097,242.786647 C353.972589,241.175115 353.554009,239.584513 353.135429,238.035768 Z M411.286604,344.198025 C407.36242,345.160759 403.65799,342.450455 403.082443,338.714632 L387.647319,237.941588 L403.459165,253.868542 L416.320024,336.684521 C416.843248,340.075016 414.635241,343.381795 411.286604,344.198025 Z" id="Shape"></path>
                <path d="M340.90244,104.236791 C344.439438,103.95425 348.771737,101.034657 349.326355,97.6127685 C349.608896,95.8233406 348.719414,93.9920547 347.233457,93.3746498 C345.925395,92.8200318 344.345257,93.1339665 342.398862,94.3164539 C339.018832,96.4407455 338.788613,96.1268108 336.360851,95.5617283 C332.897105,94.7559625 331.526256,98.9312943 334.770248,102.133428 C336.350386,103.682173 338.683968,104.414687 340.90244,104.236791 Z M334.403991,96.7128223 C335.398118,95.7919471 336.821289,96.7860737 338.328175,96.8488607 C341.593096,96.9325766 344.135968,92.9979281 346.898593,94.1699511 C347.89272,94.5885307 348.395015,95.6245153 348.478731,96.6291064 C347.798539,95.6873022 347.05556,96.2314557 346.323046,97.1418664 C344.889411,98.8999008 342.430256,99.7579891 340.211784,99.266158 C339.092083,99.0150102 338.045634,98.4603922 336.905004,98.2720314 C335.722517,98.0732061 334.236559,98.4394632 334.037734,99.5068413 C333.723799,98.6382886 333.723799,97.3406917 334.403991,96.7128223 Z" id="Shape"></path>
                <path d="M348.792666,83.0461975 C351.492504,84.3542589 352.015729,85.2542051 352.444773,85.2542051 C352.863353,85.2542051 353.041249,84.720516 352.71685,84.4693683 C351.618078,83.61128 350.425126,82.8683012 349.179852,82.2613607 C348.656627,81.9997485 348.269441,82.7950498 348.792666,83.0461975 Z" id="Path"></path>
                <path d="M334.833035,75.8152345 C338.370033,77.2593342 338.22353,77.2384219 338.390962,77.2384219 C338.872329,77.2384219 338.997903,76.5791423 338.558394,76.3907815 L335.167899,74.9990043 C334.623746,74.77925 334.288882,75.5954802 334.833035,75.8152345 Z" id="Path"></path>
                <path d="M418.182703,58.2348903 L412.615594,65.1414541 L412.730704,52.9293935 C412.730704,52.5736009 412.333053,52.3643111 412.040047,52.5631364 L403.385913,58.569754 C402.904547,58.9046177 403.406842,59.6162031 403.888209,59.2918038 L411.841222,53.7665528 L411.726112,66.397193 C411.726112,66.8053081 412.238872,67.0041334 412.510949,66.6797342 L418.87336,58.7895083 C419.030327,58.6011475 418.998933,58.3290707 418.810573,58.1721033 C418.611747,58.015136 418.329206,58.0465295 418.182703,58.2348903 Z" id="Path"></path>
                <path d="M419.762841,34.5223545 L411.024992,40.8324424 L411.966796,26.3600519 C411.987725,26.0251882 411.642396,25.7845049 411.338926,25.9414722 L398.959434,32.0108768 C398.73968,32.1155217 398.655964,32.377134 398.760609,32.5968883 C398.865253,32.8166426 399.13733,32.9003585 399.34662,32.7957136 L411.045921,27.0611727 L410.093652,41.7009951 C410.072723,42.0672523 410.480838,42.3079356 410.784308,42.0881813 L420.275601,35.2234754 C420.474427,35.0769726 420.516285,34.8048958 420.369782,34.6060705 C420.233743,34.4177096 419.961667,34.3758517 419.762841,34.5223545 Z" id="Path"></path>
                <path d="M441.131331,10.600529 L420.736039,14.524713 L429.327386,1.18248744 C429.515746,0.899946193 429.316921,0.51276004 428.971593,0.50229555 L409.570427,0 C409.329744,0 409.130919,0.188360831 409.120454,0.429044115 C409.10999,0.6697274 409.308815,0.868552721 409.549498,0.879017212 L428.165827,1.36038378 L419.438442,14.9014346 C419.229152,15.2153694 419.501229,15.6444135 419.888415,15.571162 L441.298763,11.4586172 C441.539446,11.4167593 441.696414,11.1865405 441.644091,10.9458572 C441.602233,10.7051739 441.372014,10.558671 441.131331,10.600529 Z" id="Path"></path>
                <path d="M16.3776569,22.289365 C18.8891346,21.7452115 20.4064857,18.8988701 19.7681518,15.9374192 C19.1193534,12.9759684 16.5555532,11.0191086 14.0440754,11.5737266 C11.5325977,12.1178801 10.0152466,14.9642216 10.6535805,17.9256724 C11.2919144,20.8871233 13.8557146,22.843983 16.3776569,22.289365 Z" id="Path"></path>
                <path d="M28.474608,21.4626703 C30.9860858,20.9185167 32.5034369,18.0721753 31.865103,15.1107245 C31.2163046,12.1492736 28.6525043,10.1924139 26.1410266,10.7470319 C23.6295489,11.2911854 22.1121977,14.1375268 22.7505316,17.0989777 C23.3888656,20.049964 25.9526658,22.0068238 28.474608,21.4626703 Z" id="Path"></path>
                <path d="M42.7063153,21.4626703 C45.217793,20.9185167 46.7351441,18.0721753 46.0968102,15.1107245 C45.4480118,12.1492736 42.8842116,10.1924139 40.3727338,10.7470319 C37.8612561,11.2911854 36.343905,14.1375268 36.9822389,17.0989777 C37.6310373,20.049964 40.1948375,22.0068238 42.7063153,21.4626703 Z" id="Path"></path>
                <path d="M147.989555,153.828012 C146.388488,147.193525 114.879907,17.0361907 112.25332,6.17404946 C112.200997,5.97522414 112.033566,5.83918576 111.824276,5.83918576 C102.992246,5.80779229 -4.76061419,5.37874818 0.440237643,5.39893605 C0.157696396,5.39893605 -0.0515934161,5.66128942 0.0111935276,5.93336618 L43.5853325,205.752815 C43.6481194,206.035356 43.9620541,206.181859 44.2132019,206.056285 L147.748872,154.330308 C147.937233,154.236127 148.031413,154.026837 147.989555,153.828012 Z M6.04920461,29.4470766 L115.434525,23.0428083 L143.636327,139.596305 C137.755284,142.044996 44.9247873,180.679895 39.6611485,183.589023 L6.04920461,29.4470766 Z M111.478948,6.71820298 L115.225235,22.1847201 L5.86084378,28.5785239 L0.994855646,6.27869437 C14.3580102,6.34148131 98.0320771,6.66588052 111.478948,6.71820298 Z M44.3387758,205.0203 L39.8495093,184.447112 C44.1399505,182.103066 109.019792,154.958177 143.845617,140.464858 L147.047751,153.702438 L44.3387758,205.0203 Z" id="Shape"></path>
                <path d="M50.3035354,76.7361097 C54.7404795,68.4063752 52.2708597,57.0419384 44.7573554,51.317862 C37.2019932,45.5519277 27.4386234,47.6866837 22.9702859,56.0687407 C18.5333419,64.3984753 21.0029617,75.7629121 28.516466,81.4869884 C36.0718282,87.2424583 45.8351979,85.1181667 50.3035354,76.7361097 Z M29.050155,80.7858676 C21.8819789,75.3234035 19.5065395,64.4298687 23.7446582,56.4768559 C27.9513835,48.5866299 37.0868838,46.5669833 44.2236664,52.0085184 C51.3918425,57.4709825 53.7672818,68.3645172 49.5291631,76.3175301 C45.3119734,84.2182205 36.1764731,86.2169382 29.050155,80.7858676 Z" id="Shape"></path>
                <path d="M46.1386682,69.8504749 C46.5677123,69.8504749 46.7456086,69.2853924 46.3793515,69.0447091 C43.1248949,66.8576306 40.5087722,65.1205251 38.4054096,63.7182834 L41.9528719,54.2374549 C42.1516972,53.6933014 41.335467,53.3898311 41.1261772,53.9339846 L37.6519663,63.2264523 C29.9814947,58.1721033 29.6570954,58.1616389 29.5315216,58.1616389 C29.008297,58.1616389 28.9245811,58.9255467 29.4373411,59.0301916 C29.9396367,59.2394814 33.3510606,61.4474889 37.3275671,64.0740761 L33.5917439,74.0676646 C33.508028,74.2978834 33.6231374,74.5490312 33.8533562,74.6327471 C34.5544771,74.8943594 34.3137938,74.3083479 38.0810104,64.5763716 C46.3793515,70.0597647 45.8979849,69.8504749 46.1386682,69.8504749 Z" id="Path"></path>
                <path d="M61.6993657,60.7149746 C62.6411699,60.4219688 93.3753788,54.7920729 109.490694,51.8620155 C110.045312,51.7573706 109.919738,50.9097469 109.333727,50.9934628 C95.0706263,53.5886565 61.8354041,59.6685255 61.3540375,59.9092088 C60.809884,60.19175 61.2179992,60.9556579 61.6993657,60.7149746 Z" id="Path"></path>
                <path d="M97.4879236,65.9681489 C94.4008989,66.4913734 67.3397262,71.0748203 66.418851,71.3782905 C65.885162,71.5561868 66.1363097,72.3828816 66.6909277,72.2154498 C67.5176225,71.9538375 89.304692,68.2494078 97.6344265,66.8367016 C98.2099735,66.7320567 98.0530061,65.863504 97.4879236,65.9681489 Z" id="Path"></path>
                <path d="M65.2991505,133.955944 C70.4686089,121.241588 58.8425598,106.00529 46.7246796,109.992261 C34.7323734,113.947838 34.1882199,133.066463 46.0444878,140.297426 C53.5056696,144.859944 62.0865519,141.867099 65.2991505,133.955944 Z M46.5049253,139.554447 C35.3079204,132.721135 35.7265,114.544314 47.0072209,110.82942 C58.8111663,106.93663 69.2547279,121.890387 64.4933847,133.621081 C61.4482179,141.12412 53.4219536,143.771637 46.5049253,139.554447 Z" id="Shape"></path>
                <path d="M61.0296383,127.342386 C57.9007556,125.688997 55.3997424,124.360007 53.3696312,123.303093 L55.6718191,114.450134 C55.818322,113.885051 54.9706983,113.665297 54.8241954,114.23038 L52.5743299,122.884513 C45.217793,119.05451 44.9247873,119.096368 44.7992134,119.096368 C44.2759888,119.14869 44.2759888,119.912598 44.7992134,119.96492 C45.2805799,120.111423 48.545501,121.775277 52.3441111,123.753066 L49.9268138,133.076927 C49.7803109,133.64201 50.6279346,133.861764 50.7744375,133.296681 L53.1394124,124.171646 C61.0505673,128.294655 60.6110587,128.158617 60.8203485,128.158617 C61.2807861,128.169081 61.4377535,127.551676 61.0296383,127.342386 Z" id="Path"></path>
                <path d="M74.0579291,118.468498 C74.9055529,118.112706 102.060906,110.159693 116.303078,106.00529 C116.857696,105.837858 116.617061,105.000699 116.05193,105.168131 C103.431754,108.851631 74.0370002,117.442978 73.6184205,117.715055 C73.1056605,118.039454 73.607956,118.761504 74.0579291,118.468498 Z" id="Path"></path>
                <path d="M106.780391,119.766095 C104.049159,120.530003 80.0750112,127.195883 79.2692455,127.562141 C78.7460209,127.792359 79.0913491,128.587661 79.6250382,128.357442 C80.2947656,128.074901 96.3682231,123.564705 107.01061,120.603254 C107.586157,120.456752 107.345474,119.609128 106.780391,119.766095 Z" id="Path"></path>
            </g>
        </g>
    </g>
</svg>