<?xml version="1.0" encoding="UTF-8"?><svg id="Layer_1" xmlns="http://www.w3.org/2000/svg" viewBox="0 0 387.67 363.86"><defs><style>.cls-1,.cls-2,.cls-3,.cls-4{stroke-width:0px;}.cls-2{fill:#f6f9fc;}.cls-3{fill:#e190e1;}.cls-4{fill:#e190e1;}</style></defs><g id="Add_Notes"><path class="cls-2" d="m157.76,291.7c-44.6-.1-90.86-.12-91.44.28-1.12.74-.49-89.17-.49-89.17l75.25-1.13c.17,1.54.36,3.06.57,4.6,4.44,34.7,12.42,70,16.12,85.43Z"/><path class="cls-2" d="m141.64,206.27h-72.14c-1.03,0-2.41-.29-3.18.55-.87.93-.51,2.48-.41,3.63.74,8.38-.87-10.06,1.97,23.01.07.93.49,2.32-.33,3.05-1.07.93-3.12.36-4.4.36-16.71.03-33.42.04-50.14.07-3.18,0-7.85.91-10.88.06-1.61-.46-1.93-1.29-2.09-2.97-.33-3.47,1.02-7.01,1.7-10.36,3.54-17.09,11.6-33.77,23.62-47.6,19.79-22.81,53.32-34.34,83.36-38.47-1.29,2.89-2.05,6.17-.58,9.17,2.18,4.53,16.91,12.55,27.23,5.7,2.41-1.58,3.99-3.83,5.19-6.4.65-1.36.55-2.94.46-4.44-.13-2.39-1.04-4.16,1.25-5.3,2.12-1.06,5.93-.81,8.27-.96,7.46-.44,15.38.1,22.81.94,8.53.97,16.25,3.66,24.33,6.37,7.18,2.42,14.33,4.93,21.37,7.78l-80.2,1.57c-1.1,15.48.28,34.77,2.79,54.24Z"/><path class="cls-2" d="m375.12,202.09c0,14.87-9.27,27.59-22.33,32.65-.48-1.28-2.43-.67-2.05.68,0,.02.02.05.02.06-3.35,1.07-6.93,1.65-10.65,1.65-19.34,0-35.03-15.67-35.03-35.03,0-8.23,2.94-15.94,7.4-21.52,7.98,12.69,8.5,16.46,11.55,19.37,1.69,1.63,4.2,2.63,6.45,1.93,2.34-.75,3.81-3.22,4.09-5.68.68-6.13-6.48-20.29-9.65-25.66,4.15-2.08,9.67-3.47,15.19-3.47,19.33,0,35.02,15.69,35.02,35.02Z"/><path class="cls-2" d="m352.79,234.74c-.66.29-1.34.51-2.04.74,0-.02-.02-.05-.02-.06-.38-1.35,1.58-1.96,2.05-.68Z"/><path class="cls-4" d="m184.38,232.21c-.11.13-.05.35-.04.51,1.45,23.11,21.71,39.79,43.83,37.91,23.79-2.02,40.42-23.72,36.71-46.86-3.29-20.49-21.43-35.03-41.94-34.03-1.43.07-.99.56-.9,1.13.21,1.31.39,2.41.6,3.72.71,4.42,5.07,31.68,5.81,36.28.23,1.46.37,1.26-.68,1.26-2.45,0-40.25-.03-42.68-.03-.2,0-.53-.07-.71.12Z"/><path class="cls-3" d="m163.21,217.58l48.72,1.53c1.11.03,1.97-.98,1.75-2.07l-10.25-51.18c-.42.01-.89.09-1.31.16-24.55,3.94-41.76,25.68-40.58,49.93.04.89.79,1.6,1.68,1.62Z"/><rect class="cls-4" x="268.33" y="267.79" width="12.42" height="12.42" rx="2.59" ry="2.59" transform="translate(575.46 518.75) rotate(174.18)"/><rect class="cls-4" x="270.5" y="289.04" width="12.42" height="12.42" rx="2.59" ry="2.59" transform="translate(581.94 560.92) rotate(174.18)"/><rect class="cls-4" x="272.66" y="310.3" width="12.42" height="12.42" rx="2.59" ry="2.59" transform="translate(588.42 603.1) rotate(174.18)"/><path class="cls-1" d="m104.12,290.89c-.35,0-16.99-.4-37.2-.73v-33.28c11.88-19.38,12.39-18.97,11.88-20-.17-.34-.49-.56-.86-.6-11.61-1.21-12.44-.47-12.79-.15-.52.47-.41,1.3-.4,2.01v51.77c-35.19-.21-50.49-.31-60.82-.03,5.11-55.95,4.85-52.25,4.8-52.72h-.36c-.83.1-1.13.14-1.8.15l-4.92,53.59c-.05.6.32,1.22,1.28,1.19,24.84.18,35.46-.56,101.18.99.59,0,1.07-.47,1.09-1.06.01-.6-.46-1.1-1.06-1.11Z"/><path class="cls-1" d="m387.46,329.73c-8.46-11.96-20.14-43.97-34.67-95l-2.04.74c13.97,49.05,25.34,80.59,33.83,93.87l-166.45,5.13-6.27-39.4c-.09-.56-.6-.97-1.18-.91l-50.1,4.42c-7.09-28.37-14.14-63.43-17.85-92.46-.02-.15-.05-.3-.06-.45-.18-1.37-.35-2.75-.51-4.14-1.61-13.71-3.39-39.43-2.27-48.44l10.96-.21c1.09,3.77,4.26,13.52,6.92,16.43,1.27,1.37,2.9,2.16,4.5,2.16,3.72,0,6.06-4.15,5.42-7.72-.57-3.23-2.85-5.75-4.7-7.79-.98-1.06-2.56.38-1.62,1.46,1.66,1.83,3.71,4.09,4.17,6.7.24,1.33-.15,2.87-.98,3.94-1.46,1.84-3.68,1.43-5.19-.24-2.25-2.4-5.34-11.84-6.27-14.99l85.21-1.68c.16,0,36.66-.3,36.82-.3.18,2.98.38,5.93.56,8.89.82,12.62,11.63,20.79,19.68,25.84,1.72,1.09,4,2.3,6.4,1.89,3.41-.6,5.35-4.27,5.18-7.31-.23-4.48-3.56-7.63-6.51-10.42-4.04-3.72-4.24-4.55-5.26-6.52-.62-1.48-.62-1.95-.51-2.1.51-.61,2.51.79,3.22,1.39,3.38,2.78,14.04,17.98,21.32,32.06.08.16.14.22.2.38-2.38,2.23-1.23,7.1,2.61,7.1h3.08c2.36,1.38,5.09,1.64,7.34,0h4.29v12.02c0,2.11,1.72,3.82,3.84,3.82h1.83c2.11,0,3.84-1.71,3.84-3.82v-12.02h13.58c2.11,0,3.84-1.71,3.84-3.81v-.5c0-2.11-1.72-3.82-3.84-3.82h-13.58v-13.59c0-2.11-1.72-3.82-3.84-3.82h-1.83c-2.11,0-3.84,1.71-3.84,3.82v13.59h-1.07s0-.08-.02-.11c-.62-6.94-8.42-22.01-12.49-28.12,4.51-.45,6.48-5.07,5.47-9.51-.38-1.69-1.09-3.23-1.9-4.71.66-.09,1.3-.33,1.9-.66.76,3.17,2.22,9.2,4.17,17.03.69-.17,1.4-.29,2.13-.39,0-.15-2.25-8.95-4.44-18.23.11-.15.24-.27.33-.42,1.13-1.8,1.39-4.15.74-6.61-2.12-8.28-10.56-19.93-27.33-24.49-7.75-2.11-15.86-1.93-23.48-1.56-5.66.27-12.93.94-18.91,3.72-16.08,7.44-18.73,14.57-28.65,29.17-2.01.04-2.17-.04-2.51.11l-65.58,1.28c-.98-4.36-3.22-8.2-6.67-11.42-4.69-4.37-9.06-2.31-9.74,1.96-.23,1.46.01,2.88.3,4.3.36,1.83.78,3.64,1.25,5.44l-11.39.23c-.46,0-1.01.57-1.01.72-2.34,6.57-2.66,24.45-.95,54.66,3.56,62.5,14.84,155.64,14.95,156.58.08.54.53.95,1.09.95h217.24c.76,0,1.28-.75,1.03-1.43l-2.63-7.75h6.61c.79,0,1.25-.87,1.03-1.42l-2.99-9.06,7.29-.09c.73-.03,1.22-.68,1.03-1.39-1.69-6.04-2.84-9.26-3.65-10.99l8.74-.27c.86-.03,1.36-1.02.85-1.72Zm-124.72-207.89c5.63-2.63,12.62-3.26,18.09-3.52,7.46-.36,15.36-.54,22.8,1.48,15.33,4.18,23.72,14.81,25.81,22.94,1.14,4.39-1.54,7.17-4.06,6.54-2.23-2.28-4.74-4.3-7.43-6.03-1.21-.78-2.39,1.06-1.18,1.83,2.54,1.63,4.91,3.55,7.04,5.69,1.09,1.89,2.22,3.82,2.67,5.89.5,2.14.14,4.21-.97,5.54-.97,1.16-2.7,1.66-3.97,1.19-2.72-3.87-5.69-7.55-8.94-10.99-1.04-1.04-2.56.5-1.59,1.51,9.84,10.38,17.09,22.77,21.29,35.4.48,1.42,1.01,3.08,1.16,4.71.46,4.7-2.28,7.22-4.89,6.96-3.77-.3-5.74-4.08-7.43-7.4-7.15-13.85-18.27-29.77-21.88-32.75-1.95-1.61-4.76-3.03-6.3-1.06-1.06,1.33-.27,3.2.21,4.32.08.16.58,1.72,2.4,3.87,3.29,3.91,8.92,7.19,9.18,12.32.12,2.13-1.22,4.67-3.38,5.06-1.65.29-3.38-.63-4.88-1.57-7.64-4.8-17.89-12.52-18.65-24.15-.41-6.49-.83-12.99-1.25-19.48-.03-.59-.54-1.04-1.15-1.01-.6.05-1.06.56-1.01,1.16.17,2.66.33,5.32.51,7.99-8.04.15,20.49-.39-39.17.74,9.33-13.99,12.19-20.33,26.95-27.18Zm-111.91,19.46c.38-2.67,2.83-3.75,6.1-.71,3.02,2.81,5,6.13,5.93,9.88l-10.39.2c-.54-2.01-1.98-7.32-1.65-9.36Zm59.03,155.13l5.89,36.97-52.67-32.84,46.78-4.12Zm169.19,45.51c-232.56,3.1-205.12,2.73-207.32,2.76l-10.33-42.63,55.21,34.43c.24.12.47.17.59.17h.03c2.78-.09-24.23.75,158.27-4.88.72,1.18,2.28,5.78,3.55,10.15Z"/><path class="cls-1" d="m208.63,168.65c-23.36,2.22-44.06,24.06-42.99,50.8.07,1.68,1.46,3.05,3.17,3.1l47.72,1.5c2.07.09,3.74-1.83,3.31-3.92l-10.14-50.61c-.1-.51-.55-.87-1.07-.87Zm7.96,53.23l-47.72-1.5c-.57-.02-1.04-.46-1.06-1.01-.94-23.59,15.86-44.63,39.95-48.44l9.95,49.64c.13.67-.36,1.32-1.11,1.32Z"/><path class="cls-1" d="m326.75,268.83c-1.43-1.41-5.84-7.59-10.69-5.05-3.49,1.83-3.35,7.21-6,8.18-1.61.58-3.4-.8-3.92-1.24-1.3-1.11-2.46-2.69-4.11-3.78-2.7-1.79-6.39-1.89-9.19-.26-2.79,1.64-4.51,4.9-4.28,8.13.1,1.45,2.27,1.29,2.17-.16-.39-5.37,5.61-8.88,10.1-5.91,1.35.89,2.51,2.43,3.9,3.62,2.01,1.72,4.23,2.31,6.08,1.63,3.86-1.42,3.63-6.92,6.26-8.3,3.16-1.65,6.45,3,8.16,4.68,5.77,5.66,11.06,1.25,10.15-2.36-.36-1.4-2.46-.86-2.11.53.37,1.46-2.31,4.4-6.52.27Z"/><path class="cls-1" d="m337.29,290.27c-2.76,1.46-6.76-4.53-11.11-2.89-1.35.51-3.06,1.94-3.58,5.87-.27,2.17-.42,3.95-1.5,5.05-1.34,1.37-3.79,1.11-5.39.07-3.83-2.5-4.71-8.31-8.83-11.46-2.83-2.16-6.88-2.56-10.08-1.01-3.2,1.55-5.39,4.98-5.45,8.54-.02,1.45,2.15,1.48,2.18.04.1-6.1,7.18-9.53,12.03-5.83,3.65,2.78,4.55,8.67,8.96,11.55,2.45,1.6,6.03,1.79,8.14-.37,1.62-1.66,1.82-3.99,2.1-6.29.21-1.58.76-3.57,2.19-4.11,3.1-1.15,7.11,5.02,11.36,2.78,1.27-.67.26-2.6-1.02-1.92Z"/><path class="cls-1" d="m331.45,310.84c-9.29-3.62-8.35,6.31-12.34,7.81-1.54.58-3.39-.41-4.6-1.52-1.55-1.42-2.68-3.18-4.5-4.54-6.32-4.71-15.44-.56-16.01,7.32-.1,1.45,2.07,1.6,2.17.16.2-2.78,2.04-5.42,4.57-6.58,2.54-1.16,5.73-.82,7.97.84,1.54,1.15,2.75,2.95,4.33,4.4,2.19,2,4.74,2.73,6.84,1.95,4.06-1.52,4.29-7.58,7.32-8.41,2.28-.63,5,2.01,8.16,1.52,2.05-.31,3.81-2.29,3.25-4.32-.39-1.39-2.48-.81-2.1.58.06.23.01.47-.16.73-1.02,1.59-3.27.68-4.9.05Z"/><path class="cls-1" d="m153.42,78.93c-1.02,1.01.53,2.55,1.54,1.54,3.59-3.57,5.33-5.29,5.67-7.44.29-1.86-.58-3.9-2.32-5.46-1.37-1.23-2.93-1.98-4.36-2.94-3.27-2.2-5.77-5.72-6.86-9.67-.38-1.39-2.48-.81-2.1.58,1.22,4.44,4.05,8.41,7.74,10.89,2.25,1.51,6.21,3.26,5.74,6.26-.16,1.05-.98,2-1.88,2.96-1.04,1.11-2.1,2.2-3.18,3.28Z"/><path class="cls-1" d="m133.35,45.51c1.42.28,1.84-1.84.44-2.13-7.32-1.5-15.3,1.81-19.39,8.07-.8,1.22,1.04,2.38,1.82,1.19,3.61-5.53,10.66-8.48,17.13-7.13Z"/><path class="cls-1" d="m164.73,41.46c-6.13-4.28-14.77-4.39-21-.26-1.19.79,0,2.6,1.2,1.81,5.42-3.59,13.22-3.5,18.55.23,1.18.82,2.43-.96,1.25-1.78Z"/><path class="cls-1" d="m128.39,55.25c-4.37.06-2.76,7.94-.34,10.43,1.05,1.08,3.17,1.76,4.55.9,3.15-1.97-.5-11.38-4.21-11.33Z"/><path class="cls-1" d="m164.34,57.38c-.56-2.46-2.66-6.47-5.15-6.44-4.37.06-2.76,7.94-.34,10.43,2.07,2.13,6.91,2.26,5.49-3.99Z"/><path class="cls-1" d="m140.09,84.9c-1.27,2.27-1.6,4.92-.91,7.28,1.7,5.82,8.54,7.62,12.37,3.91,1.03-1-.49-2.56-1.52-1.56-2.68,2.6-7.53,1.27-8.76-2.96-.52-1.78-.25-3.87.72-5.61.7-1.25-1.19-2.32-1.9-1.06Z"/><path class="cls-1" d="m92.25,80.57c-.82-1.18-2.61.07-1.78,1.25,1.55,2.22,4.28,3.48,6.09,3.48,1.37,0,1.47-2.04.1-2.17-1.75-.16-3.4-1.12-4.41-2.56Z"/><path class="cls-1" d="m141.53,139.56c.06,1.45,2.24,1.34,2.17-.09l-.78-18.17c6.67.29,16.52-.88,21.67-5.13,11.59-9.57,13.37-30.75,13.48-45.87,1.7-4.84,2.32-16.24,1.56-24.45-1.39-14.81-6.37-33.16-20.37-40.84-12.85-7.01-31.88-7.13-47.02,2.71-10.02,6.5-19.24,17.47-25.24,27.71-21.11-12.58-32.48,7.57-24.14,18.03-9.58-3.99-20.59,1.5-23.12,11.62-2.05,8.29,3.03,15.81,8.44,16.97-4.71,2.68-8.37,7.46-9.02,12.85-1.68,13.88,15.56,19.9,21.04,9.33.45,6.53,7.14,11.5,13.67,11.34,6.54-.17,12.43-4.56,15.84-10.14,3.01,7.23,12.04,9.91,17.2,7.41.56,8.98.2,16.84-1.52,26.48-.25,1.41,1.88,1.83,2.14.38,2.94-16.38,1.84-28.05-.04-42.74-.06-.48-.5-.93-1.07-.93-.64,0-6.29,2.14-12.52-.36-8.51-3.45-12.71-12.54-10.36-19.35,1.32-3.83,4.8-6.64,8.48-6.84,5.16-.27,9.08,3.62,12.23,7.69.38.49,1.39,1.11,1.93.74.5-.34.36-1.02.19-1.58-1.74-5.56-2.73-8.9-1.71-18.42.19-1.68,4.25-20.03,5.48-19.51,11.16,4.77,24.22-.56,28.93-10.87,6.64,4.51,14.1,7.06,22.12,7.44,8.08,9.68,12.72,21.05,14.7,33.24.04,14.82-1.32,36.88-12.69,46.27-7.39,6.09-29.26,7.74-45.34-4.17-1.16-.86-2.45.89-1.29,1.75,6.95,5.15,15.43,8.3,24.17,9.09l.79,18.41Zm-12.16-123.71c-3.23,4.83-9.24,7.37-14.77,6.48-.59-.09-1-.65-.91-1.25.1-.58.65-.99,1.25-.9,4.74.74,9.95-1.55,12.62-5.56.79-1.18,2.61,0,1.81,1.22Zm32.1,8.02c-1.3,0-7.86-3.07-10.84-9.62-.25-.54,0-1.19.55-1.44.54-.25,1.19,0,1.44.54,1.76,3.87,5.19,7.02,9.21,8.41,1.15.38.86,2.1-.36,2.1Z"/></g></svg>