<?xml version="1.0" encoding="UTF-8"?><svg id="Layer_1" xmlns="http://www.w3.org/2000/svg" viewBox="0 0 381.7 387.24"><defs><style>.cls-1,.cls-2,.cls-3,.cls-4{stroke-width:0px;}.cls-2{fill:#f6f9fc;}.cls-3{fill:#fbec39;}.cls-4{fill:#e190e1;}</style></defs><g id="Value_Up"><path class="cls-2" d="m262.45,386.57s-132.3-.64-133.25,0c-.06.04-.12-.25-.18-.83h16.02c-3.33-18.27-13.92-75.17-13.95-75.35h130.19l.77,50.86c-1.93,10.42-3.46,18.77-4.31,23.41h4.68c0,.15.03,2.07.03,1.92Z"/><path class="cls-2" d="m288.84,384.66c-.06.58-.1,1.17-.16,1.75-3.97-.05-32.42-.41-32.57-.42-.33-18.66-.67-37.31-1-55.97-.44-21.17-8.3-18.59-23.66-18.59-.26,0-99.92-.04-100.18-.04-.02-.11-8.52-46.05-8.55-46.22,16.06-7.69,37.6-13.47,58.95-13.47-2.84,9.98,11.29,18.73,22.32,13.8,4.37-1.93,7.79-6.02,8.58-10.74.19-1.07.3-2.28.83-3.24.65-1.17,1.44-.97,2.65-.95,3.07,0,6.09.91,8.97,1.8,28.3,8.89,28.49,8.8,28.97,9.04,6.17,1.99,9.74,4.8,11.03,5.5,1.55.86,4.57,1.89,13.12,7.48-7.97,43.13-17.11,92.26-20.4,110.26h31.11Z"/><path class="cls-4" d="m357.94,171.2l1.33-80.65c.01-.77.61-1.4,1.37-1.46l14.02-1.05c1.24-.09,1.82-1.58.97-2.49l-30.24-32.39-1.55-1.66c-.58-.62-1.57-.63-2.16-.01-4.99,5.23-25.76,27.01-32.24,34.1-.83.91-.24,2.37.98,2.47l12.23,1.02c.78.07,1.37.72,1.36,1.5l-1.06,80.58c-.01.83.66,1.5,1.48,1.5h32.02c.7,0,1.47-.62,1.48-1.46Z"/><path class="cls-4" d="m72.97,68.91c-12.19,8.57-26.81,13.06-41.32,12.67-8.57-.23-23.98-3.39-31.64,6.99,10.04,23.6,16.68,50.71,20.31,76.42,11.76-7.24,25.93-13.95,39.42-14.96,11.24-.86,29.88,1.18,39.08-11.78-7.91-22.08-17.92-47.26-25.84-69.34Zm-40.12,43.26c-.27-.55-.04-1.22.51-1.5,10.72-5.35,22.63-8.36,34.44-8.68.59-.04,1.13.46,1.14,1.07.01.62-.48,1.13-1.09,1.16-11.48.33-23.06,3.24-33.5,8.46-.55.25-1.23.05-1.5-.51Zm36.3,10.1c-21.87,5.57-20.88,5.37-21.18,5.37-1.33,0-1.53-1.87-.28-2.19l20.91-5.34c1.4-.38,2,1.79.55,2.16Z"/><path class="cls-1" d="m195.76,176.66c-1.66,0-3.01,2.66-3.01,5.93s1.35,5.93,3.01,5.93,3.01-2.66,3.01-5.93-1.35-5.93-3.01-5.93Z"/><path class="cls-1" d="m225.75,175.18c-1.66,0-3.01,2.66-3.01,5.93s1.35,5.93,3.01,5.93,3.01-2.66,3.01-5.93-1.35-5.93-3.01-5.93Z"/><path class="cls-1" d="m198.88,171.23c1.44.34,1.95-1.83.51-2.17-4.27-1.01-8.95-.09-12.52,2.47-.5.36-.62,1.05-.26,1.56.36.51,1.06.61,1.56.26,3.05-2.18,7.06-2.97,10.71-2.11Z"/><path class="cls-1" d="m229.92,171.22c1.35.64,2.28-1.38.97-2.01-3.95-1.9-8.72-2.01-12.76-.29-1.36.58-.48,2.63.87,2.05,3.45-1.47,7.54-1.38,10.92.25Z"/><path class="cls-1" d="m210.31,184.82c-.75-1.27-2.67-.13-1.92,1.14,1.78,3.01,3.42,6.15,4.87,9.33.67,1.46,1.26,2.89,1.13,4.29-.27,3.08-3.84,4.73-6.37,2.92-1.2-.86-2.5.96-1.3,1.81,3.93,2.82,9.46.26,9.89-4.54.17-1.94-.56-3.74-1.32-5.41-1.48-3.25-3.16-6.45-4.98-9.54Z"/><path class="cls-1" d="m208.01,216.48c-4.54.75-8.63-2.99-8.27-7.59.11-1.45-2.11-1.68-2.22-.17-.47,6.03,4.87,10.96,10.85,9.97,1.45-.24,1.1-2.43-.36-2.2Z"/><path class="cls-1" d="m149.09,183.3c-1.43-.27-2.73-1.29-3.32-2.62-.61-1.35-2.64-.43-2.04.91.9,2,2.79,3.49,4.95,3.9,1.45.28,1.86-1.92.41-2.19Z"/><path class="cls-1" d="m367.86,224.12c2.73-5.23-1.87-10.75-8.13-8.09.53-3.89-2.4-6.62-6.04-7.05-7.15-.83-19.04,7.13-24.49,10.88-2.58-2.23-6.09-2.55-9.42-2.66-5.38-.2-11.7-.18-17.77,1.59-6.45,1.86-11.68,5.53-14.71,10.32-3.48,5.49-3.54,9.02-10.13,44.36l-10.14-5.61c2.8-7.64,2.68-17.61,2.03-25.3-2.18-25.35-14.17-32.54-13.55-44.45.24-4.92,2.8-9.38,4.42-14.04,4.28-12.28,1.41-26.59-6.65-36.7-2.08-2.62-4.73-4.4-7.02-6.75-2.42-2.45-4.22-5.16-7.06-7.24-2.77-2.04-5.9-3.61-9.23-4.46-.44-.12-3.6-.46-6.21-.6,4.24-6.57,11.4-11.18,19.16-12.21,1.43-.19,1.21-2.37-.29-2.21-8.64,1.15-16.59,6.38-21.13,13.81.74-8.19-2.4-16.65-8.38-22.31-1.07-1.02-2.61.6-1.53,1.62,5.06,4.79,7.91,11.78,7.79,18.73-3.04-8.09-10.43-12.86-19.28-13.27-11.84-.57-23.05,3.91-32.43,10.87-11.9,8.82-15.45,18.04-18.84,22.28-5.15,6.45-14.69,10.09-22.05,24.13-4.82,9.19-6.16,20.15-3.69,30.22,1.72,7,5.2,13.61,5.84,20.79,1.04,11.68-5.47,22.38-6.99,34.08-2.29-12.41-3.04-19.21-6.48-24.64-3.04-4.78-8.26-8.44-14.71-10.32-6.07-1.77-12.39-1.79-17.77-1.59-3.38.13-6.86.46-9.42,2.67-5.64-3.88-17.35-11.73-24.5-10.89-3.57.42-6.58,3.09-6.04,7.05-6.3-2.68-10.82,2.92-8.13,8.09-4.09.6-5.81,6.52-4.43,10.14,2.62,6.96,12.84,9.94,20.34,12.21,6.59,1.99,12.81,3.87,17.6,8.25,7.38,6.73,8.91,17.39,8.9,25.14-.01,9.18-1.31,90.84-1.2,103.9l-26.03.17c-1.47,0-1.47,2.23,0,2.23-.15,0,44.68-.18,94.93-.39.7,0,1.22-.63,1.1-1.32-3.03-16.64-15.78-85.22-18.11-97.84l9.81-28.51c13.76-4.59,27.96-7.66,42.51-7.51l-1.13,10.79c-.16,1.47,2.07,1.7,2.22.23l3.09-29.46c8.65,4.6,17.05,4.81,25.15,1.7l8.21,24.16c.47,1.4,2.59.68,2.11-.72l-2.63-7.73c2.62.2,5.15.93,7.66,1.7,29.5,9.27,32.16,9.52,37.65,13.07l-1.72-.95,11.52,34.4c-10.15,54.79-12.84,69.16-15.83,85.57-.12.68.4,1.32,1.1,1.32,67.48-.04,28.7.07,96.28-.1,1.48,0,1.48-2.23,0-2.23h-27.35c.09-14.76-1.19-93.91-1.2-103.58-.01-7.75,1.52-18.4,8.9-25.15,4.8-4.38,11.02-6.26,17.62-8.25,7.37-2.22,17.66-5.19,20.33-12.19,1.35-3.53-.27-9.55-4.43-10.15Zm-198.25-69.59c7.54-2.54,15.33-5.19,21.84-9.9,7.06-5.1,11.47-12.31,11.79-19.3.07-1.45,2.27-1.39,2.23.1-.37,7.78-5,15.44-12.71,21.01-6.8,4.91-14.74,7.6-22.44,10.2-.52.2-1.19-.08-1.41-.7-.19-.58.12-1.22.7-1.41Zm-25.92,230.11h-65.34c-.1-14.07,1.19-93.75,1.2-103.68.01-8.2-1.65-19.5-9.63-26.79-5.17-4.73-11.92-6.77-18.46-8.74-6.24-1.88-16.61-4.79-18.9-10.87-.99-2.59.38-8.16,4.01-7.01,3.36,3.59,5.7,4.41,27.62,16.14,1.3.7,2.35-1.27,1.05-1.97l-18.67-9.96c-3.36-1.79-10.15-5.42-10.26-9.52-.03-1.2.62-2.44,1.63-3.08,1.93-1.23,4.66-.07,6.4,1.3,2.2,3.31,11.1,9.32,11.61,9.48,4.85,3.21,9.95,6.05,15.24,8.47,1.35.62,2.26-1.42.93-2.03-9.38-4.3-23.49-13.2-26.06-17.34-2.08-3.34-.28-6.34,3.26-6.76,1.84-.22,3.72.29,5.48.87,6.35,2.1,11.88,5.78,17.21,9.44-2.77,4.05.22,8.31,1.44,8.56,3.07,2.2,6.38,2.16,23.62,5.49,1.46.26,1.85-1.93.41-2.19-17.19-3.36-21.48-3.28-23.64-6-.74-1.1-.91-2.33-.45-3.61,1.49-3.68,5.75-4.17,9.67-4.33,5.2-.2,11.29-.17,17.06,1.5,5.93,1.73,10.71,5.05,13.45,9.37,3.33,5.26,2.49,4.1,16.4,79.21.35,1.76,11.46,61.75,13.71,74.03Zm53.84-149.86c-8.9-.48-17.95-5.76-24.82-14.48-6.25-7.94-10.12-17.51-13.87-26.77-.35-.86-1.56-.96-2.02-.11-.46.85-1.09,1.54-1.83,2.11-6.62,4.98-15.7.02-17.91-7.1-1.78-5.68.68-13.13,3.53-16.11,2.87-2.88,7.65-2.9,11.22,1,3.11,3.38,3.85,8.77,4.92,13.1,2.44-5.52,6.96-10.48,12.58-12.85,6.39-2.68,13.09-4.19,19.6-6.54,12.15-4.39,22.71-13.1,29.34-24.19,2.23,8.71,4.64,17.89,11.85,23.54,1.56,1.23,5.77,3.88,6.31,6.65.85,13.59-2.18,34.18-11.15,46.8-6.94,9.77-17.58,15.48-27.76,14.95Zm172.68-1.3c-2.33,6.1-12.63,8.97-18.89,10.86-6.54,1.97-13.31,4.01-18.48,8.74-7.98,7.3-9.64,18.61-9.63,26.8.02,9.54,1.29,89.55,1.2,103.58h-65.34c3.34-18.24,23.51-126.83,25.85-139.71.85-4.66,1.74-9.47,4.25-13.43,2.74-4.33,7.52-7.66,13.45-9.37,5.76-1.68,11.86-1.7,17.06-1.5,2.5.08,5.11.27,7.19,1.49,1.81,1.05,3.29,3.35,2.62,5.37-1.25,3.85-7.08,3.69-24.24,7.08-1.44.27-1.06,2.45.41,2.19,16.45-3.33,24.15-3.03,25.96-8.58.63-1.92.11-3.86-.94-5.44,5.35-3.68,10.89-7.38,17.26-9.48,1.76-.58,3.64-1.1,5.48-.87,3.52.42,5.35,3.4,3.26,6.76-.86,1.39-2.17,2.48-3.55,3.57-6.92,5.46-14.5,10.09-22.51,13.77-1.34.62-.41,2.64.93,2.03,10.01-4.59,21.13-12.22,21.57-12.98,1.93-1.47,3.95-2.96,5.29-4.97,1.75-1.37,4.47-2.53,6.4-1.3,1.01.64,1.67,1.88,1.63,3.08-.11,4.05-6.83,7.69-10.26,9.52l-18.67,9.96c-1.3.69-.25,2.66,1.05,1.97l18.67-9.96c7.72-4.12,8.27-5.65,8.94-6.17,1.12-.36,2.05-.16,2.82.65,1.48,1.55,1.86,4.64,1.2,6.36Z"/><path class="cls-1" d="m381.3,85.22l-31.81-34.07c-.58-.62-1.57-.63-2.16,0-.49.52-1.16,1.22-1.93,2.03l30.24,32.39c.85.91.27,2.4-.97,2.49l-14.02,1.05c-.77.06-1.36.69-1.37,1.46l-1.33,80.65c0,.47-.25.87-.6,1.14h4.79c.81,0,1.47-.65,1.48-1.46l1.33-80.66c.01-.77.61-1.4,1.37-1.46l14-1.05c1.24-.09,1.82-1.58.97-2.49Z"/><path class="cls-1" d="m210.9,89.6c30.12,0,52.24-27.81,42.42-56.15-1.94-5.61-4.83-9.73-9.63-13.75-.95-.79-2.29.33-1.69,1.4,3.64,6.48,7.07,8.53,6.97,21.19-.23,29.6-33.36,48.22-60.97,35.66-4.97-2.26-9.41-6.16-13.18-11.59-.76-1.1-2.48-.15-1.94,1.08,6.19,14.09,22.25,22.15,38.03,22.15Z"/><path class="cls-1" d="m108.81,144.98c.21-.3.26-.68.14-1.02-7.91-22.05-17.94-47.3-25.85-69.34-.25-.69-1.09-.96-1.69-.54-11.98,8.42-26.4,12.84-40.66,12.47-9.09-.24-24.52-3.44-32.58,7.45-.24.32-.28.74-.13,1.1,9.31,21.87,16.3,48.2,20.23,76.13.11.81,1.02,1.21,1.69.79,14.57-8.97,27.67-13.95,38.92-14.8,11.6-.87,30.38,1.17,39.92-12.24Zm-78.56,24.26c-3.96-27.25-10.83-52.93-19.89-74.41,7.44-9.2,21.3-6.29,30.34-6.05,14.24.36,28.67-3.89,40.8-12.05,7.74,21.48,17.46,46.01,25.16,67.42-8.99,11.91-26.46,9.98-37.92,10.85-11.23.85-24.17,5.64-38.47,14.25Z"/><ellipse class="cls-3" cx="206.97" cy="41.28" rx="44.46" ry="41.28"/><path class="cls-1" d="m206.29,60.29c11.14,0,17.8-9.41,14.28-16.49-5.31-10.69-23.35-2.93-26.8-12.62-2.39-6.71,7.3-13.69,16.1-10.2,3.46,1.37,6.24,4.33,7.26,7.71.43,1.41,2.56.77,2.14-.64-1.57-5.21-6.43-9.56-12.89-10.16l-.04-7.08c0-1.48-2.24-1.47-2.23.01l.04,7.01c-9.17.45-14.64,8.01-12.47,14.09,2,5.61,8.44,6.88,13.83,7.36,5.07.45,10.82.96,13.08,5.51,2.2,4.44-.93,11.25-9.07,12.94-7.29,1.51-15.37-2.31-18.39-8.72-.63-1.33-2.65-.39-2.02.95,2.94,6.23,10.04,10.32,17.19,10.32Z"/></g></svg>