<?xml version="1.0" encoding="UTF-8"?>
<svg width="472px" height="451px" viewBox="0 0 472 451" version="1.1" xmlns="http://www.w3.org/2000/svg" xmlns:xlink="http://www.w3.org/1999/xlink">
    <title>5-02</title>
    <g id="Page-1" stroke="none" stroke-width="1" fill="none" fill-rule="evenodd">
        <g id="home-header" transform="translate(-1887.000000, -1021.000000)" fill-rule="nonzero">
            <g id="5-02" transform="translate(1887.000000, 1021.000000)">
                <path d="M168.139442,228.7 L145.939442,185.4 L126.939442,194.8 L147.839442,234.4 C155.139442,232.6 151.539442,233.8 168.539442,229.6" id="Path" fill="#ECECEC"></path>
                <g id="Group" fill="#FCFCFC">
                    <path d="M55.139442,96.6 C52.639442,95.1 50.039442,93.9 47.439442,92.8 L47.139442,93.7 C49.739442,94.7 52.339442,95.9 54.739442,97.4 L55.139442,96.6 Z" id="Path"></path>
                    <path d="M45.839442,111 C41.439442,110.7 37.039442,110 32.739442,109.1 L32.539442,110 C36.839442,111 41.339442,111.6 45.739442,112 L45.839442,111 Z" id="Path"></path>
                    <rect id="Rectangle" transform="translate(41.072048, 124.753694) rotate(-88.435545) translate(-41.072048, -124.753694) " x="40.6220601" y="120.253816" width="1" height="8.99975471"></rect>
                    <path d="M39.039442,141.2 C41.939442,139.8 44.639442,138.2 47.239442,136.3 L46.739442,135.6 C44.239442,137.5 41.539442,139.1 38.739442,140.5 L39.039442,141.2 Z" id="Path"></path>
                    <path d="M471.739442,5.6 C471.739442,5.3 471.539442,5.1 471.239442,5.1 C461.039442,5.6 222.139442,18.2 219.039442,19.4 C218.839442,19.5 218.739442,19.6 218.739442,19.8 C217.639442,35.1 214.639442,77.4 213.539442,93 L197.339442,93 L197.339442,103.1 L212.839442,103.1 L207.439442,178.3 C203.239442,190.9 198.239442,203.3 194.239442,212.1 C192.639442,213.1 191.139442,214.1 189.539442,215.2 C172.439442,226.5 173.139442,224.6 169.239442,227.4 C168.939442,227.6 168.539442,227.9 168.339442,228 L146.139442,184.8 L143.839442,185.9 C146.039442,180.7 147.539442,175.3 148.339442,169.7 C148.539442,168.5 148.639442,167.2 148.339442,165.9 C147.339442,161.6 142.239442,161.2 140.239442,166.1 C140.239442,166 140.239442,165.9 140.239442,165.8 C141.339442,163.3 142.339442,160.8 143.239442,158.2 C143.239442,158.1 143.239442,158 143.239442,157.9 C146.439442,157.7 148.539442,156 150.339442,153.4 C150.339442,153.4 150.339442,153.4 150.339442,153.4 C152.439442,153.9 154.639442,153 156.039442,151.4 C158.439442,148.7 158.939442,143.9 155.239442,138.8 C155.439442,136.7 155.639442,134.3 154.439442,132.7 C151.839442,129 136.939442,123.6 130.939442,122.2 C120.839442,112.9 107.039442,103 97.139442,93.9 C92.139442,86.9 84.439442,90.3 78.639442,97.3 C74.139442,102.8 70.339442,110.7 67.939442,119.6 C63.039442,138 65.839442,154.8 74.339442,157.1 C76.239442,157.6 78.039442,157.4 79.839442,156.7 C79.839442,156.7 79.839442,156.7 79.839442,156.7 C79.839442,156.7 79.839442,156.7 79.839442,156.7 C79.839442,156.7 79.839442,156.7 79.839442,156.7 C92.639442,155.1 108.739442,153.6 122.339442,152 C122.339442,152.1 122.439442,152.2 122.539442,152.2 C124.539442,153.1 126.639442,153.9 128.739442,154.7 C127.539442,156.7 126.239442,158.9 124.939442,161.4 C123.239442,161.3 120.439442,161.1 118.939442,162 C117.939442,162.6 117.439442,163.6 117.539442,164.5 C117.839442,166.1 119.639442,166.6 120.639442,167.3 C119.039442,167.7 117.539442,168.3 115.939442,168.9 C112.939442,170.1 113.139442,172.4 115.139442,173.7 C115.839442,174.2 116.339442,174.4 116.739442,174.6 L116.239442,174.7 C113.539442,175 111.539442,176.6 112.639442,179.1 C113.139442,180.2 113.739442,180.6 114.039442,181 C111.839442,184.9 108.539442,189.7 110.839442,193.9 C112.639442,197.2 117.339442,197.8 120.639442,196.2 C122.739442,195.2 124.439442,193.5 125.939442,191.6 C126.239442,191.9 127.039442,192.7 128.639442,193.8 L126.339442,194.9 L147.139442,234.4 C138.839442,236.4 130.739442,239 122.339442,241.1 C107.839442,244.8 94.139442,250.4 81.539442,257.7 C81.239442,257.9 81.239442,258.4 81.639442,258.5 C81.639442,258.5 81.639442,258.5 81.639442,258.5 C81.639442,258.5 81.639442,258.5 81.639442,258.5 C81.239442,260.2 92.539442,275.3 97.039442,281.1 L75.339442,297.7 L55.739442,306.6 C48.339442,308.3 46.239442,308.5 42.239442,308.8 C42.139442,308.8 37.739442,309.2 33.039442,309.9 C30.639442,306 22.039442,301.7 15.939442,302.3 C11.039442,302.7 7.83944198,303.7 4.73944198,307.8 C1.33944198,307 -1.36055802,311 0.739441983,313.9 L19.139442,339 C19.539442,339.5 19.939442,339.9 20.539442,340.2 L65.539442,363.4 C67.339442,364.3 69.539442,363.7 70.639442,362 L70.939442,361.5 C72.039442,359.8 71.639442,357.7 70.239442,356.5 C83.239442,339.7 79.239442,344.9 92.239442,328.1 C92.439442,327.9 92.339442,327.6 92.139442,327.5 C92.139442,327.5 92.139442,327.5 92.139442,327.5 L103.439442,313.6 L119.739442,301.6 C122.939442,303.9 138.139442,313.6 138.439442,313.3 C138.639442,313.4 138.939442,313.4 139.039442,313.2 C141.139442,310.4 145.939442,303.8 149.939442,298.4 C150.139442,298.2 150.039442,298 149.939442,297.7 C164.539442,277.9 169.239442,273.7 174.939442,267.3 C178.239442,263.6 178.539442,263.7 179.239442,263.1 C181.039442,261.5 181.039442,261.3 185.939442,262.7 C179.339442,272.4 173.939442,283.1 168.739442,293.5 C162.639442,305.8 158.639442,312.6 154.139442,325.9 C154.039442,325.9 153.939442,326 153.839442,326.2 C151.739442,332.4 150.039442,338.7 148.739442,345.1 C148.139442,347.9 173.039442,349.2 176.239442,349.4 L174.239442,376.6 C172.339442,381.9 168.439442,392.4 166.439442,397.7 C166.439442,397.7 166.439442,397.7 166.439442,397.7 C165.539442,399.3 155.839442,413.7 154.439442,416.9 C154.339442,416.9 154.239442,416.9 154.239442,416.9 C154.239442,416.9 154.239442,416.9 154.239442,416.9 C150.139442,414.2 144.439442,414.4 140.639442,417.4 C135.839442,421.1 135.039442,428.2 137.139442,430.7 C137.139442,430.7 137.139442,430.7 137.139442,430.7 C134.439442,432.9 135.739442,437.3 139.139442,437.7 L167.739442,446.6 C168.339442,446.7 168.939442,446.6 169.539442,446.4 L215.539442,428.6 C217.539442,427.8 218.639442,425.6 218.039442,423.5 C217.539442,421.6 215.739442,420.4 213.939442,420.4 C213.939442,420.4 213.939442,420.4 213.939442,420.4 C213.939442,420.3 213.239442,416.4 209.939442,399.3 L209.039442,385.7 C209.039442,385.4 208.639442,385.2 208.439442,385.3 C208.439442,385.3 208.439442,385.3 208.439442,385.3 L205.339442,366.4 L207.239442,346.3 C210.339442,345.6 226.039442,341.2 228.139442,340.2 C228.539442,340.4 228.939442,340.1 228.839442,339.7 C228.239442,337 227.739442,334.3 227.139442,331.6 L455.539442,350.1 C455.839442,350.1 456.039442,349.9 456.039442,349.7 C456.739442,331.1 470.939442,23.6 471.739442,5.6 Z M219.639442,20.2 C227.739442,19 386.339442,10.4 470.839442,6 L469.539442,34.9 C384.939442,39.3 225.739442,47.1 217.839442,45.7 L219.639442,20.2 Z M213.739442,103.1 L223.339442,103.1 C220.939442,127.5 216.039442,151.4 208.639442,174.6 L213.739442,103.1 Z M322.739442,194.7 C320.539442,192.4 317.039442,193.7 314.039442,193.6 C307.539442,193.3 303.639442,186.4 302.739442,179.8 C302.039442,174.4 303.239442,167.4 302.439442,161.2 C302.039442,157.7 300.339442,156 298.839442,153.5 C301.239442,150.8 302.739442,147.5 302.639442,143.7 C302.239442,133.9 294.539442,129 287.439442,131.2 C288.239442,131 285.039442,125.7 284.739442,125.2 C278.139442,117.5 261.139442,118.7 256.139442,133.6 C255.039442,135.5 254.339442,137.6 254.439442,139.8 C254.239442,140.8 253.939442,141.9 253.739442,142.9 C253.939442,142.5 254.339442,142.1 254.739442,141.9 C254.939442,142.7 255.139442,143.3 255.539442,144 C255.539442,144 255.539442,144 255.539442,144 C251.539442,150.7 246.839442,171.1 256.139442,179.6 L251.639442,189.4 C251.039442,189.1 247.639442,188.4 245.239442,188.4 C245.239442,188.4 245.239442,188.4 245.239442,188.4 C231.639442,184.2 219.239442,196.5 206.539442,204.6 L208.439442,178.6 C216.539442,154.2 221.839442,128.9 224.339442,103.2 L345.239442,103.2 C342.539442,134.6 334.839442,165.5 322.739442,194.7 Z M242.939442,275.9 C248.539442,273.7 251.939442,268.1 253.139442,262.1 C260.039442,264.8 270.839442,269 273.239442,270.4 C267.939442,272.8 231.839442,290 228.139442,291.7 L218.839442,285 C218.839442,284.9 218.339442,279.7 218.239442,278.8 C228.839442,281.7 233.839442,281.3 242.939442,275.9 Z M226.139442,214.9 L226.139442,214.9 C228.539442,207.8 227.039442,203.1 238.939442,192.2 C239.839442,191.4 240.739442,190.6 241.839442,190.1 C244.739442,188.7 248.139442,189.4 251.239442,190.2 C251.239442,190.3 251.239442,190.3 251.239442,190.4 L251.239442,190.4 L251.239442,190.4 C251.139442,191.1 251.439442,192 251.539442,192.3 C252.639442,195.5 256.839442,197.8 260.439442,196.5 C261.739442,196 262.839442,195.3 263.439442,194 C265.239442,194.5 273.939442,198.9 276.539442,200.3 C276.539442,200.4 276.539442,200.6 276.739442,200.7 C279.139442,202.6 280.639442,205.2 282.139442,207.8 C286.139442,214.8 293.039442,223 301.839442,236.3 C299.739442,239.8 297.739442,242.9 296.239442,245.2 C296.239442,245.2 296.239442,245.2 296.239442,245.2 C295.339442,244.6 294.439442,244 293.539442,243.5 L293.539442,243.5 C289.939442,241.6 287.439442,244 288.039442,246.1 C286.939442,245.4 285.739442,244.9 284.239442,245.4 C282.239442,246.1 280.839442,248.8 282.539442,251.1 C282.539442,251.1 282.539442,251.1 282.539442,251.1 C283.239442,252.1 285.139442,253.2 285.239442,253.3 C284.439442,253.3 283.639442,253.4 283.039442,253.8 L283.039442,253.8 C281.039442,255.1 280.739442,257.9 283.039442,259.8 C283.639442,260.3 284.239442,260.7 284.439442,260.9 C284.039442,261.4 284.139442,261.2 284.039442,261.3 C283.939442,261.3 283.839442,261.4 283.739442,261.4 L283.739442,261.4 C283.639442,261.4 283.539442,261.5 283.439442,261.5 C279.039442,254.9 281.039442,257.1 263.939442,230.5 C263.939442,230.5 263.939442,230.5 263.939442,230.5 C263.939442,230.4 264.039442,230.3 264.039442,230.3 C264.239442,229.9 263.839442,229.5 263.439442,229.7 C263.339442,229.6 262.839442,228.7 262.739442,228.6 C262.439442,228.1 261.639442,228.6 261.939442,229.1 C262.239442,229.6 262.539442,230.1 262.839442,230.6 C262.839442,230.6 262.839442,230.6 262.839442,230.6 C259.339442,238.3 256.139442,246.1 253.239442,254 C252.839442,253.6 252.839442,239.3 223.239442,235.2 C222.839442,235.1 222.239442,235.1 221.339442,235.1 L218.439442,234 C219.739442,231.6 222.139442,225.5 224.139442,220.2 L224.139442,220.2 C224.539442,219.4 225.939442,215.4 226.139442,214.9 Z M258.439442,141.3 C260.539442,141.5 269.539442,144.1 280.139442,139.3 C279.839442,146.9 284.639442,153.7 291.339442,156.4 C291.339442,156.6 291.239442,156.9 291.239442,157.1 C291.139442,157.5 291.739442,158 292.139442,157.7 C293.539442,156.8 296.239442,157.8 297.339442,159.2 C300.039442,162.5 298.839442,167.2 296.339442,170.1 C296.339442,170.1 296.339442,170.1 296.339442,170.1 C293.839442,173 289.839442,173.7 287.239442,170.5 C286.939442,170.1 286.239442,170.5 286.439442,170.9 C286.239442,171.7 282.939442,175.4 281.939442,176.4 C275.839442,182.4 266.639442,184.8 259.139442,180.5 C259.139442,180.5 259.039442,180.4 259.039442,180.4 C248.139442,174 252.139442,156.2 253.639442,150.9 C254.639442,147.5 256.239442,144.1 258.439442,141.3 Z M256.839442,180.2 C257.439442,180.7 258.439442,181.3 259.139442,181.7 C260.439442,184.1 261.939442,186.3 264.439442,188.6 L261.639442,194.8 C258.439442,197.2 253.539442,195.3 252.439442,192 C252.239442,191.5 252.139442,190.9 252.139442,190.5 L256.839442,180.2 Z M304.239442,241.7 C305.339442,243.8 301.839442,249.5 300.639442,251.4 C300.339442,249.8 299.639442,248.3 297.939442,246.6 C297.939442,246.5 297.939442,246.1 297.939442,246.2 C299.539442,243.1 302.639442,238.7 304.239442,241.7 Z M217.539442,233.6 C216.539442,233.2 210.139442,230.7 207.639442,229.7 C215.139442,225.7 220.039442,222.5 223.039442,220.7 C221.039442,225.8 218.739442,231.6 217.539442,233.6 Z M274.239442,270.1 C273.239442,269.3 269.339442,267.3 253.339442,261.2 L253.339442,261.2 C253.839442,258.3 253.539442,256.4 253.539442,255.7 C256.539442,247.5 259.839442,239.3 263.439442,231.3 C282.639442,261.1 276.839442,253.3 282.539442,261.8 C281.739442,262.4 281.439442,263.1 281.439442,263.8 C279.139442,266.1 276.739442,268.2 274.239442,270.1 Z M286.539442,262.2 C287.539442,262.8 288.539442,263.4 289.539442,264 C290.039442,264.3 290.539442,263.6 290.039442,263.2 C288.939442,262.4 288.239442,261.8 286.939442,261.3 C285.839442,260.6 285.339442,260.2 285.439442,260.3 C284.239442,259.5 282.539442,258.3 282.339442,257 C282.339442,257 282.339442,257 282.339442,257 C282.039442,254.9 284.039442,253 287.439442,254.7 C289.039442,255.8 290.939442,257.2 293.039442,258.6 C293.539442,258.9 294.039442,258.2 293.639442,257.9 C291.939442,256.5 290.039442,255 287.939442,254 C287.939442,254 287.939442,254 287.939442,254 C286.439442,252.9 286.839442,253.2 285.639442,252.4 C284.439442,251.6 282.839442,250.6 282.739442,249.1 C282.639442,247.9 283.339442,246.7 284.539442,246.2 C286.239442,245.6 287.839442,247.1 289.139442,247.9 C289.139442,247.9 289.139442,247.9 289.139442,247.9 C289.339442,248.1 294.939442,252.8 295.039442,252.9 C295.039442,252.9 295.039442,252.9 295.039442,252.9 C295.539442,253.3 296.139442,252.5 295.639442,252.2 C293.239442,250.2 291.439442,248.3 289.739442,247.2 L289.739442,247.2 C289.639442,247.1 289.639442,247.1 289.539442,247 C289.539442,247 289.539442,247 289.539442,247 C287.639442,245 289.839442,242.3 294.039442,244.9 C296.339442,246.3 299.039442,248.4 299.739442,251 C299.939442,251.8 299.939442,252.5 300.039442,252.9 C300.039442,252.9 300.039442,252.9 300.039442,252.9 C300.239442,258.5 294.839442,270.1 291.239442,271 C289.139442,271.6 287.339442,269.7 285.339442,268.3 C284.139442,267.5 282.539442,265.6 282.539442,264.1 C282.339442,262.6 284.239442,261.4 286.539442,262.2 Z M292.139442,271.4 C293.439442,270.8 294.539442,269.3 295.139442,268.5 L295.139442,268.5 C298.439442,263.9 300.639442,257.6 300.839442,253.6 C306.439442,256.9 306.239442,256.9 306.439442,256.9 C306.939442,256.9 307.039442,256.3 306.639442,256 L300.939442,252.6 L300.939442,252.6 C302.539442,250.3 305.939442,244.5 305.239442,241.8 C305.739442,242.6 306.239442,243.4 306.639442,244.3 C309.139442,248.7 311.639442,255.3 308.939442,261.6 C306.839442,266.5 301.339442,273.3 295.839442,273 C294.539442,272.9 293.139442,272.4 291.839442,271.5 C291.939442,271.5 292.039442,271.5 292.139442,271.4 Z M297.139442,245.7 C297.139442,245.7 297.039442,245.8 297.039442,245.8 C297.039442,245.8 297.039442,245.8 297.039442,245.8 C296.939442,245.7 296.939442,245.7 296.839442,245.6 C298.239442,243.4 300.139442,240.5 302.239442,237 C303.039442,238.2 303.739442,239.3 304.439442,240.5 C304.439442,240.5 304.439442,240.5 304.439442,240.5 C301.939442,238 298.839442,242.5 297.139442,245.7 Z M302.239442,235.3 C302.139442,235.2 302.139442,235.2 301.939442,234.8 C302.139442,234.8 302.339442,234.8 302.639442,234.8 C302.439442,234.9 302.339442,235.1 302.239442,235.3 Z M207.239442,181.9 L205.539442,205.1 C205.439442,205.2 197.739442,209.8 195.639442,211.2 C199.739442,201.8 203.039442,194.1 207.239442,181.9 Z M190.039442,215.9 C191.639442,214.9 193.139442,213.8 194.739442,212.8 L194.739442,212.8 C205.039442,206.4 207.539442,205.1 213.439442,200.9 C218.339442,197.4 225.739442,192.1 231.639442,190 C235.339442,188.7 239.239442,188.2 242.639442,188.8 C242.339442,188.9 241.739442,189.1 241.339442,189.3 L241.339442,189.3 C240.139442,189.9 238.839442,191 237.839442,191.9 C232.039442,197.3 228.539442,201.7 226.639442,209 C225.239442,214.3 225.939442,212.7 223.439442,219.5 C219.639442,221.7 214.839442,224.9 206.339442,229.5 C193.139442,225.5 181.739442,226 168.239442,229.3 L168.239442,229.3 L168.339442,229.2 C176.039442,224 172.739442,227.4 190.039442,215.9 Z M139.439442,171.8 C139.439442,171.9 139.439442,171.9 139.439442,171.8 C138.739442,171.7 137.939442,171.8 137.239442,172 C138.039442,170.5 138.739442,169 139.439442,167.4 C139.439442,168.5 139.339442,171.1 139.439442,171.8 Z M74.639442,156 C66.639442,153.9 64.039442,137.6 68.839442,119.7 C74.639442,97.9 88.839442,84.1 96.339442,94.3 C96.339442,94.3 96.339442,94.3 96.339442,94.3 C96.339442,94.3 96.339442,94.3 96.339442,94.3 C96.439442,94.4 98.639442,96.9 99.639442,103.2 C100.539442,108.4 100.039442,112.4 100.039442,114.6 C86.939442,112.8 77.639442,124.3 85.039442,135.5 C86.639442,137.8 90.239442,142.8 92.539442,141.2 C89.139442,148 81.839442,157.9 74.639442,156 Z M82.239442,155.2 C97.639442,145.4 100.739442,116.6 100.739442,116.5 C101.139442,112 101.239442,107.5 100.539442,103 C99.839442,99 98.939442,97.2 98.639442,96.3 C103.239442,100.4 108.539442,104.7 113.739442,108.8 C128.039442,120.3 129.239442,121.7 130.639442,122.9 C131.439442,123.7 132.539442,124.4 133.139442,125.9 C136.439442,133.9 135.039442,141.2 129.039442,148.1 C127.039442,150.4 124.639442,150.3 122.939442,150.6 C110.139442,152.3 94.839442,153.7 82.239442,155.2 Z M129.739442,148.9 C135.939442,141.8 137.339442,134 133.939442,125.7 C133.639442,124.9 133.039442,124.1 132.339442,123.5 C138.839442,125.3 151.439442,130 153.639442,133.2 C154.539442,134.4 154.439442,136.1 154.339442,137.6 C153.939442,142.2 152.639442,146.9 150.539442,151 C147.339442,157.2 144.039442,157.8 137.939442,156.3 C133.039442,155.1 128.439442,153.5 123.939442,151.6 C126.339442,151.2 128.139442,150.7 129.739442,148.9 Z M118.539442,164.1 C118.439442,163.4 118.939442,162.8 119.439442,162.5 C121.439442,161.3 127.539442,162.2 130.639442,163.1 C135.539442,164.6 132.039442,168.7 125.839442,168.4 L122.039442,166.8 C122.039442,166.8 122.039442,166.8 122.039442,166.8 C120.739442,165.6 118.739442,165.3 118.539442,164.1 Z M113.439442,178.3 C112.239442,175.6 116.139442,175.4 117.939442,175.1 C118.539442,175.1 118.739442,174.6 118.339442,174.3 C117.539442,173.6 116.439442,173.2 115.739442,172.7 C114.439442,171.7 114.039442,170.4 116.339442,169.5 C118.039442,168.8 119.839442,168.2 121.639442,167.8 C121.739442,167.8 125.539442,169.5 125.439442,169.4 C126.439442,170.1 127.639442,170.9 127.839442,172.2 C128.039442,173.7 126.639442,175 125.239442,175.3 C123.639442,175.7 121.839442,175.2 120.339442,174.8 C119.839442,174.6 119.539442,175.4 120.039442,175.7 C121.539442,176.2 123.439442,177.1 123.439442,178.7 C123.439442,179.9 122.239442,180.9 121.139442,181.2 C118.339442,181.7 114.739442,181 113.439442,178.3 Z M120.239442,195 C117.339442,196.4 113.239442,195.9 111.639442,193 C109.639442,189.3 112.739442,184.7 114.839442,181.1 C114.939442,181.1 117.339442,182.9 121.439442,182 C124.239442,181.4 125.639442,178.3 123.339442,176.3 C127.139442,176.7 129.239442,174.2 128.939442,172 C128.739442,170.9 128.039442,170.1 127.239442,169.4 C134.339442,168.9 136.339442,163.9 131.039442,162.3 C128.439442,161.5 126.739442,161.4 126.139442,161.3 C127.439442,158.9 128.739442,156.8 129.839442,154.8 C141.939442,158.7 141.239442,157.7 142.439442,158 C142.139442,158.7 140.339442,164.4 136.039442,172.8 C133.839442,174.1 132.739442,176.5 132.739442,178.9 C130.939442,182 127.539442,187.7 125.839442,190 C125.839442,190 125.839442,190 125.839442,190 C125.439442,189.9 125.239442,190.3 125.339442,190.6 C125.339442,190.6 125.339442,190.6 125.339442,190.6 C123.839442,192.4 122.239442,194 120.239442,195 Z M126.439442,190.5 C128.039442,188.2 131.139442,183.2 132.739442,180.5 C132.939442,181.7 133.339442,182.9 134.039442,184 C134.339442,184.5 135.139442,184.1 134.839442,183.5 C131.139442,177 135.939442,171.8 140.139442,172.9 C140.739442,173 140.939442,172.2 140.439442,172 C140.239442,169.7 140.739442,167.4 141.339442,165.8 C142.039442,164.2 143.939442,162.8 145.539442,163.5 C146.439442,163.9 147.139442,164.8 147.439442,166 C147.739442,167.1 147.539442,168.4 147.439442,169.5 C146.639442,175.4 145.039442,181 142.639442,186.4 L129.539442,192.8 C127.739442,191.8 126.839442,190.8 126.439442,190.5 Z M132.639442,270.8 C132.639442,270.8 132.639442,270.8 132.639442,270.8 C132.739442,270.9 132.639442,270.9 132.839442,271 C133.739442,272.1 143.039442,281.3 149.039442,297.5 C148.639442,298 141.639442,307.6 138.939442,311.3 C132.039442,287.5 106.139442,267.3 83.239442,257.6 C88.539442,254.6 94.039442,251.8 99.639442,249.4 C113.339442,254.1 125.439442,262.6 132.639442,270.8 Z M103.139442,312.6 C94.339442,307.7 85.539442,302.8 76.239442,297.6 L108.039442,273.4 L108.039442,273.4 C115.539442,279.1 123.039442,286.2 128.639442,293.9 L103.139442,312.6 Z M83.139442,326 C79.239442,325.2 79.739442,325.2 79.039442,325.1 C83.639442,320.5 92.539442,311.7 95.039442,309.2 C96.039442,309.7 96.939442,310.3 97.939442,310.8 L83.139442,326 Z M63.839442,318.3 C65.239442,316.9 79.239442,303 80.939442,301.4 C82.239442,302.1 83.639442,302.9 84.939442,303.6 C83.239442,305.3 71.039442,317.4 67.639442,320.7 C66.339442,320 65.039442,319.1 63.839442,318.3 Z M58.539442,312.7 C77.839442,298.2 76.539442,299.2 76.639442,299 C77.739442,299.6 78.839442,300.2 80.039442,300.9 C78.139442,302.7 68.839442,312 63.039442,317.7 C62.439442,317.1 60.339442,315.5 58.539442,312.7 Z M75.439442,298.3 C75.539442,298.4 75.739442,298.5 75.839442,298.5 C74.239442,299.7 62.339442,308.7 58.039442,311.9 C57.639442,311.1 56.739442,309.8 56.239442,307 C56.239442,307 56.239442,307 56.239442,307 L75.439442,298.3 Z M85.839442,304 L85.839442,304 C87.139442,304.7 88.339442,305.4 89.639442,306.1 C87.239442,308.5 74.239442,321.4 72.739442,323 C71.339442,322.5 69.939442,321.8 68.639442,321.2 C68.639442,321.2 68.639442,321.2 68.639442,321.2 C72.439442,317.3 85.339442,304.4 85.839442,304 Z M90.439442,306.6 C91.739442,307.3 92.939442,308 94.239442,308.7 C91.439442,311.5 81.339442,321.6 78.039442,324.8 C78.039442,324.8 78.039442,324.8 78.039442,324.8 C76.539442,324.4 75.039442,323.9 73.639442,323.4 C76.239442,320.8 88.639442,308.3 90.439442,306.6 Z M55.339442,307.2 C55.939442,310 57.239442,312.6 59.139442,315 L50.539442,316 C51.639442,313.4 51.339442,310.7 49.839442,308.4 C51.139442,308.2 51.739442,308.1 55.339442,307.2 Z M48.839442,308.6 C50.439442,310.8 50.739442,313.5 49.639442,315.9 C49.639442,316 49.639442,316.1 49.639442,316.1 L47.339442,316.4 L43.139442,316.8 C44.239442,314.4 44.039442,311.6 42.839442,309.3 C44.939442,309.1 46.339442,309 48.839442,308.6 Z M41.739442,309.4 C43.039442,311.6 43.239442,314.5 42.039442,316.8 C42.039442,316.9 42.039442,316.9 42.039442,317 L30.639442,318 C31.739442,315.7 32.439442,313.1 32.739442,310.5 C33.939442,310.3 37.039442,309.7 41.739442,309.4 Z M5.53944198,307.7 C8.43944198,304 11.239442,303.2 15.939442,302.7 C21.039442,302.2 28.839442,305.6 31.839442,309.6 C31.439442,317.1 26.839442,324.1 20.139442,327.4 C15.139442,321.4 8.43944198,311.9 5.53944198,307.7 C5.43944198,307.7 5.53944198,307.7 5.53944198,307.7 Z M82.539442,339.1 C72.039442,334.6 60.939442,340.2 58.739442,350.1 L25.039442,332.6 C24.139442,332 22.539442,330.4 20.739442,328.2 C24.739442,326.1 28.039442,322.8 30.139442,318.9 C30.539442,318.9 30.639442,318.9 30.839442,318.8 L47.339442,317.4 C50.239442,317.1 40.439442,318.2 59.839442,315.9 C66.939442,323.8 80.539442,327 91.039442,328.2 C86.039442,334.6 87.639442,332.6 82.539442,339.1 Z M91.139442,327.2 C89.239442,327 87.539442,326.8 84.139442,326.2 L98.639442,311.2 C99.039442,311.4 102.339442,313.2 102.439442,313.3 L91.139442,327.2 Z M178.739442,262.3 C178.039442,262.9 177.839442,262.8 174.339442,266.6 C170.339442,271.2 164.839442,276 149.639442,296.6 C146.039442,287 140.539442,278.1 133.739442,270.6 C147.439442,258.8 163.039442,249.5 180.039442,243.1 C183.139442,241.9 186.839442,240.8 189.939442,242 C190.539442,242.2 190.839442,241.4 190.239442,241.1 C186.939442,239.8 183.139442,240.8 179.639442,242.2 C162.539442,248.6 146.939442,257.9 133.039442,269.8 C132.639442,269.5 121.139442,255.9 100.539442,248.7 C107.639442,245.7 114.939442,243.3 122.439442,241.4 C133.039442,238.7 143.539442,235.2 154.539442,233.1 C163.239442,231.4 172.339442,228.3 181.339442,227.5 C199.039442,226 207.439442,230.4 218.839442,234.9 C218.839442,234.9 218.539442,235 218.539442,235 C214.439442,235.6 210.239442,237.9 206.939442,240.4 C198.939442,246.2 192.139442,253.7 186.639442,261.7 L186.639442,261.7 C186.639442,261.7 186.639442,261.7 186.639442,261.7 C186.639442,261.7 186.639442,261.7 186.639442,261.7 C181.539442,260.3 181.039442,260.3 178.739442,262.3 Z M169.639442,293.8 C179.539442,274.1 189.539442,254.1 207.439442,241.2 C212.039442,237.8 217.539442,235.1 223.139442,235.9 C234.739442,237.4 249.339442,241.8 252.139442,253.1 C253.939442,260.5 250.839442,270.4 244.239442,274.2 C241.539442,275.7 238.339442,276.4 234.439442,276.2 C223.939442,275.7 219.739442,269.6 213.939442,267.2 C215.439442,269.7 216.439442,272.6 217.239442,275.4 C217.139442,277.3 217.639442,281.8 217.939442,285.2 C219.039442,297.4 221.339442,309.3 223.739442,320.4 C212.839442,316.1 200.739442,314.1 188.039442,315.1 C186.539442,297.1 191.839442,278.4 202.639442,263.8 C203.039442,263.3 202.239442,262.8 201.939442,263.3 C191.039442,278 185.639442,297 187.139442,315.2 C176.139442,316.2 165.239442,319.6 155.439442,325 C159.739442,312.4 163.639442,305.8 169.639442,293.8 Z M174.639442,399.8 C175.039442,395.2 176.539442,376.6 176.539442,376.5 C177.739442,376.1 178.939442,375.6 180.139442,375.2 C180.339442,378.3 181.239442,394.9 181.439442,399.5 C180.739442,399.6 178.039442,400.2 174.639442,399.8 Z M175.139442,377 C175.339442,376.9 175.439442,376.9 175.639442,376.8 C175.439442,378.8 174.139442,394.7 173.739442,399.7 C170.139442,399.2 168.239442,397.9 167.539442,397.6 L175.139442,377 Z M182.439442,399.4 C182.139442,394.5 181.239442,377.1 181.139442,374.9 C184.239442,373.8 187.339442,372.7 190.539442,371.6 C192.039442,397.3 191.739442,395.9 192.139442,396.1 C188.839442,397.6 185.539442,398.7 182.439442,399.4 Z M191.339442,371.3 C192.739442,370.8 194.039442,370.4 195.439442,369.9 C195.639442,372.8 196.639442,390.7 196.739442,393.6 C196.139442,393.9 194.839442,394.7 192.739442,395.8 C192.739442,395.6 191.339442,371.4 191.339442,371.3 Z M197.639442,393.1 C197.439442,389 196.439442,371.5 196.339442,369.6 C196.639442,369.5 195.339442,370 199.439442,368.5 L201.139442,390.8 C200.539442,391.1 199.539442,391.9 197.639442,393.1 Z M201.939442,390.2 L200.339442,368.2 L204.439442,366.8 L207.539442,385.8 C207.539442,385.8 207.539442,385.8 207.539442,385.8 C205.739442,387.3 203.839442,388.8 201.939442,390.2 Z M204.339442,365.8 C193.139442,369.7 184.139442,372.9 175.339442,376 L178.339442,336.1 C181.839442,335.4 185.439442,334.8 188.939442,334.5 C199.339442,333.4 204.939442,334.1 207.239442,334.2 L204.339442,365.8 Z M223.939442,321.6 C226.139442,332 225.139442,327 227.539442,338.4 C218.339442,333.9 210.439442,333.5 207.839442,333 C207.839442,333 207.839442,333 207.839442,333 C207.839442,333 207.839442,333 207.839442,333 C207.839442,333 207.839442,333 207.839442,333 C189.039442,331 166.939442,336.2 150.139442,344.1 C151.939442,335.8 154.639442,327.3 154.939442,326.4 C176.039442,314.5 201.139442,312.6 223.939442,321.6 Z M167.039442,398.4 C169.639442,399.9 172.339442,400.6 175.239442,400.8 C173.639442,403.1 172.339442,404.6 170.739442,406.7 C169.539442,403.9 168.139442,402.9 165.039442,402.7 C164.739442,402.7 164.539442,402.9 164.539442,403.1 C164.539442,403.4 164.739442,403.6 164.939442,403.6 C167.739442,403.8 168.739442,404.5 169.839442,407.1 C169.939442,407.2 170.039442,407.3 170.139442,407.4 C169.139442,408.8 167.639442,410.8 166.539442,412.6 C165.339442,410.3 163.439442,408.9 160.739442,408.5 C160.139442,408.4 160.039442,409.3 160.639442,409.4 C163.139442,409.8 164.939442,411.1 165.939442,413.5 C163.739442,417.1 162.039442,420.5 159.639442,423.7 C158.339442,421.4 156.639442,419.4 155.039442,417.4 C155.039442,417.4 155.039442,417.4 155.039442,417.4 C155.539442,415.7 165.539442,401 167.039442,398.4 Z M208.939442,399 C204.539442,401 200.839442,404.6 199.039442,409.1 C197.139442,414.1 197.939442,420.1 201.039442,424.4 L201.039442,424.4 L165.939442,437.9 C163.139442,438.7 159.239442,436.5 146.839442,432.8 C143.339442,431.8 137.839442,432 137.139442,428.5 C136.339442,424.8 138.039442,420.3 141.139442,417.9 C144.839442,415.1 150.439442,415 154.239442,417.9 C156.339442,420.4 158.439442,422.9 159.839442,425.9 C160.739442,427.9 162.139442,431.8 160.639442,435.6 C160.439442,436.2 161.239442,436.5 161.539442,435.9 C162.639442,433 162.539442,429.1 160.339442,424.7 C160.739442,424.2 160.839442,424.1 160.939442,423.9 C162.439442,421.8 163.739442,419.5 165.039442,417.3 C170.439442,407.9 172.539442,406.5 176.439442,400.9 C176.539442,400.9 190.339442,402.3 208.139442,386.4 C208.639442,394.2 208.439442,391.2 208.939442,399 Z M454.939442,348.9 L226.739442,330.4 C226.739442,330.3 225.839442,326.4 224.839442,321.5 C223.039442,313.3 221.339442,304.6 220.139442,295.7 L228.239442,300.9 L274.139442,278.4 L274.139442,271.4 C276.739442,269.5 279.239442,267.4 281.739442,265 C281.839442,265.1 282.339442,267.3 284.739442,269 C286.639442,270.3 288.539442,272.3 290.939442,271.9 C292.539442,273.1 294.339442,273.9 296.339442,273.9 C302.539442,273.9 307.939442,266.6 309.939442,261.9 C313.739442,253 308.139442,244.2 302.939442,236.1 C303.239442,235.6 303.539442,235.2 303.739442,234.7 C307.139442,234.9 308.439442,236.7 310.239442,239.2 C314.539442,245.2 320.939442,250 328.239442,251.2 C332.739442,251.9 338.739442,249.8 338.639442,245.3 C338.539442,241.9 336.639442,240.9 341.339442,238.3 C346.039442,235.6 349.739442,231.2 351.539442,226.1 C352.939442,221.9 351.739442,219.9 348.739442,218.7 C340.239442,215.4 328.539442,221.7 324.939442,199.9 C324.739442,198.4 324.439442,196.8 323.639442,195.5 C335.939442,166.1 343.639442,134.9 346.339442,103.1 L390.739442,103.1 L390.739442,93 L214.739442,93 L218.039442,46.5 C233.039442,48.2 454.939442,36.6 469.739442,35.8 L454.939442,348.9 Z" id="Shape"></path>
                    <path d="M273.539442,151 C275.639442,151.9 277.639442,152 278.039442,151.1 C278.439442,150.3 277.039442,148.8 274.939442,147.9 C272.839442,147 270.839442,146.9 270.439442,147.8 C270.039442,148.6 271.439442,150.1 273.539442,151 Z" id="Path"></path>
                    <path d="M259.539442,147.8 C261.439442,147.9 262.939442,147.2 263.039442,146.3 C263.039442,145.4 261.639442,144.6 259.739442,144.5 C257.839442,144.4 256.339442,145.1 256.239442,146 C256.239442,146.9 257.639442,147.7 259.539442,147.8 Z" id="Path"></path>
                    <path d="M291.339442,169.4 C291.939442,169.2 292.839442,168.9 293.239442,168 C293.239442,167.9 293.239442,167.7 293.239442,167.6 C293.339442,167.3 293.039442,167 292.839442,167 C292.839442,167 292.839442,167 292.839442,167 C291.939442,167 292.139442,166.8 292.039442,166.9 C292.239442,166.6 293.339442,166 294.039442,165.8 C294.439442,165.6 294.439442,165.1 294.039442,164.9 C292.439442,164.3 291.339442,163.6 292.639442,162.5 C293.339442,161.9 294.339442,161.5 295.339442,161.3 C295.939442,161.2 295.739442,160.3 295.139442,160.4 C293.939442,160.6 292.939442,161.1 292.039442,161.8 C290.439442,163.1 291.039442,164.5 292.739442,165.3 C292.339442,165.5 292.039442,165.7 291.739442,165.9 C290.639442,166.7 291.239442,167.7 292.339442,167.8 C292.039442,168 291.639442,168.2 291.239442,168.4 C290.439442,168.7 290.739442,169.6 291.339442,169.4 Z" id="Path"></path>
                    <path d="M258.639442,158.7 C257.039442,159.4 256.939442,161.6 258.439442,162.4 C258.939442,162.7 259.439442,161.9 258.839442,161.6 C258.039442,161.1 258.039442,159.9 258.939442,159.5 C259.539442,159.3 259.139442,158.4 258.639442,158.7 Z" id="Path"></path>
                    <path d="M264.639442,171.2 C266.539442,170.7 268.139442,169.5 269.039442,167.8 C269.339442,167.3 268.539442,166.8 268.239442,167.3 C267.439442,168.7 265.939442,169.8 264.339442,170.2 C263.839442,170.5 264.039442,171.4 264.639442,171.2 Z" id="Path"></path>
                    <path d="M269.939442,155.8 C270.839442,156 271.639442,155.5 271.839442,154.7 C272.039442,153.8 271.539442,153 270.739442,152.8 C269.839442,152.6 269.039442,153.1 268.839442,153.9 C268.539442,154.8 269.039442,155.6 269.939442,155.8 Z" id="Path"></path>
                    <path d="M260.239442,150.3 C259.339442,150.1 258.539442,150.6 258.339442,151.4 C258.139442,152.3 258.639442,153.1 259.439442,153.3 C260.339442,153.5 261.139442,153 261.339442,152.2 C261.539442,151.4 261.039442,150.5 260.239442,150.3 Z" id="Path"></path>
                    <path d="M204.339442,14.3 C208.339442,14.3 211.539442,11.1 211.539442,7.2 C211.539442,3.2 208.339442,8.8817842e-16 204.439442,8.8817842e-16 C200.539442,8.8817842e-16 197.239442,3.2 197.239442,7.1 C197.239442,11.1 200.339442,14.3 204.339442,14.3 Z" id="Path"></path>
                    <path d="M203.239442,33.2 C207.239442,33.2 210.439442,30 210.439442,26.1 C210.439442,22.1 207.239442,18.9 203.339442,18.9 C199.339442,18.9 196.139442,22.1 196.139442,26 C196.139442,29.9 199.339442,33.1 203.239442,33.2 Z" id="Path"></path>
                    <path d="M202.039442,52 C206.039442,52 209.239442,48.8 209.239442,44.9 C209.239442,40.9 206.039442,37.7 202.139442,37.7 C198.139442,37.7 194.939442,40.9 194.939442,44.8 C194.839442,48.7 198.039442,52 202.039442,52 Z" id="Path"></path>
                    <path d="M452.339442,140.1 L370.339442,140.1 C369.739442,140.1 369.739442,141 370.339442,141 L452.339442,141 C452.939442,141 452.939442,140.1 452.339442,140.1 Z" id="Path"></path>
                    <path d="M368.539442,159.6 C368.639442,159.6 415.939442,158.6 416.039442,158.6 C416.639442,158.6 416.639442,157.7 416.039442,157.7 C415.939442,157.7 368.639442,158.7 368.539442,158.7 C367.939442,158.6 367.939442,159.6 368.539442,159.6 Z" id="Path"></path>
                    <path d="M446.539442,185.1 L364.239442,183.3 C363.639442,183.3 363.639442,184.2 364.239442,184.2 C364.939442,184.2 446.639442,186 446.539442,186 C447.139442,186 447.139442,185.1 446.539442,185.1 Z" id="Path"></path>
                    <polygon id="Path" points="387.239442 258.1 421.339442 235.9 391.039442 214.2"></polygon>
                    <path d="M355.039442,264.9 L368.939442,265.8 C369.139442,268 370.839442,269.8 373.139442,269.9 C375.339442,270 377.239442,268.4 377.639442,266.3 C442.539442,270.3 441.239442,270.3 441.339442,270.3 C441.939442,270.3 441.939442,269.4 441.339442,269.4 L377.639442,265.4 C377.639442,263.1 375.739442,261.2 373.439442,261.1 C371.139442,261 369.239442,262.7 368.939442,264.9 L355.139442,264 C354.439442,263.9 354.339442,264.8 355.039442,264.9 Z" id="Path"></path>
                    <polygon id="Path" points="362.639442 284.6 370.639442 280.3 362.639442 273.5"></polygon>
                    <polygon id="Path" points="379.239442 287.1 379.239442 276 376.539442 275.6 376.539442 286.7"></polygon>
                    <polygon id="Path" points="383.839442 287.8 383.839442 276.7 381.139442 276.3 381.139442 287.4"></polygon>
                    <path d="M442.939442,318 L320.239442,309.6 C319.639442,309.6 319.539442,310.5 320.139442,310.5 C434.839442,318.4 442.739442,318.9 442.839442,318.9 C443.539442,318.9 443.539442,318 442.939442,318 Z" id="Path"></path>
                    <path d="M390.539442,328 L320.239442,323 C319.639442,322.9 319.539442,323.9 320.139442,323.9 C390.639442,328.9 390.339442,328.9 390.439442,328.9 C391.139442,328.9 391.139442,328 390.539442,328 Z" id="Path"></path>
                    <path d="M398.539442,364.3 C387.439442,408 344.739442,433.5 317.839442,429.7 C326.139442,415.2 313.839442,400.2 302.239442,407.4 C295.939442,411.3 295.739442,419.5 304.139442,425.5 C307.639442,428 311.739442,429.6 316.339442,430.4 C314.339442,433.4 311.639442,436.3 308.139442,439 C289.739442,452.9 262.339442,452.5 244.339442,438.1 C243.839442,437.7 243.239442,438.4 243.739442,438.8 C262.039442,453.4 289.839442,453.8 308.639442,439.7 C312.339442,436.9 315.339442,433.8 317.339442,430.5 C345.039442,434.7 388.239442,408.6 399.439442,364.5 C399.639442,363.9 398.739442,363.7 398.539442,364.3 Z M316.939442,429.5 C312.339442,428.7 308.239442,427.1 304.739442,424.6 C296.639442,418.8 297.139442,411.5 302.739442,408.1 C313.539442,401.5 325.139442,415.4 316.939442,429.5 Z" id="Shape"></path>
                </g>
            </g>
        </g>
    </g>
</svg>