<?xml version="1.0" encoding="UTF-8"?><svg id="Layer_1" xmlns="http://www.w3.org/2000/svg" viewBox="0 0 387.45 358.6"><defs><style>.cls-1,.cls-2,.cls-3{stroke-width:0px;}.cls-2{fill:#e190e1;}.cls-3{fill:#e190e1;}</style></defs><g id="Worldwide_Marketing"><path class="cls-3" d="m301.52,289.58c-.5,8.26-2.73,14.92-3.69,23.13-4.26,36.91-3.89,38.29-6.22,41.4-1.68,2.22-4.43,3.45-7.2,3.83-3.19.45-6.07-.33-9.17-.6-3.34-.27-6.88.21-10.27.05-6.04-.29-12.07-1.13-18.12-1.13h-20.74c8.57-3.91,7.59-11.35-3.15-13.12,16.97-3.17,14.8-13.74-.68-15.22,16.08-2.81,13.23-10.8,9.24-13.34-9.01-5.73-30.38,1.44-27.77-4.83,1.45-3.23,10.09-8.36,9.3-12.63-1.25-6.82-18.9-7.26-28.8,9.79-3.71,6.49-4.7,6.12-13.01,6.87-4.59.69-45.44,2.47-66.06.85-8.57-.45-12.43-2.92-13.75-13.42-4.21-32.65,5.69-37.26,1.45-36.87-20.75,2.37-43.2,9.02-63.01,6.37-2.23-.31-3.81-.05-3.22-3.18,6.36-36.32,45.63-80.69,102.08-95.4,3.75-.97,9.77-3.84,12.66-.12.83,1.07,1.38,2.33,2.04,3.52,3.36,6.02,10.09,10,16.99,10.03,6.9.03,13.68-3.89,17.08-9.88,1.07-1.88,1.83-3.93,3.13-5.64,3.01-3.96,7.56-2.63,11.86-2.13,21.36,2.5,42.54,8.88,60.36,20.89,25.51,17.22,40.22,46.31,45.37,75.97,1.27,7.37,3.75,17.32,3.29,24.81Z"/><path class="cls-2" d="m28.63,158.28c6.31,4.46,12.43,9.03,18.73,13.5.3.2.71.16.96-.12,8.36-9.51,17.03-18.27,26.03-26.92l11,11c.67.68,1.82.34,2.02-.59,2.24-10.45,4.73-21.24,6.33-32.1.13-.85.26-1.7.37-2.55.11-.79-.58-1.46-1.37-1.35-12.26,1.67-22.67,3.11-35.68,5.62-.95.18-1.31,1.35-.63,2.03l1.81,1.81,8.45,8.45c-.51.49-1.02.97-1.53,1.45-6.37,6.05-12.49,11.89-19.65,18.64-.27.25-.7.27-.98.01l-14.33-12.99c-.27-.24-.69-.24-.96,0L.24,170.08c-.59.54.01,1.51.75,1.2.02,0,.05-.02.07-.03,9.05-3.7,18.55-8.14,26.79-13.02.24-.14.55-.13.78.04Z"/><path class="cls-1" d="m183.72,79.1c.72,6.87,4.09,13.7,10.82,18.86,2.07,1.59,4.03,3.09,4.39,5.31.42,2.59-1.57,5.06-3.8,7.34-1.05,1.08.58,2.66,1.63,1.58,2.63-2.71,4.99-5.71,4.41-9.29-.51-3.1-3.03-5.04-5.25-6.74-6.13-4.7-9.27-10.88-9.94-17.29-.15-1.5-2.41-1.25-2.26.24Z"/><path class="cls-1" d="m165.69,88.44c-1.6.78-1.86,3.75-.57,6.63,1.29,2.88,3.63,4.59,5.23,3.81,1.6-.78,1.86-3.75.57-6.63-1.29-2.88-3.63-4.59-5.23-3.81Z"/><path class="cls-1" d="m166.49,81.95c-5.44-1.15-10.69,2.85-11.25,8.6-.15,1.5,2.11,1.71,2.26.22.43-4.41,4.42-7.47,8.52-6.59.61.12,1.21-.26,1.34-.88.13-.61-.26-1.22-.88-1.34Z"/><path class="cls-1" d="m202.76,81.75c-1.78.01-3.29,2.58-3.37,5.74-.08,3.16,1.3,5.71,3.08,5.7,1.78-.01,3.29-2.58,3.37-5.74.08-3.16-1.3-5.71-3.08-5.7Z"/><path class="cls-1" d="m206.28,76.25c-4.39-3.36-10.85-2.07-13.86,2.9-.78,1.29,1.17,2.45,1.94,1.17,2.28-3.78,7.19-4.84,10.53-2.28,1.18.91,2.58-.89,1.38-1.8Z"/><path class="cls-1" d="m176.87,120.46c-.24-1.48-2.48-1.11-2.24.37.94,5.66,6.2,10.38,12.16,10.38,5.12,0,10.07-3.41,11.8-8.26.21-.59-.1-1.24-.69-1.45-.59-.2-1.24.1-1.45.69-1.48,4.15-6.08,7.08-10.46,6.72-4.39-.39-8.4-4.1-9.12-8.45Z"/><path class="cls-1" d="m129.56,114.78c-1.41,0-2.85-.75-3.65-1.91-.86-1.23-2.72.06-1.87,1.29,1.24,1.78,3.35,2.89,5.52,2.89,1.51.04,1.52-2.27,0-2.27,0,0,0,0,0,0Z"/><path class="cls-1" d="m110.75,76.86c-4.28,2.97-7.38,7.66-8.38,12.78-2.44,12.42,7.45,22.4,12.37,20.87-2.22,9.71,7.98,20.63,23.55,15.59-.45,16.51.48,39.93.95,56.19.04,1.51,2.31,1.44,2.27-.06-.48-16.51-1.47-41.18-.9-57.71.03-.8-.77-1.39-1.54-1.1-3.37,1.3-8.42,2.52-13.38.97-4.47-1.41-8.02-5.17-8.83-9.36-.87-4.54,1.78-9.45,5.69-10.52,5.08-1.39,10.04,3.16,13.31,7.21,1.4,1.75,5.87,3.1,7.84-.36,2.98-5.23-2.6-17.59-.97-25.83,3.07-15.58,21.9-17.13,34.55-18.07,15.15-.86,19.77-1.92,27.23-7.21,7.11,21.85,12.66,43.27,8.07,66.17-1.66,8.29-4.26,17.49-10.95,22.88-9.55,7.71-25.64,9.92-43.73-.56-1.31-.75-2.43,1.21-1.14,1.96,7.5,4.34,15.66,7.21,24.22,7.38.59,6.47.42,9.62,1.08,16.24.15,1.49,2.41,1.28,2.26-.22-.64-6.41-.49-9.65-1.06-16.01,7.46-.29,14.53-2.77,19.8-7.02,7.25-5.85,10.01-15.52,11.75-24.2,1.8-8.99,2.16-18.76,1.06-29.04-1.56-14.61-5.21-25.98-9.43-38.98,1.42-1.05,2.29-1.7,3.04-2.24,12.08-8.7,17.61-23.24,15.12-37.18-4.1-22.89-26.86-25.58-38.55-7.99-2.87,4.32-5.21,9.6-6.75,13.5-6.58-15.44-26.07-18.85-37.59-7.92-5.12,4.86-8.23,13.4-7.8,20.65-13.68-10.58-34.22.16-31.86,20.97.8,7.05,4.93,13.35,8.7,18.21ZM205.9,13.27c-.44-.45-.42-1.16.03-1.6.45-.42,1.18-.41,1.6.05,7.91,8.3,7.44,21.17-.38,28.95-1.05,1.05-2.67-.54-1.6-1.6,7.19-7.16,7.16-18.63.35-25.79Z"/><path class="cls-1" d="m311.33,222.46c9.92,1.94,16.18,11.96,13.56,21.73-.39,1.45,1.8,2.04,2.19.59,2.96-11.03-4.1-22.36-15.31-24.55-1.48-.28-1.9,1.94-.44,2.23Z"/><path class="cls-1" d="m293.57,141.65c5.31-2.02,5.48-8.55,1.21-11.09-1.35-.81-3.3-1.12-3.96-2.11-.62-.92-.63-2.9-2.27-3.79-1.56-.85-3.96-.25-5.12,2.89-2.33,6.34,2.56,16.99,10.14,14.11Zm-7.09-14.8c.31-.24.74-.33.98-.2.61.33.69,1.89,1.47,3.06,1.18,1.77,3.33,1.99,4.69,2.8,1.29.77,2.08,2.41,1.87,3.9-.43,3.01-4.65,4.51-6.93,2.58-4.15-3.51-4.14-10.51-2.08-12.14Z"/><path class="cls-1" d="m364.85,120.93s-.07-.03-.1-.05c1.81-8.33,1.52-16.99-.57-24.84,13.18-14.41,21.05-26.79,17.1-31.58-4.21-5.11-18.76,1.71-30.36,8.43-20.97-21.52-55.6-20.81-75.86.74-.01,0-.02-.02-.04-.02-12.29-4.12-27.6-7.81-30.68-2.05-2.63,4.91,5.28,13.95,18.32,24.09-4.21,15.06-1.55,31.17,7.44,43.99-8.59,9.92-17.78,22.62-13.63,27.67,5.25,6.38,26.62-6.12,33.63-10.37,6.08,2.99,12.75,4.8,19.71,5.25,0,.16,1.56,43.14.83,46.99-.61,3.1-2.26,3.28-3.43,1.82-.55-.65-.89-1.55-1.32-2.59-3.38-7.96-10.62-14.53-14.81-15.31-1.92-.36-3.79.21-4.89,1.47-5.18,5.92,9.45,20.39,10.77,35.26.72,6.91,1.16,15.33,7.82,18.52,1.72.82,1.87,1.46,1.5,4.15-.14,1.15-5.28,38.03-6.04,43.53l-35.58,59.82-35.33-.15c4.95-3.58,5.4-9.41-1.87-12.46,5.27-1.58,9.4-4.48,8.08-9.82-.57-2.32-3.51-4.38-7.71-5.6.28-.09.55-.18.83-.27,9.7-3.28,7.8-11.15,3.45-13.92-3.61-2.29-8.53-1.99-12.88-2.29-8.45-.6-9.32.28-13.17-.03-3.07-.24-1.1-1.51,5.53-8.43,1.45-1.46,3.09-3.11,2.56-5.96-1.15-6.29-10.71-6.04-16.4-3.85-5.58,2.17-10.87,7.01-14.51,13.28-2.72,4.31-2.63,5.69-10.35,6.17-21.05,1.33-25.84,1.49-61.37,2.02-1.75-12.72-12.28-45.64-16.11-61.6-.06,2.92-.11,5.82-.17,8.74-.05,2.36.62,4.9.24,7.25-.31,1.95-2.3,2.59-4.12,3.11-.36-1.21-2.08-.98-2.21.2-1.29,11.41-1.45,20.95-.5,29.19.48,3.97,1.75,14.52,9.98,15.13,9.31.68,47.89-.09,74.4-1.76,7.83-.49,9.13-1.93,12.17-7.31,3.33-5.74,8.33-10.34,13.36-12.29,4.02-1.55,12.52-2.37,13.35,2.14.36,1.93-.91,2.86-2.49,4.5-5.94,6.24-6.21,6.3-6.75,7.49-.45,1.08-.34,2.25.3,3.05.83,1.03,2.17,1.14,2.9,1.19,1.72.14,3.39.03,5.02-.07,6.28-.4,8.67.37,13.3.35,4.25.36,8.5,1.22,9.15,5.47.76,4.99-6.29,6.63-11.27,7.5h-14.71c-1.5,0-1.5,2.27,0,2.27.16,0,15.08,0,14.92,0,6.97.69,10.66,3.27,11.06,4.89,1.25,5.07-4.87,6.92-10.04,7.95h-14.63c-1.5,0-1.5,2.27,0,2.27h13.86c.08.03.15.07.23.08,4.69.77,7.17,2.89,7.64,4.05,1.45,3.56-2.9,6.03-4.58,6.83-17.22.78-92.94.18-171.61.3-13.08-8.79-18.52-23.42-19.6-39.23-1.12-16.31-.21-27.25,1.22-42.37.06-.64-.44-1.3-1.23-1.21l.14-1.54-8.55-1.56,6.96,8.51c-1.09,11.89-1.87,22.91-.82,38.33,1.44,21.01,9.88,33.87,20.9,41.15.19.12.4.19.63.19h0c107.56-.2,321.18.9,321.02.9,1.5,0,1.5-2.26,0-2.27l-17.06-.08c-.47-9.02-13.65-97-13.62-102.73,0-1.46.25-2.18,1.04-3.08,2.69-3.05,5.92-13.06,7.04-16.92,3.67-2.55,9.14-11.63,10.18-19.7.96-7.13-3.79-9.67-8.09-7.55.56-3.5.47-7.37-2.32-9.63-2.15-1.77-5.2-1.6-7.48-.5.01-2.99-.84-5.23-2.58-6.66-2.57-2.11-6.18-1.46-8.43.04-1.67,1.11-2.87,2.65-3.87,4.3-.01-.15-2.27-30.99-2.76-33.31,10.2-2.72,19.02-8.31,25.76-15.91,7.67,2.74,30.38,10.42,34.21,3.26,3.38-6.32-10.14-18.13-22.08-26.93Zm-12.83,20.98c-4.85-1.76-10.12-3.87-15.73-6.32,4.13-5.32,13.58-.1,15.58-15.42.45-3.46.67-7.2,2.54-9.95,1.14-1.67,3.4-3.38,5.41-3.38.8,0,1.66.22,2.61.67.5.23.81.63,1.24,1.18.59,10.33-3.62,23.56-11.66,33.21Zm-9.63,8.91c-4.44-3.26-8.97-8.01-7.17-13.23,5.23,2.29,10.34,4.37,15.19,6.16-2.33,2.54-4.74,4.74-8.02,7.06Zm21.09-45.3c-2.04-1.03-4.3-1.29-6.44-.32-6.13,2.79-6.69,8.69-7.42,14.68-1.89,14.42-10.42,7.39-15.43,14.8-2.54-1.13-5.15-2.33-7.81-3.59,12.32-9.95,25.31-21.69,35.93-33.03.57,2.44.97,4.92,1.17,7.46Zm-96.43,23.94c7.82-1.44,12.99-9.92,11.81-17.74-.26-1.69-.73-3.51-.8-5.12,12.93,8.53,28.13,17.23,44.1,24.97-11.77,9.35-22.72,17-32.15,22.77-10.5-5.5-18.53-14.48-22.96-24.87Zm-2.43-32.32c3.46,2.62,7.23,5.3,11.24,7.99-.29,2.32.45,4.87.76,6.93,1.05,6.94-3.7,14.31-10.44,15.25-3.51-9.36-4.27-19.75-1.55-30.17Zm18.15-27.4c1.78,1.52,3.69,3.6,5.68,6.2,3.23,4.29,4.8,8.99,4.41,13.23-.47,4.85-3.81,9.11-7.95,10.11-2.95.72-6.48.38-8.33,3.59-4.14-2.81-7.92-5.52-11.29-8.11,3.1-9.92,9.16-18.68,17.48-25.04Zm-4.3,34.42c1.15-2.3,4.17-1.98,6.97-2.67,5.13-1.25,9.11-6.22,9.67-12.1-.03-.25,1.13-6.87-4.86-14.82-1.95-2.54-3.82-4.6-5.61-6.19,5.87-4.08,12.53-6.86,19.47-8.14-1.34,3.41.33,8.19,6.71,10.92,1.45.62,2.42,1.09,2.67,2.04.33,1.29-.93,2.6-2.56,4.37-4.04,4.38-5.42,10.89-3.52,16.58,2.95,8.75,13.02,13.23,19.1,10.6,2.24-.96,3.86-3,4.12-5.2.35-3.01-1.74-5.84-.81-7.84.83-1.79,3.67-1.9,5.91-1.11,4.94,1.76,10.73,5.95,16.31-5.21.94-1.83,1.63-3.46,2.17-4.99,3.34,4.61,5.83,9.68,7.41,15.06-11.19,12.15-24.7,24.25-37.52,34.56-15.08-7.27-31.42-16.37-45.63-25.84Zm74.08-26.01c-.51,1.85-1.32,3.83-2.52,6.19-1.22,2.44-3.18,5.73-6.17,6.18-2.35.35-4.74-1.16-7.36-2.08-3.26-1.16-7.31-.74-8.73,2.29-1.39,3.01.9,6.08.61,8.53-.17,1.41-1.25,2.74-2.77,3.39-4.66,2.02-13.45-1.51-16.05-9.23-1.61-4.84-.39-10.59,3.05-14.33,1.78-1.93,3.73-3.9,3.07-6.47-1.1-4.1-6.93-2.94-9.2-7.94-.86-1.88-.7-3.48.49-4.89,16.81-2.25,34.25,4.26,45.57,18.36Zm26.98-12.25c2.53,3.07-3.45,13.51-16.13,27.6-2.29-7.09-5.9-13.33-10.88-18.9,17.05-9.82,25.14-10.96,27.01-8.7Zm-133.18,6.73c1.35-2.51,9.19-3.04,27.07,2.84-4.48,5.24-7.88,11.31-10.03,17.83-12.44-9.81-18.74-17.5-17.04-20.67Zm11.89,93.24c-1.84-2.23.73-9.8,13.25-24.34,4.46,5.89,10,10.68,16.26,14.17-15.89,9.46-27.01,13.2-29.5,10.17Zm66.18-33.21c2.92,1.39,5.84,2.74,8.72,4.03-2.25,6.12,2.06,11.46,7.23,15.46-15.16,9.7-33.27,10.08-47.95,3.38,10.14-6.32,21.29-14.33,32-22.87Zm34.65,75.75c2.34,1.94.94,6.87.06,9.77-1.2,3.99-3.17,7.81-5.69,11.05-.83,1.06-1.75,2.13-2.9,2.76-1.09.6-2.62.83-3.29.18-.65-.63-.51-1.97-.39-3.12.2-1.92.54-3.84.98-5.71,2.51-3.99,4.49-8.49,5.81-13.58,1.99-2.26,4.3-2.26,5.42-1.34Zm-8.42-10.01c1.52,1.24,2.07,3.55,1.62,6.89-.25,1.92-.78,3.78-.75,3.62-2,8.02-5.55,13.05-5.77,13.5-1.43,2.24-3.85,5.7-6.2,6.98-1.49.82-3.62,1.15-4.64.18-.96-.93-.76-2.79-.6-4.3.17-1.62.44-3.35.8-5.26.81-1.26,5.11-6.23,7.82-15.15.53-1.74,1.1-3.75,1.42-5.84,2.21-1.84,4.91-1.74,6.29-.6Zm-12.56-7.99c3.72,0,4.63,3.77,4.11,7.72-1.42,10.82-8.86,21.98-12.72,24.1-1.48.82-3.62,1.16-4.65.17-.95-.92-.75-2.76-.59-4.3.79-7.43,2.92-14.56,6.34-21.2,1.66-3.21,3.86-6.49,7.5-6.49Zm-10.35,7.17c-3.06,6.4-5,13.22-5.75,20.33-.2,1.87-.47,4.44,1.28,6.13,1.86,1.8,5.05,1.43,7.31.19.63-.35,1.2-.78,1.74-1.23-.42,2.95-1.01,6.24,1.02,8.21,1.86,1.79,5.05,1.42,7.3.18,1.71-.92,3.02-2.34,4.12-3.7-.28,2.13-.72,4.54.91,6.13.81.78,2.1,1.24,3.92.89-.95,3.08-3.86,11.8-6.02,14.25-1.33,1.51-1.6,2.87-1.61,4.56-.03,5.94,13.1,93.59,13.62,102.73l-61.38-.27c8.6-61.81,14.2-101.95,14.34-103.18.45-3.29.12-5.11-2.77-6.49-5.54-2.63-6-10.93-6.54-16.67-1.27-14.42-14.8-29.59-11.32-33.57.57-.65,1.65-.94,2.76-.73,2.77.52,9.71,5.88,13.14,13.97.48,1.15.89,2.23,1.66,3.14,2.2,2.74,6.37,2.47,7.41-2.83.84-4.46-.8-47.14-.79-47.31,4.21.1,8.28-.25,12.65-1.22.57,2.77,2.85,35.75,2.99,36.5Zm57.18-50.79c-1.84,3.44-13.36,1.99-30.64-4.07,4.62-5.73,7.98-12.35,9.88-19.47,17.56,13.05,22.26,20.71,20.75,23.53Z"/><path class="cls-1" d="m65.12,138.5c.51-.48,1.02-.97,1.53-1.45l-8.45-8.45c-.09.02-.18.03-.28.05-.95.18-1.31,1.35-.63,2.03l7.83,7.82Z"/><path class="cls-1" d="m29.53,162.16c6.31,4.46,12.43,9.03,18.73,13.5.3.2.71.16.96-.12,8.36-9.51,17.03-18.27,26.03-26.92l11,11c.67.68,1.82.34,2.02-.59,2.41-11.26,5.13-22.93,6.7-34.65.1-.75-.53-1.38-1.28-1.34-1.61,10.86-4.1,21.65-6.33,32.1-.2.93-1.35,1.27-2.02.59l-11-11c-9,8.65-17.67,17.41-26.03,26.92-.24.28-.66.32-.96.12-6.3-4.47-12.42-9.04-18.73-13.5-.22-.17-.53-.18-.78-.04-8.25,4.88-17.74,9.32-26.79,13.02-.16,1.4.12,3.81.69,3.57,9.07-3.71,18.74-7.82,27.01-12.7.24-.14.55-.13.78.04Z"/><path class="cls-3" d="m95.27,261.67c-.05,2.36.62,4.9.24,7.25-.4,2.47-3.47,2.87-5.96,3.66h-.02c-20.5,5.98-41.55,5.36-58.14.21-1.82-.56-4.18-.92-4.93-2.83-.56-1.54-.11-3.11.36-4.7,1.75-5.85,3.57-11.75,6.63-17.05.42-.74.88-1.48,1.51-2.07.92-.84-1.98-.07,40.51-8.43,21.27-4.17,19-3.83,19.26-3.78,1.92.36.98,4.24.94,6.11,0,.48-.39,20.71-.41,21.63Z"/><path class="cls-2" d="m382.44,85.61c-6.2,4.26-14.84-.17-14.84-7.83,0-8.99,11.41-12.91,16.94-5.87,3.36,4.25,2.47,10.56-2.1,13.7Z"/><path class="cls-3" d="m272.97,173.97c-3.83-.19-7.05-2.66-8.36-6-2.44-6.19,2.13-12.95,8.83-12.95,5.21,0,9.36,4.18,9.48,9.22.47,4.74-4.04,10.05-9.95,9.73Z"/><path class="cls-2" d="m255.46,89.13c-6.2,4.26-14.84-.17-14.84-7.83,0-8.97,11.39-12.94,16.94-5.87,1.23,1.55,1.97,3.49,2.03,5.6.26,2.59-1.23,6.11-4.13,8.09Z"/><path class="cls-3" d="m377.06,155.29c-4.16,2.85-9.96,1.96-13.02-2.25-4.57-6.19-.1-15.07,7.67-15.07,9.28,0,13.04,12.05,5.35,17.32Z"/></g></svg>