<?xml version="1.0" encoding="UTF-8"?>
<svg width="1067px" height="300px" viewBox="0 0 1067 300" version="1.1" xmlns="http://www.w3.org/2000/svg" xmlns:xlink="http://www.w3.org/1999/xlink">
    <title>logo-black 2</title>
    <g id="logo-black" stroke="none" stroke-width="1" fill="none" fill-rule="evenodd">
        <g id="logo" transform="translate(1.000000, 45.000000)" fill-rule="nonzero">
            <g id="289-01">
                <path d="M56.7589767,205.638991 C22.7275349,184.98388 0,147.642809 0,105 C-0.0368049972,81.9059851 6.76669199,59.315904 19.5562929,40.067003 C22.5577684,64.3119446 33.0796421,87.0146862 49.6503141,105 L49.6503141,105 L49.8019109,105.155332 C50.9122553,106.357114 52.0430859,107.546632 53.2107912,108.711625 C54.3784966,109.876617 55.5707852,111.00482 56.7753655,112.112585 L95.8627667,151.109172 C102.201153,157.432833 105.392881,165.12587 105.392881,174.069741 L105.392881,177.405298 C105.392881,189.525308 99.2470637,199.924398 88.6311877,205.8025 C78.3881581,211.463953 66.8094374,211.386288 56.7630739,205.64308 L56.7589767,205.638991 Z" id="Path" fill="#09B1BA"></path>
                <path d="M49.6503141,105 C33.0796421,87.0146862 22.5577684,64.3119446 19.5562929,40.067003 C29.1787165,25.5842565 41.8787724,13.3923944 56.7548794,4.35692044 C66.8053401,-1.3658492 78.4004497,-1.46395382 88.6270905,4.19750042 C99.2511609,10.0756024 105.388784,20.4746923 105.388784,32.594701 L105.388784,35.9179949 C105.388784,44.853691 102.201153,52.5426408 95.8750583,58.8663012 L49.6503141,105 Z" id="Path" fill="#056D73"></path>
                <path d="M179.241028,4.35692044 C213.27247,25.0079434 236,62.353103 236,105 C236.03649,128.092694 229.232987,150.681377 216.443711,169.928909 C213.442212,145.685182 202.920284,122.983752 186.349691,105 L186.349691,105 L186.198093,104.848755 C185.087749,103.646974 183.95692,102.457455 182.789214,101.292463 C181.621509,100.12747 180.429219,98.9951795 179.224639,97.8915025 L140.124946,58.8908273 C133.78656,52.5671669 130.594832,44.8741294 130.594832,35.9302581 L130.594832,32.594701 C130.594832,20.4746923 136.740649,10.0756024 147.356525,4.19750042 C157.599555,-1.46395382 169.178276,-1.38628766 179.224639,4.35692044 L179.241028,4.35692044 Z" id="Path" fill="#09B1BA"></path>
                <path d="M186.349691,105 C202.918745,122.98155 213.440566,145.679891 216.443711,169.920733 C206.822479,184.405566 194.12224,196.599 179.245126,205.634903 C169.194664,211.357673 157.599555,211.455779 147.372914,205.794323 C136.748844,199.916221 130.611221,189.517132 130.611221,177.397123 L130.611221,174.082005 C130.611221,165.146309 133.798851,157.453271 140.124946,151.133699 L186.349691,105 Z" id="Path" fill="#056D73"></path>
            </g>
            <g id="Group" transform="translate(280.000000, 57.000000)" fill="#FAFAFA">
                <path d="M116.785782,4.37808012e-10 L142.909091,4.37808012e-10 L142.909091,4.38120816 C142.909091,24.0194251 142.909091,43.6576419 142.909091,63.295859 C142.909091,96.1833693 116.624477,124.258867 84.0328474,125.713851 C73.9709628,126.246908 63.8838274,126.035001 53.8527235,125.079835 C25.0033642,122.088584 0.662473398,95.297374 0.178559069,66.1814413 C-0.176311439,44.795618 0.105971921,23.3935381 0.114037159,1.99145825 C0.114037159,1.47124059 0.218885264,0.951022921 0.307602892,0.15443962 L26.04378,0.15443962 L26.04378,4.54377618 C26.04378,23.2390987 26.1324976,41.934421 26.04378,60.6297434 C25.9631277,72.9523993 29.8667033,83.3892663 39.1014016,91.7371338 C44.462672,96.6339792 51.2128354,99.7128254 58.4015181,100.540192 L58.4015181,72.903629 L84.3554569,72.903629 L84.3554569,100.336982 C100.332695,98.9957961 114.196841,85.1856428 116.245411,69.0101248 C116.618103,65.9193948 116.801263,62.8084378 116.793847,59.6949772 C116.842239,41.5523861 116.793847,23.4016666 116.793847,5.23469027 L116.785782,4.37808012e-10 Z" id="Path"></path>
                <path d="M154.056197,4.38262759e-10 L180.220619,4.38262759e-10 L180.220619,4.42713514 C180.220619,24.052747 180.124013,43.686482 180.301125,63.3120937 C180.446036,79.3391354 190.412669,93.4815983 204.774924,98.6316966 C228.701283,107.217902 253.650067,89.7449341 254.1009,63.7751153 C254.430975,44.2794745 254.189457,24.7838336 254.205558,5.28819262 L254.205558,0.138094124 L280.321678,0.138094124 L280.321678,4.67083064 C280.321678,24.1664716 280.321678,43.6621125 280.321678,63.1577536 C280.321678,99.3384137 249.367153,127.818296 213.501766,125.909348 C182.104458,124.244095 152.921063,96.162249 153.927387,61.3706529 C154.531181,41.0870633 154.056197,20.7791041 154.056197,4.38262759e-10 Z" id="Path"></path>
                <path d="M318.163304,72.6426814 L318.163304,126 L291.314685,126 L291.314685,0.382555999 L318.098375,0.382555999 L318.098375,46.9644714 C324.063832,46.9644714 329.558547,47.1190125 335.028913,46.8343316 C336.116493,46.7773955 337.358283,45.2075841 338.129328,44.093262 C347.398108,30.4285829 356.596546,16.7286573 365.724643,2.99348577 C366.82721,0.979127599 369.017717,-0.187184396 371.300521,0.0246715438 C380.43944,0.195480033 389.586477,0.0897414449 399.545139,0.0897414449 L365.456807,50.9500029 C397.970582,65.5419283 410.161219,91.2282714 405.932644,125.943064 L379.798255,125.943064 C379.798255,120.436524 379.879418,114.938117 379.798255,109.447844 C379.790729,98.9967093 375.367387,89.0375439 367.623851,82.0371482 C362.242765,77.0023646 356.017586,73.1876418 348.664246,72.7809548 C338.762396,72.2197267 328.779385,72.6426814 318.163304,72.6426814 Z" id="Path"></path>
                <path d="M496.825625,101.833592 L555.146853,101.833592 L555.146853,125.936898 L551.605977,125.936898 C527.788433,125.936898 503.970888,126.10721 480.200977,125.888236 C455.398975,125.669263 436.456088,114.2502 425.174511,91.9311229 C413.718272,69.2795305 415.504587,46.3765239 430.446128,25.8092347 C457.907756,-11.9515298 515.308039,-8.34252201 537.283694,37.0660947 C537.895011,38.3231649 537.505991,40.7318735 536.680316,41.9808334 C524.469855,60.4313788 512.068854,78.7764923 499.786939,97.1297164 C498.91363,98.4597772 498.111773,99.8060588 496.825625,101.833592 Z M466.339167,99.0031561 C480.275077,78.2898846 494.107778,57.7442222 507.83727,37.3661695 C498.675454,25.9065561 482.79709,21.4784254 468.784436,26.2634019 C454.414517,31.1700304 444.030066,45.6222817 443.379054,61.5830171 C442.677178,77.7182769 451.817596,92.615229 466.339167,99.0031561 L466.339167,99.0031561 Z" id="Shape"></path>
                <path d="M655.426381,4.38205916e-10 L680.791678,4.38205916e-10 C684.342821,34.3517678 676.669817,65.2765187 637.092024,79.4660016 C636.226484,79.801562 635.328175,80.0395788 634.412814,80.175884 C631.828721,80.4614689 631.043985,81.807797 631.075689,84.4922937 C631.226299,97.0009066 631.139102,109.517679 631.131176,122.026292 L631.131176,126 L604.798825,126 L604.798825,121.438803 C604.798825,109.199456 604.703702,96.9601089 604.862238,84.7207615 C604.862238,81.8893924 604.069571,80.8694471 601.390361,80.0453308 C576.881137,72.3834994 560.599785,56.2357207 555.970619,29.8966455 C554.290167,20.3336356 555.701114,10.1912965 555.701114,0.0652765191 L580.828611,0.0652765191 C580.828611,6.59292835 580.717643,13.1205802 580.828611,19.5666364 C581.050561,30.6799637 584.633412,40.4551224 593.035664,47.7089755 C605.18723,58.2103356 619.035098,60.1359925 633.461612,53.8776064 C647.531429,47.7742521 654.863588,36.2937443 655.362968,20.4723482 C655.600763,13.7080689 655.426381,6.93563011 655.426381,4.38205916e-10 Z" id="Path"></path>
                <path d="M761.485638,0.438125528 L761.485638,24.8839539 L753.493529,24.8839539 C745.114582,24.8839539 736.727902,24.7866571 728.348956,24.9488185 C722.745308,25.0352017 717.896068,29.0561932 716.527136,34.7514741 C715.12052,40.3303438 717.621886,46.1811988 722.53089,48.7946496 C724.499045,49.7704279 726.643852,50.2929631 728.820901,50.3270747 C735.64475,50.5297766 742.484077,50.47302 749.315664,50.4405878 C769.044483,50.3595071 785.50838,66.7459147 785.988061,86.9917635 C786.483214,107.74842 771.520257,125.099688 751.636701,125.715901 C732.828557,126.283466 713.989466,125.829415 695.158116,125.80509 C694.59827,125.743373 694.044409,125.632168 693.502441,125.472659 L693.502441,101.124128 L697.703519,101.124128 C714.979777,101.124128 732.256034,101.124128 749.540032,101.124128 C755.147581,101.270183 760.159931,97.479746 761.795108,91.8566049 C763.342467,86.6836568 761.67132,80.7323339 757.153036,77.9918064 C754.460705,76.4747215 751.472861,75.6232733 748.418195,75.5026294 C741.733607,75.1377662 735.018072,75.4377651 728.302537,75.3729003 C708.72071,75.1620902 692.922182,59.1567622 692.566289,39.324425 C692.194923,17.9920952 706.964462,0.940825812 726.909911,0.202991523 C737.857472,-0.202411932 748.828245,0.121910833 759.783541,0.138126971 C760.357327,0.192922626 760.926319,0.2932093 761.485638,0.438125528 Z" id="Path"></path>
            </g>
        </g>
    </g>
</svg>