<?xml version="1.0" encoding="UTF-8"?>
<svg width="300px" height="300px" viewBox="0 0 300 300" version="1.1" xmlns="http://www.w3.org/2000/svg" xmlns:xlink="http://www.w3.org/1999/xlink">
    <title>Artboard</title>
    <g id="Artboard" stroke="none" stroke-width="1" fill="none" fill-rule="evenodd">
        <g id="Group" transform="translate(59.000000, 57.000000)" fill-rule="nonzero">
            <path d="M72.6081378,143 L84.3311894,143 C85.9001778,143 87.0760504,141.576355 86.7839355,140.039673 C86.2080452,137.00926 85.8380947,132.166673 88,128 L71,128 L72.6081378,143 Z" id="Path" fill="#e190e1"></path>
            <path d="M74.0834472,186 L64.3195991,186 C61.6881435,186 59.3731356,184.276923 58.6390442,181.77207 L42,125 L72.5120253,125 L79.9453616,179.348348 C80.4267035,182.867653 77.6664093,186 74.0834472,186 Z" id="Path" fill="#DDE3E8"></path>
            <path d="M31,117 L26.8711017,117 C12.0306054,117 0,105.135543 0,90.5 L0,90.5 C0,75.8644574 12.0306054,64 26.8711017,64 L31,64 L31,117 Z" id="Path" fill="#e190e1"></path>
            <path d="M156,117 C170.3594,117 182,105.135543 182,90.5 L182,90.5 C182,75.8644574 170.3594,64 156,64 L156,117 L156,117 Z" id="Path" fill="#e190e1"></path>
            <path d="M103,131 L42.2993541,131 C34.9543085,131 29,125.038886 29,117.685446 L29,64.314554 C29,56.9611137 34.9543085,51 42.2993541,51 L103,51 L103,131 Z" id="Path" fill="#e190e1"></path>
            <path d="M143.860987,179.357667 L96,130.990582 L96,51.0093881 L143.860987,2.64230348 C149.407847,-2.96327467 159,0.941978083 159,8.80577488 L159,173.194314 C159,181.058111 149.407847,184.963245 143.860987,179.357667 Z" id="Path" fill="#DDE3E8"></path>
        </g>
    </g>
</svg>