<?xml version="1.0" encoding="UTF-8"?>
<svg width="521px" height="521px" viewBox="0 0 521 521" version="1.1" xmlns="http://www.w3.org/2000/svg" xmlns:xlink="http://www.w3.org/1999/xlink">
    <title>rounded-logo-gradient</title>
    <g id="rounded-logo-gradient" stroke="none" stroke-width="1" fill="none" fill-rule="evenodd">
        <rect id="Rectangle" fill="#F6F6F6" x="0" y="0" width="522" height="522" rx="261"></rect>
        <path d="M172.820535,406.212538 C124.06252,376.433142 91.5,322.59685 91.5,261.116805 C91.4472682,227.821131 101.194872,195.252001 119.518972,167.5 C123.819289,202.455016 138.894339,235.186574 162.63571,261.116805 L162.63571,261.116805 L162.852908,261.340754 C164.443736,263.073417 166.063916,264.788399 167.736928,266.468021 C169.409939,268.147642 171.118172,269.774223 172.844016,271.371337 L228.845877,327.594461 C237.927102,336.711565 242.5,347.802961 242.5,360.69774 L242.5,365.506761 C242.5,382.980721 233.694676,397.973554 218.484946,406.448276 C203.809406,414.610647 187.220175,414.498673 172.826405,406.218433 L172.820535,406.212538 Z" id="Path" fill="#09B1BA" fill-rule="nonzero"></path>
        <path d="M162.976061,261.5 C139.036836,235.633539 123.836155,202.982477 119.5,168.113424 C133.401269,147.284352 151.748714,129.750027 173.239844,116.755217 C187.759487,108.524735 204.510645,108.383641 219.284811,116.525939 C234.633133,124.97982 243.5,139.935781 243.5,157.366767 L243.5,162.146325 C243.5,174.997635 238.894911,186.055875 229.755764,195.150557 L162.976061,261.5 Z" id="Path" fill="#056D73" fill-rule="nonzero"></path>
        <path d="M349.188951,116.781718 C397.941283,146.555937 430.5,200.399419 430.5,261.886836 C430.552274,295.181407 420.805798,327.749304 402.4843,355.5 C398.18445,320.545893 383.11108,287.815439 359.37259,261.886836 L359.37259,261.886836 L359.155416,261.668775 C357.564773,259.936071 355.944784,258.221047 354.271967,256.541385 C352.599151,254.861723 350.891116,253.22921 349.165474,251.637951 L293.152531,195.407581 C284.072365,186.290258 279.5,175.198595 279.5,162.303506 L279.5,157.494368 C279.5,140.019989 288.304298,125.026796 303.512255,116.55187 C318.186084,108.389302 334.773382,108.501279 349.165474,116.781718 L349.188951,116.781718 Z" id="Path" fill="#09B1BA" fill-rule="nonzero"></path>
        <path d="M359.02394,261.5 C382.960827,287.363062 398.161433,320.010337 402.5,354.876209 C388.600453,375.709905 370.252743,393.247856 348.760157,406.244296 C334.240512,414.475418 317.489355,414.616525 302.715189,406.473591 C287.366867,398.019052 278.5,383.061926 278.5,365.629584 L278.5,360.861413 C278.5,348.009102 283.105089,336.944121 292.244236,327.854609 L359.02394,261.5 Z" id="Path" fill="#056D73" fill-rule="nonzero"></path>
    </g>
</svg>